<?xml version="1.0" encoding="utf-8"?>
<!-- Generator: Adobe Illustrator 27.8.1, SVG Export Plug-In . SVG Version: 6.00 Build 0)  -->
<svg version="1.1" baseProfile="tiny" id="Layer_1" xmlns="http://www.w3.org/2000/svg" xmlns:xlink="http://www.w3.org/1999/xlink"
	 x="0px" y="0px" viewBox="0 0 640 320" overflow="visible" xml:space="preserve">
<g>
	<path fill="#777777" d="M372.6,221.5H297c-0.4,0-0.7-0.3-0.7-0.7v-3.3c0-0.4,0.3-0.7,0.7-0.7h75v-21.7c0-0.4,0.3-0.7,0.7-0.7h2.2
		v-15.7c0-4.9-4.9-5.8-5.5-5.9H300c-6.5,0-7,5.4-7.1,5.9V218c0,0.4-0.3,0.7-0.7,0.7h-3.3c-0.4,0-0.7-0.3-0.7-0.7
		c0-1.1-0.1-3-0.2-5.3c-0.2-4.4-0.5-10.5-0.7-16.8c-3.1-0.4-6.9,0.2-10.5,0.8c-2.3,0.4-4.4,0.7-6.3,0.8c-6.9,0.3-14-0.4-20.8-1.1
		l-1.3-0.1c-0.7-0.1-1.4-0.1-2.2-0.2c-5.4-0.5-11.5-1-15-5.8c-3.4-4.8-2.8-13.1-0.4-19c-4.3,6.6-5.9,13.7-3.8,18.4
		c1.3,3,4.1,4.7,7.9,4.8c0.4,0,0.7,0.3,0.7,0.7l0,0c0,0.4-0.3,0.7-0.7,0.7l-12.6-0.2H172c-0.3,0-0.5-0.1-0.6-0.4l-29.8-55.4l-3,1.2
		c-0.2,0.1-0.5,0.1-0.6-0.1c-0.2-0.1-0.3-0.3-0.3-0.6l0.1-6.3l-3.3,3.3l31.6,57.1c0.1,0.2,0.1,0.5,0,0.7s-0.3,0.3-0.6,0.3h-38.4
		c-0.4,0-0.7-0.3-0.7-0.7s0.3-0.7,0.7-0.7h37.2L133,137.5c-0.1-0.3-0.1-0.6,0.1-0.8l4.9-4.9c0.2-0.2,0.5-0.3,0.8-0.1
		c0.3,0.1,0.4,0.4,0.4,0.6l-0.1,7l1.9-0.8l-1.4-2.6c-0.2-0.3-0.1-0.7,0.2-0.9l43.7-27.4l-0.7-1.6c0-0.1-0.1-0.2,0-0.4
		c0-0.2,0.7-4.1,3.5-6.1c1.4-1,3.1-1.3,5-1c3.7,0.7,4.6,2.8,5.4,4.7c0.7,1.7,1.4,3.2,4,3.9c3.3,0.9,7.1,1.7,9.7,2.2l1.7-3.5
		c0.2-0.3,0.5-0.5,0.9-0.3l3.8,1.5c4.8-2.2,8.9-2.4,12.4-0.6c6.3,3.3,7.9,11.9,7.9,12.3c0,0.2,0,0.4-0.1,0.6s-0.3,0.2-0.5,0.2h-25.3
		c-0.4,0-0.7-0.3-0.7-0.7c0-2.9,1.6-6.1,2.5-7.7c-0.4-0.1-1-0.2-1.7-0.3l-1.5,3c-0.1,0.3-0.4,0.4-0.7,0.4l-20-3.7
		c-0.2,0-0.4-0.2-0.5-0.3l-1.7-3l-1.7,1.1l1.4,3.4c0.1,0.3,0,0.7-0.3,0.8l-40,25.3c0,0-0.1,0-0.1,0.1l-3.3,1.4l29.6,54.9h49.9l7,0.1
		c-1.6-0.9-2.8-2.3-3.6-4.1c-2.8-6.3,0.3-16.2,7.3-24.2c0.8-0.9,1.5-1.6,2.2-2.3c0.7-0.9,1.3-1.8,2-2.6c0.6-0.8,1.3-1.6,1.9-2.4
		c1.6-2.1,2.8-4.5,4-6.8c1-1.9,2-3.9,3.2-5.7c3.9-5.9,11.3-7.8,17.7-9.5c2.7-0.7,5.2-1.4,7.4-2.3c0.1,0,0.2-0.1,0.4,0
		c-0.8-1.9-0.9-4.5,0.4-5.6c0.1-0.1,0.3-0.2,0.4-0.3c-3.2-3.6-4.7-10.9-3.6-14.9c2-7.3,11.6-9.5,17.5-8.6c2.5,0.4,10.7,2.7,13.5,6.6
		c0.8,1.2,1.2,2.3,0.9,3.6c-0.1,0.7-0.4,1.3-0.8,1.8c2.9,5.4,3.3,12.4,3.6,18.9l0.1,1.2c0,0.3,0,0.5,0,0.8c0.5-0.1,1-0.2,1.7-0.2
		c2.8-0.2,6.4,0.8,8.9,1.8c6.2,2.5,7.4,7.7,8.7,13.1c0.2,0.9,0.4,1.9,0.7,2.8c0.3,1,0.6,1.9,1,2.8c0.8,1.9,1.4,3.6,0.7,5.1
		c-0.3,0.6-0.7,1.1-1.4,1.5c0.2,0.5,0.3,1,0.5,1.4c1.1,1.1,1.8,2.6,2.1,4.1c0.1,0.3-0.1,0.6-0.4,0.7c-0.3,0.1-0.6,0.1-0.8-0.2
		c-0.8-0.9-1.5-2.3-2.1-3.9c-2.3,1.1-4.8,1.7-7.3,2.4c-1.3,0.3-2.5,0.7-3.6,1c-0.2,0.1-0.4,0-0.6-0.1s-0.3-0.3-0.3-0.6
		c0.1-3.7,4.5-4.4,7.8-4.9c1-0.2,1.9-0.3,2.5-0.5c0.2-0.1,0.4-0.1,0.6-0.2c-0.4-1.2-0.7-2.5-1.1-3.9c-1.8-6.7-3.7-14.2-8.1-16.5
		c-1.7-0.9-3.5-0.9-5.8-0.2c-3,1.1-3.8,4.4-4.5,7.9c-0.5,2.3-1,4.7-2.3,6.4c-1.4,2-3.2,3.4-5,4.7c-2.2,1.7-4.2,3.3-5.6,5.9
		c-1,2-1.5,7.1-1.6,13.4c3.1,1.4,2.7,4.9,2.2,8.1c-0.3,2-0.5,4-0.1,5.8c0.1,0.2,0,0.5-0.2,0.7s-0.5,0.2-0.7,0.1
		c-0.4-0.1-0.7-0.3-1.1-0.4c0.2,6.3,0.5,12.4,0.7,16.5c0.1,1.9,0.2,3.6,0.2,4.7h1.9v-38.5l0,0c0-0.1,0.5-7.2,8.4-7.2h69.4h0.1
		c0.1,0,6.7,1,6.7,7.2v15.7h4.5c-0.2-0.4-0.3-0.8-0.2-1.2c0.1-4,9.7-10.3,11.6-11c2.5-0.9,4.6-0.7,6.2,0.4c0.2,0.1,0.3,0.2,0.5,0.4
		c0.8-0.1,1.5,0.1,2.3,0.2c1,0.1,2.2,0.3,3.7,0.2c0.3,0,0.6,0.2,0.7,0.5c0,0.1,0.1,0.3,0.1,0.4c0.2-0.4,0.5-0.7,0.8-1
		c1.1-1,3.3-1.1,5.3-1.2c1.1-0.1,2.2-0.1,2.9-0.3c3.3-1,5.5-1.7,9-2.1c1-0.1,2.1-0.4,3.2-0.6c0.2-0.2,0.4-0.4,0.6-0.6
		c-2.7-0.1-3.3-0.3-6-3.4c-2.4-2.8-4.5-5.3-5.9-8.3c-0.9,2.7-0.8,4.3-0.6,6.7c0,0.4,0,0.9,0.1,1.4c0.2,5.3-0.5,5.7-4.9,6h-0.3
		c-1,0.1-2.4,0.1-4.1,0.1c-5.9,0.1-14.8,0.1-19.4,2.3c-0.2,0.1-0.4,0.1-0.6,0s-0.3-0.3-0.3-0.5s-0.9-16.5-2.1-29.8c0,0,0,0-0.1,0
		c-1.6,0-4.1-1.2-6.2-2.7c-2.5-1.8-10.3-8.3-7-18.1c-0.2,0-0.4-0.1-0.6-0.1c-2.2,2.4-5.3,3.5-8.4,4.6c-3.4,1.2-6.8,2.4-9.4,5.4
		c-6.4,7.2-5,19.8-3.6,26.7c0.1,0.3-0.1,0.7-0.5,0.8h-0.1c-2.2,0.7-5.3,1.7-7.6,0.7c-0.2-0.1-0.4-0.3-0.4-0.6
		c-0.1-2.7,0.8-5.8,1.7-8.8c0.4-1.2,0.7-2.4,1-3.5c1.3-5.6,2.7-11,4.7-15.9c2.2-5.4,6-7.1,11.1-8.2c0.8-0.2,2-0.5,3.2-0.9
		c2.4-0.7,5.3-1.6,7.6-1.6c0.7-0.9,1.3-2.1,1.7-3.5c-2.1-1.2-3.2-4-3.5-6.3c-0.4-2.8,0.3-5.4,1.8-6.5c0.6-0.4,1.5-0.8,2.8-0.5
		c0.1-5.8,3.7-10.6,9.7-13c7.1-2.7,15-1,19.3,4.2c3.7,4.5,5.5,13.7,3.8,19.8c-0.8,2.8-2.1,4.6-3.6,5.7c0,0.5,0.1,0.9,0.2,1.2
		c0.6,1.2,3.3,1.9,5.3,2.4c0.8,0.2,1.5,0.4,2,0.6c6.4,2.1,13.5,5,16.7,11.3c3.3,6.5,6.2,9.4,12.1,14.6c2.6,2.2,4.6,4.5,6.9,7.1
		c0.6,0.7,1.5,1.4,2.4,2.2c1.4,1.2,2.9,2.4,3.6,3.8c0.8,1.4,1.2,3.3,1.6,5.2c0.2,1.1,0.4,2.1,0.7,2.9l0.1,0.3c0.8,2.5,2,6.3,1.1,8.9
		c-0.2,0.7-0.6,1.2-1.1,1.8c1.7,0.4,3.4,0.9,5.1,1.5h55.2c0.4,0,0.7,0.3,0.7,0.7s-0.3,0.7-0.7,0.7h-55.3c-0.1,0-0.2,0-0.2,0
		c-2.1-0.8-4.1-1.3-6.1-1.7c-3.4,2.2-9.4,2.9-13.7,3.4c-1,0.1-1.9,0.2-2.6,0.3h-0.1c-6.4,1-15.2,2.3-21.5,0
		c-0.2-0.1-0.4-0.3-0.4-0.6s0.1-0.5,0.3-0.6c3.8-2.5,9.4-6,14.5-6.6c2.6-0.3,5.4,0.2,8.1,0.7c1.5,0.3,2.9,0.5,4.2,0.6h0.3
		c3.8,0.3,7.2,0.6,10.6,1.3c0.7-0.5,1.2-1.1,1.5-1.9c0.8-2.2-0.4-5.8-1.1-8l-0.1-0.3c-0.3-0.9-0.5-1.9-0.7-3
		c-0.4-1.8-0.8-3.6-1.4-4.8c-0.7-1.2-2-2.4-3.3-3.5c-0.9-0.8-1.8-1.6-2.5-2.4c-2.3-2.6-4.3-4.8-6.8-7c-6-5.3-9-8.3-12.4-15
		c-3-5.9-9.5-8.5-15.9-10.6c-0.5-0.2-1.2-0.3-1.9-0.5c-2.5-0.6-5.4-1.3-6.2-3.1c-0.1-0.3-0.2-0.6-0.3-1c-0.1,0-0.2,0.1-0.3,0.1
		c-0.8,5.9-5.6,11.8-10.2,15.1c-2.9,2.1-5.7,2.9-8.2,2.2c-3-0.8-5.6-3.7-7.7-8.5c-1.7-4-1.9-9.6-0.7-15.3c-0.1,0-0.2-0.1-0.2-0.1
		c-1.2-1.1-1.6-2.5-1.4-4.4c0.2-1.5,0.8-3.3,1.8-5c-0.2,0.1-0.4,0.1-0.6,0c-1-0.4-1.8-0.4-2.4,0c-1.1,0.8-1.6,2.9-1.3,5.2
		c0.3,2.5,1.5,4.6,3.1,5.3c0.1,0,0.1,0,0.2,0c0.2,0.1,0.3,0.2,0.4,0.3c0.1,0.2,0.1,0.4,0.1,0.6c0,0.1-0.1,0.1-0.1,0.2
		c-0.4,1.4-0.9,2.6-1.6,3.6c0.3,0.1,0.6,0.2,0.8,0.3c0.3,0.1,0.5,0.5,0.4,0.9c-2.9,7.6,1.7,13.2,4.6,15.8c3.4,3,6.8,4.1,7.4,3.8
		c0.2-0.2,0.5-0.2,0.7-0.1c0.2,0.1,0.4,0.3,0.4,0.6c1.2,11.6,2,25.9,2.2,29.7c5-1.9,13.4-2,19-2c1.6,0,3.1,0,4-0.1h0.3
		c1.7-0.1,2.8-0.2,3.2-0.6c0.5-0.5,0.5-1.9,0.4-4c0-0.5,0-0.9-0.1-1.4c-0.1-2.8-0.2-4.6,1-8.1c0.1-0.2,0.2-0.4,0.3-0.6
		c-0.5-1.7-0.8-3.4-0.8-5.5c0-0.1,0.2-6.5,2.5-7.2c0.8-0.3,1.7,0.2,2.5,1.5c1.6,2.3-0.5,6.5-2.1,9.8c-0.3,0.5-0.5,1-0.7,1.4
		c1.2,3.3,3.4,6.1,6.2,9.2c2.5,2.9,2.7,2.9,5.5,2.9c0.5,0,1.1,0,1.8,0c0.1,0,0.2,0,0.3,0c2.2-0.7,5-1,8-1.1h0.6
		c0.2,0,0.4,0.1,0.5,0.2c0.1,0.1,0.2,0.3,0.2,0.5c-0.1,0.9-0.4,1.6-1,2.1c-0.1,0.1-0.1,0.1-0.2,0.2c1.4,0.7,2.7,1.8,3.7,3.5
		c0.2,0.3,0.1,0.7-0.1,0.9c-4,3.4-14.6-2.2-15.1-2.5c-0.1-0.1-0.2-0.1-0.3-0.2c-0.9,0.2-1.8,0.4-2.7,0.5c-3.4,0.4-5.5,1.1-8.8,2
		c-0.8,0.2-2,0.3-3.2,0.4c-1.7,0.1-3.8,0.2-4.5,0.9c-0.4,0.3-0.6,0.9-0.9,1.5c0.4,0.7,0.9,1.5,1.4,2.2c1.7,2.5,3.4,5.1,2.8,7.1
		c-0.3,0.9-1,1.5-2.1,2c-2,0.8-3.4,0.7-4.3-0.1c-1-0.9-1.1-2.8-0.3-5.6c0.2-0.7,0.3-1.6,0.5-2.6s0.3-2,0.5-2.9
		c-0.3-0.5-0.5-0.9-0.6-1.4c-1.4,0.1-2.5-0.1-3.5-0.2c-0.3,0-0.6-0.1-0.9-0.1c1.7,2.6,2.7,6.9,2.7,13c0,0.2-0.1,0.4-0.3,0.6
		c-0.2,0.1-0.4,0.2-0.6,0.1c-1.4-0.5-3.8-0.4-6.1-0.3c-3.3,0.1-6.8,0.3-8.5-1.2c-0.2,0-0.4,0-0.6,0c-0.7,0-2.7-0.2-3.4-1.3
		c-0.1,0.3-0.3,0.4-0.6,0.4h-6.3v21.7c0,0.4-0.3,0.7-0.7,0.7h-2.2v2.6C373.3,221.2,373,221.5,372.6,221.5z M297.7,220.2H372v-1.9
		h-74.2L297.7,220.2L297.7,220.2z M373.3,216.9h1.5v-21.1h-1.5V216.9z M415.2,196.8c5.8,1.6,13.6,0.4,19.5-0.5h0.1
		c0.7-0.1,1.6-0.2,2.7-0.3c3.4-0.4,8.4-1,11.7-2.4c-2.8-0.5-5.7-0.7-8.9-1H440c-1.4-0.1-2.9-0.4-4.3-0.7c-2.6-0.5-5.3-1-7.7-0.7
		C423.6,191.8,418.7,194.5,415.2,196.8z M398.4,196.4c1.1,0,2,0.1,2.9,0.2c-0.2-7.1-1.6-10.5-3-12c-0.7,0.1-1.5,0.5-2.4,1.2
		c-2.7,2-4.4,3.2-7.3,4.6c-2.3,1.1-4.5,3.2-4.3,4c0.1,0.3,0.7,0.7,2.4,0.8c0.1,0,0.3,0,0.4,0c1.2-1.2,2.7-1.5,4.2-1.8
		c1.7-1,3.4-2,5.5-1.9c0.3,0,0.5,0.2,0.6,0.4s0,0.5-0.1,0.7c-1.4,1.5-3.4,1.8-5.1,2c-0.1,0-0.3,0-0.4,0c-0.8,0.5-1.7,1-2.6,1.3
		c1.7,0.5,4.2,0.4,6.4,0.3C396.5,196.4,397.5,196.4,398.4,196.4z M406,187.9c-0.1,0.5-0.2,0.9-0.2,1.4c-0.2,1-0.3,2-0.5,2.7
		c-0.6,2.1-0.7,3.6-0.1,4.2c0.4,0.4,1.5,0.3,2.9-0.2c0.7-0.3,1.1-0.6,1.3-1.1c0.4-1.4-1.2-3.8-2.6-5.9
		C406.5,188.6,406.2,188.3,406,187.9z M236.4,164.6c-1.6,2.1-3,4.3-4.1,6.7c-2.4,5.4-3.2,13.6,0,18.1c3.1,4.3,8.9,4.8,14,5.3
		c0.7,0.1,1.5,0.1,2.2,0.2l1.3,0.1c6.8,0.7,13.8,1.4,20.6,1.1c1.8-0.1,4-0.4,6.2-0.8c3.7-0.6,7.4-1.2,10.7-0.8
		c-0.1-4-0.1-8-0.1-11.7c-0.1,0-0.3-0.1-0.5-0.1c-3.6-0.6-7.6-0.4-11.5-0.2c-1.9,0.1-3.7,0.2-5.5,0.2l0,0c-3.9,0-7.1-1.2-10.1-2.3
		c-1.6-0.6-3.2-1.2-4.9-1.6c-0.9,0.1-1.8-0.1-2.7-0.5c-2.4-0.2-4.9,0.2-7.3,0.6c-3.1,0.5-6.3,1-9.3,0.4c-0.3-0.1-0.6-0.4-0.5-0.7
		c0-0.9,0.5-1.7,1.2-2.3c2.8-2.2,9.7-1.4,11.4-1.1c1.6,0.3,2.8,0.9,3.9,1.4c0.3,0.2,0.7,0.3,0.9,0.4c0.4,0,0.8,0.1,1.2,0.2
		c0.4,0.1,0.8,0.2,1.2,0.2c0.7-0.2,1.5-0.8,2.3-1.9c0.9-1.2,1.6-2.4,2.2-3.6c0.4-0.7,0.7-1.3,1.1-2c-2.5-0.4-5.1-2.3-7.4-4
		c-1.6-1.1-3-2.2-4.3-2.7C242.7,160.7,240,161.1,236.4,164.6z M288.6,194.7c0.2,0,0.4,0.1,0.6,0.1c-0.2-1.7,0-3.4,0.3-5.1
		c0.4-3.2,0.6-5.3-0.9-6.4C288.5,187,288.5,190.9,288.6,194.7z M395,183.1c-0.8,0-1.6,0.2-2.5,0.5c-2.2,0.8-10.5,6.8-10.7,9.7
		c0,0.3,0.1,0.8,0.9,1.2h0.1c-0.2-2.2,3.9-4.8,5.1-5.3c2.8-1.4,4.5-2.5,7.1-4.5c0.7-0.5,1.3-0.9,1.9-1.1
		C396.3,183.3,395.7,183.1,395,183.1z M428.4,180.3c3.9,1.9,9.4,3.7,12,2.4C437.4,178.6,432.7,179.3,428.4,180.3z M281.2,180.9
		c2,0,3.9,0.1,5.8,0.4c0.1,0,0.2,0,0.3,0c0.2-6.3,0.7-11.5,1.8-13.6c1.5-2.9,3.8-4.7,6-6.4c1.7-1.4,3.4-2.6,4.7-4.4
		c1.1-1.5,1.5-3.6,2-5.9c0.8-3.7,1.7-7.6,5.4-8.9c2.6-0.9,4.9-0.8,6.8,0.2c4.8,2.6,6.9,10.4,8.7,17.4c0.3,1.2,0.6,2.4,1,3.5
		c0.3-0.2,0.5-0.5,0.6-0.7c0.5-1-0.1-2.4-0.7-4c-0.3-0.9-0.7-1.9-1-3c-0.3-1-0.5-1.9-0.7-2.8c-1.2-5.3-2.3-9.9-7.9-12.2
		c-2.2-0.9-5.8-1.8-8.3-1.7c-0.7,0-1.3,0.1-1.8,0.2c0,2.3-0.3,4.1-0.8,5.5c0,0.1,0,0.1,0,0.2c-0.3,3.3-2.7,6.6-6.3,8.4
		c-3.4,1.7-7.1,1.8-9.8,0.2c-2.8-1.6-8.4-7.8-9.1-12.2c0,0,0,0,0-0.1c-3.5-0.5-5.2-2.8-6.4-5.3c-2.1,0.8-4.5,1.4-7,2.1
		c-6.5,1.7-13.3,3.5-17,8.9c-1.1,1.7-2.1,3.6-3.1,5.5c-1.2,2.4-2.4,4.8-4.1,7c-0.4,0.5-0.7,0.9-1.1,1.4c2.6-1.2,5.5-0.9,9.9,1
		c1.4,0.6,3,1.7,4.6,2.9c2.6,1.9,5.2,3.8,7.5,3.8c0.8-1.1,1.7-2.1,3.1-3.1c0.5-0.4,1.1-0.7,1.7-1.1c0.3-0.7,0.6-1.4,1-2.1
		c1.6-3.6,3.4-7.7,7.2-7.8c0.3,0,0.6,0.2,0.7,0.6c0.8,5.4-2.9,7.5-6.6,9.6c-0.4,0.2-0.8,0.5-1.2,0.7c-0.7,1.3-1.4,2.4-2.3,3.2
		s-1.8,1.2-2.8,1.3c-0.6,0.8-1,1.7-1.5,2.6c-0.7,1.2-1.4,2.5-2.3,3.8c-0.5,0.7-1,1.3-1.5,1.6c1.2,0.4,2.3,0.8,3.4,1.2
		c3.1,1.1,6,2.2,9.7,2.2l0,0c1.7,0,3.5-0.1,5.4-0.2C277.1,181,279.2,180.9,281.2,180.9z M236.3,178.1c2.6,0.4,5.3,0,8.2-0.5
		c1.4-0.2,2.9-0.5,4.4-0.6c-0.5-0.2-1.1-0.4-1.7-0.5c-2.5-0.5-8.2-0.8-10.3,0.8C236.6,177.6,236.4,177.9,236.3,178.1z M433.7,178
		c1.5,0.3,3.2,0.4,3.9-0.1c0.1-0.1,0.2-0.2,0.3-0.3C436.8,177.6,435.2,177.7,433.7,178z M340.7,169.2c1.7,0.4,3.9-0.2,5.8-0.8
		c-1.4-7.3-2.6-19.9,4-27.3c2.8-3.2,6.5-4.5,10-5.7c2.5-0.9,4.9-1.7,6.7-3.2c-1.8,0.3-3.9,0.9-5.8,1.5c-1.2,0.4-2.4,0.7-3.3,0.9
		c-4.8,1-8.1,2.6-10.1,7.4c-2,4.9-3.3,10.2-4.7,15.7c-0.3,1.1-0.6,2.3-1,3.6C341.6,164,340.7,166.8,340.7,169.2z M322.9,165.4
		c-0.2,0.1-0.4,0.1-0.6,0.2c-0.7,0.2-1.6,0.4-2.7,0.6c-3,0.5-5.6,1-6.4,2.6c0.8-0.2,1.7-0.5,2.5-0.7c2.5-0.7,5-1.3,7.2-2.4
		C322.9,165.6,322.9,165.5,322.9,165.4z M273.5,155.9c-2.5,0.5-3.9,3.8-5.4,6.9c-0.1,0.1-0.1,0.2-0.2,0.4
		C271.2,161.4,273.8,159.7,273.5,155.9z M416.9,153.7L416.9,153.7c-0.6,0.2-1.5,3-1.6,5.9c0,1.3,0.1,2.4,0.3,3.5l0,0
		c1.3-2.7,3.3-6.8,2.2-8.4C417.4,153.9,417.1,153.7,416.9,153.7z M279.2,141.3c0.7,3.9,6,9.6,8.4,11c2.3,1.4,5.5,1.3,8.5-0.3
		c2-1,3.5-2.4,4.5-4.1c-1.9,1.3-4.5,1.7-8.1,1.2c-4.4-0.6-10.6-3.7-13-8C279.4,141.3,279.3,141.3,279.2,141.3z M279.2,137.8
		c0.1,0,0.1,0,0.2,0c0.3,0.1,0.4,0.3,0.5,0.5c0.8,4.9,8.1,8.9,12.8,9.5c3.6,0.5,6.2,0,7.7-1.4c0.6-0.5,1-1.2,1.4-2
		c0.1-1-0.1-1.9-0.1-2.7c-0.1-1.2-0.3-2.2,0.4-3c0.2-0.2,0.4-0.4,0.6-0.5c0-0.4,0-0.8,0-1.2l-0.1-1.2c-0.3-6.4-0.6-13-3.2-17.9
		c-2.3,1.7-6.3,1.8-9.8,1.9c-2.3,0.1-4.6,0.1-5.6,0.7c-1.1,0.6-2,1.8-2.2,3.1c-0.2,1.1,0,2.1,0.6,2.8c0.2,0.2,0.2,0.4,0.1,0.6
		s-0.2,0.4-0.5,0.5c-1.1,0.3-1.9,1-2.3,1.8c-0.3,0.7-0.3,1.4,0,2c0.2,0.3,0,0.7-0.3,0.9c-0.6,0.3-1.7,0.5-2.2,0.5l0,0
		c-0.3,0-0.5-0.1-0.6-0.4c-0.3-0.5-0.5-1-0.8-1.5c-0.1-0.2-0.2-0.3-0.3-0.5c-0.5-0.2-1-0.4-1.4-0.7c-0.3-0.1-0.6-0.1-0.9,0.1
		c-0.7,0.6-0.7,2.8,0.1,4.4c0.8,1.5,2.1,2.5,3.5,3.6c0.5,0.3,0.9,0.7,1.4,1.1c0.1-0.3,0.3-0.6,0.6-0.9
		C278.8,137.9,279,137.8,279.2,137.8z M374.1,123.7c-1.5,5.9-1.5,12,0.3,16.2c1.9,4.4,4.2,7,6.8,7.7c2.1,0.6,4.5-0.1,7-2
		c4.1-2.9,8.5-8.3,9.6-13.6c-1.8,0.4-3.7,0.3-5.6,0c-5.6-0.8-15.6-6.3-16.5-12.9c-0.3,0.8-0.6,1.7-0.9,2.5
		C374.6,122.4,374.5,123.1,374.1,123.7z M273.4,136.7c0.9,1.4,2,2.5,3.6,3c-0.3-0.3-0.7-0.5-1.1-0.8
		C275,138.2,274.1,137.5,273.4,136.7z M141.1,135.9l1.1,2.1l3.4-1.4l39.5-25L184,109L141.1,135.9z M284.1,109.6
		c-4.9,0-10.5,1.7-11.8,6.4c-1.1,3.8,2.3,10.1,4.6,14.2c0.2,0.4,0.4,0.8,0.6,1.2c0.2,0,0.4-0.1,0.6-0.1c-0.2-0.8-0.1-1.7,0.2-2.5
		c0.4-1,1.3-1.8,2.3-2.3c-0.5-0.9-0.6-2-0.4-3.2c0.3-1.7,1.5-3.3,2.9-4.1c1.3-0.7,3.6-0.7,6.2-0.8c3.5-0.1,7.3-0.2,9.1-1.7
		c-2.1-3.3-5.4-5.7-10.6-6.8C286.8,109.7,285.5,109.6,284.1,109.6z M376.6,117L376.6,117c0.2,0.1,0.3,0.4,0.3,0.6
		c-0.6,6.3,9.6,12.3,15.4,13.1c2,0.3,3.6,0.3,5,0c-1.3-0.7-2.8-1.3-4.3-2c-3.9-1.6-7.8-3.3-10.4-6.8c-2-2.7-3.1-6.4-2.9-10
		c-0.8,1-1.5,2.1-2.1,3.1C377.3,115.7,376.9,116.3,376.6,117z M381.4,110.2c-0.6,3.7,0.2,7.7,2.5,10.9c2.3,3.2,6.1,4.8,9.8,6.3
		c1.9,0.8,3.7,1.6,5.4,2.5c0.1,0,0.1,0.1,0.1,0.1c0.1-0.1,0.2-0.1,0.3-0.2c0.1-1.2,0.3-2.6,0.6-3.9c0.3-1.3,0.5-2.5,0.5-3.3
		c0-3.7-0.6-10.5-4.5-14c-1.9-1.7-4.5-2.4-7.5-2.1C385.6,107,383.2,108.5,381.4,110.2z M390,105.3c2.8,0,5.2,0.8,7,2.5
		c4,3.6,4.9,10.1,4.9,15c0,0.9-0.3,2.2-0.5,3.5c-0.2,0.8-0.3,1.6-0.4,2.5c0.9-1,1.6-2.4,2.1-4.1c1.6-5.6-0.1-14.3-3.6-18.5
		c-4.6-5.6-12.5-5.9-17.8-3.8c-5.8,2.2-9.1,7-8.8,12.6l0,0c3-5.3,8.3-10.7,10.7-12c0.3-0.2,0.7-0.1,0.9,0.2c0.2,0.3,0.2,0.6-0.1,0.9
		c-1.1,1.1-1.9,2.4-2.4,3.9c2-1.5,4.1-2.3,6.4-2.6C388.9,105.3,389.5,105.3,390,105.3z M284,106.2c-5.4,0-12.2,2.4-13.7,7.8
		c-1,3.8,0.6,11.4,3.9,14.2c-2.1-4-4.2-9-3.2-12.5c1.9-6.9,11.2-8.3,17.2-7c5.5,1.1,9,3.7,11.2,7c0.1-0.2,0.2-0.5,0.2-0.7
		c0.1-0.8-0.1-1.7-0.7-2.5c-2.5-3.4-9.9-5.7-12.6-6.1C285.6,106.2,284.8,106.2,284,106.2z M380.9,106.9c-3.6,3.6-8.2,9.5-8.7,13.8
		c-0.1,1.1,0,2.1,0.5,2.8c0.1-0.1,0.1-0.2,0.2-0.3c0.1-0.6,0.3-1.2,0.5-1.7c0-0.1,0-0.2,0-0.3c0.2-1,0.3-2.3,1.3-3.3
		c0.5-1.2,1.1-2.4,1.8-3.5c1.1-1.8,2.3-3.4,3.6-4.7C380.2,108.7,380.5,107.8,380.9,106.9z M212,118.2h23.8c-0.5-2.2-2.4-8.1-7-10.5
		c-3.1-1.6-7-1.4-11.4,0.8c-0.2,0.1-0.4,0.1-0.5,0l-3.5-1.4l-1.3,2.5c1.4,0.3,2.3,0.4,2.3,0.4c0.2,0,0.4,0.2,0.5,0.4
		c0.1,0.2,0.1,0.5,0,0.6C214.7,111.1,212.3,114.9,212,118.2z M189.7,109.3l19.2,3.5l1.1-2.2c-2.7-0.5-6.2-1.3-9.5-2.1
		c-3.3-0.9-4.2-2.9-4.9-4.7c-0.8-1.8-1.4-3.3-4.4-3.9c-1.6-0.3-2.9,0-4,0.7c-2.1,1.5-2.8,4.3-2.9,5.1l0.5,1.2l2.1-1.3
		c0.2-0.1,0.4-0.1,0.5-0.1c0.2,0,0.3,0.2,0.4,0.3L189.7,109.3z"/>
</g>
</svg>
