<?xml version="1.0" encoding="utf-8"?>
<!-- Generator: Adobe Illustrator 27.8.1, SVG Export Plug-In . SVG Version: 6.00 Build 0)  -->
<svg version="1.1" baseProfile="tiny" id="Layer_1" xmlns="http://www.w3.org/2000/svg" xmlns:xlink="http://www.w3.org/1999/xlink"
	 x="0px" y="0px" viewBox="0 0 640 320" overflow="visible" xml:space="preserve">
<g>
	<path fill="#777777" d="M360.6,207.3h-58.1c-0.3,0-0.5-0.2-0.5-0.5v-2.5c0-0.3,0.2-0.5,0.5-0.5h57.6V187c0-0.3,0.2-0.5,0.5-0.5h1.7
		v-12.1c0-3.8-3.8-4.5-4.2-4.5h-53.3c-5,0-5.4,4.1-5.5,4.5v30.2c0,0.3-0.2,0.5-0.5,0.5h-2.5c-0.3,0-0.5-0.2-0.5-0.5
		c0-0.8-0.1-2.3-0.2-4.1c-0.2-3.4-0.4-8.1-0.5-12.9c-2.4-0.3-5.3,0.2-8.1,0.6c-1.8,0.3-3.4,0.5-4.8,0.6c-5.3,0.2-10.8-0.3-16-0.8
		l-1-0.1c-0.5-0.1-1.1-0.1-1.7-0.2c-4.1-0.4-8.8-0.8-11.5-4.5c-2.6-3.7-2.2-10.1-0.3-14.6c-3.3,5.1-4.5,10.5-2.9,14.1
		c1,2.3,3.2,3.6,6.1,3.7c0.3,0,0.5,0.2,0.5,0.5l0,0c0,0.3-0.2,0.5-0.5,0.5l-9.7-0.2h-38.7c-0.2,0-0.4-0.1-0.5-0.3l-22.9-42.6
		l-2.3,0.9c-0.2,0.1-0.4,0.1-0.5-0.1c-0.2-0.1-0.2-0.2-0.2-0.5l0.1-4.8l-2.5,2.5l24.3,43.9c0.1,0.2,0.1,0.4,0,0.5s-0.2,0.2-0.5,0.2
		h-29.5c-0.3,0-0.5-0.2-0.5-0.5c0-0.3,0.2-0.5,0.5-0.5h28.6l-24.1-43.5c-0.1-0.2-0.1-0.5,0.1-0.6l3.8-3.8c0.2-0.2,0.4-0.2,0.6-0.1
		c0.2,0.1,0.3,0.3,0.3,0.5l-0.1,5.4l1.5-0.6l-1.1-2c-0.2-0.2-0.1-0.5,0.2-0.7l33.6-21.1l-0.5-1.2c0-0.1-0.1-0.2,0-0.3
		c0-0.2,0.5-3.2,2.7-4.7c1.1-0.8,2.4-1,3.8-0.8c2.8,0.5,3.5,2.2,4.1,3.6c0.5,1.3,1.1,2.5,3.1,3c2.5,0.7,5.5,1.3,7.5,1.7l1.3-2.7
		c0.2-0.2,0.4-0.4,0.7-0.2l2.9,1.2c3.7-1.7,6.8-1.8,9.5-0.5c4.8,2.5,6.1,9.1,6.1,9.5c0,0.2,0,0.3-0.1,0.5c-0.1,0.2-0.2,0.2-0.4,0.2
		h-19.4c-0.3,0-0.5-0.2-0.5-0.5c0-2.2,1.2-4.7,1.9-5.9c-0.3-0.1-0.8-0.2-1.3-0.2l-1.2,2.3c-0.1,0.2-0.3,0.3-0.5,0.3l-15.4-2.8
		c-0.2,0-0.3-0.2-0.4-0.2l-1.3-2.3l-1.3,0.8l1.1,2.6c0.1,0.2,0,0.5-0.2,0.6L186.7,143c0,0-0.1,0-0.1,0.1l-2.5,1.1l22.7,42.2h38.3
		l5.4,0.1c-1.2-0.7-2.2-1.8-2.8-3.2c-2.2-4.8,0.2-12.4,5.6-18.6c0.6-0.7,1.2-1.2,1.7-1.8c0.5-0.7,1-1.4,1.5-2c0.5-0.6,1-1.2,1.5-1.8
		c1.2-1.6,2.2-3.5,3.1-5.2c0.8-1.5,1.5-3,2.5-4.4c3-4.5,8.7-6,13.6-7.3c2.1-0.5,4-1.1,5.7-1.8c0.1,0,0.2-0.1,0.3,0
		c-0.6-1.5-0.7-3.5,0.3-4.3c0.1-0.1,0.2-0.2,0.3-0.2c-2.5-2.8-3.6-8.4-2.8-11.5c1.5-5.6,8.9-7.3,13.4-6.6c1.9,0.3,8.2,2.1,10.4,5.1
		c0.6,0.9,0.9,1.8,0.7,2.8c-0.1,0.5-0.3,1-0.6,1.4c2.2,4.1,2.5,9.5,2.8,14.5l0.1,0.9c0,0.2,0,0.4,0,0.6c0.4-0.1,0.8-0.2,1.3-0.2
		c2.2-0.2,4.9,0.6,6.8,1.4c4.8,1.9,5.7,5.9,6.7,10.1c0.2,0.7,0.3,1.5,0.5,2.2c0.2,0.8,0.5,1.5,0.8,2.2c0.6,1.5,1.1,2.8,0.5,3.9
		c-0.2,0.5-0.5,0.8-1.1,1.2c0.2,0.4,0.2,0.8,0.4,1.1c0.8,0.8,1.4,2,1.6,3.2c0.1,0.2-0.1,0.5-0.3,0.5c-0.2,0.1-0.5,0.1-0.6-0.2
		c-0.6-0.7-1.2-1.8-1.6-3c-1.8,0.8-3.7,1.3-5.6,1.8c-1,0.2-1.9,0.5-2.8,0.8c-0.2,0.1-0.3,0-0.5-0.1s-0.2-0.2-0.2-0.5
		c0.1-2.8,3.5-3.4,6-3.8c0.8-0.2,1.5-0.2,1.9-0.4c0.2-0.1,0.3-0.1,0.5-0.2c-0.3-0.9-0.5-1.9-0.8-3c-1.4-5.1-2.8-10.9-6.2-12.7
		c-1.3-0.7-2.7-0.7-4.5-0.2c-2.3,0.8-2.9,3.4-3.5,6.1c-0.4,1.8-0.8,3.6-1.8,4.9c-1.1,1.5-2.5,2.6-3.8,3.6c-1.7,1.3-3.2,2.5-4.3,4.5
		c-0.8,1.5-1.2,5.5-1.2,10.3c2.4,1.1,2.1,3.8,1.7,6.2c-0.2,1.5-0.4,3.1-0.1,4.5c0.1,0.2,0,0.4-0.2,0.5c-0.2,0.2-0.4,0.2-0.5,0.1
		c-0.3-0.1-0.5-0.2-0.8-0.3c0.2,4.8,0.4,9.5,0.5,12.7c0.1,1.5,0.2,2.8,0.2,3.6h1.5v-29.6l0,0c0-0.1,0.4-5.5,6.5-5.5H358h0.1
		c0.1,0,5.1,0.8,5.1,5.5v12.1h3.5c-0.2-0.3-0.2-0.6-0.2-0.9c0.1-3.1,7.5-7.9,8.9-8.5c1.9-0.7,3.5-0.5,4.8,0.3
		c0.2,0.1,0.2,0.2,0.4,0.3c0.6-0.1,1.2,0.1,1.8,0.2c0.8,0.1,1.7,0.2,2.8,0.2c0.2,0,0.5,0.2,0.5,0.4c0,0.1,0.1,0.2,0.1,0.3
		c0.2-0.3,0.4-0.5,0.6-0.8c0.8-0.8,2.5-0.8,4.1-0.9c0.8-0.1,1.7-0.1,2.2-0.2c2.5-0.8,4.2-1.3,6.9-1.6c0.8-0.1,1.6-0.3,2.5-0.5
		c0.2-0.2,0.3-0.3,0.5-0.5c-2.1-0.1-2.5-0.2-4.6-2.6c-1.8-2.2-3.5-4.1-4.5-6.4c-0.7,2.1-0.6,3.3-0.5,5.1c0,0.3,0,0.7,0.1,1.1
		c0.2,4.1-0.4,4.4-3.8,4.6h-0.2c-0.8,0.1-1.8,0.1-3.2,0.1c-4.5,0.1-11.4,0.1-14.9,1.8c-0.2,0.1-0.3,0.1-0.5,0s-0.2-0.2-0.2-0.4
		s-0.7-12.7-1.6-22.9c0,0,0,0-0.1,0c-1.2,0-3.2-0.9-4.8-2.1c-1.9-1.4-7.9-6.4-5.4-13.9c-0.2,0-0.3-0.1-0.5-0.1
		c-1.7,1.8-4.1,2.7-6.5,3.5c-2.6,0.9-5.2,1.8-7.2,4.1c-4.9,5.5-3.8,15.2-2.8,20.5c0.1,0.2-0.1,0.5-0.4,0.6h-0.1
		c-1.7,0.5-4.1,1.3-5.8,0.5c-0.2-0.1-0.3-0.2-0.3-0.5c-0.1-2.1,0.6-4.5,1.3-6.8c0.3-0.9,0.5-1.8,0.8-2.7c1-4.3,2.1-8.5,3.6-12.2
		c1.7-4.1,4.6-5.5,8.5-6.3c0.6-0.2,1.5-0.4,2.5-0.7c1.8-0.5,4.1-1.2,5.8-1.2c0.5-0.7,1-1.6,1.3-2.7c-1.6-0.9-2.5-3.1-2.7-4.8
		c-0.3-2.2,0.2-4.1,1.4-5c0.5-0.3,1.2-0.6,2.2-0.4c0.1-4.5,2.8-8.1,7.5-10c5.5-2.1,11.5-0.8,14.8,3.2c2.8,3.5,4.2,10.5,2.9,15.2
		c-0.6,2.2-1.6,3.5-2.8,4.4c0,0.4,0.1,0.7,0.2,0.9c0.5,0.9,2.5,1.5,4.1,1.8c0.6,0.2,1.2,0.3,1.5,0.5c4.9,1.6,10.4,3.8,12.8,8.7
		c2.5,5,4.8,7.2,9.3,11.2c2,1.7,3.5,3.5,5.3,5.5c0.5,0.5,1.2,1.1,1.8,1.7c1.1,0.9,2.2,1.8,2.8,2.9c0.6,1.1,0.9,2.5,1.2,4
		c0.2,0.8,0.3,1.6,0.5,2.2l0.1,0.2c0.6,1.9,1.5,4.8,0.8,6.8c-0.2,0.5-0.5,0.9-0.8,1.4c1.3,0.3,2.6,0.7,3.9,1.2h42.4
		c0.3,0,0.5,0.2,0.5,0.5c0,0.3-0.2,0.5-0.5,0.5h-42.5c-0.1,0-0.2,0-0.2,0c-1.6-0.6-3.2-1-4.7-1.3c-2.6,1.7-7.2,2.2-10.5,2.6
		c-0.8,0.1-1.5,0.2-2,0.2h-0.1c-4.9,0.8-11.7,1.8-16.5,0c-0.2-0.1-0.3-0.2-0.3-0.5c0-0.2,0.1-0.4,0.2-0.5c2.9-1.9,7.2-4.6,11.1-5.1
		c2-0.2,4.1,0.2,6.2,0.5c1.2,0.2,2.2,0.4,3.2,0.5h0.2c2.9,0.2,5.5,0.5,8.1,1c0.5-0.4,0.9-0.8,1.2-1.5c0.6-1.7-0.3-4.5-0.8-6.1
		l-0.1-0.2c-0.2-0.7-0.4-1.5-0.5-2.3c-0.3-1.4-0.6-2.8-1.1-3.7c-0.5-0.9-1.5-1.8-2.5-2.7c-0.7-0.6-1.4-1.2-1.9-1.8
		c-1.8-2-3.3-3.7-5.2-5.4c-4.6-4.1-6.9-6.4-9.5-11.5c-2.3-4.5-7.3-6.5-12.2-8.1c-0.4-0.2-0.9-0.2-1.5-0.4c-1.9-0.5-4.1-1-4.8-2.4
		c-0.1-0.2-0.2-0.5-0.2-0.8c-0.1,0-0.2,0.1-0.2,0.1c-0.6,4.5-4.3,9.1-7.8,11.6c-2.2,1.6-4.4,2.2-6.3,1.7c-2.3-0.6-4.3-2.8-5.9-6.5
		c-1.3-3.1-1.5-7.4-0.5-11.8c-0.1,0-0.2-0.1-0.2-0.1c-0.9-0.8-1.2-1.9-1.1-3.4c0.2-1.2,0.6-2.5,1.4-3.8c-0.2,0.1-0.3,0.1-0.5,0
		c-0.8-0.3-1.4-0.3-1.8,0c-0.8,0.6-1.2,2.2-1,4c0.2,1.9,1.2,3.5,2.4,4.1c0.1,0,0.1,0,0.2,0c0.2,0.1,0.2,0.2,0.3,0.2
		c0.1,0.2,0.1,0.3,0.1,0.5c0,0.1-0.1,0.1-0.1,0.2c-0.3,1.1-0.7,2-1.2,2.8c0.2,0.1,0.5,0.2,0.6,0.2c0.2,0.1,0.4,0.4,0.3,0.7
		c-2.2,5.8,1.3,10.1,3.5,12.1c2.6,2.3,5.2,3.2,5.7,2.9c0.2-0.2,0.4-0.2,0.5-0.1c0.2,0.1,0.3,0.2,0.3,0.5c0.9,8.9,1.5,19.9,1.7,22.8
		c3.8-1.5,10.3-1.5,14.6-1.5c1.2,0,2.4,0,3.1-0.1h0.2c1.3-0.1,2.2-0.2,2.5-0.5c0.4-0.4,0.4-1.5,0.3-3.1c0-0.4,0-0.7-0.1-1.1
		c-0.1-2.2-0.2-3.5,0.8-6.2c0.1-0.2,0.2-0.3,0.2-0.5c-0.4-1.3-0.6-2.6-0.6-4.2c0-0.1,0.2-5,1.9-5.5c0.6-0.2,1.3,0.2,1.9,1.2
		c1.2,1.8-0.4,5-1.6,7.5c-0.2,0.4-0.4,0.8-0.5,1.1c0.9,2.5,2.6,4.7,4.8,7.1c1.9,2.2,2.1,2.2,4.2,2.2c0.4,0,0.8,0,1.4,0
		c0.1,0,0.2,0,0.2,0c1.7-0.5,3.8-0.8,6.1-0.8h0.5c0.2,0,0.3,0.1,0.4,0.2c0.1,0.1,0.2,0.2,0.2,0.4c-0.1,0.7-0.3,1.2-0.8,1.6
		c-0.1,0.1-0.1,0.1-0.2,0.2c1.1,0.5,2.1,1.4,2.8,2.7c0.2,0.2,0.1,0.5-0.1,0.7c-3.1,2.6-11.2-1.7-11.6-1.9c-0.1-0.1-0.2-0.1-0.2-0.2
		c-0.7,0.2-1.4,0.3-2.1,0.4c-2.6,0.3-4.2,0.8-6.8,1.5c-0.6,0.2-1.5,0.2-2.5,0.3c-1.3,0.1-2.9,0.2-3.5,0.7c-0.3,0.2-0.5,0.7-0.7,1.2
		c0.3,0.5,0.7,1.2,1.1,1.7c1.3,1.9,2.6,3.9,2.2,5.5c-0.2,0.7-0.8,1.2-1.6,1.5c-1.5,0.6-2.6,0.5-3.3-0.1c-0.8-0.7-0.8-2.2-0.2-4.3
		c0.2-0.5,0.2-1.2,0.4-2c0.2-0.8,0.2-1.5,0.4-2.2c-0.2-0.4-0.4-0.7-0.5-1.1c-1.1,0.1-1.9-0.1-2.7-0.2c-0.2,0-0.5-0.1-0.7-0.1
		c1.3,2,2.1,5.3,2.1,10c0,0.2-0.1,0.3-0.2,0.5c-0.2,0.1-0.3,0.2-0.5,0.1c-1.1-0.4-2.9-0.3-4.7-0.2c-2.5,0.1-5.2,0.2-6.5-0.9
		c-0.2,0-0.3,0-0.5,0c-0.5,0-2.1-0.2-2.6-1c-0.1,0.2-0.2,0.3-0.5,0.3h-4.8v16.7c0,0.3-0.2,0.5-0.5,0.5h-1.7v2
		C361.1,207.1,360.9,207.3,360.6,207.3z M303,206.3h57.1v-1.5h-57L303,206.3L303,206.3z M361.1,203.8h1.2v-16.2h-1.2V203.8z
		 M393.3,188.3c4.5,1.2,10.5,0.3,15-0.4h0.1c0.5-0.1,1.2-0.2,2.1-0.2c2.6-0.3,6.5-0.8,9-1.8c-2.2-0.4-4.4-0.5-6.8-0.8h-0.2
		c-1.1-0.1-2.2-0.3-3.3-0.5c-2-0.4-4.1-0.8-5.9-0.5C399.8,184.5,396,186.6,393.3,188.3z M380.4,188c0.8,0,1.5,0.1,2.2,0.2
		c-0.2-5.5-1.2-8.1-2.3-9.2c-0.5,0.1-1.2,0.4-1.8,0.9c-2.1,1.5-3.4,2.5-5.6,3.5c-1.8,0.8-3.5,2.5-3.3,3.1c0.1,0.2,0.5,0.5,1.8,0.6
		c0.1,0,0.2,0,0.3,0c0.9-0.9,2.1-1.2,3.2-1.4c1.3-0.8,2.6-1.5,4.2-1.5c0.2,0,0.4,0.2,0.5,0.3c0.1,0.2,0,0.4-0.1,0.5
		c-1.1,1.2-2.6,1.4-3.9,1.5c-0.1,0-0.2,0-0.3,0c-0.6,0.4-1.3,0.8-2,1c1.3,0.4,3.2,0.3,4.9,0.2C378.9,188,379.7,188,380.4,188z
		 M386.2,181.5c-0.1,0.4-0.2,0.7-0.2,1.1c-0.2,0.8-0.2,1.5-0.4,2.1c-0.5,1.6-0.5,2.8-0.1,3.2c0.3,0.3,1.2,0.2,2.2-0.2
		c0.5-0.2,0.8-0.5,1-0.8c0.3-1.1-0.9-2.9-2-4.5C386.6,182,386.4,181.8,386.2,181.5z M255.9,163.6c-1.2,1.6-2.3,3.3-3.2,5.1
		c-1.8,4.1-2.5,10.5,0,13.9c2.4,3.3,6.8,3.7,10.8,4.1c0.5,0.1,1.2,0.1,1.7,0.2l1,0.1c5.2,0.5,10.6,1.1,15.8,0.8
		c1.4-0.1,3.1-0.3,4.8-0.6c2.8-0.5,5.7-0.9,8.2-0.6c-0.1-3.1-0.1-6.1-0.1-9c-0.1,0-0.2-0.1-0.4-0.1c-2.8-0.5-5.8-0.3-8.8-0.2
		c-1.5,0.1-2.8,0.2-4.2,0.2l0,0c-3,0-5.5-0.9-7.8-1.8c-1.2-0.5-2.5-0.9-3.8-1.2c-0.7,0.1-1.4-0.1-2.1-0.4c-1.8-0.2-3.8,0.2-5.6,0.5
		c-2.4,0.4-4.8,0.8-7.1,0.3c-0.2-0.1-0.5-0.3-0.4-0.5c0-0.7,0.4-1.3,0.9-1.8c2.2-1.7,7.5-1.1,8.8-0.8c1.2,0.2,2.2,0.7,3,1.1
		c0.2,0.2,0.5,0.2,0.7,0.3c0.3,0,0.6,0.1,0.9,0.2s0.6,0.2,0.9,0.2c0.5-0.2,1.2-0.6,1.8-1.5c0.7-0.9,1.2-1.8,1.7-2.8
		c0.3-0.5,0.5-1,0.8-1.5c-1.9-0.3-3.9-1.8-5.7-3.1c-1.2-0.8-2.3-1.7-3.3-2.1C260.7,160.6,258.7,160.9,255.9,163.6z M296,186.7
		c0.2,0,0.3,0.1,0.5,0.1c-0.2-1.3,0-2.6,0.2-3.9c0.3-2.5,0.5-4.1-0.7-4.9C295.9,180.8,295.9,183.8,296,186.7z M377.8,177.8
		c-0.6,0-1.2,0.2-1.9,0.4c-1.7,0.6-8.1,5.2-8.2,7.5c0,0.2,0.1,0.6,0.7,0.9h0.1c-0.2-1.7,3-3.7,3.9-4.1c2.2-1.1,3.5-1.9,5.5-3.5
		c0.5-0.4,1-0.7,1.5-0.8C378.8,177.9,378.3,177.8,377.8,177.8z M403.5,175.6c3,1.5,7.2,2.8,9.2,1.8
		C410.4,174.3,406.8,174.9,403.5,175.6z M290.3,176.1c1.5,0,3,0.1,4.5,0.3c0.1,0,0.2,0,0.2,0c0.2-4.8,0.5-8.8,1.4-10.5
		c1.2-2.2,2.9-3.6,4.6-4.9c1.3-1.1,2.6-2,3.6-3.4c0.8-1.2,1.2-2.8,1.5-4.5c0.6-2.8,1.3-5.8,4.1-6.8c2-0.7,3.8-0.6,5.2,0.2
		c3.7,2,5.3,8,6.7,13.4c0.2,0.9,0.5,1.8,0.8,2.7c0.2-0.2,0.4-0.4,0.5-0.5c0.4-0.8-0.1-1.8-0.5-3.1c-0.2-0.7-0.5-1.5-0.8-2.3
		c-0.2-0.8-0.4-1.5-0.5-2.2c-0.9-4.1-1.8-7.6-6.1-9.4c-1.7-0.7-4.5-1.4-6.4-1.3c-0.5,0-1,0.1-1.4,0.2c0,1.8-0.2,3.2-0.6,4.2
		c0,0.1,0,0.1,0,0.2c-0.2,2.5-2.1,5.1-4.8,6.5c-2.6,1.3-5.5,1.4-7.5,0.2c-2.2-1.2-6.5-6-7-9.4c0,0,0,0,0-0.1c-2.7-0.4-4-2.2-4.9-4.1
		c-1.6,0.6-3.5,1.1-5.4,1.6c-5,1.3-10.2,2.7-13.1,6.8c-0.8,1.3-1.6,2.8-2.4,4.2c-0.9,1.8-1.8,3.7-3.2,5.4c-0.3,0.4-0.5,0.7-0.8,1.1
		c2-0.9,4.2-0.7,7.6,0.8c1.1,0.5,2.3,1.3,3.5,2.2c2,1.5,4,2.9,5.8,2.9c0.6-0.8,1.3-1.6,2.4-2.4c0.4-0.3,0.8-0.5,1.3-0.8
		c0.2-0.5,0.5-1.1,0.8-1.6c1.2-2.8,2.6-5.9,5.5-6c0.2,0,0.5,0.2,0.5,0.5c0.6,4.1-2.2,5.8-5.1,7.4c-0.3,0.2-0.6,0.4-0.9,0.5
		c-0.5,1-1.1,1.8-1.8,2.5s-1.4,0.9-2.2,1c-0.5,0.6-0.8,1.3-1.2,2c-0.5,0.9-1.1,1.9-1.8,2.9c-0.4,0.5-0.8,1-1.2,1.2
		c0.9,0.3,1.8,0.6,2.6,0.9c2.4,0.8,4.6,1.7,7.5,1.7l0,0c1.3,0,2.7-0.1,4.1-0.2C287.2,176.2,288.8,176.1,290.3,176.1z M255.8,174
		c2,0.3,4.1,0,6.3-0.4c1.1-0.2,2.2-0.4,3.4-0.5c-0.4-0.2-0.8-0.3-1.3-0.4c-1.9-0.4-6.3-0.6-7.9,0.6
		C256.1,173.6,255.9,173.8,255.8,174z M407.5,173.9c1.2,0.2,2.5,0.3,3-0.1c0.1-0.1,0.2-0.2,0.2-0.2
		C409.9,173.6,408.7,173.6,407.5,173.9z M336.1,167.1c1.3,0.3,3-0.2,4.5-0.6c-1.1-5.6-2-15.3,3.1-21c2.2-2.5,5-3.5,7.7-4.4
		c1.9-0.7,3.8-1.3,5.1-2.5c-1.4,0.2-3,0.7-4.5,1.2c-0.9,0.3-1.8,0.5-2.5,0.7c-3.7,0.8-6.2,2-7.8,5.7c-1.5,3.8-2.5,7.8-3.6,12.1
		c-0.2,0.8-0.5,1.8-0.8,2.8C336.8,163.1,336.1,165.3,336.1,167.1z M322.4,164.2c-0.2,0.1-0.3,0.1-0.5,0.2c-0.5,0.2-1.2,0.3-2.1,0.5
		c-2.3,0.4-4.3,0.8-4.9,2c0.6-0.2,1.3-0.4,1.9-0.5c1.9-0.5,3.8-1,5.5-1.8C322.4,164.3,322.4,164.3,322.4,164.2z M284.4,156.9
		c-1.9,0.4-3,2.9-4.1,5.3c-0.1,0.1-0.1,0.2-0.2,0.3C282.7,161.1,284.6,159.8,284.4,156.9z M394.6,155.2L394.6,155.2
		c-0.5,0.2-1.2,2.3-1.2,4.5c0,1,0.1,1.8,0.2,2.7l0,0c1-2.1,2.5-5.2,1.7-6.5C395,155.4,394.8,155.2,394.6,155.2z M288.8,145.7
		c0.5,3,4.6,7.4,6.5,8.5c1.8,1.1,4.2,1,6.5-0.2c1.5-0.8,2.7-1.8,3.5-3.2c-1.5,1-3.5,1.3-6.2,0.9c-3.4-0.5-8.1-2.8-10-6.1
		C289,145.7,288.9,145.7,288.8,145.7z M288.8,143c0.1,0,0.1,0,0.2,0c0.2,0.1,0.3,0.2,0.4,0.4c0.6,3.8,6.2,6.8,9.8,7.3
		c2.8,0.4,4.8,0,5.9-1.1c0.5-0.4,0.8-0.9,1.1-1.5c0.1-0.8-0.1-1.5-0.1-2.1c-0.1-0.9-0.2-1.7,0.3-2.3c0.2-0.2,0.3-0.3,0.5-0.4
		c0-0.3,0-0.6,0-0.9l-0.1-0.9c-0.2-4.9-0.5-10-2.5-13.8c-1.8,1.3-4.8,1.4-7.5,1.5c-1.8,0.1-3.5,0.1-4.3,0.5
		c-0.8,0.5-1.5,1.4-1.7,2.4c-0.2,0.8,0,1.6,0.5,2.2c0.2,0.2,0.2,0.3,0.1,0.5s-0.2,0.3-0.4,0.4c-0.8,0.2-1.5,0.8-1.8,1.4
		c-0.2,0.5-0.2,1.1,0,1.5c0.2,0.2,0,0.5-0.2,0.7c-0.5,0.2-1.3,0.4-1.7,0.4l0,0c-0.2,0-0.4-0.1-0.5-0.3c-0.2-0.4-0.4-0.8-0.6-1.2
		c-0.1-0.2-0.2-0.2-0.2-0.4c-0.4-0.2-0.8-0.3-1.1-0.5c-0.2-0.1-0.5-0.1-0.7,0.1c-0.5,0.5-0.5,2.2,0.1,3.4c0.6,1.2,1.6,1.9,2.7,2.8
		c0.4,0.2,0.7,0.5,1.1,0.8c0.1-0.2,0.2-0.5,0.5-0.7C288.5,143.1,288.6,143,288.8,143z M361.7,132.1c-1.2,4.5-1.2,9.2,0.2,12.4
		c1.5,3.4,3.2,5.4,5.2,5.9c1.6,0.5,3.5-0.1,5.4-1.5c3.2-2.2,6.5-6.4,7.4-10.5c-1.4,0.3-2.8,0.2-4.3,0c-4.3-0.6-12-4.8-12.7-9.9
		c-0.2,0.6-0.5,1.3-0.7,1.9C362.1,131.1,362,131.7,361.7,132.1z M284.3,142.1c0.7,1.1,1.5,1.9,2.8,2.3c-0.2-0.2-0.5-0.4-0.8-0.6
		C285.6,143.3,284.9,142.8,284.3,142.1z M182.7,141.5l0.8,1.6l2.6-1.1l30.4-19.2l-0.8-2L182.7,141.5z M292.6,121.3
		c-3.8,0-8.1,1.3-9.1,4.9c-0.8,2.9,1.8,7.8,3.5,10.9c0.2,0.3,0.3,0.6,0.5,0.9c0.2,0,0.3-0.1,0.5-0.1c-0.2-0.6-0.1-1.3,0.2-1.9
		c0.3-0.8,1-1.4,1.8-1.8c-0.4-0.7-0.5-1.5-0.3-2.5c0.2-1.3,1.2-2.5,2.2-3.2c1-0.5,2.8-0.5,4.8-0.6c2.7-0.1,5.6-0.2,7-1.3
		c-1.6-2.5-4.1-4.4-8.1-5.2C294.6,121.4,293.6,121.3,292.6,121.3z M363.7,127L363.7,127c0.2,0.1,0.2,0.3,0.2,0.5
		c-0.5,4.8,7.4,9.5,11.8,10.1c1.5,0.2,2.8,0.2,3.8,0c-1-0.5-2.2-1-3.3-1.5c-3-1.2-6-2.5-8-5.2c-1.5-2.1-2.4-4.9-2.2-7.7
		c-0.6,0.8-1.2,1.6-1.6,2.4C364.2,126,363.9,126.5,363.7,127z M367.3,121.8c-0.5,2.8,0.2,5.9,1.9,8.4c1.8,2.5,4.7,3.7,7.5,4.8
		c1.5,0.6,2.8,1.2,4.1,1.9c0.1,0,0.1,0.1,0.1,0.1c0.1-0.1,0.2-0.1,0.2-0.2c0.1-0.9,0.2-2,0.5-3c0.2-1,0.4-1.9,0.4-2.5
		c0-2.8-0.5-8.1-3.5-10.8c-1.5-1.3-3.5-1.8-5.8-1.6C370.6,119.3,368.7,120.5,367.3,121.8z M373.9,118c2.2,0,4,0.6,5.4,1.9
		c3.1,2.8,3.8,7.8,3.8,11.5c0,0.7-0.2,1.7-0.4,2.7c-0.2,0.6-0.2,1.2-0.3,1.9c0.7-0.8,1.2-1.8,1.6-3.2c1.2-4.3-0.1-11-2.8-14.2
		c-3.5-4.3-9.6-4.5-13.7-2.9c-4.5,1.7-7,5.4-6.8,9.7l0,0c2.3-4.1,6.4-8.2,8.2-9.2c0.2-0.2,0.5-0.1,0.7,0.2c0.2,0.2,0.2,0.5-0.1,0.7
		c-0.8,0.8-1.5,1.8-1.8,3c1.5-1.2,3.2-1.8,4.9-2C373.1,118,373.6,118,373.9,118z M292.5,118.7c-4.1,0-9.4,1.8-10.5,6
		c-0.8,2.9,0.5,8.8,3,10.9c-1.6-3.1-3.2-6.9-2.5-9.6c1.5-5.3,8.6-6.4,13.2-5.4c4.2,0.8,6.9,2.8,8.6,5.4c0.1-0.2,0.2-0.4,0.2-0.5
		c0.1-0.6-0.1-1.3-0.5-1.9c-1.9-2.6-7.6-4.4-9.7-4.7C293.7,118.7,293.1,118.7,292.5,118.7z M367,119.2c-2.8,2.8-6.3,7.3-6.7,10.6
		c-0.1,0.8,0,1.6,0.4,2.2c0.1-0.1,0.1-0.2,0.2-0.2c0.1-0.5,0.2-0.9,0.4-1.3c0-0.1,0-0.2,0-0.2c0.2-0.8,0.2-1.8,1-2.5
		c0.4-0.9,0.8-1.8,1.4-2.7c0.8-1.4,1.8-2.6,2.8-3.6C366.4,120.6,366.6,119.9,367,119.2z M237.2,127.9h18.3c-0.4-1.7-1.8-6.2-5.4-8.1
		c-2.4-1.2-5.4-1.1-8.8,0.6c-0.2,0.1-0.3,0.1-0.4,0l-2.7-1.1l-1,1.9c1.1,0.2,1.8,0.3,1.8,0.3c0.2,0,0.3,0.2,0.4,0.3
		c0.1,0.2,0.1,0.4,0,0.5C239.2,122.5,237.4,125.4,237.2,127.9z M220,121.1l14.8,2.7l0.8-1.7c-2.1-0.4-4.8-1-7.3-1.6
		c-2.5-0.7-3.2-2.2-3.8-3.6c-0.6-1.4-1.1-2.5-3.4-3c-1.2-0.2-2.2,0-3.1,0.5c-1.6,1.2-2.2,3.3-2.2,3.9l0.4,0.9l1.6-1
		c0.2-0.1,0.3-0.1,0.4-0.1c0.2,0,0.2,0.2,0.3,0.2L220,121.1z"/>
</g>
</svg>
