<?xml version="1.0" encoding="utf-8"?>
<!-- Generator: Adobe Illustrator 27.8.1, SVG Export Plug-In . SVG Version: 6.00 Build 0)  -->
<svg version="1.1" id="Layer_1" xmlns="http://www.w3.org/2000/svg" xmlns:xlink="http://www.w3.org/1999/xlink" x="0px" y="0px"
	 viewBox="0 0 640 320" style="enable-background:new 0 0 640 320;" xml:space="preserve">
<style type="text/css">
	.st0{fill:none;stroke:#777777;stroke-miterlimit:10;}
</style>
<g>
	<path class="st0" d="M143.5,198.9c16.8,0,33.7,0.2,50.5,0c1.5,0,2.9-0.1,4.3-0.2c0.2-19.1-1.5-38-2-57.1c-0.1-3.2,1.8-2.7,4.5-2.6
		c10.8,0.5,21.9,1.5,32.7,2.3c14.9,1,29.9,2.1,44.8,3c3.1,0.2,2.7,2,2.8,4.8c0.3,7.6,0.2,15.2,0.2,22.8c0,7.5,0.2,15.2,0.1,22.7
		c0,1.5-0.1,2.3-0.4,3.7c-3.5,0.8-13,0.4-17.2,0.4c-20.3,0-40.6,0.1-61,0c-5.2,0.1-2.7,0-3.6-5.6c-0.2-1.4-2.1-1.1-3.5-1.1
		c-9.2-0.3-7.9-0.5-9-9.6c-1.3-10.9-0.2-13.7,10-18.2c3.5-1.5,2.7-2,2.4-6.2c-0.2-3-0.9-15.2-0.3-17.3c0.7-2.7,4.2-2.9,5.7-9.6
		c0.8-3.8,1.1-7,3.6-10.3c3.7-4.5,5.5-6.3,8-11.8c2.4-5.5,5.1-10.2,7.1-15.9c1-2.8,6.3-9.7,5.9-6.7c-0.4,3.4-2.9,14.9,0.8,11.5
		c1.9-1.8-1.3-11.5,3.9-13.5c2.9-1,9.4-2,11.3,1.2c1.9,3.2,3,10,5.4,14.5c6.7,12.7,14,9.6,22.9,1.3c0.9-0.9,1.3-1.4,1.9-2.5
		c4-8.1,2.2-8.3,3.8-16c1.3-6.2,3.5-5.7,2.5-0.9c-0.6,3.1-2.6,0.6-3.1-1.5c-0.5-2.5-0.1-7.9-1.1-9.4c-2.2-3.1-7,2.7-13.2-0.3
		c-0.9-0.5-1.8-1-2.7-1.5c-4.2-2.7-7.6-4.1-12.4-1.9c-1.7,0.9-2.2,1.9-2.7,3.7c0,1.5,0.4,13.7-0.2,14c-0.6-2.2-0.9-5.1-1.1-7.4
		c-0.2-2-0.3-4-0.4-6c-0.7-6.1-2.8-9.6-0.6-16c5.8-13.5,25.6-14.9,36.5-7.1c4.7,3.3,5.9,9.1,5.7,14.5c-0.3,6.7-4.9,12-7.4,18.4
		c-1.7,4.4-1.7,6.4-2.6,10.8c-2.7,10.6-14.9,13.5-14.4,17.5c0.6,4.4,11.5,9.9,1.3,8.2c-5.2-0.9-2.5-0.4-0.8,5.6l0.4,1.5
		c1.1,4.3,0.9,9.7-0.6,13.8c-0.7,1.6-3.3-3.4-3.5-3.9c-2.8-7.5-2.6-13.5-4-21c-0.7-3.5-1,2.7-1,3.3c-0.8,9-0.5,11.2,1.1,20
		c0.4,2-0.8-0.1-1.5-0.9c-2.9-3.6-17.8-21.8-16.4-25.7c1-2.6,5.9-1.4,4.8-5.8c-1.1-4.6-1.3-5.1,1.9-9.2c2.9-3.6,0.2-0.2-1.5,1.3
		c-2.8,2.6-9.4,6.3-10.6,9c-1.1,2.4,0,8.9,0.3,11.9c0.3,2.8,0.8,6.3-0.3,1c0-0.1-5.2-16.3-4.7-9.1c0.3,3.8,2.7,10,3.4,13.9
		c1.3,7.5-1.8,7.1-3.2,13c-0.7,3,2.1,3,4.4,3.1c4.1,0.3,28.7,3,30.5,1.9c1.8-1.1,6.7-12.4,7.5-14.9c2.3-7,3.4-14.2,5.1-21.3
		c1.8-5.8,3.9-5.5,4.6-13.4c0.3-3.5-0.4-6.4,2.4-1.3c2.7,5.1,4.7,13.4,5.1,19.2c0.1,1.7-1,2.1-2.5,3c-0.8,0.5-1.6,0.9-2.4,1.4
		l6.9,4.4c-2.6,5.9-6.8,15.6-11.6,19.7c-6.8,5.4-10,3.5,0.4,3.9c5.7,0.3,4.6,1.8,4.7,6.9c0,1.7-0.1,10.5,0.6,11.6
		c2.1,3.3,2.2,6,1,9.8l-0.6,1.6c2.6-0.1,4-3.5,4.2-5.7c0.4-6.8-1.8-8.2,4.9-2.6c1.4,1.2,7.5,0,9.5-0.2c3-0.3,15.5-1.6,17.5-3.3
		c0.8-1-0.1-7.1-0.2-8.4c-0.5-5.9-1-11.7-1.3-17.6l-0.1-0.9c-0.6-9.5-1.3-5.1-4.2-12.7c-2-5.1-2.7-20.6-5.2-22.9
		c-1.5-1.4-4.5-1.6-6.5-1.9c-5.9-1.2-8.9-2.3-14-5.4c-2.2-1.3-4.2-2.3-6.6-3.1c-0.3,1.5,2.4,3.4,3.6,3.9c6.1,2.6,12.2,4.8,18.4,7.1
		c4.7,1.7,0.5,1.6-0.7,7.4c-1.5,7,0.3,10.1-3.1,17.8c-1.8,4.3-4.1,8.7-4.5,13.4c-0.1,6.5,2.4,6.2-0.4,13.7
		c-2.2,5.9,6.1,10.8-7.8,7.6c-7-1.6-1.7,0.5-1.1,3.3c1.1,4.8-1.6,4.5,4.8,5.8c1.8,0.3,13.2,2.3,13.6,3.6c0.4,2.8-2,7.3-4.3,8.9
		c-5.7,3.9-10.6,1.3-15.2-2.8c-0.1-0.1-4.3-4.1-2.2-3.4c3.2,1.1,9.7,3.7,12.9,2.7c3.6-1.8,0.8-5,0.8-6.8c5.5,0.7,11.2,2,16.7,3.1
		c12.2,2.3,23.7,4.2,36,5.5c3.5,0.4,9.1,1.2,11.8,3.7c1.9,1.9-4.7-0.7-5-0.8c-3.4-1.1-13.9-4.4-16.8-2.2c0.7,2.7,7.9,3.7,10.8,5.5
		c6,3.7,7.3,12.6,13.6,12.6c3,0,8-0.9,11.3-1.2c4.5-0.5,13-2.1,16.5-4.9c1.8-1.6,2-3.2,1.9-5.5c-0.4-3.4-3.4-7.9-7.3-5.6
		c-4.8,2.8-6.7,2.3-10.9-1.5c-4.1-3.7-6.7-6.2-12.6-6.2c-7-0.1,0.8,4.3,2.4,6.5c-0.9-0.1-16-11.8-19-7.5c-1.1,2.6,7.2,6,9,6.8
		c2.9,1.3,7.1,3.4,10,4.2c-4-7.8-17.8-20.4-24.3-27.5c-1.5-1.3-3.2,0.1-5,0.7c-3.7,1.3-10.7,3.2-13.8,4.8c1.1,0.6,8.1-1.7,9.4-2.5
		c4.5-2.5,3.7-6.7,3.4-11.2c-0.2-3.9-0.8-9.1-5-10.7c-13.6-5.9-8.2-9.8-9.4-22.3c-0.9-9.1-1.9-6.9-2,0.7c-0.2,11.5-1.4,2.9-2.4-1.9
		c-1.4-6.7-2.4-10.4-5-16.8c-1.8-4.4-2.4-6.8-3-11.5c-0.8-7.4-0.5-18.8,3.7-25.2c3-3.3,4.5-4,7.1-8.1c3.8-5.7,6.8-8.1,13.8-9.1
		c1.7-0.2-2.9,1.8-3.7,2.3c-4.2,2.9-6.4,7.5-7.4,12.3c-0.8,3.6,2.5-4.2,2.8-4.8c6.5-12.2,17.2-13.1,26.7-3.3c2.9,3,5.4,9.5,7.4,13.4
		c10.6,19.7,13.5,17.6,30.8,29c5.8,3.8-0.6,1.7-5.8,8.1c-4.1,5.1-3.8,12.1-2.1,18.1c2.3,6.9,5.5,11.3,5.2,15.3
		c-0.2,4-0.4,6.3,3.4,13.8c2.3,4.7,4.8,10.9,5,16.2c0.7,4.8,3,3.6,3.1,4.9c0.1,1.1-4.3,5.8-5.4,7.3c-3.4,4.6-5.5,5.1-11.2,3.2
		c-2.3-0.7-12.4-4.3-12-7.3c0.4-2.7,2.9-4.7-0.6-7.9l-1.1-0.9c-5.3-3.6-10.4,1.7-19.1-7.4c-5-6.1-6.1-4.9-12.4-8.1
		c0,0-2.9-1.5-1.5-0.7c1.6,0.9,8.5,3.4,10.1,2.8c1.3-2.6-0.9-10.1-1.7-12.7c-0.9-5.9,0.4-6.5,1-11.4c0.5-7.4-6-3.4-5.5-8
		c1.1-5.3,4.9-7.7,4.1-12.7c-7.4-0.6-7.3,4.6-11.5-6.1c-1-2.6-1.5-2.8-4.1-4l-1.2-0.5c-3.2-1.1-4.6-1.2-4.9-4.9
		c0.2-2.8,0.5-3.2-1-5.9l-0.7-1c-3.9-5.5-9.2-20.1,1.1-21.7c6.4-0.9,7.1,5.6,12,8c1.3,0.3,2.6,0.1,3.9-0.1c2.5-0.5,3.3-0.6,5.3,1.1
		c6.7,7.2,10.9,17,5.7,26.3c-1.3,2.3-6.8,8-2.8,2c2.7-3.9,2.5-8,2.6-12.5c4.9,3.8,5.2,6.1,12.2,6.2c1.4,0,0.7,1.5,0.5,3
		c-1.2,6.4-3.1,12.6-4.6,18.9c-0.4,1.6-1.7,6.8-1.2,8.3c1.5-5.4-2.5-14.1-6.8-17.6c0,1.1,4.8,12.3,5.7,15c1.5,4.5,2.6,8.8,3.3,13.5
		l0.1,0.9c0.7,6.1,0.9,15.2,2.5,20.8c0.8,2.2,2.2,5.2,4.7,6c0.7-1.3,5.6-20.7,6.2-23.2c1.1-4.3,2.4-9.7,2.7-14
		c0.1-1.3,0.8-9.8,0.4-10.1c-3.5,1.5-4.5,2.1-8.5,0.7c-7.1-2.5-6-2.8-4.4-9.5c1.3-5.3,0.7-6.6,1-11.6c0.1-2.5-0.1-2.5,2.4-3.2
		c2.5-0.7,7.5-0.7,7.8,2.8c0.3,3.4-0.1,5.9,0.5,9.8c0.7,5,4.1,16.9,1.9,2.8c-0.7-4.3-2-13,4.3-13.7c6.3-0.6,13,2.6,17.7,6.6
		c2.7,2.4,5.7,5.2,8.4,7.7c5.3,4.9,6.3,9.9,7.1,16.8c0.7,6.5-1.1,5.9-1.1,8.9c1,11.2,12,35.8,9.1,44.1c-3.1,6.9-17.5,15.8-24.6,18.4
		c-4.5,1.7,13.8-9.5,15.1-10.3c4.2-3,6.9-5.7,7.9-10.8c0.4-2.4,0.6-1.5,1.7,0.6c4.4,8,8.8,14.2,9.2,23.7c0.1,3.9,0.3,3,4.6,3
		c21.3,0,42.6,0,63.8,0"/>
</g>
</svg>
