<?xml version="1.0" encoding="utf-8"?>
<!-- Generator: Adobe Illustrator 27.8.1, SVG Export Plug-In . SVG Version: 6.00 Build 0)  -->
<svg version="1.1" id="Layer_1" xmlns="http://www.w3.org/2000/svg" xmlns:xlink="http://www.w3.org/1999/xlink" x="0px" y="0px"
	 viewBox="0 0 640 320" style="enable-background:new 0 0 640 320;" xml:space="preserve">
<style type="text/css">
	.st0{fill:#777777;}
</style>
<g>
	<path class="st0" d="M290.1,184c-0.2,0-0.3-0.1-0.4-0.3c-0.1-0.2,0-0.4,0.1-0.6c0,0,1.9-1.6,4.2-3.6l-6.1,0.8
		c-0.2,0-0.4-0.1-0.6-0.2l-5.3-10.7c-0.3-0.6-0.7-1.2-1-1.9l-13.8-28.1l-51.8-1.7l22.5,37.9l48.9,4.9c0.2,0,0.4,0.2,0.4,0.4v2.6
		c0,0.1-0.1,0.2-0.1,0.3c-0.1,0.1-0.2,0.1-0.3,0.1l-49.1-5.2h-57.1c-0.2,0-0.4-0.2-0.4-0.4c0-0.2,0.2-0.4,0.4-0.4h57.1l0,0l48.7,5.1
		v-1.6l-48.8-4.9c-0.1,0-0.3-0.1-0.3-0.2l-23-38.9c-0.1-0.1-0.1-0.3,0-0.6c0.1-0.1,0.2-0.2,0.4-0.2l52.9,1.7c0.2,0,0.3,0.1,0.4,0.2
		l11.7,23.7c-1.2-6.3-1.9-15.1-2.5-23.2c-0.6-8.3-1.2-16.9-2.4-17.8c-1.3-1.1-4-2.4-6.7-3.6c-3.1-1.5-6.2-2.9-7.1-4
		c-1.8-2.1-2.1-8.3-2.1-8.5V105c0.8-2.6,2.7-3.5,2.8-3.5l0,0l3.8-1.2c-0.1-0.1-0.1-0.2-0.2-0.3c-0.1-0.3-0.2-0.8,0.1-1.3
		c0.3-0.6,0.3-1,0.2-1.2c0-0.1-0.1-0.2-0.2-0.2l-3.8,2.1l-3.4,3.1c-0.1,0.1-0.2,0.1-0.3,0.1c-9.2,1-28.1-2.4-39.6-12.6
		c-6.7-6.1-10.1-13.7-10.1-22.6c0-11,5.4-20,15.5-26.1c9.3-5.5,22.1-8.4,37.2-8.4c15.5,0,27.9,2.6,36.8,7.8
		c9.3,5.4,14.7,13.6,16.1,24.3c1.5,11.4-3.5,19.4-7.9,24.2c-4.2,4.5-8.7,7-9.8,7.5c-0.7,9.2,11.6,12.6,11.7,12.6
		c0.2,0.1,0.3,0.2,0.3,0.4c0,0.2-0.1,0.4-0.3,0.4c-11.5,2.9-21.9-5.6-23.6-7.1c-2.2,0.9-4.8,0.8-6.6,0.4c1.2,1,2.5,2.4,2.5,3.3
		c0,0.3-0.2,0.7-0.6,0.9c-1.1,0.7-2.2-0.1-3.1-0.8c-0.8-0.6-1.2-0.9-1.6-0.7c-0.2,0.7,3.1,3.5,4.2,4.4c0.8,0.7,1.6,1.3,2,1.8
		c2.1,2.1,6.9,20.8,7,21.6c1.1,4.5,5.1,12.8,6.4,15.5l2.6-4.8c0.1-0.2,0.3-0.2,0.4-0.2c6.3,0.8,10.8,11.6,11.9,14.4
		c0.4-0.8,0.9-1.6,1.2-2.2c-2.4-4.2-8.9-14.2-12.6-14.6c-0.8-0.1-1.2-0.4-1.5-1c-0.6-1.5,1.1-3.7,3.9-7.4c2-2.7,4.4-5.7,4.7-7.6
		c0.8-5.2,17.6-13.2,23.8-14.5c0.2-0.1,0.6,0.1,0.6,0.3c0,0,1,3.4,3.3,6.4c-0.7-2.6-1-5.3-1.2-7.4c-4.4-3.4-6.2-9.4-7.1-12.7
		c-1-0.2-3.9-1.3-4.8-7.3c-0.1-0.3-0.7-1.7,0-2.9c0.4-0.8,1.2-1.5,2.5-1.7c-0.9-1.7-3.1-6.5-2.6-10c0.7-4,3.5-11,13.9-12.5
		c11.4-1.6,17.8,1.1,20.3,8.3c0.6,1.7,0,4.6-0.6,7.5c-0.2,1.1-0.4,2.2-0.6,3.1c0.7-0.4,1.6-0.9,2.2-0.6c0.8,0.3,1.2,1.5,1,3.4
		c-0.2,4.4-1.1,9.6-3.5,10.1c-0.1,0-0.3,0-0.4-0.1c-0.1-0.1-0.2-0.2-0.2-0.3s-0.3-8-3-12.1c-1.2-1.9-1.3-3.8-1.3-5.5
		c-0.1-1.1-0.1-2.1-0.4-3c-0.9,0.6-3,1.8-6,2.4c-3.5,0.8-8.7,0.8-13.8-3.1c-0.9,0.7-3.7,3.1-2.9,7.5l0,0c0,0.2,2.1,18.8,7.8,24.8
		c0.1,0.1,0.1,0.2,0.1,0.3c0,0,0,1.7,0.2,3.9c1.5,1,3.1,1.7,5.2,1.8c8.2,0.7,13.9-10.6,13.9-10.7c0.1-0.2,0.3-0.3,0.4-0.2
		c0.2,0,0.3,0.2,0.4,0.3c0.2,1,2.2,3.1,2.9,3.9c0.1,0.1,0.1,0.2,0.1,0.3c0,0.2,0,0.7,0,1.1c0.2,3.9,0.8,13.2-10.3,16.6
		c-3.3,1-6.3,0.8-9-0.7c-0.4-0.2-0.8-0.4-1.1-0.7c0.7,1.2,1.5,2.2,2.4,2.8c2.2,1.5,4.8,1.7,7.8,0.9c4.8-1.3,9.2-5.4,10.8-8.5
		c2.8-5.5,1.7-9.7,0.9-12.1l-0.1-0.2c0-0.1,0-0.3,0.1-0.4c0.1-0.1,0.3-0.2,0.4-0.1c0.9,0.1,23.3,3.9,28.4,5.8c0.1,0,0.1,0.1,0.2,0.1
		c0.1,0.1,12.5,13.2,16.2,30c0,0.1,0,0.1,0,0.2s-0.4,1.9-1.7,3.9c1.1,5.6,2.4,16.4,2.4,17c0,0,0,0,0,0.1c-0.1,3.1-0.2,5.7-0.4,7.6
		c0.7,3.7,1,7.1,0.6,9.1h56.8c0.2,0,0.4,0.2,0.4,0.4c0,0.2-0.2,0.4-0.4,0.4h-57.4c-0.1,0-0.3-0.1-0.4-0.2c-0.1-0.1-0.1-0.3,0-0.4
		c0.6-1.3,0.4-3.6,0-6.4c-0.9,3.6-2.5,4.3-5.5,5.1c-0.6,0.1-1,0.3-1.7,0.4c-10.9,3.5-46.2,0.1-48.2-0.1l-5.3,0.3
		c-1.7,1.6-7,1.8-16.1,0.7c-1.1-0.1-2.1-1.1-2.9-2.1v2c0,0.2-0.2,0.4-0.4,0.4L290.1,184L290.1,184z M295.6,179.4
		c-1.5,1.2-2.8,2.5-3.8,3.4l30-5.2v-1.5L295.6,179.4z M284.9,172.7l3.3,6.5l7.1-0.9c2-1.8,3.9-3.7,4.8-4.8c0.4-0.6,1.5-1.7,2.6-2.9
		c2.6-2.8,6.5-7.1,9.6-11.5c-0.7,0.1-1.3,0.3-2,0.6c-2,3.1-4.5,6.4-6.6,8.3c-6.2,5.7-10.1,8-13.3,7.6
		C288.2,175.6,286.6,174.4,284.9,172.7z M313.4,158.9c-3,4.7-7.3,9.3-10.1,12.4c-1.2,1.2-2.1,2.4-2.6,2.9c-0.8,1-2.2,2.5-3.9,4
		l25.4-3c-0.1-0.2-0.3-0.4-0.4-0.7c-0.3-0.6-0.9-1.5-1.2-1.6c-1.2,1.6-3.1,1.2-3.1,1.2c-0.2,0-0.4-0.2-0.3-0.6l0.3-4.2v-0.1l2.2-5.4
		c-0.2-1.2-0.4-2.5-0.6-3.8C317.6,159.3,315.7,158.7,313.4,158.9z M320.6,171.7L320.6,171.7c0.8,0,1.3,0.9,2,2.1
		c0.9,1.3,2,3.1,3.3,3.3c11.7,1.5,14.7,0.3,15.4-0.6c0.1-0.1,0.2-0.1,0.3-0.2l5.5-0.3c0,0,0,0,0.1,0c0.3,0,37.1,3.6,47.9,0.2
		c0.6-0.2,1.1-0.3,1.7-0.4c3-0.9,4.6-1.2,5.2-7c-1.8-9.2-6.1-21-6.1-21.2c-0.1-0.2,0-0.6,0.2-0.7c1.7-0.8,2.9-1.9,3.8-3
		c-0.1-0.4-0.2-0.9-0.3-1.3c-1.6,1.7-6.6,5.7-18.8,5.4c1.1,8.8,0.7,10.7,0.1,11.4c-0.1,0.1-0.2,0.1-0.3,0.2
		c-0.1,0-11.4,2.5-17.1,5.5c-3.9,2.1-11,2.6-21.1,1.5h-0.1c-1.3-0.1-2.5-1-3.7-2c-2-1.6-4.2-3.3-7.4-2.5c-5.4,1.3-7.5,2-7.5,2
		c-0.2,0.1-0.4,0-0.6-0.2c-0.1-0.1-0.9-1.7-2.7-3c0.3,1.8,0.4,3,0.4,3c0,0.1,0,0.2,0,0.2l-2.4,5.4l-0.3,3.6c0.4,0,1.2-0.1,1.8-0.9
		C320.1,171.9,320.3,171.7,320.6,171.7z M283,168.8c0.1,0.1,0.1,0.2,0.2,0.2c2.6,3.4,4.6,5.4,7,5.6c2.9,0.2,6.6-1.9,12.6-7.4
		c1.9-1.8,4.3-4.7,6.1-7.6v-0.1c0-0.1-4.6-13.2-10.9-14.3l-2.9,5.4c-0.1,0.1-0.2,0.2-0.4,0.2c-0.2,0-0.3-0.1-0.4-0.2
		c-0.2-0.4-5.5-11.1-7-16.6c-1.9-7.6-5.3-19.7-6.7-21.1c-0.4-0.4-1.2-1-2-1.7c-2.7-2.2-4.6-3.9-4.6-5.2c0-0.3,0.1-0.6,0.4-0.8
		c1-0.7,2,0,2.8,0.7c0.9,0.7,1.5,1,2,0.7c0.1,0,0.1-0.1,0.1-0.1c0-0.7-2-2.6-3.9-3.8c-0.2-0.1-0.2-0.4-0.1-0.7
		c0.1-0.2,0.3-0.3,0.6-0.2c0,0,5.1,1.7,8.5,0c0.2-0.1,0.4,0,0.6,0.1c0.1,0.1,9.9,9.1,21.1,7.4c-1.2-0.4-3-1.2-4.7-2.5
		c-4.3-2.8-6.3-6.6-5.8-10.9c0-0.2,0.1-0.3,0.3-0.4c0,0,5.1-2.5,9.7-7.4c6.2-6.6,8.8-14.5,7.6-23.4c-1.3-10.5-6.6-18.3-15.6-23.6
		c-8.7-5.1-20.9-7.6-36.2-7.6c-25.1,0-51.8,8.8-51.8,33.6c0,8.7,3.3,16.1,9.8,21.9c11.1,10,29.6,13.3,38.7,12.4l3.4-3.1
		c0,0,0.1,0,0.1-0.1l4.2-2.2c0.1-0.1,0.2-0.1,0.3,0c0.1,0,0.7,0.2,1,0.9c0.2,0.6,0.1,1.2-0.3,2.1c-0.1,0.2-0.1,0.3,0,0.4
		c0.1,0.1,0.2,0.3,0.4,0.4l5.2-1.6c0.1,0,0.1,0,0.2,0c2.1,0.2,3.1,0.6,3.4,1.3c0.2,0.8-0.7,1.3-0.9,1.5c-0.1,0-0.1,0.1-0.2,0.1
		l-5.1,0.6h-0.1c-0.3,0-1.6-0.2-2.6-0.7l-4.6,1.5c-0.2,0.1-1.6,0.8-2.2,2.8c0,0.8,0.4,6.1,1.9,7.9c0.9,1,3.8,2.5,6.7,3.8
		c2.7,1.2,5.4,2.6,6.9,3.7c1.5,1.1,1.9,7.4,2.8,18.5c0.7,10,1.6,22.3,3.8,27.9L283,168.8z M332.7,160.7c2.7,0,4.7,1.6,6.4,2.8
		c1.2,0.9,2.2,1.7,3.3,1.8h0.1c9.9,1.1,16.9,0.7,20.6-1.3c5.5-2.9,15.5-5.2,17.1-5.5c0.6-1.1,0.2-5.4-0.4-10.7c-0.4,0-0.9,0-1.3-0.1
		c-0.2,0-0.3-0.1-0.4-0.3c-0.1-0.6-3.9-13.3-1.6-20.6c0.1-0.2,0.2-0.3,0.4-0.3c0.2,0,0.4,0.2,0.4,0.4c0,0.1,1.5,7.4,2.6,15
		c0.3,1.9,0.6,3.5,0.7,4.9c14.5,0.3,18.7-5.6,18.7-5.7c0.1-0.1,0.2-0.2,0.4-0.2s0.3,0.1,0.4,0.3c0.1,0.3,0.3,0.8,0.4,1.3
		c0.7-1.2,1-2.2,1-2.6c-3.6-15.7-14.8-28.2-15.8-29.3c-4.7-1.7-23.3-4.9-27.3-5.6c0.7,2.6,1.6,6.9-1.1,12.3
		c-1.7,3.4-6.3,7.6-11.5,9.1c-3.1,0.9-6.1,0.4-8.5-1c-1.6-1-2.7-2.9-3.6-5.2c-2.9-2.9-4.4-6.7-4.8-8.1c-6.9,1.7-21.9,9.3-22.6,13.6
		c-0.3,2.2-2.6,5.2-4.8,8.1c-1.9,2.5-4.2,5.4-3.8,6.4c0.1,0.2,0.3,0.3,0.7,0.3c4.9,0.7,13,14.7,13.4,15.4c0.1,0.1,0.1,0.3,0,0.4
		c-0.3,0.6-0.7,1.2-1,1.9c0.7-0.2,1.3-0.3,2-0.4c1.6-2.6,2.8-5.1,3.3-7.3c0.7-4.2-0.6-6.3-1.8-8.1c-1.1-1.7-2.1-3.3-1.2-6.1
		c0.2-0.7,0.6-1,1-1c0.6,0,1.6,0.1,4.4,14.4c0.7,3.5,1.2,6.9,1.7,9.6c2,1.2,3.1,2.8,3.6,3.5c0.8-0.2,3-0.9,7.2-1.9
		C331.5,160.8,332,160.7,332.7,160.7z M396.9,147.7c0.7,2,3.5,10.1,5.3,17.8c0.1-1.2,0.1-2.7,0.1-4.3c-0.1-0.7-1.1-10.5-2.1-16.1
		C399.4,146.1,398.2,147,396.9,147.7z M314.4,157.9c1.8,0,3.3,0.4,4.5,1c-0.6-3.4-1.1-6.6-1.7-9.6c0,0.4-0.1,1-0.2,1.6
		c-0.3,2.1-1.5,4.6-2.9,7C314.2,157.9,314.3,157.9,314.4,157.9z M378.8,146.9c0.2,0,0.6,0,0.8,0c-0.7-5.5-1.8-12-2.8-17.4
		C375.9,136,378.2,145.1,378.8,146.9z M313.9,136.8L313.9,136.8c-0.8,2.5,0.1,3.7,1.1,5.4c0.3,0.4,0.7,1,0.9,1.6
		C315.2,140,314.5,137.6,313.9,136.8z M334.5,119.7c0.7,0.7,1.6,1.3,2.5,1.8c2.5,1.3,5.2,1.5,8.2,0.6c10.5-3.3,9.9-11.9,9.7-15.6
		c0-0.3,0-0.7,0-0.9c-0.4-0.4-1.9-2-2.6-3.3c-1.6,2.7-6.5,10.5-13.7,10.5c-0.2,0-0.6,0-0.8,0c-1.9-0.1-3.6-0.7-4.9-1.6
		C333,113.8,333.6,117.1,334.5,119.7z M339.4,63.8c-1.7,0-3.6,0.1-5.6,0.4c-9.8,1.3-12.5,7.9-13.2,11.7c-0.7,3.9,2.7,9.9,2.7,10
		c0.1,0.1,0.1,0.3,0,0.4c-0.1,0.1-0.2,0.2-0.3,0.2c-1.2,0.2-2.1,0.7-2.5,1.3c-0.4,0.9,0,2.1,0,2.1v0.1c0.9,6.3,4.2,6.6,4.3,6.6
		c0.2,0,0.4,0.1,0.4,0.3c1.1,4.3,2.9,9,6.2,11.9c-0.1-1.3-0.1-2.4-0.1-2.8c-5.7-6.3-7.8-24.2-7.9-25.2c-1.1-5.7,3.6-8.8,3.7-8.8
		c0.2-0.1,0.4-0.1,0.6,0c4,3.1,8.4,4.3,13.3,3.3c3.6-0.8,6.1-2.6,6.1-2.6c0.1-0.1,0.2-0.1,0.4-0.1c0.1,0,0.2,0.1,0.3,0.2
		c0.7,1.2,0.8,2.5,0.8,3.9c0.1,1.7,0.2,3.4,1.2,5.1c2.4,3.7,2.9,9.7,3.1,11.8c0.9-0.9,1.8-3.5,2.1-8.9c0.1-2-0.3-2.4-0.4-2.5
		c-0.4-0.2-1.6,0.6-2.1,1.1c-0.1,0.1-0.3,0.2-0.6,0.1c-0.2-0.1-0.3-0.2-0.3-0.4c0-1.1,0.3-2.8,0.7-4.5c0.6-2.6,1.1-5.6,0.7-7
		C351.1,66.5,346.8,63.8,339.4,63.8z M268.3,100.5c0.3,0.1,0.7,0.1,1,0.2l4.9-0.6c0.1-0.1,0.2-0.2,0.3-0.3c-0.1-0.1-0.6-0.3-2.4-0.6
		L268.3,100.5z"/>
</g>
</svg>
