<?xml version="1.0" encoding="utf-8"?>
<!-- Generator: Adobe Illustrator 27.8.1, SVG Export Plug-In . SVG Version: 6.00 Build 0)  -->
<svg version="1.1" baseProfile="tiny" id="Layer_1" xmlns="http://www.w3.org/2000/svg" xmlns:xlink="http://www.w3.org/1999/xlink"
	 x="0px" y="0px" viewBox="0 0 640 320" overflow="visible" xml:space="preserve">
<g>
	<path fill="#777777" d="M293,187.3c-0.2,0-0.3-0.1-0.4-0.3c-0.1-0.2,0-0.4,0.1-0.5c0,0,1.7-1.4,3.7-3.2L291,184
		c-0.2,0-0.4-0.1-0.5-0.2l-4.7-9.5c-0.3-0.5-0.6-1.1-0.9-1.7l-12.3-25l-46.1-1.5l20,33.7l43.5,4.4c0.2,0,0.4,0.2,0.4,0.4v2.3
		c0,0.1-0.1,0.2-0.1,0.3c-0.1,0.1-0.2,0.1-0.3,0.1l-43.7-4.6h-50.8c-0.2,0-0.4-0.2-0.4-0.4c0-0.2,0.2-0.4,0.4-0.4h50.8c0,0,0,0,0,0
		l43.3,4.5V185l-43.4-4.4c-0.1,0-0.3-0.1-0.3-0.2l-20.5-34.6c-0.1-0.1-0.1-0.3,0-0.5c0.1-0.1,0.2-0.2,0.4-0.2l47.1,1.5
		c0.2,0,0.3,0.1,0.4,0.2l10.4,21.1c-1.1-5.6-1.7-13.4-2.2-20.6c-0.5-7.4-1.1-15-2.1-15.8c-1.2-1-3.6-2.1-6-3.2
		c-2.8-1.3-5.5-2.6-6.3-3.6c-1.6-1.9-1.9-7.4-1.9-7.6c0,0,0-0.1,0-0.1c0.7-2.3,2.4-3.1,2.5-3.1c0,0,0,0,0,0l3.4-1.1
		c-0.1-0.1-0.1-0.2-0.2-0.3c-0.1-0.3-0.2-0.7,0.1-1.2c0.3-0.5,0.3-0.9,0.2-1.1c0-0.1-0.1-0.2-0.2-0.2l-3.4,1.9l-3,2.8
		c-0.1,0.1-0.2,0.1-0.3,0.1c-8.2,0.9-25-2.1-35.2-11.2c-6-5.4-9-12.2-9-20.1c0-9.8,4.8-17.8,13.8-23.2c8.3-4.9,19.7-7.5,33.1-7.5
		c13.8,0,24.8,2.3,32.7,6.9c8.3,4.8,13.1,12.1,14.3,21.6c1.3,10.1-3.1,17.3-7,21.5c-3.7,4-7.7,6.2-8.7,6.7
		c-0.6,8.2,10.3,11.2,10.4,11.2c0.2,0.1,0.3,0.2,0.3,0.4c0,0.2-0.1,0.4-0.3,0.4c-10.2,2.6-19.5-5-21-6.3c-2,0.8-4.3,0.7-5.9,0.4
		c1.1,0.9,2.2,2.1,2.2,2.9c0,0.3-0.2,0.6-0.5,0.8c-1,0.6-2-0.1-2.8-0.7c-0.7-0.5-1.1-0.8-1.4-0.6c-0.2,0.6,2.8,3.1,3.7,3.9
		c0.7,0.6,1.4,1.2,1.8,1.6c1.9,1.9,6.1,18.5,6.2,19.2c1,4,4.5,11.4,5.7,13.8l2.3-4.3c0.1-0.2,0.3-0.2,0.4-0.2
		c5.6,0.7,9.6,10.3,10.6,12.8c0.4-0.7,0.8-1.4,1.1-2c-2.1-3.7-7.9-12.6-11.2-13c-0.7-0.1-1.1-0.4-1.3-0.9c-0.5-1.3,1-3.3,3.5-6.6
		c1.8-2.4,3.9-5.1,4.2-6.8c0.7-4.6,15.7-11.7,21.2-12.9c0.2-0.1,0.5,0.1,0.5,0.3c0,0,0.9,3,2.9,5.7c-0.6-2.3-0.9-4.7-1.1-6.6
		c-3.9-3-5.5-8.4-6.3-11.3c-0.9-0.2-3.5-1.2-4.3-6.5c-0.1-0.3-0.6-1.5,0-2.6c0.4-0.7,1.1-1.3,2.2-1.5c-0.8-1.5-2.8-5.8-2.3-8.9
		c0.6-3.6,3.1-9.8,12.4-11.1c10.1-1.4,15.8,1,18.1,7.4c0.5,1.5,0,4.1-0.5,6.7c-0.2,1-0.4,2-0.5,2.8c0.6-0.4,1.4-0.8,2-0.5
		c0.7,0.3,1.1,1.3,0.9,3c-0.2,3.9-1,8.5-3.1,9c-0.1,0-0.3,0-0.4-0.1c-0.1-0.1-0.2-0.2-0.2-0.3c0-0.1-0.3-7.1-2.7-10.8
		c-1.1-1.7-1.2-3.4-1.2-4.9c-0.1-1-0.1-1.9-0.4-2.7c-0.8,0.5-2.7,1.6-5.3,2.1c-3.1,0.7-7.7,0.7-12.3-2.8c-0.8,0.6-3.3,2.8-2.6,6.7
		c0,0,0,0,0,0c0,0.2,1.9,16.7,6.9,22.1c0.1,0.1,0.1,0.2,0.1,0.3c0,0,0,1.5,0.2,3.5c1.3,0.9,2.8,1.5,4.6,1.6
		c7.3,0.6,12.4-9.4,12.4-9.5c0.1-0.2,0.3-0.3,0.4-0.2c0.2,0,0.3,0.2,0.4,0.3c0.2,0.9,2,2.8,2.6,3.5c0.1,0.1,0.1,0.2,0.1,0.3
		c0,0.2,0,0.6,0,1c0.2,3.5,0.7,11.7-9.2,14.8c-2.9,0.9-5.6,0.7-8-0.6c-0.4-0.2-0.7-0.4-1-0.6c0.6,1.1,1.3,2,2.1,2.5
		c2,1.3,4.3,1.5,6.9,0.8c4.3-1.2,8.2-4.8,9.6-7.6c2.5-4.9,1.5-8.6,0.8-10.8l-0.1-0.2c0-0.1,0-0.3,0.1-0.4c0.1-0.1,0.3-0.2,0.4-0.1
		c0.8,0.1,20.7,3.5,25.3,5.2c0.1,0,0.1,0.1,0.2,0.1c0.1,0.1,11.1,11.7,14.4,26.7c0,0.1,0,0.1,0,0.2c0,0.1-0.4,1.7-1.5,3.5
		c1,5,2.1,14.6,2.1,15.1c0,0,0,0,0,0.1c-0.1,2.8-0.2,5.1-0.4,6.8c0.6,3.3,0.9,6.3,0.5,8.1h50.5c0.2,0,0.4,0.2,0.4,0.4
		c0,0.2-0.2,0.4-0.4,0.4h-51.1c-0.1,0-0.3-0.1-0.4-0.2c-0.1-0.1-0.1-0.3,0-0.4c0.5-1.2,0.4-3.2,0-5.7c-0.8,3.2-2.2,3.8-4.9,4.5
		c-0.5,0.1-0.9,0.3-1.5,0.4c-9.7,3.1-41.1,0.1-42.9-0.1l-4.7,0.3c-1.5,1.4-6.2,1.6-14.3,0.6c-1-0.1-1.9-1-2.6-1.9v1.8
		c0,0.2-0.2,0.4-0.4,0.4L293,187.3C293,187.3,293,187.3,293,187.3z M297.9,183.2c-1.3,1.1-2.5,2.2-3.4,3l26.7-4.6v-1.3L297.9,183.2z
		 M288.4,177.3l2.9,5.8l6.3-0.8c1.8-1.6,3.5-3.3,4.3-4.3c0.4-0.5,1.3-1.5,2.3-2.6c2.3-2.5,5.8-6.3,8.5-10.2
		c-0.6,0.1-1.2,0.3-1.8,0.5c-1.8,2.8-4,5.7-5.9,7.4c-5.5,5.1-9,7.1-11.8,6.8C291.3,179.8,289.9,178.8,288.4,177.3z M313.7,165
		c-2.7,4.2-6.5,8.3-9,11c-1.1,1.1-1.9,2.1-2.3,2.6c-0.7,0.9-2,2.2-3.5,3.6l22.6-2.7c-0.1-0.2-0.3-0.4-0.4-0.6
		c-0.3-0.5-0.8-1.3-1.1-1.4c-1.1,1.4-2.8,1.1-2.8,1.1c-0.2,0-0.4-0.2-0.3-0.5l0.3-3.7c0,0,0-0.1,0-0.1l2-4.8
		c-0.2-1.1-0.4-2.2-0.5-3.4C317.5,165.3,315.8,164.8,313.7,165z M320.1,176.4C320.1,176.4,320.1,176.4,320.1,176.4
		c0.7,0,1.2,0.8,1.8,1.9c0.8,1.2,1.8,2.8,2.9,2.9c10.4,1.3,13.1,0.3,13.7-0.5c0.1-0.1,0.2-0.1,0.3-0.2l4.9-0.3c0,0,0,0,0.1,0
		c0.3,0,33,3.2,42.6,0.2c0.5-0.2,1-0.3,1.5-0.4c2.7-0.8,4.1-1.1,4.6-6.2c-1.6-8.2-5.4-18.7-5.4-18.9c-0.1-0.2,0-0.5,0.2-0.6
		c1.5-0.7,2.6-1.7,3.4-2.7c-0.1-0.4-0.2-0.8-0.3-1.2c-1.4,1.5-5.9,5.1-16.7,4.8c1,7.8,0.6,9.5,0.1,10.1c-0.1,0.1-0.2,0.1-0.3,0.2
		c-0.1,0-10.1,2.2-15.2,4.9c-3.5,1.9-9.8,2.3-18.8,1.3l-0.1,0c-1.2-0.1-2.2-0.9-3.3-1.8c-1.8-1.4-3.7-2.9-6.6-2.2
		c-4.8,1.2-6.7,1.8-6.7,1.8c-0.2,0.1-0.4,0-0.5-0.2c-0.1-0.1-0.8-1.5-2.4-2.7c0.3,1.6,0.4,2.7,0.4,2.7c0,0.1,0,0.2,0,0.2l-2.1,4.8
		l-0.3,3.2c0.4,0,1.1-0.1,1.6-0.8C319.7,176.5,319.9,176.4,320.1,176.4z M286.7,173.8c0.1,0.1,0.1,0.2,0.2,0.2c2.3,3,4.1,4.8,6.2,5
		c2.6,0.2,5.9-1.7,11.2-6.6c1.7-1.6,3.8-4.2,5.4-6.8c0,0,0-0.1,0-0.1c0-0.1-4.1-11.7-9.7-12.7l-2.6,4.8c-0.1,0.1-0.2,0.2-0.4,0.2
		c-0.2,0-0.3-0.1-0.4-0.2c-0.2-0.4-4.9-9.9-6.2-14.8c-1.7-6.8-4.7-17.5-6-18.8c-0.4-0.4-1.1-0.9-1.8-1.5c-2.4-2-4.1-3.5-4.1-4.6
		c0-0.3,0.1-0.5,0.4-0.7c0.9-0.6,1.8,0,2.5,0.6c0.8,0.6,1.3,0.9,1.8,0.6c0.1,0,0.1-0.1,0.1-0.1c0-0.6-1.8-2.3-3.5-3.4
		c-0.2-0.1-0.2-0.4-0.1-0.6c0.1-0.2,0.3-0.3,0.5-0.2c0,0,4.5,1.5,7.6,0c0.2-0.1,0.4,0,0.5,0.1c0.1,0.1,8.8,8.1,18.8,6.6
		c-1.1-0.4-2.7-1.1-4.2-2.2c-3.8-2.5-5.6-5.9-5.2-9.7c0-0.2,0.1-0.3,0.3-0.4c0,0,4.5-2.2,8.6-6.6c5.5-5.9,7.8-12.9,6.8-20.8
		c-1.2-9.3-5.9-16.3-13.9-21c-7.7-4.5-18.6-6.8-32.2-6.8c-22.3,0-46.1,7.8-46.1,29.9c0,7.7,2.9,14.3,8.7,19.5
		c9.9,8.9,26.3,11.8,34.4,11l3-2.8c0,0,0.1,0,0.1-0.1l3.7-2c0.1-0.1,0.2-0.1,0.3,0c0.1,0,0.6,0.2,0.9,0.8c0.2,0.5,0.1,1.1-0.3,1.9
		c-0.1,0.2-0.1,0.3,0,0.4c0.1,0.1,0.2,0.3,0.4,0.4l4.6-1.4c0.1,0,0.1,0,0.2,0c1.9,0.2,2.8,0.5,3,1.2c0.2,0.7-0.6,1.2-0.8,1.3
		c-0.1,0-0.1,0.1-0.2,0.1l-4.5,0.5c0,0-0.1,0-0.1,0c-0.3,0-1.4-0.2-2.3-0.6l-4.1,1.3c-0.2,0.1-1.4,0.7-2,2.5c0,0.7,0.4,5.4,1.7,7
		c0.8,0.9,3.4,2.2,6,3.4c2.4,1.1,4.8,2.3,6.1,3.3c1.3,1,1.7,6.6,2.5,16.5c0.6,8.9,1.4,19.8,3.4,24.8L286.7,173.8z M330.9,166.6
		c2.4,0,4.2,1.4,5.7,2.5c1.1,0.8,2,1.5,2.9,1.6l0.1,0c8.8,1,15,0.6,18.3-1.2c4.9-2.6,13.8-4.6,15.2-4.9c0.5-1,0.2-4.8-0.4-9.5
		c-0.4,0-0.8,0-1.2-0.1c-0.2,0-0.3-0.1-0.4-0.3c-0.1-0.5-3.5-11.8-1.4-18.3c0.1-0.2,0.2-0.3,0.4-0.3c0.2,0,0.4,0.2,0.4,0.4
		c0,0.1,1.3,6.6,2.3,13.3c0.3,1.7,0.5,3.1,0.6,4.4c12.9,0.3,16.6-5,16.6-5.1c0.1-0.1,0.2-0.2,0.4-0.2c0.2,0,0.3,0.1,0.4,0.3
		c0.1,0.3,0.3,0.7,0.4,1.2c0.6-1.1,0.9-2,0.9-2.3c-3.2-14-13.2-25.1-14.1-26.1c-4.2-1.5-20.7-4.4-24.3-5c0.6,2.3,1.4,6.1-1,10.9
		c-1.5,3-5.6,6.8-10.2,8.1c-2.8,0.8-5.4,0.4-7.6-0.9c-1.4-0.9-2.4-2.6-3.2-4.6c-2.6-2.6-3.9-6-4.3-7.2c-6.1,1.5-19.5,8.3-20.1,12.1
		c-0.3,2-2.3,4.6-4.3,7.2c-1.7,2.2-3.7,4.8-3.4,5.7c0.1,0.2,0.3,0.3,0.6,0.3c4.4,0.6,11.6,13.1,11.9,13.7c0.1,0.1,0.1,0.3,0,0.4
		c-0.3,0.5-0.6,1.1-0.9,1.7c0.6-0.2,1.2-0.3,1.8-0.4c1.4-2.3,2.5-4.5,2.9-6.5c0.6-3.7-0.5-5.6-1.6-7.2c-1-1.5-1.9-2.9-1.1-5.4
		c0.2-0.6,0.5-0.9,0.9-0.9c0.5,0,1.4,0.1,3.9,12.8c0.6,3.1,1.1,6.1,1.5,8.5c1.8,1.1,2.8,2.5,3.2,3.1c0.7-0.2,2.7-0.8,6.4-1.7
		C329.8,166.7,330.3,166.6,330.9,166.6z M388,155c0.6,1.8,3.1,9,4.7,15.8c0.1-1.1,0.1-2.4,0.1-3.8c-0.1-0.6-1-9.3-1.9-14.3
		C390.2,153.6,389.2,154.4,388,155z M314.6,164.1c1.6,0,2.9,0.4,4,0.9c-0.5-3-1-5.9-1.5-8.5c0,0.4-0.1,0.9-0.2,1.4
		c-0.3,1.9-1.3,4.1-2.6,6.2C314.4,164.1,314.5,164.1,314.6,164.1z M371.9,154.3c0.2,0,0.5,0,0.7,0c-0.6-4.9-1.6-10.7-2.5-15.5
		C369.3,144.6,371.4,152.7,371.9,154.3z M314.2,145.3C314.2,145.3,314.2,145.3,314.2,145.3c-0.7,2.2,0.1,3.3,1,4.8
		c0.3,0.4,0.6,0.9,0.8,1.4C315.3,148.2,314.7,146,314.2,145.3z M332.5,130.1c0.6,0.6,1.4,1.2,2.2,1.6c2.2,1.2,4.6,1.3,7.3,0.5
		c9.3-2.9,8.8-10.6,8.6-13.9c0-0.3,0-0.6,0-0.8c-0.4-0.4-1.7-1.8-2.3-2.9c-1.4,2.4-5.8,9.3-12.2,9.3c-0.2,0-0.5,0-0.7,0
		c-1.7-0.1-3.2-0.6-4.4-1.4C331.2,124.9,331.7,127.8,332.5,130.1z M336.9,80.4c-1.5,0-3.2,0.1-5,0.4c-8.7,1.2-11.1,7-11.7,10.4
		c-0.6,3.5,2.4,8.8,2.4,8.9c0.1,0.1,0.1,0.3,0,0.4c-0.1,0.1-0.2,0.2-0.3,0.2c-1.1,0.2-1.9,0.6-2.2,1.2c-0.4,0.8,0,1.9,0,1.9
		c0,0,0,0.1,0,0.1c0.8,5.6,3.7,5.9,3.8,5.9c0.2,0,0.4,0.1,0.4,0.3c1,3.8,2.6,8,5.5,10.6c-0.1-1.2-0.1-2.1-0.1-2.5
		c-5.1-5.6-6.9-21.5-7-22.4c-1-5.1,3.2-7.8,3.3-7.8c0.2-0.1,0.4-0.1,0.5,0c3.6,2.8,7.5,3.8,11.8,2.9c3.2-0.7,5.4-2.3,5.4-2.3
		c0.1-0.1,0.2-0.1,0.4-0.1c0.1,0,0.2,0.1,0.3,0.2c0.6,1.1,0.7,2.2,0.7,3.5c0.1,1.5,0.2,3,1.1,4.5c2.1,3.3,2.6,8.6,2.8,10.5
		c0.8-0.8,1.6-3.1,1.9-7.9c0.1-1.8-0.3-2.1-0.4-2.2c-0.4-0.2-1.4,0.5-1.9,1c-0.1,0.1-0.3,0.2-0.5,0.1c-0.2-0.1-0.3-0.2-0.3-0.4
		c0-1,0.3-2.5,0.6-4c0.5-2.3,1-5,0.6-6.2C347.3,82.8,343.4,80.4,336.9,80.4z M273.6,113c0.3,0.1,0.6,0.1,0.9,0.2l4.4-0.5
		c0.1-0.1,0.2-0.2,0.3-0.3c-0.1-0.1-0.5-0.3-2.1-0.5L273.6,113z"/>
</g>
</svg>
