<?xml version="1.0" encoding="UTF-8"?><svg id="Layer_1" xmlns="http://www.w3.org/2000/svg" viewBox="0 0 400.41 400"><defs><style>.cls-1{fill:none;stroke:#58595b;stroke-linecap:round;stroke-linejoin:round;}.cls-2{fill:#fff;stroke-width:0px;}</style></defs><rect class="cls-2" width="400" height="400"/><path class="cls-1" d="m399.91,305.04h-96.84c1.52-2.85-.7-8.12-.35-11.59.38-3.73.95-8.07,1.75-11.81,1.92-8.92,6.3-17.67,6.24-26.99-2.98,2.79-4.09,8.15-6.42,11.71-3.06,4.67-8.15,8.12-5.88,13.9.97,2.48,2.41,4.55,1.48,7.33-.88,2.64-4.41,2.91-4.89,5.12-.83,3.84,6.46,8.07,6.2,12.34h-21.21c-.84-2.31-.47-5.45-.71-7.94-.6-6.18-2.6-11.73-3.58-17.66-.42-2.54.34-6.04-1.99-7.9-2.74-2.2-5.11-.5-6.42,1.75-1.62,2.77-.65,6.16-2.3,8.81-1.5,2.41-4.62,4.12-6.5,6.29-3.4,3.93-6.04,11.6-4.49,16.64,2.3-1.94,3.53-5.41,5.4-8.01,2.56-3.55,3.78-7.24,5.69-11.27,3.5-7.37,10.85-10.26,8.72-18.68-1.47-5.83,3.32-10.35,1.73-15.67-1.49-5-4.27-9.96-6.05-14.82-1.99-5.4-3.37-10.39-3.67-16.4-.28-5.7,1.24-13.38-.85-18.53,2.41,5.36-.33,14.54-.33,20.37,0,6.94,1.03,13.27,2.64,19.78,1.6,6.5,3.54,10.68,10.55,11.36,6.24.61,11.72.08,17.95-1.1,5.39-1.03,13.32-3.49,18.62-2.24,1.73-6.95,1.54-16.99-.02-24.05-.72-3.29-2.59-6.44-5.32-8.6-2.4-1.89-9.46-3.44-9.56-7.18,3.85-.38,7.49,2.78,10.5,4.3-.48-6.11-11.33-7.53-11.31-13.49.03-6.77,10.98,6.52,12.4,7.64.37-5.58-1.81-10.29,1.9-14.9,3.19-3.96,6.38-7.85,8.43-12.54,2.37-5.43,1.7-10.78,2.94-16.48,1.24-5.74,2.18-11.42-2.93-15.76-9.32-7.93-28.85,1.96-37.67,6.57.62-3.34,3.53-6.68,4.37-10.17,5.48-.05,11.71-.19,16.27-3.51,1.45-1.06,1.89-1.91,2.37-3.51.56-1.87-1.03-4.08.07-6.5.8-1.76,2.74-2.86,3.86-4.56,1.35-2.04,1.52-4.59,1.9-6.9.83-5.02,1.27-9.8-.78-14.59-5.2-.86-10.44-1.41-15.62-3.08-1.35-.44-4.82-2.45-6.23-2.21-3.03.51-1.35,2.73,1.1,3.68,2.26.88,11.45,3.07,11.45,3.07.81,1.25-1.45,2.82-1.11,3.73.92,2.48,3.55-.04,3.52,3.17-.02,2.18-2.27,4.06-2.53,6.17,1.37-.03,2.17.32,3.24,1.01,1.57-2.98,6.38-3.58,6.59.51.16,3.01-3.15,5.88-5.46,6.87,1.49.96,1.28,3.09.67,4.71,5.06-8.1,10.93-17.79,7.35-27.32-3.04-8.11-19.58-15.4-26.65-7.62-1.21,1.33-.51,2.15-1.11,3.49-.33.73-.98,1.61-1.56,2.55-1.38,2.24-2.55,4.85-3.43,7.26-1.2,3.32-.15,4.46-.23,7.49-.07,2.87-2.28,4.33-2.3,7.06,0,.18,1.1,5.47,1.21,6.49.31,2.95-.16,5.38,0,8.43.32,6.31-.82,11.04-4.07,16.72,3.35-4.67,11.02-7.58,16.34-9.59,6.01-2.27,13.46-3.58,19.64-5.34-.74-3.41-2.57-5.5-4.51-8.7,0,0-23.64,16.55-27.43,5.17-2.84,2.16-6.09,4.2-8.48,7.15-2.69,3.32-3.74,7.46-4.68,11.44-.73,3.08.02,2.99-3.2,2.1-1.74-.48-3.82-1.87-5.59-2.56-3.61-1.41-7.13-2.99-10.95-3.14.49.83.67,2.26,1,3.18-2.76-.19-4.42-3.61-6.27-5.37-2.05-1.94-4.72-2.89-7.09-4.41,1.53.74,3.07,1.19,4.63,1.77,10.26,3.78,20.46,7.85,31.15,11,5.01,1.47,10.85-1.4,15.75-3.29,5.96-2.3,9.69-1.29,14.55,2.86.1-.1.19-.2.3-.3-.33-2.55-3.28-2.51-4.64-4.4,1.98-1.99,9.04-.06,11.76.35,4.03.61,8.16,1.67,12.03,2.54.15-4.33-6-5.38-9.1-5.81-2.6-.36-8.71,2.13-10.29.37,2.32-3.32,10.58-5.32,14.32-5.49,4.87-.23,9.74.63,12.11,5.38,2.47,4.96.93,11.06-1.94,15.11-3.77,5.34-8.29,5.64-14.2,6.25-5.99.62-12.28.09-17.95,1.83-5.74,1.76-10.16,3.6-16.48,3.3-3.15-.15-4.9-1.24-7.6-2.29-2.78-1.08-4.78-.63-7.78-.64-4.82-.01-10.24-2.07-13.65-5.48-2.5-2.48-2.84-4.42-6.86-4.78-2.92-.26-5.47.54-8.34-.45-2.91-1-2.25-2.75-4.38-4.78-1.62-1.55-4.33-1.75-6.27-2.9.77-3.9,1.27-10.15,4.34-13.15,1.35,1.35-1.75,5.81-2.84,7.44-2.37,3.56-3.97,2.85-7.78,2.47-2.56-.25-6.76-.43-8.7-2.28-1.45-1.39-4.01-7.15-2.1-8.39-1.89-1.14-1.95-2.9-.98-5.01-3.35-.29-13.15.38-13.18-2.26,2.86-3.41,17.21-1.69,22.4-.08,3.74,1.16,6.02,2.86,9.23,5.14,2.89,2.05,7.04,2.33,9.48,4.48-2.28,5.96-3.23,12.71-5.84,18.61,8.08,5.03,17.41,7.98,26.32,10.98,3.87,1.31,9.6,1.77,9.89,5.94.28,3.99-1.22,10.29-2.19,14.3-2.53,10.5-4.13,22.63-11.28,31.52-1.78,2.21-3.62,3.5-4.39,6.29-.73,2.6-.53,5.76-1.1,8.42-.31,1.47-1.46,7.38-3.75,6.9-1.91-.4-.38-5.97-1.82-7.39-.8.78-.99,1.67-.67,2.9,3.83.25,1.7,5.53-1.26,4.93-1.05-.21-4.81-4.41-5.47-5.5-1.92-3.17.46-4.51,2.35-7.77,1.58-2.72,3.09-6.27,2.68-9.22-.59,1.98-1.68,3.66-2.63,5.48,3.38,1.19,7.89.99,10.89,2.65-.02.28-.04.28-.05,0,.63-1.09,1.28-2.25,1.9-3.33-1.84-2.4-7.75-4.8-10.6-5.93.02-5.11,4.83-11.71,7.18-16.42,3.17-6.34,5.4-12.62,9.62-18.32,2.02-2.73,3.89-5.61,5.84-8.43,2.52-3.65,3.15-3.9,7.25-2.84,5.51,1.43,10.5,1.98,16.57,1.37,6.3-.63,11.99-.6,17.97-2.93,2.96-1.15,5.2-1.99,8.43-1.48,2.39.38,5.53,2.56,7.63,1.91-15.37,2.83-31.12,6.72-47.14,3.66-.32.56-.49,1.22-.9,1.78-4.48,6.2-7.15,68.82-21.08,60.86-1.36,9.68-5.19,19.78-7.68,29.26-2.59,9.85-5.42,20.54-6.31,30.64H17.04"/></svg>