<?xml version="1.0" encoding="utf-8"?>
<!-- Generator: Adobe Illustrator 27.8.1, SVG Export Plug-In . SVG Version: 6.00 Build 0)  -->
<svg version="1.1" id="Layer_1" xmlns="http://www.w3.org/2000/svg" xmlns:xlink="http://www.w3.org/1999/xlink" x="0px" y="0px"
	 viewBox="0 0 640 320" style="enable-background:new 0 0 640 320;" xml:space="preserve">
<style type="text/css">
	.st0{fill:#898989;}
</style>
<g>
	<path class="st0" d="M467,208.7H313.3c-0.1,0-0.3,0-0.3-0.1c-0.1-0.1-0.1-0.1-0.1-0.3c0.3-9-3.8-17.8-3.8-17.9
		c-0.1-0.3-0.3-0.5-0.3-0.8c-15.4,4.9-29.6,4.8-39,3.8c-9.8-1.1-16.4-3.3-17.6-3.8c-4.4,4.1-7.1,18.6-7.1,18.8
		c0,0.1-0.1,0.3-0.4,0.3H173c-0.3,0-0.4-0.1-0.4-0.4c0-0.3,0.1-0.4,0.4-0.4h71.4c0.5-2.3,3.3-15.1,7.5-19c0.1-0.1,0.3-0.1,0.4-0.1
		c0.1,0,7,2.6,17.6,3.8c9.4,1,23.5,1.3,38.8-3.8c-0.3-1.3-0.3-2.9,0-4.3c-4.3,1.4-16.9,4.8-32.6,3.4c-19.5-1.6-23.4-4.9-23.5-5l0,0
		c-0.1-0.1-3.4-3.9-1.6-8.3c1.6-3.9,2.5-6.4,1.9-7.6c-0.8-1.6,0.4-4.8,1.3-5.8c0.4-0.5,0.3-3.8-0.1-7.3H253c-1.3,2-2.9,4.6-4.3,5.1
		c-2,0.9-7.6,0.4-9.3-0.5c-1.5-0.9-3.4-1.5-3.4-1.5s-0.1,0-0.1-0.1c-0.5-0.6-1-1.1-1.3-1.3c-0.5,0-1.8-0.6-2.3-1
		c-0.3-0.1-0.5-0.5-0.9-1c-0.4-0.5-1-1.3-1.3-1.3c-0.6-0.3-0.5-1-0.5-1.8c0-0.4,0-1-0.1-1.1c-0.8-0.8-2-2.3-1.6-3.6
		c0.1-0.3,0.3-0.6,0.5-0.9c-0.4-0.1-0.8-0.3-0.8-0.3h-0.1l-9.4-4l0,0c-0.8-0.4-1.8-1-1.6-1.8c0.3-1,2.3-1.3,2.9-1.3l0,0l23.9,0.9
		c4-0.3,6.4,1.3,6.6,1.4l4.4,2.1c0.1-1.6,0.4-3.8,1.1-5c1.1-1.8,1.5-8.3,1.3-10.4c0-0.4-0.3-1-0.4-1.8c0,0.1,0,0.3-0.1,0.4
		c-2.4,8.8-2.3,15.3-2.3,15.4c0,0.1,0,0.3-0.1,0.4c-0.1,0.1-0.3,0.1-0.4,0l-5.1-2.8c-0.4-0.1-3.5-1-6.5-0.9c-0.1,0-0.3,0-0.3-0.1
		c-0.1-0.1-0.1-0.3-0.1-0.3c0.1-0.4,1.6-8.6,3.5-11.6c1.5-2.3,2-5.6,2.4-7.6c0.1-0.5,0.1-1,0.3-1.3c0.1-0.4,0.3-1.4,0.5-2.6
		c0.6-3.6,1.6-9.5,2.8-12.5c1.3-3.4,4-9.1,7.5-9.3c2.9-0.1,16-4.5,18.4-6.6c0.3-0.6,2.4-4.6,5.9-4.9c0.1,0,0.1,0,0.3,0.1
		c0.3-2.3,0.4-5.1,0.1-7c-0.3-2.3-0.3-3.6-0.3-4.4c-0.3,0-0.6,0-1-0.1c-0.8-0.4-1.3-1.3-1.5-2.6c0-0.3-0.1-0.6-0.1-0.9
		c-0.5-2.9-1.3-6.5-0.1-8c0.4-0.4,0.8-0.6,1.3-0.8h0.1c0-0.4,0-0.5-0.1-0.6c0-0.1-0.3-2.9,1.8-9.3c0.9-3,3.4-5.5,7.1-7
		c3.1-1.4,6.9-2,10.5-1.8c5.3,0.3,8,3.6,8.8,5.3c0,0,0,0.1,0.1,0.1c0.5,0.1,1.3,0.5,2.1,1.4c4.1,3.5,3.1,10.9,1.8,13.9
		c-0.1,0.3-0.3,0.5-0.4,0.8c0.4,0.1,0.8,0.4,1,0.6c0.9,1.3,0.1,3.9-0.6,6.5c-0.1,0.5-0.3,1.1-0.5,1.6c-0.4,1.6-1,2.5-1.8,2.6
		c-0.3,0-0.5,0-0.6,0c-0.1,0.8-0.6,2.3-2.1,4.9c-0.8,1.3-1.6,2.5-2.8,3.4c-0.6,2.5-1,4.5-0.6,5.5c0,0.1,0,0.3,0,0.4
		c-0.3,0.4-6.3,8.3-9.9,9.8c-0.4,0.1-0.8,0.4-1.1,0.5c2.6-0.9,5.4-1.5,7-0.6c0.1-0.1,0.5-0.4,0.8-0.5c0.5-1,1.1-1.9,1.9-2h0.1
		c0,0,0.8,0.1,1.3-0.5c0.5-0.6,1.1-2,0.4-5.3c0-0.1,0.1-0.4,0.3-0.4c0.1,0,0.4,0,0.5,0.1c0,0,0.9,1.6,2.3,3.5
		c0.1-0.9,0.4-1.8,0.9-2.4c1-1.4,4.4-5,6.5-4c0.4,0.1,0.6,0.5,0.8,0.9c0.3,1.1-0.8,2.5-1.6,3.8c-0.3,0.4-0.5,0.8-0.6,0.9
		c-0.4,0.8-0.3,1.9-0.3,2.3v0.1c-0.3,1-0.5,2.6-0.4,3c0,0,0,0.1,0.1,0.3c0.5,0.3,1.1,0.3,1.6,0.3c5-0.4,13.4,4.8,14.1,7.3l0.1,0.5
		c1,3.4,1.9,7,1.3,8.6c-0.4,0.8,0.1,1.9,0.5,2.9c0.4,1.1,0.9,2.1,0.5,3c-0.3,0.6-0.4,2-0.5,3.3c-0.1,1.6-0.3,2.8-0.6,3.1
		c-0.5,0.5-0.4,3.8,0.1,5.6c0.4,1.6-0.5,13.5-4,16.1c-3,2.3-9.6,1.8-12.9,0c0,0.6,0.1,1.4,0.1,2c0.3,3.3,0.4,6.3-0.1,8
		c-0.1,0.3-0.3,0.6-0.4,1c-1,3.3-2.9,8.6-2.4,10.8c0.1,0.9,0.5,1.6,0.9,2.4c0.6,1.3,1.1,2.4,0.8,3.6c-0.3,0.8-0.6,1.4-0.9,1.9
		c-0.5,0.9-0.8,1.5-0.6,2.1c0,0.1,0.1,0.4,0.1,0.5c0.5,1.4,1.4,4-1,5.1c-0.4,0.1-0.6,0.4-0.9,0.8h0.1c0.1,0,0.3,0,0.4,0
		c0.1,0,0.1,0.1,0.1,0.3l0.9,4.8c0,0.1-0.1,0.4-0.3,0.4c-0.5,0.1-1,0.4-1.5,0.5c0.1,0.3,0.1,0.5,0.3,0.8c0,0.1,4,8.8,3.9,17.8H467
		c0.3,0,0.4,0.1,0.4,0.4C467.4,208.7,467.3,208.7,467,208.7z M309.6,184.4c-0.4,1.4-0.4,3-0.1,4.3c0.4-0.1,0.8-0.3,1.1-0.4l-0.8-4
		C309.8,184.4,309.7,184.4,309.6,184.4z M253,182.6c0.3,0.3,4.6,3.3,23,4.8c16.3,1.4,29.3-2.3,32.9-3.5c0.4-0.9,0.9-1.5,1.5-1.8
		c1.6-0.8,1.3-2.5,0.6-4.3c-0.1-0.3-0.1-0.4-0.1-0.5c-0.3-0.9,0.1-1.8,0.6-2.6c0.3-0.5,0.6-1.1,0.9-1.8c0.4-1-0.1-2-0.6-3
		c-0.4-0.8-0.8-1.6-1-2.6c-0.5-2.3,1.3-7.5,2.4-11.1c0.1-0.4,0.3-0.8,0.4-1c0.5-1.6,0.3-4.5,0.1-7.6c0-0.9-0.1-1.8-0.1-2.5
		c-0.1-0.1-0.4-0.3-0.5-0.4c-2.3-2.5-3.9-14-3.1-17.6c0-0.3,0.3-0.4,0.4-0.3c0,0,0.1,0,0.3,0c-0.3-0.6-0.5-1.1-0.5-1.1s0,0,0-0.1
		l-1-4.1c0-0.1,0-0.3,0-0.3c0-0.1,0.1-0.1,0.3-0.1c3.9-0.9,6.5-3.3,7.9-6.9c1-2.8,0.8-5.4,0.8-5.4c0-0.1,0.1-0.4,0.3-0.4
		c0.1,0,0.4,0,0.4,0.1c0.1,0.1,2.3,3,3.5,9.9c0.1,0.9,0.4,1.6,0.6,2.4c1.4,0.8,5.1,3,5.6,6.4c0.3,1.3-0.3,1.6-0.6,1.6
		c-1.3,0.3-4-3.1-5.5-7.3c-2.3,5.3-7.9,6-10.6,6c1.3,3,3.1,8.3,2.6,11.9c-0.3,1.6-0.1,3.4-0.1,5.4c2.8,1.9,9.6,2.4,12.5,0.3
		c3.1-2.4,4-13.9,3.8-15.4c-0.4-1.5-0.8-5.4,0.1-6.3c0.3-0.3,0.4-1.6,0.4-2.8c0.1-1.4,0.3-2.6,0.5-3.5c0.3-0.6-0.1-1.5-0.5-2.4
		c-0.5-1.1-1-2.4-0.5-3.4c0.6-1.5-0.6-6-1.3-8.1l-0.1-0.5c-0.5-2-8.6-7-13.4-6.6c-0.5,0-1,0-1.5-0.1c0.8,2.6,2.4,8.8,2.5,10.1
		c0,0.3,0.1,0.6,0.3,1.1c0.5,2.6,1.8,8.1-4,11.6c-0.1,0-0.1,0.1-0.3,0c-0.1,0-2.9-0.5-5.1-3c-1.3-1.4-2.3-1.8-2.8-1.9
		c0,0.3,0,0.6-0.1,0.9c-0.3,0.4-0.9,0.5-1.6,0.3c-2.3-0.5-3.8-2.9-3.8-4.3c0-1.1,0.3-2,0.8-2.5c-0.9-0.5-2.1-1.4-2.3-2.8
		c-0.1-1.3,0.6-2,1.4-2.5c-0.5-0.6-1-1.5-0.5-2.8c0.5-1.4,1.6-1.8,2.3-1.9c0.1-0.5,0.4-1.6,0.8-2.8c-0.1,0.1-0.3,0.1-0.4,0
		c-3.4-2-13.1,3.5-13.3,3.6s-0.4,0-0.5-0.1c-0.1-0.1-0.1-0.4,0-0.5c1.6-1.6,4-2.8,7.6-4.3c3.3-1.4,8.6-8.3,9.5-9.4
		c-0.3-1-0.1-2.8,0.4-4.9c-2.5,1.9-5.6,2.9-8.9,2.9c-5.1,0-8.3-3-10.1-5.4c-0.8-0.9-1.4-3.6-2-6.9c0,0.8,0.1,1.5,0.3,2.6
		c0.4,3.5-0.5,10.1-0.5,10.4c0,0.1-0.1,0.3-0.3,0.4c-0.4,0.1-0.6,0.1-0.9,0.3c-0.5,2.3-1,4.9-0.6,6.3c0.6,2.3,1.8,5.1,3.9,7.3
		c2.5,2.3,4.4,4.3,4.4,5.4c0,1.4-1.5,8.1-2.8,13.4c-0.6,2.8-1.1,5-1.4,6c-0.3,1.6-1,8.4-1.5,13.8c-0.4,3.8-0.8,6.9-0.9,8
		c-0.4,2.5-2.6,12.9-3.4,16.3l-0.1,0.8c-0.5,2.3-0.8,10.8-0.6,12.3c0.1,0.9-0.3,2.5-0.5,4.3c-0.3,1.6-0.5,3.4-0.5,4.4
		c0,2,1.9,3.8,1.9,3.9c0.1,0.1,0.1,0.3,0.1,0.4s-0.1,0.3-0.3,0.3s-3.3,1-5.4-1.5c-1.3-1.5-1-3.4-0.5-5.5c0.3-1.3,0.5-2.5,0.4-3.8
		c-0.4-3.4,0-16.1,1.4-18.9c0.9-1.6,1.6-6.9,2.3-11c0.4-2.6,0.8-4.9,1-5.9c0.8-2.6,1.3-14.4,1.3-16.5c0-2.4,1.9-9.5,4.1-15.4
		c2-5.3,1.3-9.1,1.1-9.9c-0.1-0.1-0.3-0.3-0.4-0.4c-1-0.9-1.9-1.8-2.6-2.4c-1-0.9-1.8-1.5-2-1.9c-0.4-0.5-0.8-1.1-1-1.8
		c-0.6-1.5-1.3-2.5-2.3-2.3c-1.8,0.4-4.6,5.5-5.1,7.4c0,0.1-0.1,0.5-0.5,0.4c-0.1,0-0.4-0.1-0.4-0.4c-0.1-1.3,1.9-11,10.5-13.8
		c0.3-1.1,0.5-2,0.8-2.5c-2.9,0.6-4.6,4.4-4.8,4.4c0,0,0,0.1-0.1,0.1c-2.4,2.3-15.9,6.8-18.9,6.9c-3.3,0.1-5.9,6.3-6.9,8.8
		c-1.1,2.9-2.1,8.9-2.8,12.4c-0.3,1.3-0.4,2.3-0.5,2.6c-0.1,0.3-0.1,0.8-0.3,1.3c-0.4,2-1,5.5-2.5,7.9c-1.5,2.5-2.9,9.1-3.3,10.9
		c3.1,0,6.1,0.9,6.3,0.9c0,0,0,0,0.1,0l4.6,2.4c0-1.9,0.3-7.6,2.3-15c0.1-0.5,0.3-1,0.4-1.5c0-0.1-0.1-0.3-0.1-0.3
		c-0.9-2.8-2.1-6.5-2.3-10.1c0-1.1,0.1-1.9,0.6-2c0.1-0.1,0.4-0.1,0.8,0.1c1.1,1,2.9,6.4,1.8,12.3c0.4,1.4,0.8,2.4,0.9,3.1
		c0.3,2.3-0.3,8.9-1.4,10.9c-0.6,1.1-0.9,3.4-1,4.9l16.3,7.8c1.5,0.8,2.1,1.4,2,2.1c-0.1,1-2,1.4-2.4,1.5l0,0l-16.4,0.1
		c0.3,3,0.6,7,0,7.8c-0.9,1-1.8,3.9-1.1,5c0.8,1.5,0,3.8-1.9,8.3C250,178.9,252.8,182.3,253,182.6z M286.2,99.9
		c0.3,1.6,0.3,5-1.4,9.3c-2.1,5.6-4,12.9-4,15.1c0,2.4-0.5,13.9-1.3,16.6c-0.3,1-0.6,3.3-1,5.8c-0.6,4.5-1.4,9.5-2.3,11.3
		c-1.4,2.6-1.6,15.3-1.4,18.5c0.1,1.4-0.1,2.8-0.4,4c-0.4,1.9-0.6,3.6,0.4,4.9c1.3,1.5,3,1.5,4,1.4c-0.6-0.8-1.6-2.1-1.6-3.9
		c0-1.1,0.3-2.9,0.5-4.5c0.3-1.6,0.5-3.4,0.5-4.1c-0.1-1.6,0.1-10.3,0.6-12.5l0.1-0.8c0.8-3.4,3.1-13.8,3.4-16.3
		c0.1-1.1,0.5-4.3,0.9-8c0.6-5.8,1.3-12.1,1.5-13.9c0.1-1,0.8-3.3,1.4-6c1.1-5,2.8-11.9,2.8-13.3
		C288.9,102.9,287.7,101.4,286.2,99.9z M236.4,156.6c0.4,0.1,2,0.9,3.4,1.6c1.4,0.8,6.6,1.3,8.6,0.5c1-0.4,2.5-2.5,3.6-4.5h-1
		c-2.8,3.6-7.4,3.5-10.3,3.4c-3.4-0.1-4.3-1.4-4.9-2.3l-0.1-0.1c-0.4-0.5-1.3-1.5-3-2c-1.3-0.3-1.4-1.8-1.5-2.8c0-0.4-0.1-0.9-0.3-1
		c-0.1-0.1-0.4-0.3-0.5-0.4c-0.6-0.4-1.6-0.9-1.3-2.5c0.1-0.4,0.1-0.8-0.1-1c-0.3,0.3-0.4,0.5-0.4,0.6c-0.3,1,1,2.5,1.4,2.9
		s0.4,1,0.3,1.8c0,0.4,0,1,0.1,1.1c0.4,0.1,0.9,0.8,1.5,1.5c0.3,0.4,0.6,0.8,0.8,0.9c0.5,0.4,1.6,0.8,1.9,0.8
		C235,155.1,235.6,155.6,236.4,156.6z M229.6,145C229.8,145.2,229.8,145.2,229.6,145c0.4,0.5,0.4,1,0.3,1.6c-0.3,1,0.3,1.3,0.9,1.6
		c0.3,0.1,0.6,0.3,0.8,0.5c0.3,0.3,0.3,0.8,0.4,1.4c0.1,1.1,0.3,1.9,0.9,2.1c1.4,0.4,2.6,1.1,3.4,2.3l0.1,0.1
		c0.5,0.8,1.3,1.8,4.3,1.9c2.8,0.1,6.8,0.3,9.4-2.6h-4.5l0,0c-0.3,0-0.4-0.1-0.4-0.4c0-0.3,0.1-0.4,0.4-0.4c0,0,1.4-0.1,3.5-1.8
		c0.3-0.3,0.4-0.4,0.5-0.5c-0.3-0.1-1.3-0.1-2.3,0c-6.4,2.8-7.9,1.9-8,1.6c-0.1-0.1-0.1-0.3-0.1-0.4c0-0.1,0.1-0.3,0.3-0.3
		c0,0,3.8-1.5,5.5-2.4c1.5-0.8,3-2,3.3-2.8c0-0.1,0-0.3,0-0.3c-0.3-0.4-0.9-0.4-1.9-0.3c-0.4,0-0.8,0.1-1.1,0.1
		c-0.3,0-1.3,0.4-2.4,0.8c-0.1,0-0.1,0.1-0.3,0.1l0,0l-5.3,2.4c-0.1,0.1-0.4,0-0.5-0.1c-0.1-0.1,0-0.4,0.1-0.5
		c0.8-0.4,3.4-1.6,5.4-2.5c0.6-0.4,1-1,0.9-1.4c0-0.4-0.3-0.5-0.9-0.8c-1.3-0.4-5.6,1.4-7.6,2.4c-0.1,0.1-0.4,0.1-0.5,0.3
		c-0.1,0.1-0.4,0-0.5-0.1c-0.1-0.1,0-0.4,0.1-0.5c0.1,0,0.3-0.1,0.5-0.3c0.9-0.4,1.9-1,2.3-1.3c0.1-0.4,0-0.6-0.1-0.8
		c-0.4-0.5-1.5-0.4-2.5-0.4c-0.5,0-0.9,0-1.3,0C231.9,143.9,230.6,144.4,229.6,145z M248.6,150.3c0.8,0,1.5,0.1,1.6,0.6
		c0.3,0.6-0.5,1.1-0.8,1.4c-0.6,0.5-1.3,0.9-1.8,1.1h3c0.3-0.4,0.5-0.8,0.6-1.1c0-0.1,0.3-0.3,0.4-0.3h1.6c0.1-0.3,0.3-0.5,0.4-0.6
		c0.1-0.1,0.3-0.3,0.4-0.3c0.1,0,0.3,0.1,0.3,0.4c0,0.1,0,0.4,0.1,0.5l13.1-0.1c0.5,0,1-0.1,1.1-0.4c0-0.1-0.3-0.5-1.9-1.3
		l-12.1-5.8c-0.1,0-0.3-0.3-0.3-0.4c0,0,0-0.5,0-1.3l-4.6-2.3l0,0c0,0-2.3-1.5-6.3-1.3l0,0l-23.9-0.9c-1.1,0.1-2.1,0.4-2.3,0.6
		c0,0,0,0.4,1.3,1l9.4,3.9c0.1,0,0.8,0.1,1.1,0.4c1-0.9,2.6-1.5,3.9-1.4c0.4,0,0.8,0,1.3,0c1.3,0,2.5-0.1,3.1,0.6
		c0.3,0.3,0.4,0.8,0.3,1.3c2-0.8,4.3-1.5,5.3-1.1c1,0.4,1.3,0.9,1.4,1.4c0,0.4,0,0.6-0.1,0.9c0.5-0.3,1-0.4,1.3-0.4s0.6,0,1-0.1
		c0.9-0.1,2-0.3,2.5,0.5c0.1,0.1,0.3,0.5,0.1,0.9c-0.3,1.1-2.1,2.5-3.6,3.3c-1.1,0.5-3,1.4-4.3,1.9c1-0.1,2.9-0.5,6.1-1.9h0.1
		C247.6,150.3,248.1,150.3,248.6,150.3z M251.9,152.7c-0.1,0.3-0.3,0.4-0.4,0.6h0.9c0.1-0.3,0.3-0.4,0.4-0.6H251.9z M253.6,152.7
		c-0.1,0.1-0.3,0.4-0.4,0.6h0.4C253.8,153.2,253.6,152.9,253.6,152.7L253.6,152.7z M254.4,152.7c0,0.3,0,0.4,0.1,0.6l16.4-0.1
		c0.8-0.1,1.6-0.5,1.8-0.9c0-0.1,0-0.5-1.6-1.4l-15.9-7.6c0,0.3,0,0.5,0,0.6l11.9,5.6c1.8,0.8,2.5,1.4,2.4,2
		c-0.1,0.8-1.4,0.9-1.9,0.9L254.4,152.7z M310.4,127.4c-0.4,3.6,1,14,2.9,16.5c-0.1-1.6-0.1-3.3,0.1-4.8c0.4-3.5-1.5-9-2.8-11.8
		C310.6,127.4,310.6,127.4,310.4,127.4z M323.1,121.8c1.3,3.1,3.1,5.4,4.1,6c0.3,0.1,0.4,0.1,0.4,0.1s0.1-0.1,0-0.8
		C327.2,124.7,324.6,122.8,323.1,121.8z M311.2,126.7c2.5,0,8.4-0.5,10.4-6c0-0.1,0.1-0.1,0.1-0.1c-0.3-0.6-0.4-1.4-0.5-2.1
		c-0.8-4.4-2-7-2.8-8.4c-0.1,2.9-1.4,9.6-8.9,11.6l0.9,3.6C310.7,125.4,310.9,125.9,311.2,126.7z M254.5,112c0,0.1-0.1,0.5-0.1,1.3
		c0.1,3,1,6.3,1.9,8.8C256.8,116.8,255.1,112.5,254.5,112z M304.2,113c0.5,0,1.9,0.3,3.8,2.3c1.9,2,4,2.6,4.6,2.8
		c1.8-1.1,5.1-3.3,3.5-10.8c-0.1-0.5-0.3-0.9-0.3-1.3c0-1.4-2-8.4-2.6-10.5c-1.6-0.8-3.1-2.1-4.3-3.5c0,0.3,0,0.4,0,0.5
		c-0.1,0.9-0.1,1.6-0.4,2.1c-0.4,1.1-2.1,0.9-3.5,0.5c-0.5-0.1-0.9-0.1-1.3-0.3c-0.5,0-1,0.1-1.4,0.3c-0.5,1.1-1,2.6-1.3,3.8
		c0,0.1-0.3,0.3-0.4,0.3c0,0-1.4-0.1-1.9,1.4c-0.5,1.5,0.6,2.3,0.8,2.3c0.1,0.1,0.1,0.3,0.1,0.4s-0.1,0.3-0.3,0.3c0,0-1.5,0.5-1.4,2
		s2.5,2.4,2.5,2.4c0.1,0,0.3,0.3,0.3,0.4c0,0.1-0.1,0.3-0.3,0.4c-0.6,0.1-1,0.9-1,2.1c0,0.9,1.3,3,3.1,3.5c0.6,0.1,0.9,0.1,0.9,0
		c0.1-0.1,0-0.5-0.1-0.8c0-0.1,0-0.3,0-0.4c0-0.1,0.1-0.1,0.3-0.3C303.9,113,304.1,113,304.2,113z M277.3,89.6
		c1.4,0,2.1,1.5,2.6,2.8c0.3,0.6,0.5,1.3,0.9,1.6c0.3,0.3,1,1,1.9,1.8c-0.9-1.6-1.5-3.4-1.9-4.8c-0.4-1.4,0-4,0.5-6.1
		c-5.4,2-7.9,6.6-8.9,9.9c1.1-2.3,3-4.8,4.5-5C277,89.6,277.2,89.6,277.3,89.6z M303.6,94.1c0.1,0,0.1,0,0.3,0
		c0.4,0,0.9,0.1,1.4,0.3c1,0.3,2.5,0.5,2.8-0.1c0.1-0.4,0.3-1.1,0.3-1.9c0-0.4,0.1-0.9,0.1-1.3c-0.8-0.9-1.3-1.8-1.8-2.5
		c0.1,1.9-0.1,3.3-0.9,4c-0.6,0.8-1.5,0.8-1.8,0.8c-0.4,0.1-0.6,0.5-1,0.9C303.1,94.1,303.3,94.1,303.6,94.1z M309.1,90.9
		c1.1,1.4,2.5,2.9,4,3.6c-0.1-0.9,0.3-2.5,0.4-3c0-0.4-0.1-1.6,0.3-2.6c0.1-0.3,0.4-0.6,0.6-1c0.6-0.9,1.6-2.4,1.5-3.1
		c0-0.1-0.1-0.3-0.4-0.4c-1.4-0.8-4.4,2-5.6,3.8C309.4,88.8,309.2,89.9,309.1,90.9z M282.8,82c-0.1,0.5-0.3,1.1-0.5,1.8
		c0.1,0,0.3,0,0.3-0.1C282.7,83.4,282.8,82.8,282.8,82z M282.7,60.2c0.9,6.4,2.3,15.8,3.5,17.3c1.9,2.1,4.9,5.1,9.6,5.1
		c3.4,0,6.8-1.3,9.3-3.4c1.4-4.9,3.9-11.4,5.8-15.8l-0.5,0.3c-0.1,0.1-0.3,0-0.4-0.1c-0.1-0.1-0.1-0.3-0.1-0.4c0,0,2.1-4.3,1.1-6.8
		c-0.3-0.6-0.8-1.1-1.4-1.4c-0.1-0.1-0.3-0.3-0.3-0.5c0,0,1.8-6.1-0.8-7.9c-0.1,0-0.1-0.1-0.1-0.3s0-0.3-0.1-0.4
		c-1.4,0.6-3.9,1.3-8.6,1.1c-5.5-0.1-10-1.5-11.1-1.8c-2.3,3.1-1.4,6.3-1.4,6.3c0,0.1,0,0.3,0,0.3c0,0.1-0.1,0.1-0.3,0.1
		c-4.1,0.9-2.9,8.5-2.8,8.6c0,0.1,0,0.4-0.3,0.4c-0.1,0.1-0.4,0-0.4-0.1L282.7,60.2L282.7,60.2z M312.3,61.7
		c-2.1,4.9-4.8,11.4-6.3,16.4c0.6-0.8,1.3-1.5,1.8-2.4c2.1-3.9,2.1-5,2.1-5.1c-0.1-0.1,0-0.4,0.1-0.5c0.1-0.1,0.4,0,0.5,0.1
		c0,0,0.3,0.3,0.5,0.3c0.3,0,0.8-0.4,1.1-2.1c0.1-0.5,0.3-1,0.5-1.6c0.6-2.3,1.4-4.9,0.8-5.9c-0.1-0.3-0.4-0.4-0.6-0.4
		C312.8,60.7,312.6,61.2,312.3,61.7z M310.1,70.6L310.1,70.6L310.1,70.6z M281.4,57.7c-0.3,0-0.5,0.1-0.6,0.4
		c-1,1.3-0.3,4.9,0.3,7.4c0,0.3,0.1,0.6,0.1,0.9c0.3,1.5,0.8,2,1.1,2.1c0.4,0.3,0.9,0,0.9,0h0.1c-0.6-4-1.3-8.3-1.5-10.5
		C281.5,57.9,281.4,57.9,281.4,57.7z M310.2,54.5c0.6,0.4,1.1,0.9,1.5,1.6c0.8,2-0.3,5-0.8,6.5l0.1-0.1c0.1-0.3,0.4-0.6,0.6-1.1
		c0.6-1.5,1.1-2.5,1.1-2.6c1.4-2.9,2.3-9.8-1.5-13c-0.8-0.6-1.1-0.9-1.5-1c0,0.3-0.1,0.5-0.3,0.6c-0.1,0.1-0.3,0.3-0.5,0.5
		c0,0.1,0,0.3,0.1,0.5C311.6,48.1,310.6,53.1,310.2,54.5z M282.4,57.7c0.4,0.5,0.8,1.1,0.9,2c-0.3-2.3-0.3-7.1,3.1-8.1
		c-0.1-1-0.5-3.9,1.8-6.8c0.1-0.1,0.3-0.1,0.4-0.1c0,0,5,1.8,11.1,1.9c5.1,0.1,7.5-0.6,8.5-1.1c0-0.5,0.1-1.1,0.5-1.4l0,0
		c0,0,0,0,0-0.1c-0.8-1.5-3.3-4.5-8.1-4.8c-6.8-0.4-15,2.4-16.9,8.3c-1.9,6.3-1.8,9-1.8,9C282.3,56.7,282.3,57.2,282.4,57.7z"/>
</g>
</svg>
