<?xml version="1.0" encoding="utf-8"?>
<!-- Generator: Adobe Illustrator 27.8.1, SVG Export Plug-In . SVG Version: 6.00 Build 0)  -->
<svg version="1.1" baseProfile="tiny" id="Layer_1" xmlns="http://www.w3.org/2000/svg" xmlns:xlink="http://www.w3.org/1999/xlink"
	 x="0px" y="0px" viewBox="0 0 640 320" overflow="visible" xml:space="preserve">
<g>
	<path fill="#898989" d="M437.6,194.6H314.7c-0.1,0-0.2,0-0.2-0.1c-0.1-0.1-0.1-0.1-0.1-0.2c0.2-7.2-3-14.2-3-14.3
		c-0.1-0.2-0.2-0.4-0.2-0.6c-12.3,3.9-23.7,3.8-31.2,3c-7.8-0.9-13.1-2.6-14.1-3c-3.5,3.3-5.7,14.9-5.7,15c0,0.1-0.1,0.2-0.3,0.2
		h-57.4c-0.2,0-0.3-0.1-0.3-0.3s0.1-0.3,0.3-0.3h57.1c0.4-1.8,2.6-12.1,6-15.2c0.1-0.1,0.2-0.1,0.3-0.1c0.1,0,5.6,2.1,14.1,3
		c7.5,0.8,18.8,1,31-3c-0.2-1-0.2-2.3,0-3.4c-3.4,1.1-13.5,3.8-26.1,2.7c-15.6-1.3-18.7-3.9-18.8-4c0,0,0,0,0,0
		c-0.1-0.1-2.7-3.1-1.3-6.6c1.3-3.1,2-5.1,1.5-6.1c-0.6-1.3,0.3-3.8,1-4.6c0.3-0.4,0.2-3-0.1-5.8l-0.7,0c-1,1.6-2.3,3.7-3.4,4.1
		c-1.6,0.7-6.1,0.3-7.4-0.4c-1.2-0.7-2.7-1.2-2.7-1.2c0,0-0.1,0-0.1-0.1c-0.4-0.5-0.8-0.9-1-1c-0.4,0-1.4-0.5-1.8-0.8
		c-0.2-0.1-0.4-0.4-0.7-0.8c-0.3-0.4-0.8-1-1-1c-0.5-0.2-0.4-0.8-0.4-1.4c0-0.3,0-0.8-0.1-0.9c-0.6-0.6-1.6-1.8-1.3-2.9
		c0.1-0.2,0.2-0.5,0.4-0.7c-0.3-0.1-0.6-0.2-0.6-0.2c0,0-0.1,0-0.1,0l-7.5-3.2c0,0,0,0,0,0c-0.6-0.3-1.4-0.8-1.3-1.4
		c0.2-0.8,1.8-1,2.3-1c0,0,0,0,0,0l19.1,0.7c3.2-0.2,5.1,1,5.3,1.1l3.5,1.7c0.1-1.3,0.3-3,0.9-4c0.9-1.4,1.2-6.6,1-8.3
		c0-0.3-0.2-0.8-0.3-1.4c0,0.1,0,0.2-0.1,0.3c-1.9,7-1.8,12.2-1.8,12.3c0,0.1,0,0.2-0.1,0.3c-0.1,0.1-0.2,0.1-0.3,0l-4.1-2.2
		c-0.3-0.1-2.8-0.8-5.2-0.7c-0.1,0-0.2,0-0.2-0.1c-0.1-0.1-0.1-0.2-0.1-0.2c0.1-0.3,1.3-6.9,2.8-9.3c1.2-1.8,1.6-4.5,1.9-6.1
		c0.1-0.4,0.1-0.8,0.2-1c0.1-0.3,0.2-1.1,0.4-2.1c0.5-2.9,1.3-7.6,2.2-10c1-2.7,3.2-7.3,6-7.4c2.3-0.1,12.8-3.6,14.7-5.3
		c0.2-0.5,1.9-3.7,4.7-3.9c0.1,0,0.1,0,0.2,0.1c0.2-1.8,0.3-4.1,0.1-5.6c-0.2-1.8-0.2-2.9-0.2-3.5c-0.2,0-0.5,0-0.8-0.1
		c-0.6-0.3-1-1-1.2-2.1c0-0.2-0.1-0.5-0.1-0.7c-0.4-2.3-1-5.2-0.1-6.4c0.3-0.3,0.6-0.5,1-0.6c0,0,0.1,0,0.1,0c0-0.3,0-0.4-0.1-0.5
		c0-0.1-0.2-2.3,1.4-7.4c0.7-2.4,2.7-4.4,5.7-5.6c2.5-1.1,5.5-1.6,8.4-1.4c4.2,0.2,6.4,2.9,7,4.2c0,0,0,0.1,0.1,0.1
		c0.4,0.1,1,0.4,1.7,1.1c3.3,2.8,2.5,8.7,1.4,11.1c-0.1,0.2-0.2,0.4-0.3,0.6c0.3,0.1,0.6,0.3,0.8,0.5c0.7,1,0.1,3.1-0.5,5.2
		c-0.1,0.4-0.2,0.9-0.4,1.3c-0.3,1.3-0.8,2-1.4,2.1c-0.2,0-0.4,0-0.5,0c-0.1,0.6-0.5,1.8-1.7,3.9c-0.6,1-1.3,2-2.2,2.7
		c-0.5,2-0.8,3.6-0.5,4.4c0,0.1,0,0.2,0,0.3c-0.2,0.3-5,6.6-7.9,7.8c-0.3,0.1-0.6,0.3-0.9,0.4c2.1-0.7,4.3-1.2,5.6-0.5
		c0.1-0.1,0.4-0.3,0.6-0.4c0.4-0.8,0.9-1.5,1.5-1.6c0,0,0.1,0,0.1,0c0,0,0.6,0.1,1-0.4c0.4-0.5,0.9-1.6,0.3-4.2
		c0-0.1,0.1-0.3,0.2-0.3c0.1,0,0.3,0,0.4,0.1c0,0,0.7,1.3,1.8,2.8c0.1-0.7,0.3-1.4,0.7-1.9c0.8-1.1,3.5-4,5.2-3.2
		c0.3,0.1,0.5,0.4,0.6,0.7c0.2,0.9-0.6,2-1.3,3c-0.2,0.3-0.4,0.6-0.5,0.7c-0.3,0.6-0.2,1.5-0.2,1.8c0,0,0,0.1,0,0.1
		c-0.2,0.8-0.4,2.1-0.3,2.4c0,0,0,0.1,0.1,0.2c0.4,0.2,0.9,0.2,1.3,0.2c4-0.3,10.7,3.8,11.3,5.8l0.1,0.4c0.8,2.7,1.5,5.6,1,6.9
		c-0.3,0.6,0.1,1.5,0.4,2.3c0.3,0.9,0.7,1.7,0.4,2.4c-0.2,0.5-0.3,1.6-0.4,2.6c-0.1,1.3-0.2,2.2-0.5,2.5c-0.4,0.4-0.3,3,0.1,4.5
		c0.3,1.3-0.4,10.8-3.2,12.9c-2.4,1.8-7.7,1.4-10.3,0c0,0.5,0.1,1.1,0.1,1.6c0.2,2.6,0.3,5-0.1,6.4c-0.1,0.2-0.2,0.5-0.3,0.8
		c-0.8,2.6-2.3,6.9-1.9,8.6c0.1,0.7,0.4,1.3,0.7,1.9c0.5,1,0.9,1.9,0.6,2.9c-0.2,0.6-0.5,1.1-0.7,1.5c-0.4,0.7-0.6,1.2-0.5,1.7
		c0,0.1,0.1,0.3,0.1,0.4c0.4,1.1,1.1,3.2-0.8,4.1c-0.3,0.1-0.5,0.3-0.7,0.6c0,0,0.1,0,0.1,0c0.1,0,0.2,0,0.3,0
		c0.1,0,0.1,0.1,0.1,0.2l0.7,3.8c0,0.1-0.1,0.3-0.2,0.3c-0.4,0.1-0.8,0.3-1.2,0.4c0.1,0.2,0.1,0.4,0.2,0.6c0,0.1,3.2,7,3.1,14.2
		h122.6c0.2,0,0.3,0.1,0.3,0.3S437.8,194.6,437.6,194.6z M311.7,175.2c-0.3,1.1-0.3,2.4-0.1,3.4c0.3-0.1,0.6-0.2,0.9-0.3l-0.6-3.2
		C311.9,175.2,311.8,175.2,311.7,175.2z M266.5,173.7c0.2,0.2,3.7,2.6,18.4,3.8c13,1.1,23.4-1.8,26.3-2.8c0.3-0.7,0.7-1.2,1.2-1.4
		c1.3-0.6,1-2,0.5-3.4c-0.1-0.2-0.1-0.3-0.1-0.4c-0.2-0.7,0.1-1.4,0.5-2.1c0.2-0.4,0.5-0.9,0.7-1.4c0.3-0.8-0.1-1.6-0.5-2.4
		c-0.3-0.6-0.6-1.3-0.8-2.1c-0.4-1.8,1-6,1.9-8.9c0.1-0.3,0.2-0.6,0.3-0.8c0.4-1.3,0.2-3.6,0.1-6.1c0-0.7-0.1-1.4-0.1-2
		c-0.1-0.1-0.3-0.2-0.4-0.3c-1.8-2-3.1-11.2-2.5-14.1c0-0.2,0.2-0.3,0.3-0.2c0,0,0.1,0,0.2,0c-0.2-0.5-0.4-0.9-0.4-0.9
		c0,0,0,0,0-0.1l-0.8-3.3c0-0.1,0-0.2,0-0.2c0-0.1,0.1-0.1,0.2-0.1c3.1-0.7,5.2-2.6,6.3-5.5c0.8-2.2,0.6-4.3,0.6-4.3
		c0-0.1,0.1-0.3,0.2-0.3c0.1,0,0.3,0,0.3,0.1c0.1,0.1,1.8,2.4,2.8,7.9c0.1,0.7,0.3,1.3,0.5,1.9c1.1,0.6,4.1,2.4,4.5,5.1
		c0.2,1-0.2,1.3-0.5,1.3c-1,0.2-3.2-2.5-4.4-5.8c-1.8,4.2-6.3,4.8-8.5,4.8c1,2.4,2.5,6.6,2.1,9.5c-0.2,1.3-0.1,2.7-0.1,4.3
		c2.2,1.5,7.7,1.9,10,0.2c2.5-1.9,3.2-11.1,3-12.3c-0.3-1.2-0.6-4.3,0.1-5c0.2-0.2,0.3-1.3,0.3-2.2c0.1-1.1,0.2-2.1,0.4-2.8
		c0.2-0.5-0.1-1.2-0.4-1.9c-0.4-0.9-0.8-1.9-0.4-2.7c0.5-1.2-0.5-4.8-1-6.5l-0.1-0.4c-0.4-1.6-6.9-5.6-10.7-5.3
		c-0.4,0-0.8,0-1.2-0.1c0.6,2.1,1.9,7,2,8.1c0,0.2,0.1,0.5,0.2,0.9c0.4,2.1,1.4,6.5-3.2,9.3c-0.1,0-0.1,0.1-0.2,0
		c-0.1,0-2.3-0.4-4.1-2.4c-1-1.1-1.8-1.4-2.2-1.5c0,0.2,0,0.5-0.1,0.7c-0.2,0.3-0.7,0.4-1.3,0.2c-1.8-0.4-3-2.3-3-3.4
		c0-0.9,0.2-1.6,0.6-2c-0.7-0.4-1.7-1.1-1.8-2.2c-0.1-1,0.5-1.6,1.1-2c-0.4-0.5-0.8-1.2-0.4-2.2c0.4-1.1,1.3-1.4,1.8-1.5
		c0.1-0.4,0.3-1.3,0.6-2.2c-0.1,0.1-0.2,0.1-0.3,0c-2.7-1.6-10.5,2.8-10.6,2.9c-0.1,0.1-0.3,0-0.4-0.1c-0.1-0.1-0.1-0.3,0-0.4
		c1.3-1.3,3.2-2.2,6.1-3.4c2.6-1.1,6.9-6.6,7.6-7.5c-0.2-0.8-0.1-2.2,0.3-3.9c-2,1.5-4.5,2.3-7.1,2.3c-4.1,0-6.6-2.4-8.1-4.3
		c-0.6-0.7-1.1-2.9-1.6-5.5c0,0.6,0.1,1.2,0.2,2.1c0.3,2.8-0.4,8.1-0.4,8.3c0,0.1-0.1,0.2-0.2,0.3c-0.3,0.1-0.5,0.1-0.7,0.2
		c-0.4,1.8-0.8,3.9-0.5,5c0.5,1.8,1.4,4.1,3.1,5.8c2,1.8,3.5,3.4,3.5,4.3c0,1.1-1.2,6.5-2.2,10.7c-0.5,2.2-0.9,4-1.1,4.8
		c-0.2,1.3-0.8,6.7-1.2,11c-0.3,3-0.6,5.5-0.7,6.4c-0.3,2-2.1,10.3-2.7,13l-0.1,0.6c-0.4,1.8-0.6,8.6-0.5,9.8c0.1,0.7-0.2,2-0.4,3.4
		c-0.2,1.3-0.4,2.7-0.4,3.5c0,1.6,1.5,3,1.5,3.1c0.1,0.1,0.1,0.2,0.1,0.3c0,0.1-0.1,0.2-0.2,0.2c-0.1,0-2.6,0.8-4.3-1.2
		c-1-1.2-0.8-2.7-0.4-4.4c0.2-1,0.4-2,0.3-3c-0.3-2.7,0-12.9,1.1-15.1c0.7-1.3,1.3-5.5,1.8-8.8c0.3-2.1,0.6-3.9,0.8-4.7
		c0.6-2.1,1-11.5,1-13.2c0-1.9,1.5-7.6,3.3-12.3c1.6-4.2,1-7.3,0.9-7.9c-0.1-0.1-0.2-0.2-0.3-0.3c-0.8-0.7-1.5-1.4-2.1-1.9
		c-0.8-0.7-1.4-1.2-1.6-1.5c-0.3-0.4-0.6-0.9-0.8-1.4c-0.5-1.2-1-2-1.8-1.8c-1.4,0.3-3.7,4.4-4.1,5.9c0,0.1-0.1,0.4-0.4,0.3
		c-0.1,0-0.3-0.1-0.3-0.3c-0.1-1,1.5-8.8,8.4-11c0.2-0.9,0.4-1.6,0.6-2c-2.3,0.5-3.7,3.5-3.8,3.5c0,0,0,0.1-0.1,0.1
		c-1.9,1.8-12.7,5.4-15.1,5.5c-2.6,0.1-4.7,5-5.5,7c-0.9,2.3-1.7,7.1-2.2,9.9c-0.2,1-0.3,1.8-0.4,2.1c-0.1,0.2-0.1,0.6-0.2,1
		c-0.3,1.6-0.8,4.4-2,6.3c-1.2,2-2.3,7.3-2.6,8.7c2.5,0,4.9,0.7,5,0.7c0,0,0,0,0.1,0l3.7,1.9c0-1.5,0.2-6.1,1.8-12
		c0.1-0.4,0.2-0.8,0.3-1.2c0-0.1-0.1-0.2-0.1-0.2c-0.7-2.2-1.7-5.2-1.8-8.1c0-0.9,0.1-1.5,0.5-1.6c0.1-0.1,0.3-0.1,0.6,0.1
		c0.9,0.8,2.3,5.1,1.4,9.8c0.3,1.1,0.6,1.9,0.7,2.5c0.2,1.8-0.2,7.1-1.1,8.7c-0.5,0.9-0.7,2.7-0.8,3.9l13,6.2
		c1.2,0.6,1.7,1.1,1.6,1.7c-0.1,0.8-1.6,1.1-1.9,1.2c0,0,0,0,0,0l-13.1,0.1c0.2,2.4,0.5,5.6,0,6.2c-0.7,0.8-1.4,3.1-0.9,4
		c0.6,1.2,0,3-1.5,6.6C264.1,170.8,266.3,173.5,266.5,173.7z M293,107.6c0.2,1.3,0.2,4-1.1,7.4c-1.7,4.5-3.2,10.3-3.2,12.1
		c0,1.9-0.4,11.1-1,13.3c-0.2,0.8-0.5,2.6-0.8,4.6c-0.5,3.6-1.1,7.6-1.8,9c-1.1,2.1-1.3,12.2-1.1,14.8c0.1,1.1-0.1,2.2-0.3,3.2
		c-0.3,1.5-0.5,2.9,0.3,3.9c1,1.2,2.4,1.2,3.2,1.1c-0.5-0.6-1.3-1.7-1.3-3.1c0-0.9,0.2-2.3,0.4-3.6c0.2-1.3,0.4-2.7,0.4-3.3
		c-0.1-1.3,0.1-8.2,0.5-10l0.1-0.6c0.6-2.7,2.5-11,2.7-13c0.1-0.9,0.4-3.4,0.7-6.4c0.5-4.6,1-9.7,1.2-11.1c0.1-0.8,0.6-2.6,1.1-4.8
		c0.9-4,2.2-9.5,2.2-10.6C295.2,110,294.2,108.8,293,107.6z M253.2,152.9c0.3,0.1,1.6,0.7,2.7,1.3c1.1,0.6,5.3,1,6.9,0.4
		c0.8-0.3,2-2,2.9-3.6l-0.8,0c-2.2,2.9-5.9,2.8-8.2,2.7c-2.7-0.1-3.4-1.1-3.9-1.8c0,0-0.1-0.1-0.1-0.1c-0.3-0.4-1-1.2-2.4-1.6
		c-1-0.2-1.1-1.4-1.2-2.2c0-0.3-0.1-0.7-0.2-0.8c-0.1-0.1-0.3-0.2-0.4-0.3c-0.5-0.3-1.3-0.7-1-2c0.1-0.3,0.1-0.6-0.1-0.8
		c-0.2,0.2-0.3,0.4-0.3,0.5c-0.2,0.8,0.8,2,1.1,2.3c0.3,0.3,0.3,0.8,0.2,1.4c0,0.3,0,0.8,0.1,0.9c0.3,0.1,0.7,0.6,1.2,1.2
		c0.2,0.3,0.5,0.6,0.6,0.7c0.4,0.3,1.3,0.6,1.5,0.6C252.1,151.7,252.6,152.1,253.2,152.9z M247.8,143.7
		C247.9,143.8,247.9,143.8,247.8,143.7c0.3,0.4,0.3,0.8,0.2,1.3c-0.2,0.8,0.2,1,0.7,1.3c0.2,0.1,0.5,0.2,0.6,0.4
		c0.2,0.2,0.2,0.6,0.3,1.1c0.1,0.9,0.2,1.5,0.7,1.7c1.1,0.3,2.1,0.9,2.7,1.8c0,0,0.1,0.1,0.1,0.1c0.4,0.6,1,1.4,3.4,1.5
		c2.2,0.1,5.4,0.2,7.5-2.1l-3.6,0c0,0,0,0,0,0c-0.2,0-0.3-0.1-0.3-0.3c0-0.2,0.1-0.3,0.3-0.3c0,0,1.1-0.1,2.8-1.4
		c0.2-0.2,0.3-0.3,0.4-0.4c-0.2-0.1-1-0.1-1.8,0c-5.1,2.2-6.3,1.5-6.4,1.3c-0.1-0.1-0.1-0.2-0.1-0.3c0-0.1,0.1-0.2,0.2-0.2
		c0,0,3-1.2,4.4-1.9c1.2-0.6,2.4-1.6,2.6-2.2c0-0.1,0-0.2,0-0.2c-0.2-0.3-0.7-0.3-1.5-0.2c-0.3,0-0.6,0.1-0.9,0.1
		c-0.2,0-1,0.3-1.9,0.6c-0.1,0-0.1,0.1-0.2,0.1c0,0,0,0,0,0l-4.2,1.9c-0.1,0.1-0.3,0-0.4-0.1c-0.1-0.1,0-0.3,0.1-0.4
		c0.6-0.3,2.7-1.3,4.3-2c0.5-0.3,0.8-0.8,0.7-1.1c0-0.3-0.2-0.4-0.7-0.6c-1-0.3-4.5,1.1-6.1,1.9c-0.1,0.1-0.3,0.1-0.4,0.2
		c-0.1,0.1-0.3,0-0.4-0.1c-0.1-0.1,0-0.3,0.1-0.4c0.1,0,0.2-0.1,0.4-0.2c0.7-0.3,1.5-0.8,1.8-1c0.1-0.3,0-0.5-0.1-0.6
		c-0.3-0.4-1.2-0.3-2-0.3c-0.4,0-0.7,0-1,0C249.6,142.8,248.6,143.2,247.8,143.7z M263,147.9c0.6,0,1.2,0.1,1.3,0.5
		c0.2,0.5-0.4,0.9-0.6,1.1c-0.5,0.4-1,0.7-1.4,0.9l2.4,0c0.2-0.3,0.4-0.6,0.5-0.9c0-0.1,0.2-0.2,0.3-0.2l1.3,0
		c0.1-0.2,0.2-0.4,0.3-0.5c0.1-0.1,0.2-0.2,0.3-0.2c0.1,0,0.2,0.1,0.2,0.3c0,0.1,0,0.3,0.1,0.4l10.5-0.1c0.4,0,0.8-0.1,0.9-0.3
		c0-0.1-0.2-0.4-1.5-1l-9.7-4.6c-0.1,0-0.2-0.2-0.2-0.3c0,0,0-0.4,0-1l-3.7-1.8c0,0,0,0,0,0c0,0-1.8-1.2-5-1c0,0,0,0,0,0l-19.1-0.7
		c-0.9,0.1-1.7,0.3-1.8,0.5c0,0,0,0.3,1,0.8l7.5,3.1c0.1,0,0.6,0.1,0.9,0.3c0.8-0.7,2.1-1.2,3.1-1.1c0.3,0,0.6,0,1,0
		c1,0,2-0.1,2.5,0.5c0.2,0.2,0.3,0.6,0.2,1c1.6-0.6,3.4-1.2,4.2-0.9c0.8,0.3,1,0.7,1.1,1.1c0,0.3,0,0.5-0.1,0.7
		c0.4-0.2,0.8-0.3,1-0.3c0.2,0,0.5,0,0.8-0.1c0.7-0.1,1.6-0.2,2,0.4c0.1,0.1,0.2,0.4,0.1,0.7c-0.2,0.9-1.7,2-2.9,2.6
		c-0.9,0.4-2.4,1.1-3.4,1.5c0.8-0.1,2.3-0.4,4.9-1.5c0,0,0.1,0,0.1,0C262.2,147.9,262.6,147.9,263,147.9z M265.6,149.8
		c-0.1,0.2-0.2,0.3-0.3,0.5l0.7,0c0.1-0.2,0.2-0.3,0.3-0.5L265.6,149.8z M267,149.8c-0.1,0.1-0.2,0.3-0.3,0.5l0.3,0
		C267.1,150.2,267,150,267,149.8L267,149.8z M267.6,149.8c0,0.2,0,0.3,0.1,0.5l13.1-0.1c0.6-0.1,1.3-0.4,1.4-0.7
		c0-0.1,0-0.4-1.3-1.1l-12.7-6.1c0,0.2,0,0.4,0,0.5l9.5,4.5c1.4,0.6,2,1.1,1.9,1.6c-0.1,0.6-1.1,0.7-1.5,0.7L267.6,149.8z
		 M312.4,129.6c-0.3,2.9,0.8,11.2,2.3,13.2c-0.1-1.3-0.1-2.6,0.1-3.8c0.3-2.8-1.2-7.2-2.2-9.4C312.5,129.6,312.5,129.6,312.4,129.6z
		 M322.5,125.1c1,2.5,2.5,4.3,3.3,4.8c0.2,0.1,0.3,0.1,0.3,0.1c0,0,0.1-0.1,0-0.6C325.8,127.4,323.7,125.9,322.5,125.1z M313,129
		c2,0,6.7-0.4,8.3-4.8c0-0.1,0.1-0.1,0.1-0.1c-0.2-0.5-0.3-1.1-0.4-1.7c-0.6-3.5-1.6-5.6-2.2-6.7c-0.1,2.3-1.1,7.7-7.1,9.3l0.7,2.9
		C312.6,128,312.8,128.4,313,129z M267.7,117.3c0,0.1-0.1,0.4-0.1,1c0.1,2.4,0.8,5,1.5,7C269.5,121.1,268.2,117.7,267.7,117.3z
		 M307.4,118.1c0.4,0,1.5,0.2,3,1.8c1.5,1.6,3.2,2.1,3.7,2.2c1.4-0.9,4.1-2.6,2.8-8.6c-0.1-0.4-0.2-0.7-0.2-1c0-1.1-1.6-6.7-2.1-8.4
		c-1.3-0.6-2.5-1.7-3.4-2.8c0,0.2,0,0.3,0,0.4c-0.1,0.7-0.1,1.3-0.3,1.7c-0.3,0.9-1.7,0.7-2.8,0.4c-0.4-0.1-0.7-0.1-1-0.2
		c-0.4,0-0.8,0.1-1.1,0.2c-0.4,0.9-0.8,2.1-1,3c0,0.1-0.2,0.2-0.3,0.2c0,0-1.1-0.1-1.5,1.1c-0.4,1.2,0.5,1.8,0.6,1.8
		c0.1,0.1,0.1,0.2,0.1,0.3c0,0.1-0.1,0.2-0.2,0.2c0,0-1.2,0.4-1.1,1.6c0.1,1.2,2,1.9,2,1.9c0.1,0,0.2,0.2,0.2,0.3
		c0,0.1-0.1,0.2-0.2,0.3c-0.5,0.1-0.8,0.7-0.8,1.7c0,0.7,1,2.4,2.5,2.8c0.5,0.1,0.7,0.1,0.7,0c0.1-0.1,0-0.4-0.1-0.6
		c0-0.1,0-0.2,0-0.3c0-0.1,0.1-0.1,0.2-0.2C307.2,118.1,307.3,118.1,307.4,118.1z M285.9,99.4c1.1,0,1.7,1.2,2.1,2.2
		c0.2,0.5,0.4,1,0.7,1.3c0.2,0.2,0.8,0.8,1.5,1.4c-0.7-1.3-1.2-2.7-1.5-3.8c-0.3-1.1,0-3.2,0.4-4.9c-4.3,1.6-6.3,5.3-7.1,7.9
		c0.9-1.8,2.4-3.8,3.6-4C285.7,99.4,285.8,99.4,285.9,99.4z M306.9,103c0.1,0,0.1,0,0.2,0c0.3,0,0.7,0.1,1.1,0.2
		c0.8,0.2,2,0.4,2.2-0.1c0.1-0.3,0.2-0.9,0.2-1.5c0-0.3,0.1-0.7,0.1-1c-0.6-0.7-1-1.4-1.4-2c0.1,1.5-0.1,2.6-0.7,3.2
		c-0.5,0.6-1.2,0.6-1.4,0.6c-0.3,0.1-0.5,0.4-0.8,0.7C306.5,103,306.7,103,306.9,103z M311.3,100.4c0.9,1.1,2,2.3,3.2,2.9
		c-0.1-0.7,0.2-2,0.3-2.4c0-0.3-0.1-1.3,0.2-2.1c0.1-0.2,0.3-0.5,0.5-0.8c0.5-0.7,1.3-1.9,1.2-2.5c0-0.1-0.1-0.2-0.3-0.3
		c-1.1-0.6-3.5,1.6-4.5,3C311.6,98.7,311.4,99.6,311.3,100.4z M290.3,93.3c-0.1,0.4-0.2,0.9-0.4,1.4c0.1,0,0.2,0,0.2-0.1
		C290.2,94.4,290.3,93.9,290.3,93.3z M290.2,75.9c0.7,5.1,1.8,12.6,2.8,13.8c1.5,1.7,3.9,4.1,7.7,4.1c2.7,0,5.4-1,7.4-2.7
		c1.1-3.9,3.1-9.1,4.6-12.6l-0.4,0.2c-0.1,0.1-0.2,0-0.3-0.1c-0.1-0.1-0.1-0.2-0.1-0.3c0,0,1.7-3.4,0.9-5.4
		c-0.2-0.5-0.6-0.9-1.1-1.1c-0.1-0.1-0.2-0.2-0.2-0.4c0,0,1.4-4.9-0.6-6.3c-0.1,0-0.1-0.1-0.1-0.2c0-0.1,0-0.2-0.1-0.3
		c-1.1,0.5-3.1,1-6.9,0.9c-4.4-0.1-8-1.2-8.9-1.4c-1.8,2.5-1.1,5-1.1,5c0,0.1,0,0.2,0,0.2c0,0.1-0.1,0.1-0.2,0.1
		c-3.3,0.7-2.3,6.8-2.2,6.9c0,0.1,0,0.3-0.2,0.3c-0.1,0.1-0.3,0-0.3-0.1L290.2,75.9C290.2,75.9,290.2,75.9,290.2,75.9z M313.9,77.1
		c-1.7,3.9-3.8,9.1-5,13.1c0.5-0.6,1-1.2,1.4-1.9c1.7-3.1,1.7-4,1.7-4.1c-0.1-0.1,0-0.3,0.1-0.4c0.1-0.1,0.3,0,0.4,0.1
		c0,0,0.2,0.2,0.4,0.2c0.2,0,0.6-0.3,0.9-1.7c0.1-0.4,0.2-0.8,0.4-1.3c0.5-1.8,1.1-3.9,0.6-4.7c-0.1-0.2-0.3-0.3-0.5-0.3
		C314.3,76.3,314.1,76.7,313.9,77.1z M312.1,84.2L312.1,84.2L312.1,84.2z M289.2,73.9c-0.2,0-0.4,0.1-0.5,0.3
		c-0.8,1-0.2,3.9,0.2,5.9c0,0.2,0.1,0.5,0.1,0.7c0.2,1.2,0.6,1.6,0.9,1.7c0.3,0.2,0.7,0,0.7,0c0,0,0.1,0,0.1,0
		c-0.5-3.2-1-6.6-1.2-8.4C289.3,74,289.2,74,289.2,73.9z M312.2,71.3c0.5,0.3,0.9,0.7,1.2,1.3c0.6,1.6-0.2,4-0.6,5.2l0.1-0.1
		c0.1-0.2,0.3-0.5,0.5-0.9c0.5-1.2,0.9-2,0.9-2.1c1.1-2.3,1.8-7.8-1.2-10.4c-0.6-0.5-0.9-0.7-1.2-0.8c0,0.2-0.1,0.4-0.2,0.5
		c-0.1,0.1-0.2,0.2-0.4,0.4c0,0.1,0,0.2,0.1,0.4C313.3,66.2,312.5,70.2,312.2,71.3z M290,73.9c0.3,0.4,0.6,0.9,0.7,1.6
		c-0.2-1.8-0.2-5.7,2.5-6.5c-0.1-0.8-0.4-3.1,1.4-5.4c0.1-0.1,0.2-0.1,0.3-0.1c0,0,4,1.4,8.9,1.5c4.1,0.1,6-0.5,6.8-0.9
		c0-0.4,0.1-0.9,0.4-1.1c0,0,0,0,0,0c0,0,0,0,0-0.1c-0.6-1.2-2.6-3.6-6.5-3.8c-5.4-0.3-12,1.9-13.5,6.6c-1.5,5-1.4,7.2-1.4,7.2
		C289.9,73.1,289.9,73.5,290,73.9z"/>
</g>
</svg>
