<?xml version="1.0" encoding="utf-8"?>
<!-- Generator: Adobe Illustrator 27.8.1, SVG Export Plug-In . SVG Version: 6.00 Build 0)  -->
<svg version="1.1" baseProfile="tiny" id="Layer_1" xmlns="http://www.w3.org/2000/svg" xmlns:xlink="http://www.w3.org/1999/xlink"
	 x="0px" y="0px" viewBox="0 0 640 320" overflow="visible" xml:space="preserve">
<path fill="#777777" d="M289.3,203c-0.5,0-0.9-0.2-1.2-0.5c-1.7-1.9,1.1-8,1.2-8.1c1.7-3.6,3.9-5.9,7.3-8c0-0.2-0.1-0.4-0.1-0.5
	c-3.4-0.2-5.9,4.3-7.6,7.2c-0.1,0.3-0.3,0.5-0.4,0.7c-0.3,0.5-0.5,1-0.6,1.6c-0.4,1.1-0.7,2.2-1.6,2.6c-0.5,0.3-1.2,0.2-1.9-0.1
	c-2.1-0.8-2.9-4.6-3.1-5.9c-0.3-2.2,0.1-4.1,0.6-6c-0.1,0.3-0.3,0.6-0.5,0.9c-1.1,2.2-1.8,3.1-2.6,3.2c-1,0.2-1.7-0.6-2.8-1.6
	c-0.5-0.5-1.2-1.1-1.9-1.7c-0.1-0.1-12.1-9.8-13.9-13.3l0,0c-0.2,0.1-0.5,0.1-0.6,0.2c0.8,1.8,1.6,3.6,3.1,5.1
	c0.6,0.6,1.6,1.3,2.6,1.9c2,1.4,4.1,2.7,4.5,4.6c0.1,0.2,0,0.4-0.2,0.5s-0.3,0.2-0.5,0.1c-3.6-1.1-7.8-1.2-11.9-1.2
	c-1.5,0-2.9-0.1-4.3-0.1c-0.8-0.1-1.7-0.1-2.7-0.1c-3.7-0.1-7.9-0.1-10.5-2c-1.9-1.4-2.7-3.3-2.2-5.3c0.6-2.3,2.8-4.1,5.5-4.4
	c2.2-0.3,4.6-0.1,6.8,0.1c2.2,0.2,4.5,0.4,6.6,0.1c0.5-0.1,1-0.1,1.5-0.2c-0.1-0.1-0.1-0.3-0.1-0.3c-2-0.3-3.9-1.1-5.9-1.9
	c-2.8-1.2-5.7-2.4-8.8-2.1c-2.6,0.3-4.6,1.4-6.1,3.4c-2.4,3.2-2.5,7.5-2.5,8c0.1,0.1,0.1,0.3,0,0.4c-0.1,0.2-0.3,0.3-0.5,0.3H169
	c-0.3,0-0.5-0.3-0.5-0.5s0.3-0.5,0.5-0.5h64.3c0-1.2,0.3-3.5,1.1-5.4c1.1-2.8,3.4-6.2,8.4-6.7c3.4-0.3,6.4,1,9.4,2.2
	c2.1,0.9,4,1.7,5.9,1.9c0.2,0,0.3,0.1,0.5,0.3c0.1,0.3,0.3,0.6,0.4,0.8c0.3-0.1,0.6-0.2,1-0.3c0.1-0.1,0.2-0.1,0.3,0c0,0,0,0,0.1,0
	c0.3-0.1,0.6,0.1,0.6,0.4c0.7,2.1,10,10.2,13.8,13.2c0.8,0.6,1.5,1.3,2,1.7c0.8,0.8,1.5,1.4,1.9,1.4c0.6-0.1,1.6-2.1,1.9-2.6
	c0.8-1.7,1.9-3.5,3-5c0.3-0.7,0.5-1.4,0.7-2.1c0.5-1.7,0.4-3.2-0.2-4.6c-1.8-0.5-3.3-1-5.2-1.7c-0.3-0.1-0.6-0.3-1-0.4
	c-2.5-1-5-1-7.5-1c-1.4,0-2.7,0-4.1-0.1c-7.7-0.8-11.5-6.6-15.2-12.4c-0.9-1.4-1.9-2.8-2.8-4.2c-3.3-4.5-6-8.6-8.7-13
	c-0.4-0.6-3.4-5.9-2.8-9c-1.4-0.4-2.7-0.8-4-1.2c-2.9-1-5.9-2.9-7.9-4.3c-1.7-1.2-2.6-2.6-2.8-4.1c-0.2-2.1,1-4.4,3.5-7
	c2.1-2.1,4.5-3.9,6.6-5.7c0.8-0.7,1.7-1.4,2.6-2.1c0.5-0.4,1-0.8,1.7-1.5c1-0.8,2.2-1.8,3.5-2.9c-0.7-0.5-1.4-0.8-1.9-1
	c-0.2-0.1-0.3-0.2-0.3-0.4c-0.1-0.2,0-0.4,0.1-0.5c1.4-1.7,14.8-14.3,25-14.6c1.5-0.1,3.2,0.5,5,0.9c2.5,0.7,4.8,1.4,6.9,0.6
	c0.3-0.1,0.6-0.3,0.8-0.4c0.1-0.1,0.1-0.1,0.2-0.1c1.4-0.8,2.5-2.4,3.4-5.1c0.1-0.5,0.3-0.8,0.5-1.2c-1.7-1.1-2.6-3.2-2.4-5.9
	c0.1-1.8,1.2-3.2,2.6-3.4c0.5-0.1,0.9,0,1.3,0.2c-0.6-3.5-0.7-8.8,1.5-11.2c1-1.1,2.5-1.4,4.2-1c1.4-2.6,3.9-4.1,7-4.2
	c4.1-0.2,8.6,2,10.7,5.4c0.8,1.2,1.4,2.5,2.1,3.7c0.9,1.7,1.8,3.4,3,5c0.2,0.3,0.4,0.5,0.6,0.7c0.9,1.1,1.8,2.2,0.6,4.2
	c-0.8,1.4-2.8,2.1-4.3,1.9c-0.3,1-0.5,1.9-0.7,2.8c-0.6,2.5-1.1,4.8-2.8,7.3c-0.1,0.2-0.3,0.4-0.4,0.6c-1.2,1.9-2.4,3.6-2,5.1
	c0,0.1,0.1,0.2,0.1,0.3c0-0.1,0-0.1,0-0.1c0.1-0.3,0.4-0.4,0.6-0.3c3.4,0.8,7.9,2.7,10.5,4.1c2.9,1.5,3.6,4.3,4.3,6.9
	c0.3,1,0.5,1.9,0.8,2.8c2.1,5.6,3.2,19.3,2.2,27.6c13.2-0.6,36.6-1.2,39.1-1.2h0.1c0.1,0,0.3,0,0.4,0c1.8,0,5.1-0.1,5.9,2.1
	c0.5,1.5-3.3,8.8-14.2,27.2c-1.2,1.9-2.1,3.5-2.3,3.9c-0.1,0.2-0.3,0.4-0.5,0.4c-2.5,0.2-9.5,0.6-17.5,1.2c0.1,0.1,0.2,0.3,0.3,0.4
	c3.4,1,6.3,4.7,7.4,8c0.1,0.4,0.2,0.8,0.3,1.2H471c0.3,0,0.5,0.3,0.5,0.5c0,0.3-0.3,0.5-0.5,0.5H337.9c0.1,4-2.8,7.6-6.3,9.7
	c-4.2,2.5-9,2-12.8,1.3c-1-0.2-2.1-0.4-3.3-0.6c-3-0.5-6.3-1-9.2-2.1c-3.6-1.2-6.3-3.6-9-5.9c-3.2-2.8-6.3-5.4-10.6-6.1
	c-0.6-0.1-1.2-0.2-1.7-0.3c0.5,1.5,0.5,3-0.1,4.7l0,0c1-0.8,2.1-1.3,3.4-1.5c3-0.5,8.8,2.8,10.4,5.2c1.2,1.7,0.6,4.6-0.1,6.8
	c-1.5,4.9-5.1,11-8.2,12.3C290.2,202.9,289.7,203,289.3,203L289.3,203z M296.1,184.8c0.2,0,0.5,0,0.7,0.1c0.2,0,0.3,0.1,0.4,0.3
	c0.2,0.5,0.3,1,0.3,1.5c0,0.2-0.1,0.4-0.3,0.5c-3.4,2-5.5,4.2-7.2,7.7c-1.1,2.3-2.1,6-1.3,6.9c0.3,0.3,1,0.1,1.5-0.1
	c2.5-1,6.1-6.4,7.6-11.6c0.8-2.7,0.9-4.8,0.2-5.9c-1.5-2.1-6.8-5.2-9.4-4.8c-1.7,0.3-3.2,1.3-4.4,2.7c-0.1,0.3-0.2,0.5-0.3,0.8
	c-1.2,3-2.2,5.8-1.8,9.2c0.1,1.5,1,4.4,2.4,5c0.5,0.2,0.8,0.2,1,0.1c0.5-0.2,0.8-1.1,1-2c0.2-0.6,0.4-1.3,0.7-1.8
	c0.1-0.2,0.3-0.5,0.4-0.7C289.6,189.4,292.2,184.8,296.1,184.8L296.1,184.8z M284.7,174c0.7,0.2,1.5,0.3,2.3,0.5
	c4.6,0.8,7.9,3.7,11.1,6.4c2.6,2.2,5.2,4.5,8.6,5.7c2.8,1,5.9,1.5,9,2c1.2,0.2,2.3,0.4,3.3,0.6c3.5,0.7,8.1,1.2,12-1.2
	c3.2-1.9,5.9-5.2,5.8-8.7H334c-0.1,0-0.3-0.1-0.4-0.2c-0.1-0.1-0.1-0.3-0.1-0.5c0.2-1.9-0.6-4.2-2.2-6.4c-0.5-0.7-1.1-1.4-1.7-2.2
	c-0.2-0.1-0.4-0.1-0.6-0.1c-2.7-0.4-5.7,0.3-8.5,0.9c-1,0.3-2.1,0.5-3,0.6c-1.1,0.2-2.2,0.4-3.3,0.6c-3.2,0.6-6.3,1.1-9.4,1.4
	c-7.8,0.8-13.5,0.1-18.5-2c-0.5-0.3-1.1-0.5-1.7-0.7c-0.9-0.4-1.9-0.7-2.8-1.2C282.9,170.7,284,172.3,284.7,174L284.7,174z
	 M245.1,174c-0.8,0-1.5,0.1-2.2,0.1c-2.3,0.3-4.2,1.7-4.6,3.6c-0.4,1.5,0.3,3,1.8,4.1c2.4,1.7,6.4,1.7,9.9,1.8c1,0,1.9,0,2.7,0.1
	c1.4,0.1,2.8,0.1,4.3,0.1c3.7,0.1,7.6,0.1,11,1c-0.7-1.1-2.2-2.1-3.6-3c-1-0.7-2.1-1.4-2.8-2.1c-1.7-1.7-2.6-3.7-3.4-5.6
	c-0.6,0.1-1.2,0.2-1.8,0.3c-2.3,0.3-4.6,0.1-6.8-0.1C248,174.1,246.5,174,245.1,174L245.1,174z M334.6,178.1h2.1
	c-0.1-0.3-0.1-0.5-0.2-0.8c-0.8-2.3-2.6-4.9-4.8-6.4c0.1,0.2,0.3,0.4,0.4,0.6C333.8,173.8,334.6,176.1,334.6,178.1L334.6,178.1z
	 M237.6,133.3c-0.4,2.1,1.3,5.9,2.7,8.1c2.6,4.4,5.4,8.4,8.6,12.9c1,1.4,1.9,2.8,2.9,4.3c3.7,5.7,7.3,11.2,14.4,11.9
	c1.4,0.1,2.6,0.1,4,0.1c2.6,0,5.2,0,7.9,1c0.4,0.1,0.7,0.3,1,0.4c1.5,0.6,2.8,1.1,4.3,1.5c-0.8-1.4-1.9-2.7-2.9-3.9
	c-0.7-0.8-1.4-1.6-2.1-2.3c-0.1-0.1-0.3-0.3-0.4-0.4c-0.2-0.2-0.5-0.5-0.6-0.7c-0.2-0.2-0.3-0.4-0.5-0.5c-0.8-0.8-1.5-1.6-2.3-2.4
	c-0.2-0.2-0.2-0.5-0.1-0.6c0.1-0.1,0.2-0.2,0.4-0.3c-0.3-0.5-0.7-1-1.1-1.4c-0.1-0.1-0.2-0.2-0.3-0.3c-0.1-0.1-0.1-0.2,0-0.3
	c0-0.7,0.3-1.4,0.6-2.1c-3.6-1.9-7.7-5.6-9.7-7.5c-3.5-3.4-6.3-7.4-9-11.2c-0.6-0.2-1.2-0.5-1.8-0.6c-4.1-1.5-8.3-3.1-12.5-4.5
	C239.9,134,238.7,133.6,237.6,133.3L237.6,133.3z M279,166.5c1.6,1.4,3.7,2.3,5.8,3c0.6,0.3,1.2,0.5,1.7,0.7
	c4.8,2.1,10.4,2.6,18,1.9c3.2-0.3,6.2-0.8,9.4-1.4c1.1-0.2,2.2-0.4,3.3-0.6c1-0.1,1.9-0.4,3-0.6c0.9-0.2,1.9-0.4,2.8-0.6
	c-13,0.9-26.2,1.8-26.2,1.8c-0.1,0-0.1,0-0.2,0l-19.3-6.6c0.3,0.5,0.6,0.8,0.8,1.2C278.4,165.8,278.7,166.2,279,166.5L279,166.5z
	 M276.4,162.9l20.5,7c1.4-0.1,17.2-1.2,31-2.1c-0.5-0.6-0.8-1.2-1.2-1.9c-0.1-0.1-0.1-0.4,0-0.5c0.1-0.1,0.3-0.3,0.5-0.3l18.8-1.3
	c4.4-7.2,12.6-21,13.1-23.8c0.1-0.6,0.1-1.1-0.2-1.4c-0.5-0.6-1.8-0.6-3.2-0.6c-0.3,0-0.6,0-1-0.1c-1.5-0.1-23.6,0.9-37,1.5
	c-0.4,0-9.5,0.8-11.4,0.9c-0.1,0.3-0.3,0.6-0.4,0.9c-1.7,4.3-8.8,21.9-10.8,26.4c0,0.1-0.1,0.1-0.1,0.1c-0.1,0.1-0.2,0.2-0.3,0.2
	c-0.1,0.1-0.3,0-0.5-0.1c-1.3-0.5-8.2-2.9-9.4-3.4c-5.9-2.1-8.3-3-9.2-3.4c-0.1,0-0.1,0-0.1,0h-0.1c-0.2,0-0.3-0.1-0.5-0.1
	C275.6,161.6,276,162.2,276.4,162.9L276.4,162.9z M328,166c0.3,0.5,0.7,1,1.1,1.5c8-0.6,15.2-1,17.9-1.2c0.3-0.5,0.9-1.5,2.2-3.7
	c2.4-4,5.9-10,9-15.4c5-9,5.2-10.5,5.2-10.8c-0.5-1.4-3.4-1.4-4.8-1.4c-0.1,0-0.3,0-0.4,0h-0.1c-2.5,0-26.1,0.7-39.3,1.2
	c-0.1,0.7-0.3,1.4-0.4,1.9c13.5-0.6,34.8-1.5,36.4-1.5c0.3,0,0.6,0,1,0.1c1.7,0.1,3.2,0.1,4,1c0.5,0.5,0.6,1.3,0.4,2.3
	c-0.7,3.8-12.8,23.6-13.4,24.4c-0.1,0.1-0.3,0.3-0.5,0.3L328,166L328,166z M278.4,161c4.5,1.7,13.7,5,16,5.7c2.2-5,9-21.7,10.6-26
	c0.1-0.1,0.1-0.2,0.1-0.3c-0.8,0.2-1.7,0.3-2.5,0.5c-0.3,0.6-0.5,1.2-0.7,1.6c-4,8.4-15.5,9.5-21.9,10.1c0.3,0,0.5,0.1,0.8,0.1
	c2.3,0.2,4.5,0.5,6.6,0.1c1.6-0.2,3.4-0.8,5-1.5c2.4-0.9,4.8-1.8,7.3-1.6c0.2,0,0.3,0.1,0.4,0.3c0.1,0.1,0.1,0.3,0.1,0.5l-3.2,9.4
	c-0.1,0.1-0.1,0.3-0.3,0.3c-0.1,0.1-0.2,0.1-0.3,0.1C296,160.3,283.9,160.7,278.4,161L278.4,161z M274.6,160.3
	c0.2,0.2,0.4,0.4,0.5,0.6l0,0c-0.1-0.2-0.1-0.5,0.1-0.6l0.1-0.1l0.1-0.1c0.1-0.1,0.4-0.2,0.6-0.1c0.1,0,0.1,0.1,0.1,0.1
	c1.1-0.1,3.6-0.2,9.9-0.5c6.7-0.3,9.2-0.4,10.1-0.4l2.8-8.3c-2,0-4.1,0.8-6.1,1.5c-1.7,0.6-3.5,1.3-5.2,1.5
	c-2.3,0.3-4.6,0.1-6.9-0.1c-0.6-0.1-1.2-0.1-1.8-0.1c-0.6,0.6-1.2,1.2-1.8,1.9c0.6,1,1,2,1.2,3.2c0,0.1-0.1,0.3-0.1,0.4
	c-0.1,0.1-0.3,0.2-0.4,0.2c-0.8,0-1.7-0.3-2.6-0.7C274.8,159.2,274.6,159.8,274.6,160.3L274.6,160.3z M275.5,160.1
	c-0.1,0-0.1,0.1-0.2,0.1C275.3,160.2,275.4,160.2,275.5,160.1L275.5,160.1z M275.5,157.6c0.6,0.3,1.1,0.4,1.5,0.5
	c-0.1-0.6-0.4-1.2-0.7-1.7C276,156.9,275.8,157.3,275.5,157.6L275.5,157.6z M258,141.4c2.1,3,4.4,6,7.1,8.5c3,2.8,6.6,5.8,9.5,7.3
	c0.3-0.6,0.8-1.2,1.2-1.7c-0.1-0.1-0.2-0.3-0.3-0.4c-0.4-0.6-0.8-1.2-1.1-1.7c-0.1-0.1-0.1-0.4,0-0.5c0.1-0.1,0.1-0.2,0.3-0.2
	c-2.4-0.3-4.8-1.1-7.5-2.3c-2-0.8-3-1.7-4.4-3.2c-1.1-1.2-3-4.3-3.5-5.2C258.8,141.8,258.4,141.6,258,141.4L258,141.4z M275.8,153.6
	c0.2,0.3,0.4,0.6,0.6,0.9c0,0.1,0.1,0.1,0.1,0.1c0.3-0.3,0.6-0.7,1-1C276.9,153.6,276.3,153.6,275.8,153.6L275.8,153.6z
	 M262.7,145.3c0.3,0.5,0.6,0.8,0.8,1.1c1.3,1.4,2.2,2.2,4,3c4.4,1.9,8.1,2.6,11.9,2.3c0.8-0.7,1.5-1.3,2.1-1.9
	c0.2-0.2,0.4-0.4,0.6-0.5c2.5-2.2,6.2-5.5,9.2-9.2c-2.9-0.8-5.9-2-8.8-3.7c-9.4-5.2-14.3-13.3-19.3-22.5c-0.2-0.3-0.4-0.7-0.6-1.1
	c-0.5-1-1-2-1.6-2.8c-0.4,0.3-0.7,0.6-1.1,0.8c0.1,4.3,0.5,14.8,0.6,16.8c1,0.5,2.8,1,4.3,1.4c0.8,0.2,1.5,0.4,2,0.5l0.1,0.1
	c1.7,0.6,3.9,1.2,5.5,2.5c0.9,0.7,1.5,1.7,2.1,2.6c0.4,0.6,0.7,1.2,1.1,1.7l0.1,0.1c2.1,2.5,4.7,6,3.9,8.2c-0.3,0.8-1,1.4-2.1,1.7
	c-0.1,0.1-0.3,0-0.4-0.1c-1.2-0.8-1.5-0.5-2,0.1c-0.3,0.4-0.8,0.9-1.5,1c-0.8,0.1-1.4-0.3-1.9-0.7c-0.2-0.2-0.5-0.4-0.6-0.4
	c-0.5-0.1-0.7,0-1.1,0.2c-0.3,0.1-0.7,0.3-1.2,0.3C266.9,147,264.5,146.5,262.7,145.3L262.7,145.3z M292.5,140.4
	c-0.1,0.1-0.2,0.2-0.3,0.3c-3.1,3.8-6.8,7.2-9.4,9.4c-0.2,0.1-0.4,0.3-0.6,0.5c-0.3,0.3-0.6,0.6-1,0.9c6.3-0.6,16.2-2.1,19.7-9.4
	c0.1-0.3,0.3-0.6,0.5-1C298.5,141.3,295.5,141.1,292.5,140.4L292.5,140.4z M270.8,145.3c0.1,0,0.3,0,0.5,0c0.5,0.1,0.8,0.3,1.1,0.6
	c0.5,0.3,0.7,0.5,1,0.5c0.4-0.1,0.6-0.4,1-0.7c0.7-0.8,1.5-1.4,3.2-0.5c0.6-0.2,1-0.5,1.1-0.9c0.3-0.9-0.1-2.8-3.7-7.2l-0.1-0.1
	c-0.5-0.6-0.8-1.2-1.2-1.8c-0.5-0.9-1-1.8-1.8-2.3c-1.4-1.2-3.5-1.8-5.2-2.3l-0.1-0.1c-0.5-0.1-1.2-0.3-1.9-0.5
	c-1.7-0.5-3.7-0.9-4.8-1.6c-0.1-0.1-0.3-0.3-0.3-0.5c0-0.1-0.5-11.2-0.6-16.4c-3.3,2.2-7,4.2-7.3,4.3c-0.1,0.1-0.3,0.1-0.5,0
	c-0.1-0.1-0.3-0.2-0.3-0.3c-0.2-0.6-0.6-1.3-1-2c-0.6,0.5-1.2,0.8-1.8,1.3c-1.3,1-2.7,1.9-4.1,2.8c-1.2,0.7-1.7,1.4-1.7,1.9
	c0.1,1.1,2.8,2.2,4.8,3c0.6,0.3,1.2,0.5,1.6,0.6c1.9,0.8,3.7,2,5.5,3.2c1.8,1.2,3.7,2.3,5.5,3.1c0.4,0.2,1.6,0.5,3,0.7
	c5.6,1.2,8,1.9,7.9,3.2c-0.1,1.4-2,2.5-4.2,3.6c-2,1-4.3,2.3-4.8,3.7c-0.3,1-0.2,2,0.5,2.8c1.3,1.6,4.4,2.5,6.4,2.3
	c0.4-0.1,0.6-0.1,1-0.3C269.9,145.4,270.2,145.3,270.8,145.3L270.8,145.3z M239.6,130.8c0.1,0,0.3,0,0.5,0c4.1,0.3,8.9,2.5,11.8,4.3
	c1.2,0.8,2.3,1.7,3.4,2.7c1.5,1.4,3,2.6,4.6,3.2c0.1,0.1,0.3,0.1,0.3,0.3c0.1,0.1,0.1,0.3,0.3,0.5c0-0.5,0.1-1,0.2-1.5
	c0.6-1.8,3-3.1,5.3-4.3c1.7-0.8,3.5-1.8,3.6-2.6c-0.5-0.7-5.1-1.7-7.1-2.1c-1.5-0.3-2.6-0.6-3.2-0.8c-1.9-0.8-3.8-2-5.6-3.2
	c-1.7-1.1-3.6-2.3-5.4-3.1c-0.5-0.2-1-0.5-1.6-0.6c-2.5-1-5.4-2.1-5.5-3.9c-0.1-1,0.6-1.9,2.2-2.9c1.4-0.8,2.7-1.8,4-2.8
	c0.6-0.5,1.2-0.9,1.8-1.3c-2.1-2.7-5.5-5.9-8.3-7.9c-1.4,1.2-2.7,2.3-3.7,3.1c-0.7,0.6-1.3,1.1-1.7,1.5c-0.9,0.7-1.8,1.5-2.6,2.1
	c-2.3,1.9-4.5,3.6-6.6,5.7c-2.3,2.3-3.4,4.4-3.3,6.1c0.1,1.2,0.9,2.4,2.3,3.4c2,1.4,4.9,3.2,7.7,4.2c1.3,0.5,2.6,0.8,4,1.2
	C237.4,131.2,238.3,130.8,239.6,130.8L239.6,130.8z M293.2,139.5c2.9,0.6,5.7,0.8,8.6,0.5c1.5-3.9,3-9.7,3-9.7s0.1-0.1,0.1-0.2l0,0
	c0.1-0.6,0.2-1.3,0.3-1.9c-0.3-1.1-0.1-2.5,0.6-4.2c0.1-0.3,0.2-0.5,0.4-0.8c0.5-1.9,0.8-3.1,0.8-3.1c0.1-0.5,0.9-2.8,1.8-5.2
	c1.7-4,2.6-4.5,3.4-4.6c0.6,0,1.1,0.5,1.4,1.5c0.8,2.6-1.8,5.8-4.1,8.6c-0.9,1.2-1.8,2.2-2.3,3.1c-0.3,1.4-0.6,2.9-0.9,4.5
	c0.1,0.3,0.2,0.5,0.4,0.7l0,0c3.4-1.5,8.8-1,11.4-0.3c0.1,0,0.1,0.1,0.1,0.1l0.1,0.1c0.1-7.6-1-16.5-2.5-20.6c-0.4-1-0.6-2-0.8-3
	c-0.6-2.6-1.2-4.9-3.7-6.3s-6.6-3-9.8-3.9c0,0.1-0.1,0.1-0.1,0.3c0.4,0.3,0.8,0.6,1.4,1c3.9,2.1,5.7,3.9,5.6,9.2
	c0,4.1-1.6,8.5-3.2,12.3c-1.1,2.6-2.6,5.1-4,7.5c-1,1.7-2,3.4-2.8,5.2c-0.3,0.5-0.5,0.9-0.7,1.4C296.3,134.2,295,136.9,293.2,139.5
	L293.2,139.5z M304.5,135.2c-0.5,1.5-1,3.1-1.5,4.6c0.7-0.1,1.4-0.3,2.1-0.5C304.6,138.4,304.5,136.9,304.5,135.2z M261.9,109.3
	c0.7,0.8,1.2,2,1.7,3c0.2,0.4,0.4,0.8,0.5,1.1c4.9,9.1,9.7,17,18.8,22.1c3,1.7,6.1,2.9,9,3.7c1.9-2.5,3.3-5.4,4.6-8.1
	c0.3-0.5,0.5-0.9,0.7-1.4c0.9-1.7,1.9-3.5,2.9-5.2c1.4-2.4,2.9-4.9,3.9-7.4c1.5-3.7,3-7.9,3-11.9c0-4.7-1.4-6.3-5.1-8.3
	c-0.5-0.3-1-0.6-1.4-0.9c-1,2.3-2.8,6.2-3.9,7.5c-3,3.5-6.8,6.8-11.7,5.6c-4.1-1-6.2-4.1-8.4-7.5c-1.1-1.7-3.7-7.7-2.6-11
	c-2.1,0.6-4.5,0.5-6.8,0.4c-1.2-0.1-2.3-0.1-3.2-0.1c-3.7,0.1-6.3,1.2-9.7,3.2c-2.1,1.2-8,6-12.8,10c2.8,2.1,6.3,5.2,8.3,8
	c1.1-0.8,2.3-1.5,3.5-2.1c0.2-0.1,0.4-0.2,0.6-0.3c1.4-0.7,3.4-1.7,5.2-1.7c0.3-0.8,0.7-1.4,1.3-2.1c0.8-0.9,1.6-1.2,2.3-1.1
	c0.5,0.1,0.7,0.5,0.8,0.9c0.3,0.8-0.1,2-1,2.8C262.5,108.8,262.2,109.1,261.9,109.3L261.9,109.3z M317.7,136.3
	c-1.1,0.1-2.1,0.1-3,0.1c-0.3,0-0.6,0-1,0.1c-3.7,0.2-5.4,0.3-6.7,2.3c0.1,0,0.2-0.1,0.3-0.1c0.1,0,0.1,0,0.1,0
	c0.5,0,4.5-0.2,9.8-0.5C317.4,137.7,317.6,137,317.7,136.3L317.7,136.3z M305.9,130.5c-0.5,3.4-0.6,6.5,0,8.1c1.7-2.9,3.7-3,7.7-3.2
	c0.3,0,0.6,0,0.9-0.1c1-0.1,2.1-0.1,3.2-0.1c0.2-1.6,0.3-3.5,0.4-5.5c-0.1,0.1-0.2,0.1-0.3,0.2h-0.1c-0.5,0.1-1,0.1-1.5,0.3
	c-3.3,0.6-7.6,1.4-9.9-0.1C306.3,130.2,306.1,130.3,305.9,130.5L305.9,130.5z M238,132.4c1.1,0.3,2.3,0.6,3.4,1
	c4.1,1.3,8,2.8,11.9,4.2c-0.6-0.5-1.3-1-1.9-1.5c-3-1.9-7.7-3.9-11.3-4.1C239.1,131.8,238.4,132,238,132.4L238,132.4z M307.7,129.5
	c2.1,0.8,5.7,0.1,8.4-0.3C313.6,128.7,310.1,128.6,307.7,129.5z M312.2,111.4c0,0-0.7,0-2.3,3.9c-0.9,2.2-1.7,4.6-1.8,5
	c-0.1,0.1-0.1,0.3-0.1,0.5c0.3-0.3,0.5-0.6,0.8-1c2.1-2.6,4.5-5.6,3.9-7.6C312.4,111.5,312.2,111.4,312.2,111.4L312.2,111.4z
	 M250.7,113c0.4,0.6,0.8,1.2,1,1.7c1.3-0.7,4.5-2.5,7.2-4.4c0-0.5,0.1-0.8,0.1-1.2c-1.4,0.1-3.1,1-4.3,1.6c-0.2,0.1-0.5,0.2-0.6,0.3
	C252.9,111.6,251.8,112.2,250.7,113L250.7,113z M260.1,109.2c0,0.1-0.1,0.2-0.1,0.3c0.1-0.1,0.2-0.1,0.3-0.2
	C260.2,109.3,260.1,109.2,260.1,109.2z M260.3,108.2c0.3,0.1,0.5,0.3,0.8,0.5c0.3-0.3,0.6-0.5,0.8-0.8c0.6-0.6,0.8-1.4,0.7-1.8
	c0-0.1-0.1-0.1-0.1-0.1c-0.1-0.1-0.5,0.1-1.2,0.8C260.9,107.1,260.6,107.6,260.3,108.2L260.3,108.2z M275.9,89.9
	c-2.4,1.9,0.5,9,1.7,11.2c2.1,3.4,4.1,6.2,7.7,7.1c4.3,1.1,7.8-2.1,10.6-5.2c1.1-1.2,3-5.4,3.9-7.5c-0.3-0.4-0.5-0.8-0.6-1.2
	c-0.5-1.9,0.8-4,2.1-5.9c0.1-0.2,0.3-0.4,0.4-0.6c1.5-2.4,2.1-4.6,2.6-7c0.3-1,0.5-2.1,0.9-3.3c0.1-0.3,0.4-0.5,0.6-0.4
	c1,0.3,2.9-0.3,3.5-1.4c0.8-1.4,0.4-1.9-0.5-3c-0.2-0.3-0.4-0.5-0.6-0.8c-1.2-1.7-2.1-3.4-3-5.2c-0.6-1.2-1.3-2.5-2-3.6
	c-1.9-3.1-6-5.2-9.7-5c-2.8,0.1-5,1.5-6.3,4c-0.1,0.3-0.4,0.4-0.6,0.3c-1.5-0.5-2.6-0.3-3.5,0.6c-2.4,2.5-1.6,9.9-0.7,12.5
	c0,0,0,0,0,0.1c0.1,0.3-0.1,0.6-0.3,0.7c-0.3,0.1-0.6-0.1-0.7-0.3l0,0l0,0l0,0c0,0,0,0,0-0.1c-0.4-1.1-1-1.7-1.7-1.6
	c-0.7,0.1-1.5,1-1.7,2.5c-0.1,0.9-0.1,3.5,1.7,4.8c0.7-1.8,1.5-3.4,1.9-4.1c0-0.1,0.1-0.2,0.1-0.3c0.1-0.3,0.4-0.6,0.8-0.4
	c0.3,0.1,0.3,0.3,0.3,0.6c0.2,0.2,0.5,0.5,0.8,0.6c0.5-0.8,1.4-1.8,2.5-1.9c0.4-0.1,0.8,0,1.4,0.3c0.5-0.9,0.8-1.9,1-2.9
	c0.4-1.6,0.8-3.4,2.4-4.8c0.1-0.1,0.1-0.1,0.2-0.2c0.2-0.1,0.4-0.1,0.5,0c0.1,0.1,0.3,0.2,0.3,0.4c0,0.1,0,0.1,0,0.1
	c0.8,2.4,4.9,7.1,8.6,8.4c1.5,0.6,2.8,0.5,3.8-0.2c0.2-0.1,0.5-0.1,0.6,0s0.3,0.4,0.2,0.6c-0.1,0.2-7.7,20.1-11.2,21.9
	c-2.9,1.5-5.7,1.4-8-0.3c-4.5-3.4-6.1-11.6-5.4-16.3c-0.1,0-0.1-0.1-0.2-0.1c-0.1,0.4-0.3,0.7-0.4,1.1C279,87.3,277.6,89,275.9,89.9
	L275.9,89.9z M239.1,102.5c0.5,0.3,1.1,0.6,1.7,1c4.9-4.1,11-9,13.2-10.3c3.5-2,6.3-3.2,10.2-3.4c1-0.1,2.1,0,3.3,0.1
	c0.3,0,0.6,0,0.8,0.1c-0.3-0.1-0.6-0.2-0.9-0.3c-1.7-0.5-3.3-0.9-4.6-0.9C254.1,89.1,242.3,99.2,239.1,102.5L239.1,102.5z
	 M281.8,82.8c-0.8,4.3,0.7,12.5,4.9,15.6c2,1.5,4.3,1.5,6.8,0.2c2.5-1.4,8.4-15.6,10.2-20.1c-1,0.3-2.2,0.2-3.5-0.3
	c-3.9-1.4-7.7-5.7-9-8.5c-1,1.2-1.3,2.5-1.6,3.8c-0.3,1.3-0.6,2.6-1.5,3.8c-0.1,0.1-0.3,0.2-0.4,0.2s-0.3-0.1-0.5-0.2
	c-0.3-0.3-0.6-0.5-1-0.5c-0.6,0.1-1.4,0.8-2.1,1.9c-0.1,0.1-0.2,0.2-0.3,0.3c-0.1,0.1-0.3,0-0.4-0.1s-0.6-0.5-1.1-0.8
	c-0.4,0.8-1,2.1-1.6,3.6c0.1,0.1,0.3,0.1,0.4,0.1c0.1,0,0.1,0,0.1,0c0.1,0,0.3,0.1,0.4,0.2c0.1,0.1,0.1,0.1,0.1,0.3
	c0,0.1,0,0.1,0,0.2C281.9,82.8,281.9,82.8,281.8,82.8L281.8,82.8z M281.8,82.2c0.1,0.1,0.1,0.1,0.1,0.1
	C281.8,82.3,281.8,82.2,281.8,82.2z"/>
</svg>
