<?xml version="1.0" encoding="utf-8"?>
<!-- Generator: Adobe Illustrator 27.8.1, SVG Export Plug-In . SVG Version: 6.00 Build 0)  -->
<svg version="1.1" baseProfile="tiny" id="Layer_1" xmlns="http://www.w3.org/2000/svg" xmlns:xlink="http://www.w3.org/1999/xlink"
	 x="0px" y="0px" viewBox="0 0 1921 401" overflow="visible" xml:space="preserve">
<rect x="0.5" y="0.5" fill="#F8F9FA" width="1920" height="400"/>
<path fill="#231F20" d="M436.2,323.7c-0.8,0-1.4-0.3-1.9-0.8c-2.7-2.9,1.7-12.4,1.8-12.5c2.7-5.6,6-9.2,11.3-12.4
	c0-0.3-0.1-0.6-0.2-0.8c-5.3-0.3-9.2,6.6-11.8,11.2c-0.2,0.4-0.4,0.8-0.6,1.1c-0.4,0.7-0.7,1.6-1,2.5c-0.6,1.7-1.1,3.4-2.5,4.1
	c-0.8,0.4-1.8,0.3-2.9-0.1c-3.2-1.3-4.5-7.1-4.8-9.1c-0.4-3.4,0.1-6.4,1-9.3c-0.2,0.5-0.5,0.9-0.7,1.4c-1.7,3.4-2.8,4.8-4.1,5
	c-1.5,0.3-2.7-0.9-4.4-2.5c-0.8-0.8-1.8-1.7-3-2.7c-0.2-0.2-18.7-15.2-21.6-20.6l0,0c-0.3,0.1-0.7,0.2-1,0.3
	c1.2,2.8,2.5,5.6,4.8,7.9c1,1,2.5,2,4,3c3.1,2.1,6.3,4.2,6.9,7.1c0.1,0.3,0,0.6-0.3,0.8s-0.5,0.3-0.8,0.2
	c-5.6-1.7-12.1-1.8-18.4-1.9c-2.3,0-4.5-0.1-6.6-0.2c-1.3-0.1-2.7-0.1-4.2-0.1c-5.7-0.1-12.2-0.2-16.3-3.1c-3-2.1-4.2-5.1-3.4-8.2
	c0.9-3.6,4.4-6.3,8.6-6.8c3.4-0.4,7.1-0.1,10.6,0.2c3.4,0.3,7,0.6,10.3,0.2c0.8-0.1,1.5-0.2,2.3-0.3c-0.1-0.2-0.2-0.4-0.2-0.5
	c-3.1-0.4-6-1.7-9.2-3c-4.3-1.8-8.8-3.7-13.6-3.3c-4,0.4-7.1,2.2-9.4,5.2c-3.7,4.9-3.9,11.6-3.8,12.4c0.1,0.2,0.1,0.4,0,0.6
	c-0.1,0.3-0.4,0.5-0.8,0.5H249.6c-0.5,0-0.8-0.4-0.8-0.8s0.4-0.8,0.8-0.8h99.7c0-1.9,0.5-5.4,1.7-8.4c1.7-4.3,5.3-9.6,13.1-10.4
	c5.2-0.5,9.9,1.5,14.5,3.4c3.2,1.4,6.2,2.6,9.2,2.9c0.3,0,0.5,0.2,0.7,0.5c0.2,0.4,0.4,0.9,0.6,1.3c0.5-0.1,1-0.3,1.5-0.5
	c0.2-0.1,0.3-0.1,0.5,0c0,0,0,0,0.1,0c0.4-0.1,0.9,0.1,1,0.6c1.1,3.2,15.5,15.8,21.4,20.5c1.2,1,2.3,2,3.1,2.7
	c1.3,1.2,2.3,2.2,2.9,2.1c1-0.2,2.5-3.2,3-4.1c1.3-2.7,2.9-5.5,4.7-7.7c0.4-1.1,0.8-2.1,1.1-3.2c0.8-2.6,0.6-5-0.3-7.2
	c-2.8-0.7-5.1-1.6-8.1-2.7c-0.5-0.2-1-0.4-1.6-0.6c-3.9-1.5-7.7-1.5-11.7-1.5c-2.1,0-4.2,0-6.3-0.2c-11.9-1.2-17.8-10.3-23.6-19.2
	c-1.4-2.2-2.9-4.4-4.4-6.5c-5.1-6.9-9.3-13.3-13.5-20.1c-0.6-1-5.3-9.1-4.4-13.9c-2.1-0.6-4.2-1.2-6.2-1.9
	c-4.5-1.6-9.2-4.5-12.3-6.7c-2.6-1.8-4.1-4-4.3-6.4c-0.3-3.2,1.6-6.8,5.5-10.8c3.3-3.3,6.9-6.1,10.3-8.9c1.3-1.1,2.7-2.2,4.1-3.3
	c0.7-0.6,1.6-1.3,2.7-2.3c1.5-1.3,3.4-2.8,5.4-4.5c-1.1-0.7-2.1-1.2-2.9-1.5c-0.3-0.1-0.5-0.3-0.5-0.6c-0.1-0.3,0-0.6,0.2-0.8
	c2.2-2.6,22.9-22.2,38.7-22.7c2.4-0.1,5,0.7,7.7,1.4c3.8,1.1,7.5,2.1,10.7,1c0.4-0.2,0.9-0.4,1.3-0.6c0.1-0.1,0.2-0.1,0.3-0.1
	c2.1-1.3,3.8-3.7,5.3-7.9c0.2-0.7,0.5-1.3,0.7-1.9c-2.7-1.7-4.1-5-3.7-9.2c0.2-2.8,1.9-5,4-5.3c0.7-0.1,1.4,0,2,0.3
	c-1-5.5-1.1-13.7,2.4-17.3c1.6-1.7,3.8-2.2,6.5-1.5c2.2-4,6-6.3,10.8-6.5c6.4-0.3,13.3,3.1,16.6,8.4c1.2,1.9,2.2,3.8,3.2,5.7
	c1.4,2.6,2.8,5.3,4.6,7.7c0.3,0.4,0.6,0.8,0.9,1.1c1.4,1.7,2.8,3.4,0.9,6.5c-1.3,2.2-4.3,3.3-6.6,3c-0.4,1.5-0.8,2.9-1.1,4.3
	c-0.9,3.8-1.7,7.4-4.3,11.3c-0.2,0.3-0.4,0.6-0.6,0.9c-1.9,2.9-3.7,5.6-3.1,7.9c0,0.1,0.1,0.3,0.1,0.4c0-0.1,0-0.1,0-0.1
	c0.2-0.4,0.6-0.6,1-0.5c5.2,1.3,12.2,4.2,16.3,6.4c4.5,2.4,5.6,6.6,6.6,10.7c0.4,1.5,0.8,3,1.3,4.4c3.2,8.7,5,29.9,3.4,42.8
	c20.5-0.9,56.8-1.9,60.7-1.9h0.1c0.2,0,0.4,0,0.6,0c2.8,0,7.9-0.1,9.1,3.2c0.8,2.3-5.1,13.7-22,42.1c-1.8,2.9-3.3,5.5-3.5,6
	c-0.1,0.3-0.4,0.6-0.7,0.6c-3.8,0.3-14.7,1-27.1,1.9c0.2,0.2,0.3,0.4,0.5,0.6c5.2,1.6,9.8,7.3,11.4,12.4c0.2,0.6,0.3,1.2,0.4,1.8
	H718c0.5,0,0.8,0.4,0.8,0.8c0,0.5-0.4,0.8-0.8,0.8H511.6c0.2,6.2-4.4,11.8-9.8,15c-6.5,3.9-14,3.1-19.8,2c-1.6-0.3-3.3-0.6-5.1-0.9
	c-4.7-0.8-9.7-1.6-14.2-3.2c-5.6-1.9-9.8-5.6-13.9-9.1c-5-4.3-9.7-8.3-16.4-9.5c-0.9-0.2-1.8-0.3-2.6-0.5c0.7,2.3,0.8,4.7-0.1,7.3
	l0,0c1.5-1.2,3.3-2,5.3-2.3c4.6-0.7,13.6,4.3,16.2,8.1c1.8,2.6,0.9,7.2-0.1,10.5c-2.3,7.6-7.9,17.1-12.7,19
	C437.6,323.5,436.8,323.7,436.2,323.7L436.2,323.7z M446.8,295.5c0.3,0,0.7,0,1.1,0.1c0.3,0,0.5,0.2,0.6,0.5
	c0.3,0.7,0.5,1.6,0.5,2.4c0,0.3-0.2,0.6-0.4,0.7c-5.3,3.1-8.5,6.5-11.1,11.9c-1.7,3.5-3.3,9.3-2,10.7c0.5,0.5,1.5,0.2,2.3-0.1
	c3.9-1.6,9.4-10,11.8-18c1.3-4.2,1.4-7.5,0.3-9.1c-2.3-3.3-10.6-8-14.6-7.4c-2.7,0.4-4.9,2-6.8,4.2c-0.2,0.4-0.3,0.8-0.5,1.2
	c-1.8,4.6-3.4,9-2.8,14.2c0.2,2.3,1.6,6.8,3.7,7.7c0.7,0.3,1.2,0.3,1.5,0.1c0.8-0.3,1.2-1.7,1.6-3.1c0.3-1,0.6-2,1.1-2.8
	c0.2-0.3,0.4-0.7,0.6-1.1C436.6,302.7,440.7,295.5,446.8,295.5L446.8,295.5z M429.1,278.7c1.1,0.3,2.3,0.5,3.6,0.7
	c7.2,1.3,12.3,5.7,17.2,9.9c4,3.4,8.1,7,13.4,8.8c4.4,1.5,9.2,2.3,13.9,3.1c1.8,0.3,3.5,0.6,5.1,0.9c5.5,1.1,12.6,1.8,18.6-1.8
	c4.9-2.9,9.2-8,9-13.5h-4.4c-0.2,0-0.5-0.1-0.6-0.3c-0.2-0.2-0.2-0.4-0.2-0.7c0.3-2.9-0.9-6.5-3.4-10c-0.8-1.1-1.7-2.2-2.7-3.4
	c-0.3-0.1-0.6-0.1-0.9-0.2c-4.2-0.6-8.8,0.4-13.2,1.4c-1.6,0.4-3.2,0.7-4.7,0.9c-1.7,0.3-3.4,0.6-5.1,0.9c-5,0.9-9.7,1.7-14.6,2.2
	c-12.1,1.2-20.9,0.2-28.7-3.1c-0.8-0.4-1.7-0.7-2.7-1.1c-1.4-0.6-2.9-1.1-4.4-1.8C426.2,273.7,428,276.1,429.1,278.7L429.1,278.7z
	 M367.6,278.7c-1.2,0-2.3,0.1-3.4,0.2c-3.5,0.4-6.5,2.7-7.2,5.6c-0.6,2.4,0.4,4.7,2.8,6.4c3.7,2.7,9.9,2.7,15.4,2.8
	c1.5,0,2.9,0,4.2,0.1c2.1,0.1,4.3,0.1,6.6,0.2c5.8,0.1,11.8,0.2,17.1,1.5c-1.1-1.7-3.4-3.2-5.6-4.6c-1.6-1.1-3.2-2.1-4.3-3.2
	c-2.6-2.6-4-5.7-5.3-8.7c-0.9,0.2-1.9,0.3-2.8,0.4c-3.5,0.4-7.1,0.1-10.6-0.2C372.1,278.9,369.8,278.7,367.6,278.7L367.6,278.7z
	 M506.5,285.1h3.3c-0.1-0.4-0.2-0.8-0.3-1.2c-1.2-3.6-4-7.6-7.4-9.9c0.2,0.3,0.4,0.6,0.6,0.9C505.2,278.4,506.5,282,506.5,285.1
	L506.5,285.1z M356,215.7c-0.6,3.2,2,9.1,4.2,12.6c4.1,6.8,8.3,13.1,13.4,20c1.5,2.1,3,4.4,4.5,6.6c5.8,8.9,11.3,17.4,22.4,18.5
	c2.1,0.2,4.1,0.2,6.2,0.2c4,0,8.1,0,12.3,1.6c0.6,0.2,1.1,0.4,1.6,0.6c2.4,0.9,4.4,1.7,6.6,2.3c-1.2-2.2-2.9-4.2-4.5-6.1
	c-1.1-1.2-2.2-2.5-3.3-3.6c-0.2-0.2-0.4-0.4-0.6-0.6c-0.3-0.3-0.7-0.7-1-1.1c-0.3-0.3-0.5-0.6-0.8-0.8c-1.2-1.3-2.4-2.5-3.5-3.7
	c-0.3-0.3-0.3-0.7-0.1-1c0.1-0.2,0.3-0.3,0.6-0.4c-0.5-0.8-1.1-1.5-1.7-2.2c-0.2-0.1-0.3-0.3-0.4-0.5c-0.1-0.2-0.1-0.3,0-0.5
	c0-1.1,0.4-2.2,0.9-3.3c-5.6-2.9-12-8.7-15.1-11.6c-5.4-5.2-9.8-11.4-13.9-17.4c-0.9-0.3-1.9-0.7-2.8-1c-6.3-2.4-12.8-4.8-19.4-6.9
	C359.6,216.7,357.8,216.2,356,215.7L356,215.7z M420.3,267.1c2.5,2.2,5.8,3.5,9,4.7c0.9,0.4,1.8,0.7,2.7,1.1
	c7.5,3.2,16.1,4.1,27.9,3c4.9-0.5,9.6-1.3,14.5-2.1c1.7-0.3,3.4-0.6,5.1-0.9c1.5-0.2,3-0.6,4.6-0.9c1.4-0.3,2.9-0.6,4.3-0.9
	c-20.2,1.4-40.6,2.8-40.6,2.8c-0.1,0-0.2,0-0.3,0l-30-10.2c0.4,0.7,0.9,1.3,1.3,1.9C419.3,266.1,419.8,266.6,420.3,267.1
	L420.3,267.1z M416.2,261.5l31.8,10.8c2.2-0.2,26.7-1.8,48-3.3c-0.7-0.9-1.3-1.9-1.8-2.9c-0.1-0.2-0.1-0.6,0-0.8
	c0.1-0.2,0.4-0.4,0.7-0.4l29.2-2c6.8-11.1,19.5-32.5,20.3-36.9c0.2-1,0.1-1.7-0.3-2.1c-0.7-0.9-2.8-1-5-1c-0.5,0-1,0-1.5-0.1
	c-2.4-0.1-36.6,1.4-57.4,2.3c-0.6,0-14.8,1.2-17.6,1.4c-0.2,0.4-0.4,0.9-0.6,1.4c-2.6,6.7-13.6,34-16.7,41c0,0.1-0.1,0.2-0.1,0.2
	c-0.1,0.1-0.3,0.3-0.4,0.3c-0.2,0.1-0.5,0-0.7-0.1c-2-0.7-12.7-4.5-14.5-5.2c-9.2-3.3-12.8-4.6-14.2-5.3c-0.1,0-0.2,0-0.2,0h-0.1
	c-0.3,0-0.5-0.1-0.7-0.2C415,259.5,415.6,260.5,416.2,261.5L416.2,261.5z M496.2,266.4c0.5,0.8,1.1,1.6,1.7,2.4
	c12.4-0.9,23.5-1.6,27.8-1.9c0.4-0.8,1.4-2.4,3.4-5.8c3.7-6.2,9.2-15.5,13.9-23.9c7.7-13.9,8.1-16.3,8-16.8
	c-0.8-2.1-5.3-2.1-7.5-2.1c-0.2,0-0.4,0-0.6,0h-0.1c-3.9,0-40.5,1.1-60.9,1.9c-0.2,1.1-0.4,2.1-0.6,3c20.9-0.9,53.9-2.4,56.4-2.3
	c0.5,0,1,0,1.5,0.1c2.7,0.1,5,0.2,6.2,1.6c0.7,0.8,0.9,2,0.6,3.5c-1.1,5.9-19.9,36.6-20.7,37.9c-0.1,0.2-0.4,0.4-0.7,0.4
	L496.2,266.4L496.2,266.4z M419.3,258.6c6.9,2.6,21.3,7.7,24.8,8.9c3.4-7.8,13.9-33.7,16.4-40.3c0.1-0.1,0.1-0.3,0.2-0.4
	c-1.3,0.3-2.6,0.5-3.9,0.7c-0.4,0.9-0.7,1.8-1.1,2.5c-6.2,13.1-24.1,14.8-34,15.7c0.4,0,0.8,0.1,1.3,0.1c3.6,0.3,7,0.7,10.3,0.2
	c2.5-0.3,5.2-1.3,7.8-2.3c3.7-1.4,7.5-2.8,11.3-2.5c0.3,0,0.5,0.2,0.6,0.4s0.2,0.5,0.1,0.7l-4.9,14.5c-0.1,0.2-0.2,0.4-0.4,0.5
	c-0.1,0.1-0.3,0.1-0.4,0.1C446.6,257.5,427.9,258.1,419.3,258.6L419.3,258.6z M413.4,257.5c0.3,0.3,0.6,0.6,0.8,1l0,0
	c-0.2-0.3-0.1-0.7,0.2-1l0.1-0.1l0.1-0.1c0.2-0.2,0.6-0.3,0.9-0.2c0.1,0,0.1,0.1,0.2,0.1c1.7-0.2,5.6-0.3,15.4-0.7
	c10.4-0.4,14.2-0.6,15.6-0.6l4.4-12.9c-3.1,0-6.3,1.3-9.5,2.4c-2.7,1-5.4,2-8.1,2.4c-3.5,0.5-7.2,0.1-10.7-0.2
	c-0.9-0.1-1.9-0.2-2.8-0.2c-1,0.9-1.9,1.9-2.8,2.9c0.9,1.5,1.6,3.1,1.8,4.9c0,0.2-0.1,0.5-0.2,0.6c-0.2,0.2-0.4,0.3-0.6,0.3
	c-1.2,0-2.6-0.4-4.1-1.1C413.7,255.8,413.4,256.7,413.4,257.5L413.4,257.5z M414.8,257.2c-0.1,0-0.2,0.1-0.3,0.1
	C414.5,257.3,414.6,257.3,414.8,257.2L414.8,257.2z M414.8,253.4c0.9,0.4,1.7,0.6,2.4,0.8c-0.2-0.9-0.6-1.8-1.1-2.7
	C415.6,252.2,415.2,252.8,414.8,253.4L414.8,253.4z M387.6,228.2c3.3,4.7,6.8,9.3,11,13.2c4.6,4.4,10.2,9,14.7,11.3
	c0.5-0.9,1.2-1.8,1.9-2.7c-0.1-0.2-0.3-0.4-0.4-0.6c-0.6-0.9-1.2-1.8-1.7-2.7c-0.1-0.2-0.1-0.6,0-0.8s0.2-0.3,0.4-0.3
	c-3.7-0.5-7.5-1.7-11.7-3.5c-3.1-1.3-4.7-2.7-6.8-5c-1.7-1.9-4.6-6.7-5.4-8C388.9,228.9,388.3,228.5,387.6,228.2L387.6,228.2z
	 M415.3,247.1c0.3,0.5,0.6,1,0.9,1.4c0,0.1,0.1,0.1,0.1,0.2c0.5-0.5,1-1.1,1.5-1.6C416.9,247.1,416.1,247.1,415.3,247.1L415.3,247.1
	z M394.9,234.3c0.5,0.7,0.9,1.3,1.3,1.7c2,2.2,3.4,3.4,6.2,4.6c6.8,2.9,12.5,4,18.4,3.6c1.2-1.1,2.3-2,3.3-2.9
	c0.3-0.3,0.6-0.6,0.9-0.8c3.9-3.4,9.6-8.6,14.3-14.3c-4.5-1.2-9.1-3.1-13.7-5.7c-14.5-8.1-22.1-20.6-29.9-34.9
	c-0.3-0.5-0.6-1.1-0.9-1.7c-0.7-1.5-1.5-3.1-2.5-4.3c-0.6,0.4-1.1,0.9-1.7,1.3c0.1,6.7,0.8,23,0.9,26c1.6,0.8,4.4,1.5,6.6,2.1
	c1.2,0.3,2.3,0.6,3.1,0.8l0.2,0.1c2.7,0.9,6.1,1.9,8.6,3.9c1.4,1.1,2.3,2.6,3.2,4.1c0.6,1,1.1,1.9,1.7,2.6l0.1,0.1
	c3.2,3.8,7.3,9.3,6.1,12.7c-0.4,1.3-1.5,2.2-3.3,2.6c-0.2,0.1-0.4,0-0.6-0.1c-1.9-1.2-2.3-0.7-3.1,0.2c-0.5,0.6-1.2,1.4-2.4,1.6
	c-1.2,0.2-2.2-0.5-2.9-1.1c-0.3-0.3-0.7-0.6-0.9-0.6c-0.8-0.1-1.1,0-1.7,0.3c-0.5,0.2-1.1,0.4-1.9,0.5
	C401.5,236.9,397.7,236.1,394.9,234.3L394.9,234.3z M441.2,226.6c-0.1,0.2-0.3,0.3-0.4,0.5c-4.8,5.9-10.6,11.1-14.6,14.6
	c-0.3,0.2-0.6,0.5-0.9,0.8c-0.5,0.4-1,0.9-1.6,1.4c9.8-0.9,25.1-3.2,30.5-14.6c0.2-0.5,0.5-1,0.7-1.6
	C450.4,228.1,445.8,227.7,441.2,226.6L441.2,226.6z M407.5,234.2c0.2,0,0.4,0,0.7,0c0.7,0.1,1.2,0.5,1.7,0.9
	c0.7,0.5,1.1,0.8,1.6,0.7c0.6-0.1,1-0.6,1.5-1.1c1.1-1.2,2.3-2.2,4.9-0.7c0.9-0.3,1.5-0.7,1.7-1.4c0.5-1.4-0.2-4.4-5.8-11.1
	l-0.1-0.1c-0.7-0.9-1.3-1.9-1.9-2.8c-0.8-1.4-1.6-2.8-2.8-3.6c-2.2-1.8-5.5-2.8-8.1-3.6l-0.2-0.1c-0.8-0.2-1.9-0.5-3-0.8
	c-2.7-0.7-5.8-1.4-7.5-2.5c-0.2-0.1-0.4-0.4-0.4-0.7c0-0.2-0.7-17.4-0.9-25.4c-5.1,3.4-10.9,6.5-11.3,6.7c-0.2,0.1-0.5,0.1-0.7,0
	s-0.4-0.3-0.5-0.5c-0.3-0.9-0.9-2-1.6-3.1c-0.9,0.7-1.9,1.3-2.8,2c-2,1.5-4.2,3-6.4,4.4c-1.8,1.1-2.7,2.1-2.6,2.9
	c0.2,1.7,4.4,3.4,7.5,4.6c0.9,0.4,1.8,0.7,2.5,1c2.9,1.3,5.8,3.1,8.6,4.9c2.8,1.8,5.7,3.6,8.5,4.8c0.6,0.3,2.5,0.7,4.6,1.1
	c8.7,1.8,12.4,2.9,12.3,4.9c-0.1,2.2-3.1,3.8-6.5,5.6c-3.1,1.6-6.7,3.5-7.4,5.7c-0.5,1.6-0.3,3.1,0.7,4.4c2,2.5,6.8,3.9,10,3.6
	c0.6-0.1,1-0.2,1.5-0.4C406.1,234.4,406.6,234.2,407.5,234.2L407.5,234.2z M359.1,211.8c0.2,0,0.4,0,0.7,0
	c6.3,0.4,13.8,3.9,18.3,6.7c1.9,1.2,3.6,2.7,5.3,4.2c2.4,2.1,4.6,4.1,7.1,5c0.2,0.1,0.4,0.2,0.5,0.4c0.1,0.1,0.2,0.4,0.5,0.8
	c0-0.8,0.1-1.6,0.3-2.4c0.9-2.8,4.6-4.8,8.2-6.6c2.6-1.3,5.5-2.8,5.6-4.1c-0.7-1.1-7.9-2.6-11-3.3c-2.3-0.5-4.1-0.9-4.9-1.2
	c-3-1.3-5.9-3.1-8.7-4.9c-2.7-1.7-5.6-3.5-8.4-4.8c-0.7-0.3-1.6-0.7-2.5-1c-3.9-1.5-8.3-3.3-8.5-6c-0.1-1.5,1-3,3.4-4.5
	c2.1-1.3,4.2-2.8,6.2-4.3c0.9-0.7,1.9-1.4,2.8-2c-3.2-4.2-8.6-9.2-12.9-12.3c-2.2,1.8-4.2,3.5-5.8,4.8c-1.1,0.9-2,1.7-2.7,2.3
	c-1.4,1.1-2.8,2.3-4.1,3.3c-3.6,2.9-7,5.6-10.2,8.8c-3.6,3.6-5.3,6.8-5.1,9.5c0.2,1.9,1.4,3.7,3.6,5.2c3.1,2.1,7.6,5,12,6.5
	c2,0.7,4.1,1.3,6.2,1.9C355.8,212.4,357.2,211.8,359.1,211.8L359.1,211.8z M442.3,225.2c4.5,1,8.9,1.2,13.3,0.8
	c2.3-6.1,4.7-15,4.7-15.1s0.1-0.2,0.2-0.3l0,0c0.1-1,0.3-2,0.5-2.9c-0.4-1.7-0.1-3.9,1-6.5c0.2-0.4,0.3-0.8,0.6-1.2
	c0.7-2.9,1.2-4.8,1.2-4.8c0.2-0.8,1.4-4.4,2.8-8c2.6-6.2,4.1-7,5.2-7.1c1,0,1.7,0.8,2.2,2.3c1.3,4-2.8,9-6.3,13.4
	c-1.4,1.8-2.8,3.4-3.6,4.8c-0.5,2.1-1,4.5-1.4,6.9c0.1,0.4,0.3,0.7,0.6,1.1l0,0c5.2-2.4,13.6-1.6,17.6-0.4c0.1,0,0.2,0.1,0.2,0.1
	l0.1,0.1c0.1-11.8-1.5-25.6-3.9-32c-0.6-1.5-1-3.1-1.3-4.6c-1-4.1-1.9-7.6-5.8-9.7c-3.9-2.1-10.2-4.7-15.2-6.1
	c0,0.1-0.1,0.2-0.2,0.4c0.6,0.5,1.3,1,2.2,1.5c6.1,3.2,8.8,6,8.7,14.2c0,6.4-2.5,13.2-4.9,19.1c-1.7,4-4,7.9-6.2,11.7
	c-1.5,2.6-3.1,5.3-4.4,8c-0.4,0.7-0.7,1.4-1.1,2.1C447.1,217.1,445.1,221.3,442.3,225.2L442.3,225.2z M459.7,218.6
	c-0.7,2.3-1.5,4.8-2.3,7.1c1.1-0.2,2.2-0.4,3.3-0.7C460,223.5,459.7,221.3,459.7,218.6z M393.7,178.5c1.1,1.3,1.9,3.1,2.7,4.6
	c0.3,0.6,0.6,1.2,0.8,1.7c7.6,14.1,15.1,26.4,29.2,34.2c4.7,2.6,9.4,4.5,14,5.7c2.9-3.9,5.1-8.3,7.2-12.5c0.4-0.7,0.7-1.4,1.1-2.1
	c1.4-2.7,3-5.4,4.5-8.1c2.2-3.7,4.5-7.6,6.1-11.5c2.3-5.7,4.7-12.3,4.7-18.4c0-7.3-2.1-9.7-7.9-12.8c-0.8-0.4-1.5-0.9-2.1-1.4
	c-1.6,3.5-4.4,9.6-6.1,11.6c-4.7,5.4-10.6,10.6-18.2,8.7c-6.3-1.6-9.6-6.3-13-11.7c-1.7-2.7-5.7-11.9-4-17.1
	c-3.2,0.9-6.9,0.7-10.5,0.6c-1.8-0.1-3.5-0.2-5-0.1c-5.7,0.2-9.7,1.9-15,5c-3.3,1.9-12.4,9.3-19.9,15.5c4.4,3.2,9.7,8.1,12.9,12.4
	c1.7-1.2,3.5-2.3,5.5-3.2c0.3-0.1,0.6-0.3,0.9-0.5c2.2-1.1,5.3-2.7,8-2.7c0.4-1.2,1.1-2.2,2-3.2c1.3-1.4,2.5-1.9,3.5-1.7
	c0.7,0.2,1.1,0.7,1.3,1.4c0.4,1.3-0.2,3.1-1.5,4.4C394.6,177.7,394.2,178.1,393.7,178.5L393.7,178.5z M480.2,220.3
	c-1.7,0.1-3.3,0.2-4.7,0.2c-0.5,0-1,0-1.5,0.1c-5.7,0.3-8.3,0.4-10.4,3.6c0.1,0,0.3-0.1,0.4-0.1s0.1,0,0.2,0c0.8,0,6.9-0.3,15.2-0.7
	C479.8,222.5,480.1,221.4,480.2,220.3L480.2,220.3z M462,211.3c-0.7,5.2-0.9,10.1,0,12.6c2.6-4.5,5.8-4.7,12-4.9
	c0.5,0,0.9,0,1.4-0.1c1.5-0.1,3.2-0.2,5-0.2c0.3-2.5,0.5-5.4,0.6-8.5c-0.1,0.2-0.3,0.2-0.5,0.3h-0.1c-0.7,0.1-1.5,0.2-2.3,0.4
	c-5.1,0.9-11.8,2.1-15.3-0.2C462.6,210.8,462.2,211,462,211.3L462,211.3z M356.7,214.2c1.7,0.5,3.5,1,5.2,1.5
	c6.3,2,12.4,4.3,18.4,6.5c-1-0.8-2-1.6-3-2.3c-4.7-2.9-11.9-6.1-17.5-6.4C358.3,213.4,357.3,213.6,356.7,214.2L356.7,214.2z
	 M464.8,209.7c3.2,1.2,8.9,0.2,13-0.5C473.9,208.5,468.5,208.3,464.8,209.7z M471.7,181.7c0,0-1.1,0-3.6,6c-1.4,3.4-2.6,7.1-2.8,7.8
	c-0.1,0.2-0.1,0.5-0.2,0.7c0.4-0.5,0.8-1,1.2-1.5c3.3-4.1,7-8.7,6-11.8C472,181.8,471.7,181.7,471.7,181.7L471.7,181.7z
	 M376.3,184.2c0.6,0.9,1.2,1.8,1.5,2.6c2-1.1,7-3.9,11.2-6.8c0-0.7,0.1-1.3,0.2-1.9c-2.1,0.2-4.8,1.5-6.7,2.5
	c-0.3,0.2-0.7,0.3-1,0.5C379.7,182,378,183,376.3,184.2L376.3,184.2z M390.9,178.3c0,0.2-0.1,0.3-0.1,0.5c0.1-0.1,0.3-0.2,0.4-0.3
	C391.1,178.4,391,178.3,390.9,178.3z M391.3,176.7c0.4,0.2,0.8,0.4,1.2,0.7c0.5-0.4,0.9-0.8,1.3-1.2c0.9-0.9,1.2-2.1,1.1-2.8
	c0-0.1-0.1-0.2-0.1-0.2c-0.2-0.1-0.8,0.1-1.9,1.2C392.2,175.1,391.7,175.8,391.3,176.7L391.3,176.7z M415.4,148.3
	c-3.7,2.9,0.7,14,2.7,17.3c3.2,5.2,6.3,9.6,12,11c6.7,1.7,12.1-3.2,16.5-8.1c1.7-1.9,4.6-8.4,6.1-11.7c-0.4-0.6-0.8-1.2-0.9-1.9
	c-0.8-3,1.3-6.2,3.3-9.2c0.2-0.3,0.4-0.6,0.6-0.9c2.4-3.7,3.2-7.2,4.1-10.8c0.4-1.6,0.8-3.3,1.4-5.1c0.1-0.4,0.6-0.7,1-0.6
	c1.6,0.5,4.5-0.4,5.5-2.1c1.3-2.1,0.6-3-0.8-4.6c-0.3-0.4-0.6-0.7-0.9-1.2c-1.9-2.6-3.3-5.3-4.7-8c-1-1.9-2-3.8-3.1-5.6
	c-3-4.8-9.3-8-15.1-7.7c-4.4,0.2-7.8,2.4-9.7,6.2c-0.2,0.4-0.6,0.6-1,0.4c-2.4-0.7-4.1-0.4-5.4,0.9c-3.7,3.9-2.5,15.3-1.1,19.4
	c0,0,0,0,0,0.1c0.2,0.4-0.1,0.9-0.5,1.1s-0.9-0.1-1.1-0.5l0,0l0,0l0,0c0,0,0,0,0-0.1c-0.6-1.7-1.6-2.6-2.7-2.5s-2.4,1.5-2.6,3.8
	c-0.1,1.4-0.2,5.4,2.6,7.5c1.1-2.8,2.3-5.2,2.9-6.3c0-0.1,0.1-0.3,0.1-0.4c0.2-0.4,0.6-1,1.3-0.6c0.4,0.2,0.5,0.5,0.4,0.9
	c0.3,0.3,0.8,0.7,1.2,1c0.8-1.2,2.2-2.8,3.9-3c0.6-0.1,1.3,0,2.1,0.5c0.8-1.4,1.2-2.9,1.5-4.5c0.6-2.5,1.2-5.2,3.7-7.5
	c0.1-0.1,0.2-0.2,0.3-0.3c0.3-0.2,0.6-0.2,0.8,0c0.2,0.1,0.4,0.3,0.5,0.6c0,0.1,0,0.1,0,0.2c1.2,3.7,7.6,11,13.3,13.1
	c2.4,0.9,4.3,0.7,5.9-0.3c0.3-0.2,0.7-0.2,1,0s0.4,0.6,0.3,0.9c-0.1,0.3-11.9,31.1-17.4,34c-4.5,2.4-8.8,2.2-12.4-0.4
	c-6.9-5.2-9.4-18-8.3-25.3c-0.1,0-0.2-0.1-0.3-0.1c-0.2,0.6-0.4,1.1-0.6,1.7C420.3,144.3,418,147,415.4,148.3L415.4,148.3z
	 M358.4,167.9c0.8,0.4,1.7,0.9,2.6,1.5c7.6-6.3,17.1-14,20.5-16c5.4-3.1,9.7-5,15.8-5.2c1.6-0.1,3.3,0,5.1,0.1c0.4,0,0.9,0,1.3,0.1
	c-0.5-0.1-0.9-0.3-1.4-0.4c-2.6-0.7-5.1-1.4-7.2-1.4C381.7,147.1,363.3,162.8,358.4,167.9L358.4,167.9z M424.6,137.4
	c-1.2,6.6,1.1,19.4,7.6,24.2c3.1,2.3,6.6,2.4,10.6,0.3c3.9-2.1,13.1-24.2,15.8-31.1c-1.6,0.4-3.4,0.3-5.4-0.4c-6-2.2-12-8.9-14-13.2
	c-1.5,1.8-2,3.8-2.5,5.9c-0.5,2-0.9,4-2.3,5.9c-0.1,0.2-0.4,0.3-0.6,0.3s-0.5-0.1-0.7-0.3c-0.5-0.5-1-0.7-1.5-0.7
	c-1,0.1-2.2,1.3-3.2,3c-0.1,0.2-0.3,0.3-0.5,0.4c-0.2,0.1-0.4,0-0.6-0.1s-1-0.8-1.7-1.3c-0.6,1.3-1.6,3.3-2.5,5.6
	c0.2,0.1,0.4,0.1,0.6,0.2c0.1,0,0.2,0,0.2,0c0.2,0,0.4,0.2,0.6,0.3c0.1,0.1,0.1,0.2,0.1,0.4c0,0.1,0,0.2,0,0.3
	C424.7,137.3,424.7,137.3,424.6,137.4L424.6,137.4z M424.5,136.5c0.1,0.1,0.1,0.1,0.1,0.2C424.6,136.6,424.5,136.5,424.5,136.5z"/>
</svg>
