<?xml version="1.0" encoding="utf-8"?>
<!-- Generator: Adobe Illustrator 27.8.1, SVG Export Plug-In . SVG Version: 6.00 Build 0)  -->
<svg version="1.1" baseProfile="tiny" id="Layer_1" xmlns="http://www.w3.org/2000/svg" xmlns:xlink="http://www.w3.org/1999/xlink"
	 x="0px" y="0px" viewBox="0 0 400 400" overflow="visible" xml:space="preserve">
<rect fill="#FFFFFF" width="400" height="400"/>
<path fill="none" stroke="#58595B" stroke-linecap="round" stroke-linejoin="round" d="M298.5,200.1c-0.5,5.9-3.8,16.9-6.5,21.2
	c-4.2,6.7-11.1,9.1-14.6,11.8c-5.4,4.1-9.7,4.6-15.8,6.5c-8.2,2.5-4.4,9.1-5.4,15.5c-0.5,3.1-1.7,5.8-1.4,9.1c0.4,3.5,0.6,5.8,0,9.4
	c-4-1.9-10.6-9.1-15.8-5.2c-2.4,1.8-2.1,5.1-4.6,7.2c-2.5,2.1-5.3,2.8-7.8,4.4c-2.1,1.4-4,4.5-3.6,7c0.7,4.1,3.9,3.4,7.5,3.6
	c6.2,0.3,13.5,0.3,18.2-3.8c3.8-3.2,7.5-11.1,2.3-15c-4.6-3.4-12.7,0.7-17.5-2.4c-5-3.2-3.1-12.3-1.9-17.1
	c1.5-5.9,3.2-10.8,3.6-16.9c0.3-6.7,0-12.9,0-19.7c0-6.5-2.2-12.8,0.4-18.6c3.2-7.2,9.1-6.8,16.1-6c5.4,0.6,13.4,1.8,17.5,5.5
	c6.6,6.1,3.5,17.9-3.1,23.1c-10.8,8.6-5.7-13.2-12.3-16.7c-2.3,2.5,4.4,9.2,2.8,13c-2.4-2-3.1-5.5-5.7-7.7c-3.1-2.7-4.5-1.9-3.1,2
	c2,5.8,6.6,10.1,7.6,16.1c0.5,3-0.3,6.8,2.8,8.3c2.6,1.3,6.9-0.8,9.5-1.9c5.4-2.2,11.4-4.8,15.7-8.9c6.4-6.1,12.4-11.8,14.6-20.4
	c1.9-7.5,2.4-21.1-5-26.1c-3.8,3.2-0.6,13.5-3.9,17.9c-3.4,4.7-12.2,2.6-16.7,1.5c-5.4-1.4-11.5-2.1-16.6-4.3
	c-6.1-2.7-4.1-10.2-4.7-16.2c-0.3-2.9-1-5.7-1.2-8.7c-0.3-4.6,0.1-5.2-4.3-6.3c-6.3-1.6-12.9-2.9-19.3-3.9
	c-3.8-0.6-15.8-4.5-18.6-0.4c-1.2,1.7,0.2,6.9,0.4,9.1c0.3,3.3,0.2,6.5,0.4,9.9c0.2,3.5,0.2,6.1,3.2,7.8c2.4,1.4,6.6,1.5,9.5,2.1
	c6.5,1.2,12.8,3,19.3,3.9c1.5,0.2,8.7,1.5,8.7-0.8c0-1.6-7.1-1.7-8.7-2c-6.4-1-12.9-2-19.3-3.1c-5.8-0.9-12.3-2.9-18.1-2.4
	c-6.4,0.6-9.7,5.2-12.3,10.9c-2.5,5.4-3.4,11.3-6.3,16.6c-2.9,5.2-4.9,9.8-6.7,15.5c-1.8,5.9-3.6,11.2-5.7,16.7
	c-2.9,7.5,0.6,8.8,7.9,10.5c14.8,3.4,16.6-14.2,19.2-24.4c1.4-5.7,5-9.7,7.1-15.1c1.3-3.5-2.9-14.5-0.4-15.6
	c2.6,2.8,0.8,7.3,3.3,10.1c3.5-2.3-1.2-8.8,3-10.1c2.2,6.2-2,11.3-3.9,16.5c-1.9,5.2-0.4,13,1.7,18.1c2,4.7,7.8,7.6,12.1,9.2
	c4,1.4,11.9,3.3,15.3-0.5c3.1-3.5,1.4-13.8,2-18.5c0.9-6.2,4.4-12.2,3.2-18.5c-0.5-2.5-1.3-5.9-4.6-6.4c-3.3-0.5-3.6,2.3-5.5,4.5
	c-6.3,7.1-10.7-1.2-13.4-6.7c-2.7-5.4-6-7.2-9.9-11.5c-1.2-1.3-2.5-5.7-3.9-6.3c-2.8-1.3-5.8,1.6-5.6,4.5c0.5,6.9,12.7,7.4,17.4,7.9
	c6.2,0.6,12.9,1.6,18.9,3.2c15.6,4.1,60,30.9,60-2.5c0-7.2-4.1-10.9-10.7-12.9c-4-1.2-5.8-0.2-6.7-4.8c-0.6-2.9-1-7.8,0.1-10.6
	c4.8,0.1,1.3,14,1,16.9c-0.9,8.5-4.5,6.6-12.2,6.7c-6.3,0.1-13.3,3.3-14.2-5.1c-0.6-4.9,2.2-14.9-1.7-18.5
	c-3.6-3.3-13.8-2.5-18.5-3.2c-2.1-0.3-7.4-0.7-7.9-3.2c-0.4-1.8,3-5.4,4.1-6.6c4.3-4.8,10.4-6.2,16.5-6.8c2.7-0.3,7.3,0.2,8-1.7
	c0.5-1.5-1.5-7-1.7-9c-0.7-7.1-2.1-13.9,6.7-13.4c3.5,0.2,6.6-1.5,8.7,1.6c0.4,0.6-0.3,2.1,0,2.8c0.4,0.9,1.5,0.4,1.7,1
	c0.7,1.6,0.5,2.9,1.8,4c0.4-3.1,3.2-4.4,4.4-1.5c1.4,3.4-2.1,4.6-3.5,6.4c-2.9,3.7-3.6,10.6-10.7,11c-9.9,0.5-12.5-29.1-6-31.7
	c5.6-2.2,11.3-1.2,15.1,1.3c2.6,1.7,4.7,4.3,4.7,7.5c0.1,4.3-2.1,3.1-4.2,6c-2.4,3.3-0.9,13.9,1.8,17c3.5,4,11.2,2.7,15.8,6.3
	c5.9,4.7,6,10.8,6,17.6c0,2.1,0.8,7.7-0.8,9.1c-1.7,1.4-5.9-1.3-8.3-1.6c-3.4-0.5-6.2,0.7-8.4-2.3c-1.4-1.9-1.3-6.7-1.5-9.2
	c-0.3-5.7,1.2-13.3-2.1-18.1c-0.6-0.9-1-1.8-1.9-2.5c-1.9,2.4-1,5.6-5.1,6.3c-2.4,0.4-6.3-1.3-8.4-2.6c-2.7-1.7-3.2-3.1-6.6-3.3
	c-2.6-0.2-6.3,0.7-8.6,1.7c-1.9,0.8-4.4,2.5-5.7,4.2c-1.8,2.3-1,6.1-2.4,7.8c-2.8,3.5-4.7-0.8-6.6-1.9c-2.5-1.4-3.5,0.6-7.1,0.8
	c-4.7,0.3-13.9-4.1-16.3,1.9c-1,2.7,0.9,6.5,1.2,9.3c0.3,3.3,0.1,5.8,0.1,9c0,2.7,1.3,6.5,0.1,9.2c-1.3,2.9-4.2,2.9-6.4,4.5
	c-5.4,3.9-3.6,11-2,16.3c1.8,5.9,2,11,0.4,17c-1.5,5.7-6.5,9.9-7.1,15.8c-0.3,3.4,0.6,6.1-1.2,9.1c-1.7,2.9-4.7,3.2-5.5,6.3
	c-0.7,2.9,0.7,5.8-0.9,9c-1.2,2.6-2.9,3.1-5,4.9c-4.3,3.9-3,10.1-8.7,13.4c-5.2,3-11.5,2.9-12.4-4.9c-0.7-6.2,4.1-8.8,6.7-13.7
	c2.8-5.3,2.5-12.7,9.8-10.6c6.7,1.9,8.1,9.2,3.3,13.9c-1.9,1.9-4.1,3.3-5.5,5.5c-1.5,2.4-1.7,5.4-4.2,7.3c-4.5,3.4-9.1,1.1-9.9-1.7
	c-0.7-2.2,0-4.1,0-4.1"/>
</svg>
