<?xml version="1.0" encoding="UTF-8"?><svg id="Layer_1" xmlns="http://www.w3.org/2000/svg" viewBox="0 0 400 400"><defs><style>.cls-1{fill:none;stroke:#58595b;stroke-linecap:round;stroke-linejoin:round;}.cls-2{fill:#fff;stroke-width:0px;}</style></defs><rect class="cls-2" width="400" height="400"/><path class="cls-1" d="m331.54,210.22c-.56,7.27-4.72,20.82-8.05,26.11-5.23,8.29-13.63,11.22-18,14.5-6.71,5.03-11.9,5.69-19.48,8.03-10.09,3.12-5.44,11.19-6.69,19.11-.6,3.8-2.1,7.13-1.69,11.18.44,4.32.73,7.16.01,11.63-4.94-2.36-13.07-11.19-19.5-6.41-2.96,2.21-2.59,6.28-5.68,8.89-3.05,2.58-6.54,3.42-9.66,5.46-2.6,1.7-4.98,5.57-4.49,8.65.81,5.07,4.79,4.15,9.26,4.38,7.61.39,16.59.34,22.49-4.73,4.65-3.99,9.24-13.71,2.81-18.51-5.68-4.24-15.6.9-21.53-2.91-6.22-4-3.86-15.12-2.31-21.07,1.87-7.22,4-13.29,4.38-20.9.41-8.32,0-15.93,0-24.33,0-7.96-2.7-15.74.47-22.88,3.94-8.88,11.22-8.41,19.84-7.39,6.62.78,16.53,2.17,21.55,6.81,8.18,7.56,4.27,22.03-3.81,28.46-13.28,10.57-7.07-16.23-15.21-20.63-2.83,3.14,5.42,11.29,3.44,15.97-2.97-2.49-3.82-6.81-6.97-9.46-3.87-3.28-5.54-2.39-3.88,2.43,2.44,7.11,8.16,12.46,9.35,19.83.59,3.65-.35,8.42,3.43,10.23,3.24,1.55,8.48-1.02,11.68-2.32,6.63-2.7,14.05-5.96,19.33-10.95,7.92-7.48,15.35-14.52,18.03-25.19,2.32-9.24,2.91-25.96-6.22-32.16-4.66,3.95-.72,16.59-4.75,22.09-4.23,5.77-15.07,3.25-20.56,1.8-6.63-1.75-14.21-2.58-20.46-5.32-7.53-3.31-5.09-12.62-5.83-19.96-.36-3.6-1.2-7.09-1.46-10.71-.41-5.64.17-6.41-5.35-7.79-7.73-1.93-15.89-3.57-23.84-4.86-4.7-.77-19.53-5.51-22.89-.51-1.42,2.11.3,8.49.51,11.21.31,4.09.29,8.02.49,12.16.21,4.3.28,7.5,3.89,9.62,3,1.77,8.2,1.91,11.68,2.57,8.04,1.52,15.81,3.66,23.84,4.87,1.87.28,10.73,1.82,10.73-1,0-1.97-8.81-2.15-10.73-2.44-7.87-1.2-15.91-2.47-23.84-3.77-7.1-1.16-15.17-3.62-22.38-2.92-7.92.77-11.91,6.39-15.19,13.4-3.11,6.63-4.17,13.92-7.8,20.44-3.59,6.45-6.07,12.09-8.27,19.1-2.27,7.23-4.47,13.75-7.07,20.54-3.54,9.27.79,10.86,9.73,12.92,18.2,4.19,20.53-17.47,23.64-30.06,1.75-7.08,6.22-11.94,8.73-18.61,1.61-4.27-3.61-17.84-.46-19.27,3.22,3.49,1,8.96,4.11,12.5,4.37-2.87-1.54-10.82,3.69-12.51,2.74,7.69-2.41,13.9-4.8,20.36-2.38,6.42-.55,16.05,2.08,22.3,2.43,5.76,9.63,9.42,14.96,11.29,4.93,1.73,14.63,4.1,18.88-.58,3.87-4.26,1.67-17.06,2.52-22.77,1.14-7.64,5.41-15.04,3.89-22.87-.61-3.13-1.65-7.26-5.72-7.91-4.08-.65-4.41,2.81-6.8,5.49-7.78,8.7-13.15-1.5-16.56-8.3-3.32-6.63-7.46-8.86-12.15-14.22-1.42-1.62-3.06-6.97-4.84-7.81-3.49-1.63-7.21,1.95-6.95,5.5.6,8.47,15.61,9.18,21.41,9.73,7.67.74,15.87,2.02,23.36,4,19.19,5.09,73.96,38.08,73.96-3.03,0-8.82-5.06-13.5-13.14-15.95-4.95-1.5-7.13-.25-8.27-5.95-.72-3.58-1.28-9.67.08-13.05,5.96.15,1.65,17.31,1.27,20.84-1.14,10.48-5.58,8.13-15,8.25-7.75.1-16.34,4.12-17.5-6.3-.68-6.06,2.76-18.43-2.04-22.76-4.47-4.03-16.98-3.13-22.76-3.98-2.65-.39-9.07-.83-9.75-3.91-.49-2.19,3.65-6.63,5.01-8.16,5.26-5.92,12.87-7.67,20.32-8.39,3.31-.32,9,.28,9.84-2.05.66-1.83-1.81-8.65-2.05-11.08-.86-8.7-2.53-17.13,8.27-16.55,4.36.24,8.16-1.87,10.71,1.94.52.78-.41,2.58-.03,3.44.47,1.08,1.79.54,2.11,1.29.83,1.92.66,3.56,2.18,4.95.45-3.84,3.93-5.47,5.45-1.87,1.77,4.2-2.64,5.68-4.36,7.87-3.61,4.6-4.5,13.13-13.14,13.53-12.16.56-15.47-35.86-7.43-39.06,6.95-2.76,13.97-1.49,18.62,1.6,3.21,2.13,5.75,5.32,5.84,9.24.12,5.3-2.63,3.84-5.24,7.41-2.98,4.07-1.08,17.18,2.2,20.95,4.26,4.89,13.82,3.33,19.49,7.79,7.3,5.75,7.4,13.27,7.4,21.76,0,2.53,1,9.51-.97,11.19-2.08,1.77-7.27-1.56-10.22-1.96-4.17-.56-7.61.92-10.35-2.8-1.76-2.39-1.66-8.23-1.81-11.3-.35-7.07,1.43-16.37-2.54-22.27-.74-1.1-1.24-2.25-2.32-3.07-2.37,2.9-1.23,6.86-6.33,7.73-3.02.52-7.81-1.57-10.34-3.19-3.27-2.09-3.98-3.77-8.15-4.03-3.19-.2-7.8.88-10.6,2.07-2.38,1-5.39,3.13-7.04,5.23-2.18,2.78-1.22,7.49-2.9,9.63-3.42,4.37-5.79-.95-8.19-2.31-3.07-1.75-4.31.69-8.74.96-5.85.35-17.2-5.07-20.06,2.33-1.29,3.33,1.1,8.04,1.46,11.41.42,4.04.07,7.19.11,11.08.03,3.33,1.56,8.05.12,11.31-1.59,3.6-5.21,3.63-7.92,5.6-6.6,4.79-4.45,13.54-2.42,20.08,2.28,7.33,2.49,13.52.51,20.91-1.89,7.09-8.06,12.25-8.79,19.46-.42,4.15.7,7.58-1.46,11.18-2.12,3.54-5.85,3.92-6.81,7.79-.89,3.62.81,7.17-1.07,11.1-1.54,3.22-3.63,3.78-6.11,6.06-5.26,4.82-3.68,12.43-10.73,16.53-6.42,3.73-14.14,3.6-15.23-6.03-.86-7.63,5.06-10.87,8.32-16.95,3.49-6.53,3.03-15.65,12.14-13.1,8.32,2.33,9.94,11.4,4.03,17.11-2.37,2.29-5.04,4.04-6.79,6.84-1.83,2.92-2.08,6.71-5.13,8.99-5.61,4.18-11.19,1.32-12.22-2.14-.81-2.7,0-5.06,0-5.06"/></svg>