<?xml version="1.0" encoding="utf-8"?>
<!-- Generator: Adobe Illustrator 27.8.1, SVG Export Plug-In . SVG Version: 6.00 Build 0)  -->
<svg version="1.1" baseProfile="tiny" id="Layer_1" xmlns="http://www.w3.org/2000/svg" xmlns:xlink="http://www.w3.org/1999/xlink"
	 x="0px" y="0px" viewBox="0 0 400 400" overflow="visible" xml:space="preserve">
<rect fill="#FFFFFF" width="400" height="400"/>
<path fill="none" stroke="#58595B" stroke-linecap="round" stroke-linejoin="round" d="M277,200.1c-0.4,5-3.2,14.3-5.5,17.9
	c-3.6,5.7-9.4,7.7-12.4,10c-4.6,3.5-8.2,3.9-13.4,5.5c-6.9,2.1-3.7,7.7-4.6,13.1c-0.4,2.6-1.4,4.9-1.2,7.7c0.3,3,0.5,4.9,0,8
	c-3.4-1.6-9-7.7-13.4-4.4c-2,1.5-1.8,4.3-3.9,6.1c-2.1,1.8-4.5,2.4-6.6,3.8c-1.8,1.2-3.4,3.8-3.1,5.9c0.6,3.5,3.3,2.9,6.4,3
	c5.2,0.3,11.4,0.2,15.5-3.3c3.2-2.7,6.4-9.4,1.9-12.7c-3.9-2.9-10.7,0.6-14.8-2c-4.3-2.7-2.7-10.4-1.6-14.5c1.3-5,2.7-9.1,3-14.4
	c0.3-5.7,0-11,0-16.7c0-5.5-1.9-10.8,0.3-15.7c2.7-6.1,7.7-5.8,13.6-5.1c4.6,0.5,11.4,1.5,14.8,4.7c5.6,5.2,2.9,15.1-2.6,19.6
	c-9.1,7.3-4.9-11.2-10.5-14.2c-1.9,2.2,3.7,7.8,2.4,11c-2-1.7-2.6-4.7-4.8-6.5c-2.7-2.3-3.8-1.6-2.7,1.7c1.7,4.9,5.6,8.6,6.4,13.6
	c0.4,2.5-0.2,5.8,2.4,7c2.2,1.1,5.8-0.7,8-1.6c4.6-1.9,9.7-4.1,13.3-7.5c5.4-5.1,10.6-10,12.4-17.3c1.6-6.4,2-17.8-4.3-22.1
	c-3.2,2.7-0.5,11.4-3.3,15.2c-2.9,4-10.4,2.2-14.1,1.2c-4.6-1.2-9.8-1.8-14.1-3.7c-5.2-2.3-3.5-8.7-4-13.7c-0.2-2.5-0.8-4.9-1-7.4
	c-0.3-3.9,0.1-4.4-3.7-5.4c-5.3-1.3-10.9-2.5-16.4-3.3c-3.2-0.5-13.4-3.8-15.7-0.4c-1,1.5,0.2,5.8,0.4,7.7c0.2,2.8,0.2,5.5,0.3,8.4
	c0.1,3,0.2,5.2,2.7,6.6c2.1,1.2,5.6,1.3,8,1.8c5.5,1,10.9,2.5,16.4,3.3c1.3,0.2,7.4,1.3,7.4-0.7c0-1.4-6.1-1.5-7.4-1.7
	c-5.4-0.8-10.9-1.7-16.4-2.6c-4.9-0.8-10.4-2.5-15.4-2c-5.4,0.5-8.2,4.4-10.4,9.2c-2.1,4.6-2.9,9.6-5.4,14.1
	c-2.5,4.4-4.2,8.3-5.7,13.1c-1.6,5-3.1,9.5-4.9,14.1c-2.4,6.4,0.5,7.5,6.7,8.9c12.5,2.9,14.1-12,16.3-20.7c1.2-4.9,4.3-8.2,6-12.8
	c1.1-2.9-2.5-12.3-0.3-13.2c2.2,2.4,0.7,6.2,2.8,8.6c3-2-1.1-7.4,2.5-8.6c1.9,5.3-1.7,9.6-3.3,14c-1.6,4.4-0.4,11,1.4,15.3
	c1.7,4,6.6,6.5,10.3,7.8c3.4,1.2,10.1,2.8,13-0.4c2.7-2.9,1.1-11.7,1.7-15.7c0.8-5.3,3.7-10.3,2.7-15.7c-0.4-2.2-1.1-5-3.9-5.4
	c-2.8-0.4-3,1.9-4.7,3.8c-5.3,6-9-1-11.4-5.7c-2.3-4.6-5.1-6.1-8.4-9.8c-1-1.1-2.1-4.8-3.3-5.4c-2.4-1.1-5,1.3-4.8,3.8
	c0.4,5.8,10.7,6.3,14.7,6.7c5.3,0.5,10.9,1.4,16.1,2.7c13.2,3.5,50.8,26.2,50.8-2.1c0-6.1-3.5-9.3-9-11c-3.4-1-4.9-0.2-5.7-4.1
	c-0.5-2.5-0.9-6.6,0.1-9c4.1,0.1,1.1,11.9,0.9,14.3c-0.8,7.2-3.8,5.6-10.3,5.7c-5.3,0.1-11.2,2.8-12-4.3c-0.5-4.2,1.9-12.7-1.4-15.6
	c-3.1-2.8-11.7-2.2-15.6-2.7c-1.8-0.3-6.2-0.6-6.7-2.7c-0.3-1.5,2.5-4.6,3.4-5.6c3.6-4.1,8.8-5.3,14-5.8c2.3-0.2,6.2,0.2,6.8-1.4
	c0.5-1.3-1.2-5.9-1.4-7.6c-0.6-6-1.7-11.8,5.7-11.4c3,0.2,5.6-1.3,7.4,1.3c0.4,0.5-0.3,1.8,0,2.4c0.3,0.7,1.2,0.4,1.5,0.9
	c0.6,1.3,0.5,2.4,1.5,3.4c0.3-2.6,2.7-3.8,3.7-1.3c1.2,2.9-1.8,3.9-3,5.4c-2.5,3.2-3.1,9-9,9.3c-8.4,0.4-10.6-24.7-5.1-26.9
	c4.8-1.9,9.6-1,12.8,1.1c2.2,1.5,4,3.7,4,6.4c0.1,3.6-1.8,2.6-3.6,5.1c-2,2.8-0.7,11.8,1.5,14.4c2.9,3.4,9.5,2.3,13.4,5.4
	c5,4,5.1,9.1,5.1,15c0,1.7,0.7,6.5-0.7,7.7c-1.4,1.2-5-1.1-7-1.3c-2.9-0.4-5.2,0.6-7.1-1.9c-1.2-1.6-1.1-5.7-1.2-7.8
	c-0.2-4.9,1-11.3-1.7-15.3c-0.5-0.8-0.9-1.5-1.6-2.1c-1.6,2-0.8,4.7-4.4,5.3c-2.1,0.4-5.4-1.1-7.1-2.2c-2.2-1.4-2.7-2.6-5.6-2.8
	c-2.2-0.1-5.4,0.6-7.3,1.4c-1.6,0.7-3.7,2.2-4.8,3.6c-1.5,1.9-0.8,5.1-2,6.6c-2.4,3-4-0.7-5.6-1.6c-2.1-1.2-3,0.5-6,0.7
	c-4,0.2-11.8-3.5-13.8,1.6c-0.9,2.3,0.8,5.5,1,7.8c0.3,2.8,0,4.9,0.1,7.6c0,2.3,1.1,5.5,0.1,7.8c-1.1,2.5-3.6,2.5-5.4,3.8
	c-4.5,3.3-3.1,9.3-1.7,13.8c1.6,5,1.7,9.3,0.4,14.4c-1.3,4.9-5.5,8.4-6,13.4c-0.3,2.9,0.5,5.2-1,7.7c-1.5,2.4-4,2.7-4.7,5.4
	c-0.6,2.5,0.6,4.9-0.7,7.6c-1.1,2.2-2.5,2.6-4.2,4.2c-3.6,3.3-2.5,8.5-7.4,11.4c-4.4,2.6-9.7,2.5-10.5-4.1
	c-0.6-5.2,3.5-7.5,5.7-11.7c2.4-4.5,2.1-10.8,8.3-9c5.7,1.6,6.8,7.8,2.8,11.8c-1.6,1.6-3.5,2.8-4.7,4.7c-1.3,2-1.4,4.6-3.5,6.2
	c-3.9,2.9-7.7,0.9-8.4-1.5c-0.6-1.9,0-3.5,0-3.5"/>
</svg>
