<?xml version="1.0" encoding="utf-8"?>
<!-- Generator: Adobe Illustrator 27.8.1, SVG Export Plug-In . SVG Version: 6.00 Build 0)  -->
<svg version="1.1" id="Layer_1" xmlns="http://www.w3.org/2000/svg" xmlns:xlink="http://www.w3.org/1999/xlink" x="0px" y="0px"
	 viewBox="0 0 640 320" style="enable-background:new 0 0 640 320;" xml:space="preserve">
<style type="text/css">
	.st0{fill:#777777;}
</style>
<g>
	<path class="st0" d="M176,139.2c0.3,0.3,0.6,0.6,0.8,1c0.3,0.3,0.6,0.7,0.8,1c0.5,0.8,0.3,1.7-0.6,2.1c-0.2,0.1-0.4,0.2-0.6,0.3
		c0,0.2,0.1,0.3,0.3,0.3c0.4,0.3,0.8,0.6,1.2,0.8c0.3,0.2,0.5,0.5,0.6,0.9c0.3,1.4,0.8,2.7,1.5,3.9c0.4,0.7,0.8,1.3,1.3,1.9
		c0.4,0.5,0.9,0.9,1.6,1.2c0.6,0.2,1.2,0.2,1.7-0.1c0.8-0.4,1.1-1.2,0.7-2c-0.2-0.4-0.5-0.8-0.9-1.1c-0.5-0.4-1-0.7-1.6-1
		c-0.6-0.3-0.7-0.6-0.4-1.1c0.3-0.6,0.7-1.1,1.4-1.3c1.1-0.4,2.2-0.4,3.3,0.1c0.6,0.3,1.2,0.7,1.8,1c0.5,0.3,1,0.6,1.5,0.9
		c0.4,0.2,0.9,0.4,1.4,0.5c1.9,0.2,3.8-1.1,4.3-2.8c0.1-0.5,0.3-1,0.5-1.4c0.3-0.7,0.7-1.2,1.4-1.4c1.1-0.4,2.1,0.2,2.2,1.3
		c0.1,0.5,0,1.1-0.1,1.6c-0.2,1.2-0.2,2.4,0.1,3.5c0.1,0.3,0.2,0.4,0.6,0.3c0.6-0.2,1.2-0.5,1.8-0.8c0.8-0.5,1.5-1,2.2-1.5
		c0.8-0.6,1.6-1.2,2.4-1.6c0.9-0.5,1.8-0.8,2.7-1c0.8-0.1,1.6-0.1,2.3,0.2c0.3,0.1,0.6,0.2,0.7,0.5c0.1,0.4-0.2,0.6-0.4,0.8
		c-0.8,0.7-1.6,1.4-2.5,2c-0.1,0.1-0.3,0.2-0.4,0.4c0.1,0.2,0.3,0.1,0.4,0c1.1-0.5,2.2-1,3.4-1.5c0.6-0.3,1.2-0.5,1.8-0.6
		c0.5-0.1,1.1,0,1.5,0.3c0.4,0.2,0.5,0.6,0.2,0.9c-0.1,0.2-0.3,0.3-0.4,0.5c-0.1,0.2-0.3,0.3-0.4,0.5c0.1,0.3,0.4,0.2,0.6,0.3
		c0.3,0.2,0.4,0.5,0.2,0.8c-0.1,0.2-0.2,0.3-0.3,0.5c-0.5,0.7-1.2,1.3-1.9,1.8c-0.8,0.5-1.8,1-2.7,1.3c-0.9,0.3-1.9,0.6-2.9,0.9
		c-1.9,0.6-3.7,1.4-5.4,2.5c-1,0.7-2,1.3-3,1.9c-0.6,0.4-1.2,0.7-1.9,0.9c-1.8,0.7-3.7,0.9-5.5,0.2c-1.4-0.5-2.7-1-4.1-1.5
		c-1.8-0.7-3.5-1.3-5.3-2c-0.3-0.1-0.5-0.3-0.8-0.2c-0.3,0.2-0.4,0.6-0.5,0.9c-1.4,3.3-2.5,6.6-3.4,10.1c-1,3.8-1.9,7.7-2.5,11.7
		c-0.5,2.8-0.8,5.6-1.1,8.4c-0.3,3.2-0.6,6.4-0.8,9.6c-0.2,3-0.2,6-0.3,9c0,0.9-0.1,1-1,1c-1.4,0-2.8,0-4.1,0c-10,0-20,0-30,0
		c-0.3,0-0.6,0-0.9,0c-0.3,0-0.6-0.3-0.5-0.5c0-0.3,0.3-0.5,0.6-0.5c0.3,0,0.6,0,0.8,0c4.7,0,9.4,0,14.1,0c6.3,0,12.6,0,18.9,0
		c0.3,0,0.7,0.1,1-0.1c0.2-0.3,0.1-0.6,0.1-0.9c0-1.1,0-2.2,0.1-3.3c0.1-2.1,0.1-4.3,0.3-6.4c0.2-2.6,0.4-5.1,0.7-7.7
		c0.4-3.4,0.8-6.7,1.4-10.1c1.1-6.1,2.5-12.1,4.7-17.9c0.4-1.1,0.9-2.3,1.4-3.4c0.1-0.2,0.1-0.3,0.2-0.5c0.3-0.7,0.5-0.7,1.2-0.5
		c2.4,0.9,4.7,1.7,7.1,2.6c0.9,0.3,1.8,0.7,2.6,1c0.5,0.2,1,0.3,1.5,0.4c1.2,0.3,2.4,0.1,3.5-0.3c0.9-0.3,1.8-0.8,2.6-1.3
		c0.7-0.4,1.4-0.9,2.1-1.3c1.9-1.3,4-2.3,6.2-2.9c1.1-0.3,2.2-0.7,3.3-1.1c1-0.4,2-0.9,2.8-1.7c0.1-0.1,0.3-0.2,0.3-0.5
		c-0.4-0.1-0.8,0.1-1.1,0.3c-0.2,0.2-0.5,0.3-0.7,0.5c-0.2,0.1-0.5,0.1-0.6-0.1c-0.2-0.2-0.2-0.5,0-0.7c0.2-0.3,0.5-0.5,0.8-0.7
		c0.6-0.3,1.1-0.8,1.6-1.3c0.1-0.1,0.1-0.2,0.2-0.3c-0.5,0-0.9,0.2-1.3,0.3c-1.4,0.6-2.9,1.3-4.3,1.9c-1.1,0.5-2.3,1-3.4,1.5
		c-0.2,0.1-0.4,0.2-0.6,0.2c-0.2,0.1-0.4-0.1-0.5-0.3c-0.1-0.2-0.1-0.4,0-0.5c0.2-0.2,0.4-0.4,0.7-0.6c1.6-1.3,3.2-2.6,4.8-4
		c0.2-0.1,0.4-0.2,0.4-0.5c-0.4-0.1-0.8,0-1.2,0c-1,0.2-1.9,0.6-2.8,1.2c-0.7,0.4-1.3,0.9-2,1.4c-0.7,0.5-1.5,1.1-2.3,1.5
		c-0.6,0.4-1.3,0.6-2,0.8c-0.2,0.1-0.5,0.1-0.7,0.1c-0.5,0-0.6-0.1-0.8-0.5c-0.3-0.7-0.4-1.4-0.5-2.1c-0.1-0.9-0.1-1.8,0.1-2.7
		c0.1-0.4,0.1-0.8,0.1-1.1c0-0.5-0.4-0.7-0.9-0.4c-0.3,0.2-0.5,0.4-0.7,0.8c-0.1,0.4-0.3,0.8-0.4,1.2c-0.6,2-1.9,3.1-3.8,3.6
		c-1,0.3-2.1,0.1-3-0.3c-0.6-0.3-1.2-0.6-1.7-1c-0.5-0.3-1.1-0.7-1.6-1c-0.6-0.4-1.3-0.5-2-0.4c-0.5,0-0.9,0.2-1.3,0.5
		c-0.1,0.1-0.1,0.3,0,0.4c0.3,0.2,0.6,0.4,1,0.6c0.6,0.4,1.2,0.9,1.6,1.6c0.4,0.8,0.5,1.5,0.1,2.3c-0.3,0.6-0.7,1-1.3,1.3
		c-1,0.4-2,0.3-3-0.2c-0.8-0.4-1.4-1-1.9-1.7c-0.6-0.8-1.2-1.7-1.6-2.7c-0.4-0.9-0.8-1.7-1-2.6c-0.1-0.5-0.4-0.8-0.8-1.1
		c-1.5-1-3-2-4.5-3c-3.1-2.1-6.2-4.1-9.3-6.2c-1.7-1.1-3.3-2.2-5.1-3.2c-1.8-1-3.8-1.9-5.8-2.4c-0.1,0-0.2-0.1-0.4-0.1
		c-0.4-0.2-0.5-0.7-0.1-1c0.2-0.2,0.5-0.3,0.7-0.4c1.1-0.4,2.2-0.6,3.4-0.5c2.6,0.2,5,1,7.3,1.9c4.3,1.7,8,4.1,11.3,7.3
		c0.2,0.2,0.3,0.3,0.5,0.5c0,0,0.1,0,0.1,0.1c0.4-0.2,0.8-0.4,1.3-0.7c-0.1-0.2-0.2-0.4-0.3-0.5c-2.1-3.7-3.6-7.7-4.5-11.8
		c-0.5-2.3-0.9-4.7-1.2-7c-0.4-3.7-0.4-7.4-0.3-11.1c0.1-2,0.2-3.9,0.7-5.9c0.3-1,0.6-2,1.1-2.9c0.4-0.8,1-1.5,1.7-2.1
		c0.6-0.5,1.3-0.9,2-1.1c1.1-0.3,2.1,0,2.9,0.9c0.3,0.3,0.5,0.7,0.7,1.1c1.6,2.7,2.8,5.5,3.8,8.5c0.9,2.8,1.5,5.6,2.1,8.5
		c0.6,3.1,1,6.2,1.4,9.3c0.1,1.1,0.3,2.1,0.4,3.2c0.2-0.1,0.1-0.3,0.1-0.5c0-1.5,0-3.1-0.1-4.6c-0.1-1.2-0.2-2.4-0.3-3.7
		c-0.6-6-1.8-11.8-4.3-17.4c-0.7-1.5-1.4-2.9-2.2-4.3c-0.1-0.2-0.2-0.4-0.3-0.7c-0.1-0.3,0.1-0.6,0.4-0.6c0.2,0,0.3,0,0.5,0
		c2,0,4.1,0,6.1,0c0.3,0,0.6,0.1,0.8,0.4c1.9,2.5,4,4.8,5.8,7.3c1.3,1.8,2.7,3.5,4.3,5c1.1,1,2.2,2,3.4,2.8c1.7,1.1,3.6,1.9,5.6,2.1
		c1.7,0.2,3.4,0.2,5-0.4c1.8-0.6,3.2-1.7,4.3-3.4c0.9-1.3,1.4-2.8,1.7-4.4c0.4-2.1,0.5-4.3,0.4-6.5c0-0.1,0-0.2-0.1-0.3
		c-0.2,0.2-0.3,0.4-0.3,0.7c-0.4,1.1-0.9,2.3-1.3,3.4c-0.5,1.1-1.1,2.2-1.8,3.2c-1.7,2.2-4,3.4-6.8,3.7c-4.2,0.4-7.8-1.1-10.8-4
		c-1.3-1.2-2.3-2.6-3.3-4.1c-1-1.5-1.8-3.2-2.6-4.8c-0.3-0.5-0.3-1.1-0.1-1.6c0.1-0.2,0.2-0.4,0.1-0.7c-0.4-0.1-0.7,0-1.1,0
		c-1.2,0.1-2.4,0.2-3.7,0.3c-1.9,0.2-3.9,0.3-5.8,0.5c-0.5,0-1.1,0.1-1.6,0.1c-0.3,0-0.5-0.2-0.5-0.4c0-0.3,0.1-0.5,0.3-0.6
		c0.1,0,0.2-0.1,0.3-0.1c1.9-0.8,3.3-2.2,4.4-3.9c1.2-1.9,2-4,2.6-6.1c0.4-1.7,0.7-3.4,1-5.1c0.4-2.8,0.7-5.5,1.1-8.3
		c0.4-2.8,1-5.5,2-8.1c1.2-3,2.9-5.6,5.2-7.9c1.5-1.4,3.3-2.6,5.2-3.2c1.9-0.6,3.8-0.8,5.8-0.5c2.7,0.4,5.3,1,7.8,1.9
		c1.5,0.5,2.9,1.3,4.1,2.3c1.3,1.2,2.3,2.5,2.8,4.2c0.1,0.2,0.1,0.5,0.1,0.7c0,0.2-0.1,0.4-0.3,0.5c-0.2,0.1-0.4,0.1-0.6-0.1
		c0,0-0.1-0.1-0.1-0.1c-0.7-0.9-1.7-1.2-2.8-1.2c-0.8-0.1-1.6,0-2.4,0.2c-1.4,0.3-2.8,0.8-4.1,1.4c-2.2,1-3.8,2.6-5,4.7
		c-0.8,1.4-1.4,2.8-1.8,4.3c-0.5,1.8-1,3.6-1.5,5.4c0,0.1,0,0.1,0,0.2c0,0.3,0,0.4,0.3,0.5c0.5,0.2,1,0.2,1.4-0.1
		c0.2-0.2,0.4-0.4,0.6-0.6c0.3-0.3,0.5-0.6,0.8-1c0.9-1.5,2.2-2.5,3.9-3.2c1.5-0.6,2.6-1.6,3.3-3.1c0.4-0.9,0.9-1.7,1.3-2.6
		c0.4-0.8,0.8-1.7,1.2-2.4c0.3-0.6,0.7-1.1,1.2-1.5c0.4-0.4,0.9-0.7,1.5-0.8c0.8-0.2,1.4,0,2,0.5c0.3,0.2,0.5,0.5,0.7,0.8
		c0.1,0.2,0.3,0.5,0.4,0.7c0.6,1.4,1,2.8,1.1,4.4c0.1,1,0,2.1-0.3,3.1c-0.3,1-0.5,2.1-0.5,3.1c0,0.7,0.2,1.3,0.5,1.9
		c0.4,0.8,0.9,1.6,1.5,2.4c0.3,0.4,0.6,0.8,0.8,1.3c0.4,0.9,0.2,1.8-0.5,2.5c-0.2,0.2-0.5,0.4-0.8,0.4c-0.5,0.1-0.9,0.5-1.1,1
		c-0.2,0.6-0.4,1.1-0.4,1.7c0,0.5,0,1.1,0,1.6c0,0.6-0.1,1.2-0.2,1.8c-0.3,1.6-1.9,3-3.5,3c-0.6,0-1.3,0-1.9-0.1
		c-0.6-0.1-1.2,0-1.8,0.1c-0.2,0-0.3,0.2-0.3,0.4c0,0.4,0.2,0.8,0.6,1c0.2,0.1,0.5,0.2,0.8,0.3c0.3,0.1,0.6,0.2,0.9,0.3
		c0.7,0.2,1.3,0.5,1.8,1.1c0.1,0.1,0.2,0.3,0.4,0.3c0.2-0.3,0.2-0.6,0.3-0.9c0.1-0.3,0.3-0.4,0.6-0.4c0.1,0,0.3,0,0.4,0
		c1.2,0.1,2.3,0.5,3.3,1.2c0.6,0.4,1,1,1.2,1.7c0.4,1.6,0.6,3.2,0.6,4.8c0,4.1,0.7,8.1,2.1,12c0.8,2.3,1.7,4.6,2.4,7
		c0.6,2,1,3.9,1.1,6c0.1,2.3-0.2,4.5-1,6.6c-0.1,0.3-0.2,0.5-0.3,0.8c1.8-1.4,2.7-3.5,2.4-5.6c-0.3-2-0.8-4-1.4-6
		c-0.9-3.2-1.8-6.3-2.8-9.5c-0.7-2.2-1.1-4.4-1.3-6.7c-0.2-2.7-0.2-5.5,0-8.2c0.1-0.9,0.4-1,1.2-0.6c1.3,0.6,2.3,1.5,3.2,2.6
		c1.2,1.4,2,3.1,2.6,4.8c0.8,2,1.3,4,1.9,6c1.1,4,2.1,8,3,12.1c0.6,2.9,1.1,5.8,1.5,8.7c0.3,2.8,0.4,5.6,0.3,8.4
		c-0.1,3.3-0.7,6.5-1.7,9.7c-0.4,1.2-0.9,2.4-1.8,3.3c-0.1,0.2-0.2,0.3-0.1,0.5c0.2,0.4,0.3,0.9,0.3,1.4c0,0.2,0,0.5,0,0.7
		c-0.1,0.4-0.4,0.5-0.7,0.4c-0.1-0.1-0.3-0.1-0.4-0.2c-0.1-0.1-0.3-0.2-0.4-0.1c-0.2,0.1-0.1,0.3-0.1,0.4c0,0.4,0,0.8-0.1,1.1
		c-0.1,0.5-0.4,0.7-0.9,0.7c-2.1-0.2-4.1-0.1-6.2-0.1c-1.8,0-3.6,0.1-5.5,0.1c-0.9,0-1.8,0.1-2.7,0.1c-0.2,0-0.4,0.1-0.8,0.1
		c1.5,0.3,2.8,0.5,4.1,0.7c1.5,0.3,3,0.5,4.4,0.9c1.3,0.4,1.3,0.4,1.6,1.7c0.6,2.6,1,5.2,1.4,7.9c0.3,2.3,0.6,4.6,0.9,6.9
		c0.2,2,0.3,3.9,0.5,5.9c0.4,4.6,0.4,9.2,0.3,13.8c-0.1,2.7-0.2,5.4-0.5,8.1c-0.1,1-0.2,2-0.4,3c0,0.1,0,0.2,0,0.3
		c0,0.4,0,0.5,0.4,0.5c0.3,0,0.6,0,0.8,0c6.7,0,13.4,0,20.1,0c11.6,0,23.2,0,34.7,0c0.4,0,0.7,0,1.1,0c0.2-0.3,0.2-0.6,0.3-0.8
		c1.1-4.6,2.2-9.3,3.6-13.8c0.6-2,1.3-4.1,2.1-6.1c0.1-0.3,0.3-0.7,0.5-1c0.8-1.7,2.2-2.5,4-2.7c0.5,0,1,0,1.5,0
		c3.6,0,7.2,0.1,10.8,0.1c3.4,0,6.8,0,10.3-0.2c2.5-0.1,5-0.2,7.5-0.5c2-0.2,4-0.4,6-0.6c4.3-0.6,8.5-1.4,12.7-2.6
		c0.7-0.2,0.7-0.3,0.6-0.9c-0.2-0.9-0.2-0.9-1.1-0.7c-3.1,0.7-6.3,1.3-9.4,1.8c-1.9,0.3-3.8,0.5-5.7,0.7c-5.5,0.5-11.1,0.6-16.6,0.5
		c-2.8-0.1-5.5-0.2-8.3-0.3c-2.9-0.1-5.8-0.1-8.7-0.1c-0.2,0-0.3,0-0.5,0c-0.8,0-0.9-0.1-1.2-0.9c-0.5-1.6-0.9-3.2-1.2-4.8
		c-0.4-2.1-0.6-4.3-0.8-6.4c-0.1-0.7-0.2-1.4-0.2-2.1c0-0.4-0.2-0.6-0.6-0.7c-0.5-0.1-0.9-0.3-1.4-0.5c-1.7-0.7-3.2-1.5-4.7-2.5
		c-0.4-0.2-0.7-0.3-1.1-0.3c-0.9,0.1-1.7,0.1-2.6,0.2c-1.5,0.2-2.9,0.7-4.1,1.7c-0.6,0.5-1.2,1.1-1.8,1.6c-0.7,0.6-1.5,1.3-2.3,1.8
		c-1,0.6-2.2,0.9-3.3,0.7c-0.8-0.1-1.6-0.4-2.4-0.9c-1.2-0.7-2.4-1.5-3.4-2.5c-0.4-0.4-0.8-0.8-1.2-1.3c-0.7-0.9-1.2-1.9-1.2-3.1
		c0-0.2-0.1-0.4-0.3-0.5c-1.6-1-1.9-2.8-0.8-4.3c0.4-0.5,0.9-0.9,1.4-1.2c0.5-0.3,1-0.6,1.6-0.9c0.6-0.3,1.1-0.6,1.6-1
		c1-0.9,1.3-1.8,0.9-3.1c-0.2-0.5-0.4-1-0.7-1.4c-0.3-0.5-0.6-1-0.9-1.6c-0.6-1.2-0.7-2.4-0.3-3.7c0.3-0.8,0.7-1.3,1.5-1.5
		c0.3-0.1,0.6-0.1,0.9,0.1c0.4,0.3,0.8,0.7,1.1,1c1.1,1,2,2.2,2.9,3.3c0.5,0.6,1,1.2,1.6,1.8c1,1,2.1,1.9,3.5,2.4
		c0.7,0.3,1.5,0.5,2.3,0.5c0.9,0,1.7-0.2,2.5-0.7c0.4-0.3,0.8-0.5,1.2-0.8c1.1-0.7,2.2-0.7,3.4-0.1c0.6,0.3,1,0.7,1.5,1.1
		c1.1,1,2,2.1,2.8,3.3c0.2,0.4,0.5,0.6,0.9,0.7c0.5,0,0.9,0.1,1.4,0.2c0.2-0.5,0.1-1,0-1.5c-0.3-1.4-1-2.5-2-3.4
		c-1.4-1.3-3.1-1.9-5-1.9c-0.3,0-0.7,0.1-1,0.1c-0.2,0-0.4,0.1-0.7,0.1c-0.3,0-0.5-0.2-0.6-0.5c0-0.5,0.1-1,0.4-1.4
		c0.4-0.8,1-1.3,1.8-1.8c0.3-0.2,0.6-0.2,0.8-0.6c-0.1-0.1-0.1-0.2-0.2-0.3c-1-1.3-1.2-2.9-1-4.5c0.3-2.1,0.6-4.2,0.9-6.2
		c0.3-2.1,0.7-4.3,1-6.4c0.3-2.2,0.7-4.3,1-6.5c0.3-2.2,0.7-4.3,1-6.5c0.3-1.9,0.6-3.8,1.1-5.6c0.5-1.5,1.1-3,2.1-4.3
		c0.9-1.1,2-2,3.2-2.8c1.2-0.8,2.5-1.4,3.8-1.9c1-0.5,2.1-0.9,3.1-1.3c1.1-0.5,2.1-1,3.1-1.6c0.4-0.2,0.7-0.5,0.9-0.9
		c0.7-1.1,1.5-2,2.4-2.9c0.2-0.2,0.3-0.3,0.5-0.4c0.2-0.1,0.5-0.1,0.6,0.1c0.1,0.1,0.2,0.3,0.1,0.5c-0.1,0.2-0.2,0.4-0.3,0.6
		c-0.5,1.1-1.3,2-2.2,2.8c-0.6,0.5-1,1-1.3,1.7c-0.2,0.5-0.5,1-0.7,1.6c0.4,0.3,0.9,0.4,1.3,0.7c0.4,0.3,0.9,0.5,1.3,0.8
		c0.4,0.3,0.8,0.6,1.1,0.9c0.4,0.3,0.7,0.7,1,1.1c0.3,0.3,0.5,0.8,0.9,1.1c0.1-0.2,0.1-0.4,0.1-0.6c-0.2-2.9-0.4-5.9-0.6-8.8
		c-0.1-0.9-0.1-1.9-0.2-2.8c0-0.4-0.1-0.4-0.4-0.5c-0.9-0.1-1.6-0.6-2.2-1.2c-0.7-0.8-1.2-1.7-1.5-2.7c-0.6-1.9-1.1-3.9-1.5-5.8
		c-0.5-2.5-0.9-5.1-1.1-7.7c-0.2-3-0.3-6,0-9c0.2-1.8,0.4-3.6,0.9-5.4c0.3-1.2,0.8-2.4,1.5-3.4c0.2-0.3,0.4-0.7,0.5-1.1
		c1.2-2.9,3.1-5.2,5.8-6.8c2.4-1.4,5-2.1,7.7-2.1c3.7,0,7,1,9.9,3.3c2.6,2.1,4.3,4.9,5.3,8.2c0.8,2.8,0.9,5.6,0.2,8.4
		c-0.1,0.4-0.1,0.6,0.2,0.9c1.4,1.3,1.8,3,1.5,4.9c-0.2,1.5-1,2.8-2,3.8c-0.9,1-2,1.8-3.2,2.3c-0.8,0.4-1,0.8-1,1.7
		c0,2.1-0.4,4.1-0.8,6.1c0,0.2-0.1,0.4-0.2,0.6c-0.1,0.2-0.3,0.3-0.4,0.3c-0.2,0-0.4-0.1-0.5-0.3c-0.3-0.6-0.4-1.2-0.6-1.8
		c-0.4-2.1-0.1-4.1,0.5-6.1c0.4-1.3,0.9-2.5,1.5-3.8c0.6-1.3,1.3-2.5,1.9-3.8c0.6-1.1,1.1-2.2,1.5-3.4c0.2-0.4,0-0.6-0.4-0.6
		c-0.8,0-1.5,0.2-2.2,0.7c-0.4,0.3-0.7,0.8-0.8,1.3c0,0.2,0,0.3-0.1,0.5c-0.1,0.3-0.2,0.4-0.5,0.5c-1.3,0.2-2.3-0.2-3-1.3
		c-0.3-0.4-0.5-0.9-0.7-1.3c-0.3-0.8-0.4-1.7-0.5-2.6c-0.1-1.1-0.2-2.2-0.2-3.3c-0.1-1.2-0.2-2.4-0.4-3.6c-0.1-0.5-0.2-0.9-0.4-1.3
		c-0.4-0.7-0.9-1-1.7-0.8c-1.5,0.4-3,0.4-4.5,0.3c-1.2-0.1-2.4-0.4-3.5-0.7c-1.1-0.3-2.2-0.6-3.3-0.8c-0.7-0.1-1.4-0.1-2.1,0
		c-0.6,0.1-1,0.4-1.5,0.8c-0.5,0.4-0.8,0.9-1,1.5c-0.9,3.5-0.7,6.8,1.1,10c0,0.1,0.1,0.2,0.1,0.2c0.6,1,0.7,2.1,0.5,3.2
		c-0.1,0.7-0.3,1.4-0.6,2.1c-0.2,0.6-0.5,1.2-0.7,1.9c-0.2,0.5-0.3,1.1-0.4,1.6c-0.1,0.8,0.1,1.5,0.7,2c0,0,0.1,0.1,0.1,0.1
		c1,0.7,1.4,1.7,1.5,2.8c0,0.8,0,1.5,0,2.3c0,0.8,0,1.6,0,2.4c0,0.5,0.1,0.9,0.5,1.3c0.4,0.4,0.7,0.9,0.9,1.4c1.4,2.9,2.4,6,2.8,9.2
		c0.1,0.8,0.1,1.6,0.2,2.4c0.2,0.1,0.3,0,0.4-0.1c0.1-0.1,0.1-0.1,0.2-0.2c1.8-1.3,3.6-1.4,5.6-0.5c1.4,0.7,2.5,1.8,3.2,3.2
		c0.1,0.2,0.3,0.5,0.4,0.7c0,0,0,0,0.1,0.1c0.1-0.1,0.1-0.1,0.2-0.2c0.9-1.6,2.1-3,3.3-4.3c0.9-0.9,1.7-1.8,2.5-2.8
		c1-1.1,1.7-2.3,2.3-3.6c0.1-0.2,0.1-0.3,0.2-0.5c-0.1-0.2-0.3-0.2-0.4-0.2c-0.6,0-1.3,0.1-1.8,0.3c-0.6,0.2-1.2,0.5-1.8,0.8
		c-3.1,1.4-6.1,2.8-9.2,4.1c-0.3,0.1-0.5,0.2-0.8,0.3c-0.2,0.1-0.5-0.1-0.6-0.3c-0.1-0.2-0.1-0.5,0.2-0.7c0.2-0.1,0.4-0.2,0.7-0.3
		c4-1.8,7.5-4.3,10.6-7.5c0.9-0.9,1.8-1.9,2.5-2.9c0.5-0.7,0.9-0.9,1.5,0.1c0.8,1.3,1,2.8,0.8,4.3c0,0.3-0.1,0.5-0.1,0.9
		c0.1,0,0.1,0.1,0.2,0.1c1.1,0.4,2.1,0.9,3.2,1.4c2.7,1.4,5.4,2.9,8,4.5c2.5,1.5,4.8,3.1,7,5c2.7,2.3,5.1,5,6.8,8.1
		c1.5,2.6,2.4,5.3,3.2,8.1c0.6,2.6,1,5.2,1.4,7.9c0.3,2.8,0.5,5.6,0.7,8.3c0.1,3.1,0.1,6.3-0.1,9.4c-0.1,1.3-0.1,2.6-0.2,3.9
		c-0.2,2.2-0.4,4.3-0.7,6.5c-0.1,1-0.3,2-0.4,3c0,0.2-0.1,0.4-0.1,0.6c-0.1,0.3-0.5,0.5-0.8,0.3c-0.2-0.1-0.4-0.3-0.7-0.5
		c-1.7-1.4-3.5-2.4-5.6-3.1c-0.1,0-0.2-0.1-0.4-0.1c0,0-0.1,0-0.1,0.1c0.1,0.3,0.3,0.3,0.5,0.5c1.5,1.1,2.8,2.4,4,3.8
		c0.5,0.7,1,1.3,1.5,2.1c1.2,2.1,1.2,4.3,0.1,6.4c-0.9,1.8-2.3,3.1-4,4.1c-1.4,0.8-2.9,1.2-4.4,1.5c-1.8,0.4-3.7,0.5-5.5,0.7
		c-0.3,0-0.6,0-0.9-0.1c-0.2,0-0.4-0.1-0.5,0c-0.1,0.2,0,0.4,0.1,0.6c0.3,1.2,0.6,2.3,0.9,3.5c0,0.1,0.1,0.2,0.1,0.4
		c0.1,0.1,0.2,0.2,0.3,0.2c0.2,0,0.3-0.1,0.5-0.1c0.3,0,0.5,0.2,0.6,0.4c0,0,0,0.1,0,0.1c0.1,0.9,0.1,1.8,0.2,2.6
		c0,0.2-0.1,0.5-0.3,0.6c-0.3,0.2-0.3,0.4-0.2,0.7c0.3,1.2,0.5,2.4,0.8,3.6c0.6,2.9,1.2,5.8,1.6,8.8c0.4,2.4,0.7,4.7,1.1,7.1
		c0.3,1.9,0.4,3.8,0.6,5.7c0.1,0.6,0.1,1.1,0.2,1.7c0,0.2,0.2,0.3,0.4,0.3c0.3,0,0.5,0,0.8,0c8.9,0,17.8,0,26.6,0c6,0,12.1,0,18.1,0
		c5.4,0,10.9,0,16.3,0c0.3,0,0.7,0,1.1,0c0.2-0.4,0.2-0.8,0.2-1.1c0.2-2.3,0.3-4.7,0.4-7c0.2-3.5,0.3-7,0.4-10.4
		c0-0.9,0.1-1.8,0.1-2.7c0-0.3-0.1-0.4-0.4-0.3c-0.9,0.2-1.8,0.4-2.7,0.6c-0.9,0.2-1.8,0.2-2.6,0.1c-1.1-0.2-2.2-0.7-3-1.4
		c-0.7-0.6-1.2-1.3-1.7-2c-0.4-0.6-0.8-1.2-1.2-1.8c-0.8-1.2-1.8-2.2-3-3c-0.6-0.4-1.2-0.8-1.8-1.2c-0.6-0.4-1.2-0.7-1.7-1.1
		c-1.6-1-3-2.2-3.8-3.9c-0.4-0.1-0.8-0.1-1.2-0.1c-2.3-0.1-4.5-0.1-6.8-0.2c-2.4-0.1-4.4-1-6-2.7c-0.7-0.7-1.2-1.5-1.5-2.3
		c-2.5-6.3-5-12.7-7.5-19c-1.3-3.2-2.5-6.4-3.8-9.5c-0.2-0.5-0.4-1-0.5-1.5c-0.3-1.4,0.4-2.5,1.8-3c0.6-0.2,1.2-0.2,1.8-0.2
		c0.9,0,1.8,0,2.6,0c15.6,0,31.1,0,46.7,0c0.4,0,0.9,0,1.3,0.1c1.1,0.3,2.1,0.9,2.8,1.8c0.5,0.7,0.9,1.5,1.1,2.4
		c0.2,0.6,0.4,1.2,0.6,1.8c0,0.1,0.1,0.1,0.2,0.3c0.1-0.5,0.2-0.9,0.2-1.4c0.1-1.6,0.2-3.3,0.1-4.9c0-2.9-0.2-5.8-0.6-8.6
		c-0.2-1.1-0.4-2.3-0.6-3.4c0,0,0-0.1,0-0.1c-0.2-1.2,0.1-2.1,1.2-2.7c1-0.6,2-1.2,2.9-1.9c0.2-0.1,0.3-0.2,0.4-0.4
		c-0.4-0.5-0.9-0.8-1.5-1c-0.2-0.1-0.5-0.1-0.7-0.2c-0.4-0.1-0.5-0.5-0.3-0.8c0.1-0.2,0.3-0.5,0.5-0.7c1.5-1.9,3-3.9,4.5-5.8
		c0.2-0.2,0.4-0.5,0.5-0.7c-0.1-0.2-0.3-0.1-0.4,0c-2.5,1.1-5.1,2-7.7,2.8c-0.7,0.2-1.3,0.7-1.7,1.2c-0.6,0.7-1,1.6-1.4,2.4
		c-0.5,1.2-0.9,2.5-1.3,3.7c-1.2,3.8-2.1,7.7-3,11.6c-0.2,1-0.5,2.1-0.7,3.1c0,0.2-0.1,0.3-0.1,0.5c-0.1,0.2-0.3,0.4-0.5,0.4
		c-0.1,0-0.2,0-0.3,0c-1.3-0.1-2.6-0.1-3.9-0.2c-0.1,0-0.2,0-0.3,0c-0.3-0.1-0.5-0.3-0.4-0.6c0-0.2,0.1-0.4,0.2-0.5
		c1.9-5.6,4-11,6.4-16.4c0.3-0.7,0.6-1.3,1-1.9c0.9-1.5,2.1-2.6,3.7-3.3c0.7-0.3,1.5-0.7,2.2-1.2c0.2-0.1,0.4-0.2,0.6-0.3
		c1.7-0.8,3.4-1.5,5.1-2.1c0.8-0.3,1.7-0.5,2.6-0.5c0.4,0,0.8-0.2,1.2-0.4c0.9-0.4,0.9-0.4,1.6,0.3c1.2,1.2,2.5,2.1,3.9,3
		c0.2,0.1,0.4,0.3,0.6,0.3c0.2-0.2,0.1-0.4,0-0.5c-0.3-0.8-0.8-1.4-1.4-2c-0.4-0.3-0.8-0.6-1.2-1c-0.3-0.3-0.7-0.5-1.1-0.8
		c-2.2-1.6-3.7-3.7-4.7-6.2c-0.6-1.6-1-3.2-1.1-4.8c-0.1-1-0.2-1.9-0.1-2.9c0-2.2-0.2-4.4-0.8-6.6c-0.5-1.8-0.8-3.6-0.8-5.5
		c0-0.9-0.3-1.9-0.4-2.8c-0.3-1.9-0.3-3.9,0.1-5.8c0.5-2.6,1.9-4.6,4-6.2c1.2-0.9,2.6-1.6,4.1-2.1c2.9-1,5.9-1.3,9-1.1
		c2.7,0.2,5.2,0.9,7.6,2.4c3,1.9,4.9,4.5,5.8,7.9c0.5,1.8,0.4,3.6-0.1,5.4c-0.1,0.3-0.2,0.5-0.3,0.8c-0.1,0.2-0.3,0.3-0.5,0.3
		c-0.2,0-0.4-0.2-0.4-0.4c0-0.2-0.1-0.4-0.1-0.7c-0.3-2.4-1.4-4.4-3.1-6.1c-1.2-1.2-2.6-2.2-4.1-2.9c-0.1,0-0.2-0.1-0.4-0.1
		c0,0-0.1,0-0.1,0c-0.1,0.2,0.1,0.3,0.2,0.4c1.4,1.6,2.3,3.4,2.7,5.5c0.3,1.4,0.3,2.7,0.1,4.1c0,0.2-0.1,0.3-0.1,0.5
		c0,0.3,0,0.5,0.3,0.7c0.1,0.1,0.3,0.2,0.4,0.3c1,0.8,1.5,1.8,1.6,3.1c0,0.3-0.1,0.6,0.1,0.8c0.2,0.1,0.4,0,0.6,0
		c0.1,0,0.2-0.1,0.2-0.3c0.1-0.3,0.1-0.6,0.2-0.8c0.1-0.6,0.3-1.2,0.7-1.7c0.6-0.8,1.4-1.2,2.4-1.2c1,0,1.7,0.7,1.9,1.6
		c0,0.1,0,0.1,0,0.2c0.1,2,0.1,4.1-0.3,6.1c-0.4,1.6-1.1,3.1-2.4,4.1c-0.2,0.2-0.3,0.4-0.2,0.7c0.1,0.3,0.1,0.6,0.2,0.8
		c0.4,2.3,0,4.4-0.8,6.6c-0.1,0.2-0.2,0.3-0.1,0.5c0,0,0,0.1,0.1,0.1c0.2-0.1,0.3-0.3,0.4-0.4c0.4-0.6,0.7-1.2,1.1-1.9
		c0.4-0.6,0.7-0.7,1.3-0.2c0.6,0.4,1.1,0.9,1.5,1.4c0.7,0.9,1.3,1.8,1.7,2.9c0.2,0.5,0.5,0.9,1,1.2c6.4,4.4,12.3,9.5,17.8,14.9
		c2.4,2.4,4,5.3,4.8,8.6c0.4,1.9,0.7,3.8,0.8,5.7c0.1,1.6,0.1,3.2,0,4.8c-0.1,2.6-0.5,5.2-1.1,7.7c-1,4.5-2.3,8.8-3.7,13.1
		c-2.2,6.8-4.8,13.4-7.5,20c-0.6,1.5-1.3,3.1-1.9,4.6c-0.2,0.5-0.3,1-0.3,1.6c0.2,1.5,0.3,2.9,0.5,4.4c0.2,1.7,0.4,3.4,0.7,5.1
		c0.2,1.6,0.4,3.1,0.6,4.7c0.4,3.1,0.6,6.3,0.5,9.5c0,0.1,0,0.1,0,0.2c0,0.6,0,0.6,0.6,0.6c0.8,0,1.7,0,2.5,0c7,0,13.9,0,20.9,0
		c0.3,0,0.5,0,0.8,0c0.3,0,0.5,0.2,0.5,0.5c0,0.3-0.2,0.5-0.5,0.6c-0.2,0-0.5,0-0.8,0c-3.8,0-7.5,0-11.3,0c-4.1,0-8.3,0-12.4,0
		c-0.2,0-0.4,0-0.7,0c-0.7,0-0.9-0.2-0.8-0.9c0-0.2,0.1-0.5,0.1-0.7c0.1-2,0.1-4.1-0.1-6.1c-0.2-2-0.4-3.9-0.7-5.9
		c-0.2-1.6-0.4-3.1-0.6-4.7c-0.2-1.3-0.3-2.6-0.5-3.9c-0.1-0.6-0.2-1.3-0.2-1.9c-0.3,0-0.4,0.2-0.5,0.3c-0.8,1.1-1.9,1.8-3.2,2.2
		c-1.6,0.5-3.1,0.9-4.7,1.4c-4.7,1.4-9.4,2.7-14.2,3.8c-3.5,0.8-7,1.5-10.6,2c-1.8,0.3-3.7,0.5-5.5,0.7c-0.2,0-0.5,0-0.8,0
		c-0.9,0-1.6-0.5-1.9-1.4c-0.1-0.3-0.2-0.5-0.2-0.8c-0.3-1.1-0.5-2.3-0.7-3.4c-0.2-1,0-1.9,0.8-2.7c0.1-0.1,0.2-0.2,0.3-0.3
		c1.2-1.2,1.8-2.7,2.1-4.3c0.2-0.9,0.2-1.9,0.2-2.8c0-0.7,0-1.4,0-2.1c0-0.2,0-0.4,0-0.7c0-0.3,0.2-0.5,0.4-0.5
		c0.2,0,0.5,0.1,0.6,0.4c0.1,0.2,0.2,0.4,0.2,0.6c0.2,0.7,0.4,1.4,0.6,2.2c0,0.2,0.1,0.4,0.3,0.5c0.5-1.3,1-2.7,1.5-4
		c-0.1-0.1-0.3-0.1-0.5-0.1c-1.3,0-2.6,0-4,0c-0.1,0-0.3,0-0.4,0c-0.1,0-0.2,0.1-0.2,0.3c0,0.1,0,0.3,0,0.4c0.1,0.8,0,1.5-0.3,2.2
		c-0.1,0.4-0.1,0.7-0.1,1.1c0.1,0.9,0.2,1.8,0.3,2.7c0,0,0,0.1,0,0.1c-0.1,1.8-0.7,2.4-2.2,2.6c-3.4,0.5-6.9,1-10.3,1.6
		c-0.2,0-0.4,0.1-0.6,0.1c-1,0.1-1,0.1-1,1.2c0,0.7,0,1.4,0,2.1c-0.1,2.7-0.1,5.3-0.3,8c-0.1,2.9-0.4,5.8-0.6,8.7
		c0,0.6-0.1,1.1-0.2,1.7c0,0.4-0.2,0.6-0.6,0.6c-0.2,0-0.5,0-0.8,0c-3.8,0-7.7,0-11.5,0c-5.1,0-10.3,0-15.4,0c-11.9,0-23.7,0-35.6,0
		c-0.3,0-0.6,0-0.9,0c-0.3,0-0.5-0.2-0.5-0.5c0-0.2-0.1-0.4-0.1-0.6c-0.1-1.3-0.3-2.7-0.4-4c-0.2-1.9-0.5-3.8-0.7-5.7
		c-0.3-2.1-0.6-4.3-1-6.4c-0.6-3.6-1.3-7.1-2.1-10.6c0-0.2-0.1-0.3-0.1-0.5c-0.1-0.2-0.2-0.2-0.4-0.2c-0.1,0-0.2,0.1-0.3,0.1
		c-3,0.9-6,1.5-9.1,2.1c-2,0.3-4,0.6-6.1,0.9c-2.6,0.3-5.2,0.5-7.8,0.7c-2.7,0.2-5.5,0.3-8.2,0.3c-5.4,0-10.7,0-16.1,0
		c-0.6,0-1.1,0-1.7,0c-0.4,0-0.8,0.1-1.2,0.2c-0.7,0.2-1.2,0.6-1.7,1.2c-0.4,0.5-0.6,1.1-0.9,1.7c-0.9,2.3-1.6,4.6-2.3,7
		c-1.3,4.4-2.4,8.9-3.4,13.4c-0.3,1.3-0.5,1.1-1.4,1.1c-9.8,0-19.6,0-29.4,0c-5.5,0-11,0-16.5,0c-3.6,0-7.3,0-10.9,0
		c-0.3,0-0.5,0-0.8,0c-0.5,0-0.7-0.3-0.7-0.8c0.1-0.9,0.3-1.7,0.4-2.6c0.2-1.5,0.4-3.1,0.5-4.6c0.3-4.6,0.3-9.2,0.2-13.8
		c-0.1-2.5-0.2-5.1-0.5-7.6c-0.2-1.6-0.3-3.3-0.5-4.9c-0.2-2-0.5-4-0.8-6c-0.3-2.3-0.7-4.5-1.2-6.8c0-0.1,0-0.2-0.1-0.4
		c-0.1-0.4-0.3-0.6-0.7-0.7c-1-0.3-2.1-0.5-3.1-0.7c-2.8-0.5-5.7-1-8.5-1.4c-1.1-0.2-2.2-0.3-3.3-0.5c-0.2,0-0.3,0-0.5-0.1
		c-0.2-0.1-0.4-0.3-0.4-0.5c0-0.2,0.2-0.5,0.4-0.5c0.2,0,0.4-0.1,0.6-0.1c2.2-0.1,4.5-0.2,6.7-0.2c3.3-0.1,6.5-0.2,9.8-0.3
		c1.5,0,3-0.1,4.5,0c0.3,0,0.5-0.1,0.5-0.4c0-0.4,0-0.8,0-1.1c0-0.3-0.2-0.5-0.4-0.6c-0.9-0.5-1.8-1.1-2.7-1.6
		c-4.5-2.7-9.1-5.5-13.6-8.2c-0.9-0.6-1.9-1.1-2.9-1.6c-1.7-0.8-3.5-1.3-5.4-1.3c-1.7,0-3.4,0.1-5.2,0.3c-1.4,0.2-2.9,0.3-4.3,0.5
		c-1.4,0.2-2.9,0.3-4.3,0.5c-1.3,0.2-2.7,0.3-4,0.4c-1.5,0.2-2.9,0.3-4.4,0.5c-1.3,0.2-2.7,0.3-4,0.4c-0.4,0-0.9,0.1-1.3,0.2
		c-0.5,0.1-0.8-0.1-1.1-0.4c-0.8-1-1.5-1.9-2.2-2.9c-0.1-0.2-0.2-0.3-0.3-0.5c-0.1-0.2-0.3-0.3-0.5-0.2
		C176.5,138.8,176.3,138.8,176,139.2z M345.7,162.6c-0.1,0.1-0.1,0.3-0.1,0.4c0.2,1.1,0.3,2.2,0.4,3.3c0,0.3,0.1,0.7,0.2,1
		c0.2,0.7,0.6,1.1,1.3,1.3c0.5,0.1,0.9,0.1,1.4,0.1c0.4,0,0.9-0.1,1.3-0.1c1.6-0.2,3.1-0.3,4.6-0.7c1.3-0.3,2.5-0.8,3.6-1.5
		c1.4-0.9,2.5-2.1,3.2-3.6c0.7-1.6,0.7-3.2-0.1-4.7c-0.4-0.8-0.9-1.6-1.5-2.3c-2-2.3-4.4-4.2-7.1-5.6c-0.4-0.2-0.9-0.3-1.3-0.4
		c-2.3-0.1-4.5,0.1-6.7,0.8c-0.1,0-0.2,0.1-0.4,0.1c-0.6,0.1-0.8-0.1-0.9-0.6c0-0.6,0-1.2,0-1.8c0.1-0.8-0.2-1.3-1-1.7
		c-1.3-0.6-2.2-1.7-2.5-3.1c-0.2-0.6-0.3-1.3-0.3-2c0-2.7,0.4-5.3,1.2-7.9c0.2-0.5,0.2-1,0.1-1.5c-0.1-0.5-0.1-1-0.2-1.5
		c-0.1-2.3-0.2-4.6,0.2-7c0.3-2.2,0.9-4.3,2-6.2c0.6-1,1.3-2,2.1-2.9c0.4-0.4,0.7-0.4,1.1,0c0.6,0.7,1,1.4,1.3,2.3
		c0.5,1.5,0.5,3.1,0.1,4.6c-0.3,1.5-1,2.8-1.7,4.2c-0.5,1-1.1,2-1.7,2.9c-0.7,1.1-1.2,2.3-1.7,3.6c-0.2,0.5-0.3,1-0.2,1.6
		c0.2,1.1,0.4,2.3,0.6,3.4c0.4,1.9,0.7,3.9,1.1,5.8c0.2,0.9,0.3,1.9,0.4,2.8c0,0.3,0.2,0.5,0.5,0.6c0.4,0.1,0.8,0.2,1.3,0.3
		c2.1,0.4,4.1,1,6,1.9c0.3,0.1,0.5,0.2,0.8,0.2c0.8,0.1,1.7,0.3,2.5,0.5c2.4,0.6,4.6,1.7,6.6,3.1c0.2,0.1,0.3,0.4,0.7,0.3
		c0-0.1,0.1-0.2,0.1-0.3c0.2-1.3,0.4-2.6,0.6-3.9c0.4-3,0.6-5.9,0.7-8.9c0.1-3.4,0.1-6.8-0.1-10.3c-0.2-2.9-0.4-5.7-0.8-8.5
		c-0.3-2.4-0.8-4.7-1.4-7c-1.4-5.3-4.1-9.9-8.2-13.6c-1.9-1.7-3.9-3.3-6.1-4.7c-3.6-2.4-7.4-4.4-11.3-6.4c-0.4-0.2-0.8-0.4-1.2-0.5
		c-0.2-0.1-0.4-0.2-0.6-0.1c-0.2,0.2-0.2,0.4-0.3,0.6c-0.6,1.5-1.4,2.8-2.5,4c-0.6,0.7-1.2,1.3-1.8,2c-0.7,0.7-1.4,1.5-2,2.2
		c-1.1,1.3-2.1,2.6-2.7,4.3c-0.1,0.3-0.2,0.5-0.6,0.6c-0.3,0-0.5-0.2-0.6-0.6c-0.2-0.8-0.6-1.7-1.1-2.4c-0.6-1-1.4-1.8-2.5-2.3
		c-1.9-1-4-0.5-5.3,1.1c-0.3,0.4-0.5,0.8-0.5,1.4c0,0.4,0,0.9-0.1,1.3c0,0.2-0.1,0.4-0.1,0.6c-0.1,0.2-0.2,0.3-0.4,0.3
		c-0.2,0-0.4-0.1-0.5-0.2c-0.1-0.2-0.2-0.4-0.2-0.6c-0.1-0.6-0.1-1.2,0.1-1.8c0.2-0.6,0.2-1.2,0.2-1.8c0-0.4-0.1-0.8-0.1-1.2
		c-0.1-1.7-0.4-3.4-0.8-5c-0.1-0.2-0.1-0.5-0.3-0.7c0,0.1,0,0.2,0,0.3c0.1,1.3,0.2,2.7,0.3,4c0.2,2.5,0.3,5.1,0.4,7.6
		c0,0.3,0.1,0.6,0.1,0.8c0,0.7,0.1,1.3,0.1,2c0,0.3-0.2,0.5-0.4,0.5c-0.3,0-0.5-0.1-0.6-0.4c0-0.1,0-0.2-0.1-0.4
		c-0.7-3.6-2.8-6-6.2-7.4c-0.2-0.1-0.4-0.1-0.6-0.2c-0.3-0.1-0.4-0.4-0.3-0.7c0.1-0.4,0.3-0.8,0.4-1.2c0.1-0.1,0.2-0.3,0-0.4
		c-0.9,0.4-1.8,0.8-2.6,1.2c-1.3,0.6-2.6,1.1-3.9,1.7c-1,0.5-2,1-2.9,1.7c-1.6,1.2-2.8,2.7-3.6,4.5c-0.5,1.1-0.8,2.3-1,3.5
		c-0.3,1.9-0.7,3.9-1,5.8c-0.5,3.3-1.1,6.7-1.6,10c-0.6,3.9-1.3,7.7-1.9,11.6c-0.1,0.8-0.3,1.7-0.2,2.5c0.1,1.1,0.4,2.1,1.1,2.9
		c0.2,0.2,0.4,0.3,0.7,0.2c0.3-0.1,0.6-0.2,0.9-0.2c0.9-0.2,1.8-0.3,2.7,0c0.7,0.2,1.2-0.1,1.7-0.6c0.3-0.3,0.4-0.6,0.5-1
		c0.3-1.1,0.5-2.1,0.4-3.3c0-3.5-0.4-6.9-0.7-10.4c-0.1-0.8-0.1-1.6-0.2-2.4c-0.2-2.3-0.3-4.7-0.3-7.1c0-1,0.1-2.1,0.3-3.1
		c0.2-1,0.6-1.9,1.2-2.6c0.2-0.2,0.4-0.5,0.7-0.6c0.8-0.5,1.6-0.3,2.1,0.5c0.1,0.3,0.3,0.6,0.3,0.9c0.3,1.2,0.5,2.4,0.6,3.7
		c0.1,2-0.2,4-0.5,6c-0.3,1.8-0.6,3.5-0.8,5.3c-0.5,3.1-1,6.3-1.5,9.4c-0.1,0.8-0.2,1.5-0.2,2.3c0,2.3-0.1,4.6-0.4,6.8
		c-0.1,0.6-0.2,1.2-0.3,1.8c0,0.3-0.1,0.5-0.4,0.6c-0.3,0.1-0.5-0.1-0.7-0.3c-0.4-0.4-0.8-0.8-1.2-1.2c-0.7-0.5-1.4-0.9-2.1-1.3
		c-0.8-0.5-1.5-1-2.3-1.4c-0.2-0.1-0.3-0.3-0.6-0.3c-0.7,0.3-1.3,0.6-1.9,1.2c-0.2,0.2-0.5,0.4-0.5,0.8c0,0,0.1,0.1,0.1,0.1
		c0.2,0,0.4,0,0.6,0c1.8,0,3.5,0.5,5,1.5c1.7,1.2,2.8,2.8,3.2,4.8c0.1,0.5,0.1,0.9,0.1,1.4c0,0.3,0.1,0.4,0.4,0.5c0.2,0,0.3,0,0.5,0
		c0.7,0,1.3,0.1,2,0.1c1.7,0.1,3.4,0,5.1-0.1c0.5,0,1.1-0.2,1.5-0.5c0.4-0.3,0.5-0.7,0.3-1.2c-0.1-0.2-0.2-0.4-0.4-0.6
		c-0.3-0.3-0.6-0.6-0.9-0.9c-0.6-0.5-1.2-1-1.8-1.5c-0.5-0.4-1-0.9-1.4-1.4c-0.7-1-1-2-0.8-3.2c0.1-0.5,0.3-1,0.6-1.4
		c0.2-0.2,0.5-0.3,0.8-0.2c0.1,0,0.3,0.1,0.4,0.2c1.3,0.6,2.6,1.2,3.9,1.9c2.8,1.4,5.4,3.3,7.4,5.7c0.5,0.6,1.1,1.2,1.7,1.7
		c1,0.9,2.2,1.5,3.5,1.8c1.5,0.4,3.1,0.4,4.7,0.3c2.2-0.2,4.4-0.5,6.5-0.7c4.2-0.5,8.2,0.5,11.8,2.8c0.3,0.2,0.5,0.4,0.8,0.5
		c0.1,0.1,0.2,0.2,0.3,0c-0.1-0.2-0.3-0.5-0.5-0.8c-0.5-0.7-1-1.3-1.4-2c-0.3-0.5-0.2-0.8,0.3-1c0.1-0.1,0.3-0.1,0.4-0.2
		c0.9-0.3,1.8-0.4,2.7-0.4c2.3-0.1,4.4,0.5,6.3,1.8c3.5,2.4,5.1,7,4.1,10.9c-0.2,0.6-0.3,1.2-0.7,1.7c-0.7,1.1-1.8,1.6-3.1,1.3
		c-1-0.2-1.8-0.8-2.5-1.6c-0.5-0.6-0.8-1.3-1.2-1.9C346.1,163.1,346,162.8,345.7,162.6z M434.4,170.5c-0.1-0.3-0.1-0.6-0.2-0.8
		c-0.7-2.3-1.4-4.6-2.1-6.9c-0.5-1.7-1-3.5-1.6-5.2c-0.2-0.7-0.1-1.1,0.4-1.6c0.2-0.2,0.4-0.5,0.6-0.7c0.2-0.2,0.2-0.4,0.1-0.6
		c-0.1-0.2-0.1-0.4-0.2-0.5c-1.3-3.9-2.6-7.8-3.8-11.7c-0.7-2.1-1.5-4.2-2-6.4c-0.2-0.6-0.5-1.2-0.9-1.7c-0.7-0.8-1.5-1.3-2.6-1.4
		c-0.2,0-0.4,0-0.7,0c-15.9,0-31.8,0-47.6,0c-0.5,0-1,0-1.5-0.1c-0.5,0-0.9,0-1.4,0.1c-0.9,0.2-1.4,0.9-1.2,1.8
		c0.1,0.4,0.2,0.8,0.3,1.2c3.8,9.6,7.6,19.1,11.4,28.7c0.3,0.7,0.7,1.3,1.2,1.9c1.4,1.5,3.2,2.3,5.3,2.4c2,0.1,4,0.1,6,0.2
		c0.5,0,1,0,1.5,0.1c1.5,0.1,2.9,0.1,4.4,0.1c0.3,0,0.5,0,0.7-0.2c0.4-0.3,0.9-0.4,1.4-0.3c0.5,0.1,0.9,0.1,1.4,0.3
		c1,0.3,2,0.4,3.1,0.5c3.6,0.1,7.1,0.3,10.7,0.4c2.7,0.1,5.5,0.2,8.2,0.3c0.2,0,0.3,0,0.5,0c2.6,0.1,5.1,0.2,7.7,0.3
		C433.7,170.6,434,170.7,434.4,170.5z M209.6,131.1c-0.3-0.1-0.5-0.1-0.7-0.2c-0.6-0.3-0.8-0.9-0.4-1.5c0.5-0.7,1.1-1.2,1.7-1.7
		c2.4-1.8,5.2-2.5,8.2-2c0.1,0,0.2,0,0.4,0c0,0,0.1,0,0.1-0.1c0,0,0-0.1,0-0.2c-0.2-0.4-0.6-0.5-0.9-0.6c-0.5-0.1-1-0.2-1.5-0.3
		c-0.4-0.1-0.8-0.1-1.2-0.2c-0.3-0.1-0.6-0.2-0.9-0.4c-0.7-0.5-0.7-1.9,0.3-2.2c0.5-0.1,1-0.3,1.5-0.4c1.7-0.2,3.3,0,4.8,0.7
		c0.4,0.2,0.7,0.2,1.1-0.1c1.3-1.2,2.6-2.4,3.9-3.7c0.2-0.2,0.3-0.3,0.5-0.5c0.1-0.1,0.3-0.2,0.4-0.1c0.8,0.3,1.4,1.3,1.2,2
		c-0.1,0.4-0.4,0.7-0.6,1c-0.9,1-1.8,2-2.8,2.9c-0.2,0.2-0.3,0.4-0.5,0.6c-0.1,0.1-0.1,0.3,0,0.4c0.1,0.2,0.2,0.4,0.4,0.6
		c0.8,1.4,1.2,2.9,1.3,4.5c0,1.1-0.1,2.1-0.4,3.2c-0.1,0.5-0.2,1-0.2,1.6c0,0.1,0,0.3,0.2,0.4c0.1,0,0.2-0.1,0.2-0.1
		c0.2-0.2,0.4-0.3,0.6-0.5c1.2-1.1,1.9-2.4,2.5-3.8c0.9-2.5,1.1-5.1,0.7-7.8c-0.3-2-0.9-3.9-1.5-5.7c-0.6-1.8-1.3-3.5-1.9-5.3
		c-1.3-3.7-2-7.4-2-11.3c0-0.8-0.1-1.7-0.1-2.5c-0.1-0.9-0.3-1.8-0.5-2.7c-0.1-0.6-0.5-1-1-1.3c-0.7-0.4-1.4-0.6-2.1-0.8
		c-0.1,0-0.2,0-0.3,0c-0.1,0-0.2,0.1-0.3,0.2c-0.1,0.4-0.2,0.8-0.4,1.2c-0.1,0.4-0.1,0.7-0.1,1.1c0.1,0.6,0.2,1.2,0.2,1.8
		c0.1,1.9,0.1,3.9-0.2,5.8c-0.2,1.7-0.6,3.3-1.3,4.8c-1.8,3.6-4.7,5.5-8.7,5.7c-2.9,0.1-5.5-0.6-8-2.1c-1.5-0.9-2.8-1.9-4-3.1
		c-1.5-1.4-2.8-3-4-4.6c-1.9-2.5-3.9-5-5.9-7.5c-0.2-0.3-0.4-0.4-0.8-0.4c-1.5,0-3,0-4.4,0c-0.2,0-0.3,0-0.4,0.1c0,0.1,0,0.1,0,0.2
		c0.1,0.2,0.2,0.4,0.3,0.7c1.3,2.3,2.3,4.7,3.2,7.2c1.8,5.2,2.6,10.5,3,16c0.1,1.8,0.2,3.7,0.2,5.5c0,2.7,0,5.5,0,8.2
		c0,0.3,0,0.6-0.1,0.8c-0.1,0.2-0.2,0.3-0.4,0.3c-0.2,0-0.5-0.1-0.5-0.3c-0.1-0.3-0.1-0.5-0.2-0.8c-0.5-3-0.9-6-1.3-8.9
		c-0.4-2.7-0.7-5.5-1.1-8.2c-0.5-3-1.1-6.1-1.9-9c-1-3.5-2.3-6.8-4.1-9.9c-0.2-0.4-0.4-0.7-0.7-1c-0.5-0.6-1.1-0.8-1.9-0.6
		c-0.4,0.1-0.8,0.3-1.2,0.6c-0.4,0.3-0.8,0.7-1.1,1.1c-0.8,1-1.3,2.3-1.7,3.5c-0.5,1.8-0.6,3.6-0.7,5.4c-0.1,3.1-0.2,6.3,0.1,9.4
		c0.2,2.5,0.5,4.9,1,7.4c0.7,3.4,1.7,6.7,3.2,9.9c0.5,1.2,1.2,2.4,1.8,3.5c0.2,0.3,0.3,0.4,0.7,0.4c1.2-0.2,2.3-0.2,3.5-0.2
		c1.7-0.1,3.3-0.2,5-0.3c1.6-0.1,3.2-0.2,4.8-0.2c1.2-0.1,2.3-0.1,3.5-0.2c2.6-0.2,5.3-0.3,7.9-0.5c1.7-0.1,3.4-0.2,5.1-0.3
		c1.3-0.1,2.6-0.1,3.9-0.2c0.5-0.1,1,0,1.4,0.3c1.3,0.8,2.6,1.6,3.9,2.3c1.7,1,3.4,2.1,5,3.1c0.2,0.1,0.3,0.3,0.5,0.2
		c0.1-0.2,0-0.3-0.1-0.4c-0.3-0.6-0.6-1.2-1-1.7c-0.3-0.5-0.6-1-0.9-1.4c-0.5-0.6-1.1-1-1.9-1.2c-1.4-0.3-2.8-0.7-4.2-0.9
		c-0.4-0.1-0.9-0.2-1.2-0.4c-0.4-0.2-0.6-0.5-0.8-0.9c-0.1-0.6,0.1-0.9,0.6-1c0.6-0.1,1.1-0.2,1.7-0.2c0.6-0.1,1.1-0.2,1.7-0.2
		c0,0,0.1-0.1,0.1-0.1c-0.1-0.2-0.2-0.2-0.3-0.2c-0.7-0.1-1.4-0.1-2.1,0c-0.7,0.1-1.5,0.2-2.2,0.4c-0.3,0-0.6,0.1-0.8,0.1
		C210,132.9,209.2,132.5,209.6,131.1z M448.4,169.4c1.2,0.1,2.2,0.2,3.2,0.2c1.3,0.1,2.6,0.1,3.9,0.2c0.5,0,0.7,0.2,0.7,0.6
		c0,0.8,0,1.5,0,2.3c0,0.3-0.2,0.5-0.5,0.5c-0.1,0-0.3,0-0.4,0c-1.8,0-3.6,0.1-5.4,0.1c-3,0-6.1,0.1-9.1,0.1c-1.3,0-1.3,0-1.9,1.3
		c0,0,0,0.1,0,0.1c-0.7,1.8-1.3,3.6-1.8,5.4c-0.1,0.2-0.1,0.4-0.1,0.6c0.2,1.8,0.2,3.6,0.1,5.5c-0.1,1.2-0.3,2.4-0.5,3.5
		c-0.1,0.5-0.3,0.9-0.7,1.3c-0.3,0.4-0.7,0.5-1.2,0.5c-0.5,0-0.7-0.2-0.7-0.8c0.1-1,0.2-2.1,0.3-3.1c0.3-2.3,0.7-4.5,1.3-6.7
		c0.1-0.5,0.2-0.9,0.1-1.4c0-0.1,0-0.2-0.2-0.2c-0.1,0.1-0.1,0.3-0.2,0.4c-0.3,2-1,3.9-2.5,5.3c-0.6,0.6-0.8,1.3-0.7,2.1
		c0.2,0.9,0.4,1.8,0.5,2.8c0.1,0.4,0.2,0.8,0.3,1.2c0.1,0.4,0.4,0.6,0.9,0.6c0.3,0,0.6,0,0.8,0c1.6-0.2,3.2-0.3,4.8-0.6
		c3.7-0.5,7.4-1.2,11.1-2.1c6-1.4,12-3.1,18-4.9c0.5-0.1,0.9-0.3,1.3-0.5c1-0.4,1.8-1.1,2.4-2.1c0.2-0.3,0.4-0.7,0.6-1.1
		c0.2-0.4,0.3-0.8,0.3-1.3c-0.1-1.3-0.1-2.6,0-4c0.1-2.3,0.6-4.5,1.5-6.7c0.6-1.4,1.2-2.8,1.8-4.2c0.4-1,0.9-2,1.2-3.1
		c0.4-1.4,0.7-2.9,0.6-4.4c0-0.8-0.2-1.5-0.3-2.2c-0.2-1.4-0.4-2.7-0.3-4.1c0.1-1.5,0.6-2.8,1.5-3.9c0.4-0.4,0.8-0.8,1.1-1.2
		c1.3-1.4,2.3-3,3-4.7c1.4-3.4,1.8-7,1.2-10.6c-0.3-2-0.9-4-1.6-5.9c-0.6-1.5-1.3-2.9-2.1-4.3c-0.6-1.1-1.1-1.7-2.9-1.3
		c-0.7,0.2-1.4,0.4-2,0.7c-1,0.5-1.9,1.1-2.8,1.9c-2.4,2-4.2,4.4-5.8,7c-1.9,3.2-3.2,6.7-4.2,10.3c-0.9,3.5-1.6,7-1.9,10.5
		c-0.3,2.9-0.4,5.8-0.4,8.6c0,0.2,0,0.4,0,0.6c0,0.1,0.1,0.2,0.2,0.2c0.2,0,0.4,0,0.6,0c1-0.1,1.9,0.1,2.9,0.4
		c0.9,0.3,1.8,0.8,2.7,1.3c0.2,0.1,0.3,0.2,0.5,0.3c0.6,0.6,0.6,1.5-0.2,2c-0.4,0.3-0.8,0.4-1.3,0.4c-1.3,0.1-2.6-0.1-3.8-0.6
		c-1-0.4-1.8-1-2.2-1.9c-0.2-0.4-0.3-0.4-0.6-0.1c-0.4,0.3-0.6,0.7-0.8,1.2c-0.3,0.8-0.3,1.7,0,2.5c0.1,0.4,0.3,0.4,0.6,0.3
		c0.2-0.1,0.5-0.1,0.7-0.1c1.3-0.2,2.6,0.1,3.7,0.9c0.5,0.3,1,0.8,1.4,1.2c0.9,1,1.7,2.2,2.3,3.4c0.2,0.3,0.3,0.6,0.3,1
		c0,0.7-0.4,1.2-1.1,1.3c-0.5,0.1-1.1-0.1-1.5-0.3c-2.5-1.4-4.8-3.1-6.5-5.5c-0.1-0.1-0.2-0.3-0.5-0.4c-0.5,0.2-0.9,0.4-1.4,0.6
		c-1.2,0.5-2.4,0.9-3.6,1.2c-1,0.3-2.1,0.5-3.1,0.8C449.7,169,449.2,169.1,448.4,169.4z M458.1,165.2c-0.1-0.4-0.2-0.8-0.3-1.2
		c-0.2-1.7,0.1-3.2,1.5-4.3c0.7-0.5,0.6-0.5,0.6-1.3c0-0.2,0-0.3,0-0.5c0-2.5,0-5,0.2-7.4c0.2-2.2,0.5-4.3,0.9-6.4
		c0.7-3.6,1.5-7,2.9-10.4c1.2-3.2,2.8-6.2,4.9-8.9c1.4-1.8,3-3.5,5-4.9c1.1-0.8,2.3-1.4,3.6-1.8c0.6-0.2,1.2-0.3,1.8-0.3
		c0.9,0,1.7,0.3,2.2,1c0.3,0.3,0.5,0.7,0.7,1c1.1,1.9,2,3.8,2.7,5.9c0.8,2.3,1.2,4.7,1.4,7.1c0.1,1.6-0.1,3.2-0.4,4.8
		c-0.7,3.5-2.1,6.6-4.7,9.2c-0.3,0.3-0.7,0.7-1,1c-0.7,0.8-1.1,1.8-1.2,2.8c-0.1,0.9,0,1.8,0,2.7c0.1,1.1,0.2,2.2,0.4,3.3
		c0.2,1.2,0,2.4-0.2,3.6c-0.3,1.7-1,3.3-1.7,4.9c-0.6,1.3-1.1,2.6-1.7,3.9c-1.1,2.5-1.5,5.2-1.6,7.9c0,0.1,0,0.2,0,0.3
		c0.2,0,0.3-0.2,0.3-0.3c0.6-1.5,1.2-3,1.8-4.4c2.9-7.1,5.6-14.3,7.9-21.6c1.5-4.8,2.8-9.6,3.4-14.6c0.2-1.9,0.3-3.8,0.2-5.6
		c0-0.4-0.1-0.8-0.1-1.1c0-1.7-0.3-3.3-0.6-4.9c-0.7-3.3-2.2-6.2-4.6-8.7c-3.8-3.7-7.7-7.3-11.9-10.5c-1.5-1.2-3.1-2.3-4.7-3.5
		c-0.2-0.1-0.3-0.3-0.6-0.2c-0.1,0.3,0,0.5,0,0.8c0,0.5,0.1,0.9,0,1.4c-0.2,3.2-1.4,6.1-3.2,8.7c-0.2,0.3-0.5,0.5-0.8,0.5
		c-1.2,0.2-2.5,0.5-3.7,0.8c-0.3,0.1-0.7,0.1-1,0.3c0,0.1,0.1,0.3,0.1,0.4c0.5,1.2,1.2,2.3,2,3.3c0.7,0.9,0.8,0.8,0.1,1.9
		c-5.4,8.6-11.2,17-17.5,24.9c-2.7,3.4-5.4,6.7-8.3,10c-0.4,0.4-0.4,0.8-0.2,1.3c0.9,2.6,1.7,5.1,2.5,7.7c0.5,1.6,1,3.2,1.5,4.7
		c0.1,0.4,0.3,0.6,0.7,0.6c0.1,0,0.2,0,0.3,0c1.9,0.1,3.9,0.2,5.8,0.3c0.4,0,0.7,0,1-0.1c1.5-0.5,3-0.8,4.5-1.1
		c1.7-0.4,3.4-0.8,5.1-1.3C455.8,166.3,456.9,165.8,458.1,165.2z M449.7,65.8c-0.3,0-0.5,0.2-0.8,0.4c-3.9,2.1-8.1,2.8-12.5,2
		c-0.6-0.1-1.1-0.2-1.6-0.4c-0.2,0-0.4,0-0.5,0.2c-0.1,0.1-0.1,0.2-0.2,0.3c-1.5,2.5-2.4,5.1-2.6,8c0,0.2,0,0.5-0.1,0.6
		c-0.2,0.4-0.1,0.8-0.1,1.2c0.1,1.3,0.4,2.5,0.7,3.8c0.5,2.2,0.8,4.4,0.8,6.7c0,0.5,0,0.9,0,1.4c0,1.7,0.3,3.3,0.8,4.9
		c0.9,3,2.5,5.5,5.1,7.3c0.5,0.4,1,0.7,1.5,1.1c0.7,0.5,1.2,1.1,1.7,1.9c0.6,1,0.9,2.1,0.5,3.2c0,0.1,0,0.1,0.1,0.2
		c0.6,0.1,1.2-0.2,1.9-0.3c0.8-0.1,1.4-0.4,1.9-1c0.2-0.2,0.5-0.4,0.7-0.6c1.7-1.5,3.4-2.9,5.2-4.2c1.1-0.8,2.2-1.6,3.2-2.6
		c2.1-2.2,3.1-4.8,3.2-7.8c0-1-0.1-2.1-0.4-3.1c-0.1-0.5,0-0.8,0.4-1c1.1-0.7,1.7-1.7,2.1-2.9c0.1-0.1,0.1-0.3,0.1-0.4
		c0.5-1.9,0.6-3.8,0.5-5.7c0-0.2,0-0.4-0.1-0.6c-0.1-0.4-0.4-0.6-0.7-0.6c-0.6-0.1-1.1,0.1-1.5,0.6c-0.3,0.3-0.5,0.7-0.6,1.2
		c-0.1,0.5-0.2,1-0.2,1.5c0,0.3-0.2,0.6-0.5,0.6c-0.8,0.1-1.5,0.3-2.3,0.4c-0.3,0-0.6-0.3-0.6-0.6c0-0.2,0.1-0.3,0.1-0.5
		c0.4-1.5-0.2-2.8-1.1-3.4c-0.8-0.5-1-1.1-0.9-2c0.1-0.6,0.2-1.2,0.2-1.9c0-2.7-0.9-5.2-2.7-7.2C450.2,66.2,450,65.9,449.7,65.8z
		 M202.1,75.9c-0.5,1.6-1.1,3-1.7,4.5c-0.1,0.3,0,0.5,0.1,0.7c0.3,0.9,0.5,1.8,0.6,2.7c0.2,1.9,0,3.8-0.8,5.5
		c-0.7,1.8-2.1,2.9-4,3.2c-1,0.2-2,0.3-3,0.4c-0.9,0.1-0.9,0-1.2,0.9c0,0.1-0.1,0.2-0.1,0.3c-0.2,0.3-0.1,0.7,0,1
		c1,2.2,2.2,4.4,3.7,6.3c0.8,1.1,1.7,2,2.7,2.9c2.8,2.4,5.9,3.4,9.6,3c2.2-0.3,4.1-1.2,5.5-3c0.8-1,1.5-2.1,1.9-3.3
		c0.7-1.8,1.3-3.6,2.1-5.5c0.2-0.6,0.1-1-0.2-1.5c-0.3-0.5-0.8-0.9-1.3-1.1c-0.4-0.1-0.7-0.2-1.1-0.4c-0.4-0.1-0.8-0.3-1.2-0.5
		c-0.7-0.5-1-1.1-1-2c0-0.8,0.6-1.4,1.3-1.4c0.7,0,1.4,0,2.1,0c0.5,0,1,0.1,1.5,0c1.4,0,2.4-0.9,2.7-2.2c0.1-0.4,0.1-0.9,0.1-1.3
		c0-0.5,0-1.1,0-1.6c0-0.6,0.1-1.2,0.3-1.8c0.3-1,0.9-1.9,2-2.2c0.7-0.2,0.9-0.8,0.6-1.5c-0.2-0.3-0.4-0.6-0.6-0.9
		c-0.7-0.9-1.3-1.8-1.7-2.8c-0.3-0.6-0.4-1.3-0.5-2c-0.1-1.2,0.1-2.4,0.5-3.5c0.3-1,0.4-2,0.3-3.1c-0.2-1.2-0.4-2.3-0.9-3.4
		c-0.1-0.3-0.3-0.6-0.5-0.9c-0.1-0.2-0.3-0.3-0.4-0.5c-0.4-0.3-0.8-0.4-1.3-0.2c-0.5,0.2-1,0.6-1.3,1.1c-0.5,0.6-0.9,1.3-1.2,2
		c-0.4,0.8-0.8,1.7-1.1,2.5c-0.4,0.8-0.8,1.6-1.3,2.3c-0.7,1-1.6,1.8-2.7,2.3c-0.4,0.2-0.9,0.4-1.3,0.6c-0.8,0.3-1.4,0.9-2,1.6
		c-0.3,0.4-0.6,0.9-1,1.3c-0.3,0.5-0.7,0.9-1.2,1.2c-0.7,0.5-1.4,0.7-2.2,0.5C202.6,76,202.4,76,202.1,75.9z M295.2,164
		c-0.1,0.5,0,1,0,1.4c0.2,2,0.5,4,0.7,6c0.2,1.7,0.6,3.3,1,5c0.3,1.1,0.2,1,1.3,1c2.5,0,5,0,7.5,0.1c3.2,0.1,6.4,0.2,9.6,0.3
		c4.6,0.1,9.2,0,13.8-0.3c2.2-0.2,4.4-0.4,6.6-0.7c2.2-0.3,4.5-0.6,6.7-1.1c1.4-0.3,2.8-0.6,4.2-0.9c0.4-0.1,0.5-0.2,0.4-0.6
		c-0.4-1.7-0.9-3.4-1.4-5.1c-0.1-0.2-0.2-0.5-0.2-0.7c-0.3-0.7-0.8-1.1-1.5-1.3c-0.3-0.1-0.7-0.2-1-0.2c-1.2-0.2-2.4-0.3-3.5-0.4
		c-1.2-0.1-2.4-0.3-3.6-0.4c-1.9-0.2-3.8-0.5-5.7-0.7c-1.2-0.2-2.5-0.3-3.7-0.4c-1.8-0.2-3.6-0.4-5.4-0.7c-1.9-0.2-3.7-0.4-5.6-0.7
		c-2.1-0.2-4.2-0.3-6.4,0.2c-1.6,0.3-3.2,0.7-4.8,0.9c-1.8,0.2-3.7,0.2-5.5,0C297.5,164.5,296.4,164.3,295.2,164z M444.6,117.2
		c-0.4,1.3-0.5,2.6-0.8,3.8c-0.5,1.8-1,3.6-1.5,5.3c-2.3,7-5.5,13.4-9.8,19.4c-0.1,0.2-0.3,0.4-0.5,0.6c-0.2,0.3-0.6,0.3-0.8,0
		c-0.4-0.3-0.7-0.7-0.9-1.2c-0.7-1.4-0.9-2.9-0.7-4.4c0.2-1.3,0.6-2.6,1.2-3.9c0.9-2,1.8-3.9,2.7-5.9c1.4-3,2.7-6,4.1-9
		c0.5-1,1-2,1.8-2.7c0.2-0.2,0.2-0.3,0.3-0.6c0-0.5,0-1,0.1-1.5c0.2-1.4,0.4-2.9,0.5-4.3c0.1-0.5,0.1-1.1,0.2-1.6
		c0-0.4,0.2-0.6,0.6-0.8c0.4-0.1,0.8-0.3,1.2-0.4c0.2-0.1,0.5-0.1,0.6-0.3c-0.4-0.1-0.7,0.1-1,0.1c-1,0-1.6,0.5-1.9,1.4
		c-0.1,0.1-0.1,0.3-0.2,0.4c-0.9,2.2-1.6,4.4-1.9,6.8c0,0.3-0.1,0.7-0.2,1c0,0.2-0.2,0.3-0.4,0.4c-0.2,0-0.5-0.1-0.5-0.3
		c-0.1-0.1-0.1-0.3-0.1-0.4c-0.2-1.1-0.3-2.2-0.4-3.3c0-0.6-0.1-1.2-0.2-2c-0.1,0.5-0.2,0.7-0.3,1c-1.1,4.6-2.4,9.1-3.8,13.6
		c-1,3.2-2.1,6.4-3.2,9.5c-0.2,0.5-0.4,0.9-1,0.8c0,0-0.1,0.1-0.2,0.2c1.6,4.9,3.2,9.8,4.8,14.7c0,0,0.1,0.1,0.1,0.1
		c0.2-0.1,0.3-0.3,0.5-0.4c0.9-1,1.7-2.1,2.6-3.1c8.1-9.7,15.5-19.8,22.2-30.5c0.7-1.1,0.7-0.8-0.1-1.8c-0.9-1.2-1.6-2.4-2.1-3.8
		c-0.2-0.6-0.1-1,0.5-1.1c0.2,0,0.4-0.1,0.6-0.1c1.3-0.3,2.6-0.6,3.9-0.8c0.5-0.1,0.9-0.4,1.2-0.8c1.4-2.1,2.3-4.4,2.6-6.9
		c0.1-1.2,0-2.4-0.3-3.5c-0.1-0.2-0.1-0.4-0.3-0.6c-0.7-0.5-1.5-1-2.2-1.4c-0.2-0.1-0.4-0.1-0.5,0.1c-0.2,0.2-0.4,0.4-0.6,0.6
		c-1.3,1.6-2.7,3-4.3,4.3c-0.5,0.4-0.9,0.8-1.2,1.3c-2.7,4.1-5.6,8.1-8.6,12c-0.2,0.2-0.3,0.4-0.5,0.6c-0.2,0.2-0.5,0.1-0.7,0
		C445,117.7,445,117.3,444.6,117.2z M344.9,166.1c0-0.1,0-0.3,0-0.4c-0.1-0.6-0.1-1.1-0.2-1.7c-0.2-1.7-0.6-3.3-1.2-4.8
		c-0.1-0.3-0.3-0.6-0.5-0.8c-3.9-3.9-8.5-5.6-14-5.1c-2.2,0.2-4.4,0.6-6.6,0.8c-1.2,0.1-2.3,0.1-3.5,0c-2.4-0.3-4.5-1.3-6.2-3
		c-0.6-0.6-1.1-1.2-1.7-1.8c-0.8-0.8-1.6-1.6-2.5-2.3c-1.6-1.2-3.4-2.2-5.2-3.1c-0.8-0.4-1.5-0.7-2.3-1.1c-0.3-0.2-0.5-0.1-0.6,0.3
		c-0.2,1.1,0.1,2,0.8,2.8c0.5,0.6,1,1,1.6,1.5c0.5,0.4,1,0.8,1.5,1.2c0.4,0.3,0.8,0.7,1.1,1.2c0.8,1.2,0.5,2.5-0.8,3.2
		c-0.5,0.3-1.1,0.4-1.7,0.5c-1.5,0.1-3.1,0.2-4.6,0.2c-1-0.1-2.1-0.1-3.1-0.2c-0.3,0-0.4,0-0.4,0.4c-0.2,0.7-0.4,1.4-0.8,2
		c-0.2,0.4-0.2,0.8-0.1,1.2c0.3,1,0.6,2.1,0.8,3.2c0.1,0.7,0.2,1.5,0.4,2.2c0.1,0.4,0.2,0.5,0.6,0.6c1.4,0.3,2.8,0.6,4.2,0.7
		c2.6,0.2,5.1,0,7.7-0.7c2.2-0.6,4.5-0.9,6.8-0.6c1.9,0.2,3.9,0.4,5.8,0.6c1.8,0.2,3.7,0.4,5.5,0.7c1.8,0.2,3.6,0.4,5.3,0.6
		c1.8,0.2,3.6,0.5,5.4,0.7c1.8,0.2,3.6,0.4,5.4,0.6c0.7,0.1,1.5,0.2,2.2,0.3C344.1,165.9,344.5,166.1,344.9,166.1z M181.7,92.8
		c0.4,0,0.9,0,1.3-0.1c1.2-0.1,2.3-0.2,3.5-0.3c1.6-0.1,3.2-0.3,4.9-0.4c0.3,0,0.5-0.1,0.6-0.4c0.3-0.5,0.6-1,0.9-1.4
		c0.8-1.1,1.6-2.2,2.4-3.3c1.2-1.7,2.3-3.4,3.3-5.3c0.7-1.4,0.7-0.9,0-2.2c-0.3-0.7-0.7-1.4-0.8-2.2c-0.1-0.9,0.1-1.7,0.6-2.5
		c0.6-0.8,1.4-1.1,2.4-0.9c0.2,0,0.4,0.2,0.6,0.1c0.2-0.1,0.2-0.3,0.2-0.5c0.4-1.4,0.7-2.8,1.1-4.2c0.5-1.8,1.1-3.6,2.1-5.2
		c1.2-2.3,3-4,5.3-5.2c1.5-0.8,3.2-1.3,4.9-1.7c1.4-0.3,2.8-0.4,4.2,0.1c0.1,0,0.2,0,0.3,0c-0.1-0.2-0.2-0.4-0.3-0.5
		c-0.7-1-1.5-1.9-2.6-2.6c-0.9-0.6-2-1.1-3-1.5c-2.5-0.9-5.1-1.5-7.8-1.9c-1-0.1-2-0.1-3,0.1c-2.1,0.3-3.9,1.2-5.6,2.5
		c-1.8,1.4-3.3,3.2-4.5,5.2c-1.4,2.3-2.2,4.7-2.8,7.2c-0.7,3-1.1,6.1-1.5,9.2c-0.3,2.2-0.6,4.4-1,6.5c-0.4,1.8-0.9,3.7-1.6,5.4
		c-0.9,2.1-2.1,4-3.8,5.5C181.9,92.5,181.7,92.6,181.7,92.8z M289.8,151.3c0.1-0.2,0-0.3-0.1-0.4c-0.8-1.1-1.7-2-2.7-2.8
		c-0.2-0.2-0.4-0.3-0.6-0.4c-0.7-0.4-1.4-0.4-2.1,0.1c-0.4,0.2-0.7,0.5-1.1,0.8c-0.6,0.4-1.2,0.7-1.9,0.9c-1.3,0.3-2.5,0.1-3.7-0.3
		c-1.4-0.5-2.7-1.3-3.8-2.4c-0.8-0.8-1.5-1.6-2.2-2.4c-0.7-0.9-1.5-1.7-2.2-2.6c-0.3-0.4-0.7-0.7-1.1-1c-0.3-0.3-0.5-0.2-0.8,0.1
		c-0.3,0.3-0.4,0.7-0.4,1.1c-0.1,0.8,0.1,1.6,0.5,2.4c0.3,0.5,0.6,1.1,0.9,1.6c0.3,0.6,0.6,1.2,0.8,1.8c0.3,1.2,0.1,2.3-0.8,3.2
		c-0.4,0.4-0.8,0.7-1.2,1c-0.5,0.3-1,0.6-1.6,0.9c-0.5,0.3-1,0.6-1.4,0.9c-0.4,0.3-0.8,0.6-1,1.1c-0.3,0.5-0.2,1.1,0,1.6
		c0.2,0.5,0.6,0.7,1.1,0.7c0.1,0,0.1,0,0.2,0c0.2,0.1,0.4,0.3,0.4,0.5c0,0.1,0,0.2,0,0.3c-0.3,0.8,0,1.6,0.4,2.3
		c0.3,0.6,0.7,1,1.2,1.5c1.1,1.1,2.3,2,3.7,2.8c0.4,0.2,0.7,0.4,1.1,0.5c1.1,0.4,2.2,0.3,3.3-0.2c0.6-0.3,1.1-0.7,1.6-1.1
		c0.5-0.5,1-0.9,1.5-1.4c0.5-0.4,1-0.9,1.5-1.3c1-0.7,2-1.2,3.2-1.4c0.8-0.2,1.6-0.2,2.4-0.3c0.1,0,0.3,0,0.4-0.2
		c-0.2-0.2-0.4-0.4-0.7-0.6c-0.5-0.4-0.9-0.9-1.3-1.5c-0.3-0.5-0.6-1.1-0.7-1.7c-0.2-1.3,0.6-2.4,1.9-2.6c0.2,0,0.4,0.1,0.6-0.2
		c-0.1-0.3-0.2-0.6-0.3-1c-0.1-0.3-0.1-0.6-0.1-0.8c0-0.3,0.2-0.5,0.5-0.4c0.2,0,0.5,0.1,0.7,0.2c1,0.3,2,0.6,3,0.9
		C289.3,151.2,289.6,151.3,289.8,151.3z M233,141.2c-0.1,0.4,0,0.9,0.1,1.3c0.2,1.7,0.5,3.3,0.7,5c0.1,0.8,0.3,1.5,1,2
		c0.2,0.2,0.3,0.5,0.7,0.5c0.6-0.6,0.9-1.3,1.2-2c1.1-3.1,1.7-6.2,1.9-9.5c0.2-3,0.1-6-0.3-9c-0.4-2.9-0.9-5.8-1.5-8.7
		c-0.8-3.8-1.8-7.5-2.7-11.2c-0.5-2.1-1.1-4.1-1.8-6.1c-0.5-1.4-1.2-2.8-2-4c-0.6-0.9-1.4-1.7-2.3-2.4c-0.2-0.1-0.3-0.2-0.5-0.3
		c-0.1-0.1-0.3,0-0.3,0.1c0,0.2-0.1,0.5-0.1,0.7c0,1.3,0,2.6,0,4c0,2.9,0.5,5.8,1.3,8.6c0.8,2.7,1.6,5.4,2.4,8.1
		c0.7,2.6,1.4,5.2,1.9,7.9c0.3,1.9-0.1,3.6-1.3,5.1c-0.4,0.5-0.8,0.9-1.2,1.4c-0.3,0.4-0.6,0.7-0.9,1.1c-0.5,0.6-0.5,1.3-0.2,2.1
		c0.1,0.4,0.3,0.8,0.6,1.1c0.6,0.7,1.3,1.4,2,2c0.2,0.2,0.4,0.2,0.7,0.2c0.4-0.1,0.9-0.1,1.3-0.3c0.4-0.1,0.8-0.3,1.3-0.3
		c0.8,0,1.3,0.6,1.2,1.3c0,0.1-0.1,0.2-0.1,0.4c-0.3,1.3-0.8,1.5-2,1.1C233.6,141.3,233.4,141.1,233,141.2z M309.6,50.4
		c0.3,0.1,0.4,0,0.6,0c0.8-0.2,1.5-0.3,2.3-0.2c0.5,0.1,1,0.1,1.5,0.3c1,0.2,2.1,0.5,3.1,0.7c1.7,0.4,3.5,0.6,5.2,0.5
		c0.6-0.1,1.2-0.2,1.8-0.3c1.2-0.2,2.1,0.2,2.7,1.2c0.2,0.4,0.3,0.7,0.5,1.1c0.2,0.7,0.3,1.4,0.4,2.1c0.1,1.2,0.1,2.4,0.2,3.6
		c0.1,1.1,0.1,2.2,0.4,3.3c0.1,0.7,0.3,1.3,0.7,1.9c0.3,0.5,0.7,0.8,1.2,1c0.3,0.1,0.5,0,0.6-0.3c0.5-1.5,1.5-2.2,3-2.6
		c0.5-0.1,1-0.2,1.6,0c0.3,0.1,0.4,0,0.5-0.3c0,0,0-0.1,0-0.1c0.2-1.2,0.4-2.5,0.4-3.7c-0.1-2.3-0.6-4.5-1.6-6.6
		c-1.8-3.6-4.5-6.1-8.3-7.4c-2-0.6-4-0.8-6-0.7c-2.8,0.3-5.4,1.2-7.5,3.1C311.3,47.8,310.3,49,309.6,50.4z M398.2,171.6
		c0.1,0.3,0.4,0.5,0.6,0.7c0.7,0.6,1.5,1.1,2.2,1.6c0.9,0.6,1.8,1.1,2.7,1.7c1.4,0.9,2.5,2.1,3.4,3.4c0.4,0.6,0.8,1.2,1.2,1.8
		c0.4,0.6,0.9,1.2,1.5,1.7c0.9,0.8,1.9,1.2,3.1,1.2c0.9,0,1.9-0.1,2.8-0.3c3.1-0.8,6.2-1.7,9.4-2.5c0.8-0.2,1.6-0.5,2.4-0.8
		c0.8-0.3,1.5-0.7,2.2-1.1c0.7-0.5,1.3-1.1,1.7-1.8c0.2-0.3,0.2-0.5,0.1-0.8c-0.4-1.5-1.2-2.6-2.6-3.2c-0.3-0.1-0.7-0.3-1.1-0.4
		c-1-0.3-2-0.3-3-0.4c-2.9-0.3-5.8-0.2-8.7,0.2c-0.2,0-0.4,0.1-0.5,0.1c-0.3,0.1-0.3,0.4-0.2,0.6c0.2,0.4,0.6,0.6,0.9,0.8
		c1.4,0.9,3,1.5,4.6,1.9c0.2,0,0.4,0.1,0.5,0.1c0.2,0.1,0.3,0.3,0.3,0.5c0,0.2-0.2,0.4-0.4,0.4c-0.3,0-0.7,0-1-0.1
		c-1.8-0.3-3.5-0.8-5.2-1.5c-1.7-0.7-3.3-1.6-5-2.4c-1.4-0.7-2.8-1.4-4.2-2c-0.9-0.4-1.9-0.7-2.9-0.6c-0.4,0-0.8,0-1.2,0
		c-0.1,0-0.3,0-0.4,0c-0.1,0-0.2,0.1-0.1,0.2c0.1,0.2,0.3,0.4,0.5,0.6c0.5,0.4,1,0.8,1.5,1.1c0.7,0.4,1.3,0.8,1.9,1.2
		c0.2,0.1,0.3,0.2,0.4,0.3c0.2,0.2,0.2,0.5,0,0.7c-0.1,0.2-0.4,0.2-0.6,0.1c-0.2-0.1-0.4-0.2-0.6-0.3c-0.6-0.3-1.1-0.7-1.7-1
		c-1.4-0.9-2.8-1.5-4.4-2C398.4,171.5,398.3,171.6,398.2,171.6z M232.6,147.6c0.2-0.3,0.1-0.6,0-0.9c-0.2-1.2-0.3-2.4-0.5-3.6
		c-0.1-0.7-0.2-1.5-0.3-2.2c0-0.2-0.1-0.4-0.3-0.5c-1.1-0.6-1.9-1.6-2.8-2.5c-0.7-0.8-1.1-1.8-1-2.9c0-0.2,0.1-0.4-0.1-0.5
		c-0.2,0.2-0.4,0.4-0.7,0.6c-0.5,0.5-1.1,1-1.7,1.3c-0.3,0.2-0.6,0.1-0.8-0.2c-0.3-0.4-0.4-0.8-0.4-1.2c0-0.5,0-1.1,0.1-1.6
		c0.1-0.5,0.2-1,0.3-1.5c0.4-2.1,0.1-4.1-1-6c-0.1-0.1-0.1-0.4-0.4-0.4c-0.3,0.3-0.6,0.6-0.9,0.9c-0.6,0.6-1.4,0.9-2.3,0.7
		c-0.4-0.1-0.9-0.2-1.3-0.3c-3.2-0.7-6,0.1-8.4,2.3c-0.2,0.1-0.4,0.3-0.4,0.5c0.3,0.2,0.5-0.1,0.7-0.1c1-0.4,2-0.8,3-1.2
		c0.9-0.3,1.9-0.4,2.9-0.3c0.7,0.1,1.4,0.3,2,0.6c0.2,0.1,0.3,0.4,0.3,0.6c-0.1,0.2-0.2,0.4-0.5,0.4c-0.1,0-0.2,0-0.3,0
		c-0.6,0.1-1.1,0.1-1.7,0.2c-1.7,0.3-3.3,0.7-4.9,1.3c-0.2,0.1-0.5,0.2-0.7,0.4c-0.1,0.1,0,0.3,0.1,0.3c0.3,0.1,0.5,0.1,0.8,0.1
		c0.3-0.1,0.7-0.1,1-0.2c1.7-0.3,3.4-0.3,5.1,0c0.7,0.1,1.3,0.3,2,0.5c0.2,0.1,0.3,0.1,0.5,0.3c0.3,0.2,0.2,0.6-0.1,0.8
		c-0.1,0.1-0.3,0.1-0.4,0.1c-0.8,0.1-1.7,0.3-2.5,0.4c-1,0.1-1.9,0.3-2.9,0.4c0,0-0.1,0-0.1,0c0,0-0.1,0.1-0.1,0.1
		c0,0.1,0.1,0.2,0.1,0.2c1.5,0.3,2.9,0.6,4.4,0.9c1.2,0.3,2.1,0.9,2.8,1.9c0.5,0.7,0.9,1.5,1.4,2.2c0.3,0.6,0.7,1.2,1,1.8
		c0.7,1.1,1.6,2,2.7,2.7c1.9,1.1,3.7,2.2,5.5,3.4C232.3,147.5,232.5,147.5,232.6,147.6z M178.5,138.4c0,0.2,0.1,0.4,0.2,0.5
		c0.5,0.7,1,1.3,1.5,2.1c0.3,0.5,0.8,0.7,1.4,0.5c0.2-0.1,0.4-0.1,0.7-0.1c1.4-0.1,2.7-0.3,4.1-0.4c1.5-0.2,3-0.3,4.5-0.5
		c1.3-0.2,2.7-0.3,4-0.4c1.4-0.2,2.9-0.3,4.3-0.5c1.4-0.2,2.7-0.3,4.1-0.5c1.7-0.2,3.5-0.4,5.3-0.3c2,0,3.8,0.5,5.6,1.3
		c1.1,0.5,2.1,1.1,3.1,1.7c2.7,1.6,5.4,3.3,8.1,4.9c1.1,0.7,2.2,1.3,3.3,2c0.1,0.1,0.3,0.2,0.4,0.1c0-0.1-0.1-0.2-0.1-0.2
		c-1.1-1.2-2.2-2.4-3.3-3.6c-0.3-0.3-0.6-0.5-0.9-0.7c-2.6-1.6-5.2-3.2-7.7-4.8c-1.4-0.9-2.9-1.8-4.3-2.6c-0.3-0.2-0.7-0.3-1.1-0.3
		c-2.5,0.2-5.1,0.3-7.6,0.5c-1.7,0.1-3.4,0.2-5.2,0.3c-1.2,0.1-2.4,0.1-3.6,0.2c-2.7,0.2-5.4,0.3-8.2,0.5c-1.7,0.1-3.3,0.2-5,0.3
		c-0.9,0.1-1.9,0.1-2.8,0.2C179,138.2,178.7,138.2,178.5,138.4z M428.8,133.9c0.3-0.3,0.4-0.6,0.5-0.9c2.5-7.3,4.6-14.7,6.3-22.2
		c0.2-0.7,0.3-1.5,0.5-2.2c0.1-0.4,0.3-0.5,0.6-0.5c0.3,0,0.5,0.3,0.5,0.7c0,0.2,0,0.4,0,0.6c-0.1,1.7,0,3.4,0.1,5.1
		c0,0.2-0.1,0.4,0.1,0.6c0.2,0,0.2-0.2,0.3-0.4c0.3-0.8,0.5-1.6,0.8-2.3c0.2-0.6,0.5-1.2,0.8-1.8c0.4-0.9,1.1-1.4,2-1.7
		c0.2,0,0.4,0,0.5-0.2c0-0.1-0.2-0.2-0.3-0.3c-1.8-0.9-3.4-2.1-4.9-3.4c-0.1-0.1-0.2-0.2-0.5-0.2c0,0-0.1,0.1-0.2,0.2
		c-1.8,2.4-3.7,4.8-5.5,7.2c-0.1,0.1-0.2,0.2-0.1,0.5c0.5,0.3,1.1,0.5,1.5,1c0.3,0.3,0.5,0.5,0.7,0.9c0.2,0.3,0.1,0.6-0.1,0.8
		c-0.2,0.1-0.4,0.2-0.5,0.4c-1.1,0.7-2.3,1.5-3.4,2.2c-0.6,0.4-0.8,0.8-0.7,1.5c0,0.1,0,0.2,0,0.3c0.1,0.8,0.3,1.6,0.4,2.4
		c0.3,2.1,0.6,4.3,0.7,6.5C428.8,130.3,428.8,132.1,428.8,133.9z M431.5,145c1.8-1.9,5.9-9.3,7.9-14.1c1.5-3.7,3.2-9,3.2-10.3
		c-0.3-0.2-0.5-0.1-0.8-0.1c-0.4,0-0.8-0.1-1.1-0.2c-0.5-0.3-0.6-0.3-1,0.2c-0.3,0.3-0.5,0.7-0.7,1.1c-0.2,0.4-0.5,0.9-0.7,1.3
		c-2.1,4.5-4.1,9-6.2,13.5c-0.4,0.9-0.8,1.8-1.1,2.8c-0.3,1.1-0.6,2.1-0.5,3.2C430.7,143.3,430.9,144.2,431.5,145z M459.3,71.9
		c0.1-0.1,0.1-0.3,0.1-0.4c0-0.4,0-0.9-0.1-1.3c-0.6-3.6-2.5-6.3-5.6-8.2c-2.1-1.3-4.5-1.9-6.9-2.1c-2.3-0.2-4.6,0-6.9,0.6
		c-2,0.5-3.8,1.2-5.5,2.4c-1.6,1.2-2.8,2.8-3.3,4.8c-0.3,1-0.4,2-0.5,3.1c0,0.2,0,0.3,0.1,0.5c0.3-0.3,0.3-0.7,0.4-1
		c1.1-2.7,2.9-4.6,5.6-5.8c1.6-0.7,3.2-1.1,4.9-1.3c1.6-0.2,3.1-0.2,4.7,0c2.1,0.2,4.1,0.7,6,1.6c3.1,1.5,5.5,3.8,6.8,7
		C459.2,71.7,459.2,71.9,459.3,71.9z M341.1,152.6c0.1,0.2,0.2,0.3,0.2,0.4c1.1,1.5,2,3.1,2.7,4.8c0.1,0.3,0.3,0.6,0.6,0.9
		c0.8,1,1.4,2,2,3.1c0.2,0.5,0.5,1,0.7,1.5c0.3,0.5,0.5,1,0.9,1.4c0.5,0.5,1,0.9,1.7,1.1c0.8,0.2,1.5-0.1,2-0.8
		c0.2-0.3,0.4-0.7,0.5-1c0.4-1.3,0.5-2.7,0.2-4.1c-0.7-4.1-3.9-7.6-9.1-7.7C342.8,152.2,342,152.2,341.1,152.6z M174.3,139.1
		c-0.2-0.3-0.4-0.5-0.6-0.7c-0.9-0.9-1.8-1.6-2.8-2.4c-4-3.1-8.5-5.2-13.5-6.2c-0.8-0.2-1.7-0.3-2.5-0.3c-0.3,0-0.6,0-0.9,0.3
		c0.2,0.1,0.4,0.2,0.6,0.3c1.3,0.5,2.5,1.1,3.7,1.7c1.9,1,3.6,2.2,5.4,3.3c3.2,2.1,6.4,4.3,9.6,6.4c0.2,0.1,0.3,0.3,0.6,0.2
		C173.5,140.8,173.9,139.9,174.3,139.1z M306.5,57.6c-0.1,0.3-0.2,0.7-0.2,1c-0.4,2-0.5,4.1-0.5,6.2c-0.1,3.7,0.2,7.3,0.9,11
		c0.5,2.7,1.1,5.3,1.9,7.9c0.2,0.8,0.6,1.5,1.1,2.2c0.3,0.3,0.6,0.6,0.9,0.8c0.2,0.1,0.5,0.2,0.7,0.1c0.2,0,0.3-0.2,0.2-0.3
		c-0.3-0.8-0.6-1.6-1.2-2.3c-0.6-0.6-0.8-1.4-0.8-2.2c0-0.9,0-1.8,0.1-2.7c0-0.7,0-1.3-0.1-2c-0.1-0.6-0.3-1.2-0.9-1.6
		c-0.2-0.1-0.4-0.3-0.5-0.4c-0.5-0.4-0.8-1-0.9-1.6c-0.1-0.7,0-1.4,0.1-2c0.2-0.7,0.5-1.4,0.7-2.1c0.3-0.7,0.5-1.4,0.7-2.1
		c0.3-1.1,0.2-2.2-0.4-3.3c-0.6-0.9-0.9-1.9-1.2-2.9C306.8,60,306.7,58.8,306.5,57.6z M296.1,130c0.2-1,0.3-1.9,0.5-2.9
		c0.4-2.2,0.7-4.5,1-6.7c0.3-2,0.5-4,0.5-6c0-1-0.2-2.1-0.4-3.1c-0.1-0.3-0.2-0.6-0.3-0.9c-0.2-0.4-0.4-0.5-0.8-0.1
		c-0.3,0.3-0.6,0.7-0.8,1.2c-0.3,0.7-0.5,1.4-0.6,2.2c-0.1,1.1-0.2,2.1-0.1,3.2c0,2.1,0.1,4.1,0.3,6.2c0.2,2.1,0.3,4.1,0.5,6.2
		C295.8,129.5,295.8,129.7,296.1,130z M346,115.6c-0.2,0.2-0.3,0.3-0.4,0.4c-1.1,1.3-1.9,2.8-2.4,4.4c-1,3.2-1.2,6.4-0.9,9.7
		c0,0,0.1,0.1,0.1,0.1c0.1-0.1,0.1-0.1,0.2-0.2c0.7-1.4,1.5-2.7,2.2-4c0.5-0.8,1-1.7,1.4-2.6c0.5-1.1,0.8-2.2,1-3.3
		c0.1-1.1,0-2.2-0.4-3.2C346.6,116.5,346.4,116,346,115.6z M413.6,129.8c0.2,0.1,0.3,0.1,0.5,0.1c0.8,0,1.5,0.1,2.3,0.1
		c0.3,0,0.4-0.1,0.5-0.4c0.3-1.1,0.5-2.2,0.8-3.3c0.8-3.4,1.6-6.8,2.6-10.2c0.6-2,1.2-4,2.1-5.8c0-0.1,0-0.1-0.1-0.1
		c-0.6,0.4-1,1-1.4,1.6c-0.5,0.8-0.9,1.6-1.2,2.4c-1.8,4-3.4,8-4.8,12.1C414.4,127.4,414.1,128.5,413.6,129.8z M286.2,151.5
		c0,0.3,0.2,0.6,0.3,0.8c0.2,0.4,0.4,0.8,0.8,1c1.1,0.8,2.1,1.7,3.6,1.8c0,0,0.1,0,0.1,0c0.3,0.1,0.4,0.3,0.4,0.5
		c0,0.2-0.2,0.5-0.5,0.5c-0.3,0-0.6,0-0.9-0.1c-1.2-0.3-2.2-0.8-3.1-1.6c-0.5-0.5-1-0.8-1.7-1c-0.4-0.1-0.7,0-1,0.3
		c-0.3,0.3-0.4,0.7-0.3,1.1c0.1,0.7,0.5,1.3,0.9,1.8c0.4,0.4,0.8,0.8,1.2,1.2c1.4,1.2,0.9,1.1,2.9,0.6c1.3-0.3,2.3-1.1,3.1-2
		c0.3-0.3,0.4-0.7,0.2-1.1c-0.3-0.7-0.7-1.5-1-2.2c-0.2-0.4-0.5-0.6-0.9-0.7c-1.2-0.3-2.4-0.6-3.6-1
		C286.5,151.5,286.4,151.4,286.2,151.5z M432,174.4c0.2-0.2,0.1-0.3,0-0.5c-0.1-0.2-0.2-0.5-0.2-0.7c-0.1-0.3,0.1-0.6,0.4-0.7
		c0.2,0,0.5,0,0.8,0c1.9,0,3.7,0,5.6-0.1c0.4,0,0.7-0.1,1-0.4c0.6-0.6,1.2-1.1,1.9-1.5c0.1-0.1,0.3-0.1,0.3-0.3c-0.1,0-0.2,0-0.4,0
		c-1.2-0.1-2.4-0.1-3.6-0.2c-1.5-0.1-1.3,0-1.7-1.4c-1.3-3.9-2.5-7.7-3.8-11.6c-0.1-0.2-0.1-0.5-0.3-0.6c-0.6,0.2-0.6,0.6-0.4,1.2
		c0.2,0.7,0.4,1.4,0.6,2.1c1.1,3.6,2.2,7.2,3.3,10.8c0.1,0.3,0.2,0.5,0.2,0.8c0,0.3-0.2,0.5-0.4,0.5c-0.1,0-0.3,0-0.4,0
		c-0.9,0-1.8,0-2.7-0.1c-1.2,0-2.4-0.1-3.7-0.1c-0.2,0-0.5-0.1-0.7,0.1C430.5,172.6,430.6,172.7,432,174.4z M449,64.6
		c-0.3-0.1-0.6-0.2-1-0.2c-2.6-0.5-5.2-0.5-7.8,0c-1.7,0.3-3.3,0.9-4.8,1.9c-0.1,0.1-0.3,0.2-0.3,0.4c0.1,0,0.2,0.1,0.2,0.1
		c1.2,0.3,2.5,0.5,3.7,0.6c1.4,0.1,2.9-0.1,4.3-0.4c1.8-0.4,3.5-1,5.1-1.9C448.7,65,448.9,64.9,449,64.6z M452.9,106.4
		c-0.4,0-0.6,0.2-0.8,0.3c-1.6,0.9-3.3,1.6-5.1,2.1c-0.8,0.2-1.2,0.7-1.3,1.4c0,0.2-0.1,0.4-0.1,0.5c-0.2,1.3-0.3,2.5-0.5,3.8
		c-0.1,0.7,0.3,1.2,0.6,1.8C446.7,115.3,452,107.9,452.9,106.4z M199.6,82.2c-0.1,0.1-0.2,0.2-0.2,0.3c-1.2,2.4-2.8,4.5-4.4,6.7
		c-0.5,0.7-1,1.5-1.6,2.2c-0.1,0.1-0.2,0.3,0,0.4c0.8,0,1.7-0.1,2.5-0.2c1.9-0.3,3.1-1.4,3.7-3.2c0.5-1.6,0.7-3.2,0.4-4.8
		C199.9,83.1,199.9,82.6,199.6,82.2z M441.2,172.2c0.2,0.2,0.5,0.1,0.7,0.1c4,0,8.1-0.1,12.1-0.1c0.2,0,0.4,0,0.7,0
		c0.5,0,0.5-0.1,0.5-0.6c0-0.1,0-0.2,0-0.3c0-0.3-0.1-0.4-0.4-0.4c-0.7-0.1-1.4-0.1-2.1-0.2c-2-0.1-3.9-0.2-5.9-0.3
		c-0.6,0-1.2,0-1.8-0.1c-0.3,0-0.5,0-0.7,0.1c-1,0.4-1.9,0.8-2.8,1.4C441.4,171.9,441.2,172,441.2,172.2z M331.7,73.8
		c0.2,0.2,0.3,0.1,0.4,0c0.8-0.4,1.5-0.8,2.2-1.3c0.7-0.5,1.3-1.1,1.8-1.7c0.6-0.8,1-1.6,1.2-2.5c0.2-1.3,0.1-2.5-0.7-3.6
		c-0.1-0.1-0.2-0.3-0.4-0.2c-0.2,0.1-0.2,0.3-0.2,0.4c-0.5,1.3-1.1,2.5-1.7,3.8c-0.6,1.1-1.1,2.2-1.7,3.4
		C332.3,72.6,332,73.2,331.7,73.8z M443.1,118.6c0.1-0.1,0.1-0.2,0.1-0.3c0.2-1,0.4-1.9,0.5-2.9c0.1-0.4,0-0.7-0.1-1.1
		c-0.2-0.6-0.3-1.2-0.3-1.8c0-0.5-0.1-1-0.2-1.5c-0.5,0-0.9,0.3-1.4,0.4c-0.2,0-0.3,0.2-0.3,0.3c0,0.2-0.1,0.5-0.1,0.7
		c-0.2,1.2-0.3,2.5-0.4,3.7c-0.1,0.6-0.1,1.2-0.2,1.8c0,0.3,0.1,0.4,0.3,0.3C441.7,118.4,442.4,118.4,443.1,118.6z M459.8,166
		c0.1,0.1,0.1,0.3,0.2,0.4c1.6,2.1,3.6,3.7,6,4.9c0.2,0.1,0.5,0.1,0.7,0.2c0.1,0,0.3-0.2,0.3-0.3c0-0.1-0.1-0.3-0.2-0.4
		c-0.6-1.1-1.3-2.2-2.2-3.2c-0.5-0.6-1.1-1-1.8-1.4C461.9,165.7,460.9,165.6,459.8,166z M343.5,145.6c0.1-0.9-0.2-3-1.5-9.1
		c0-0.2-0.1-0.4-0.3-0.6c0,0-0.1,0.1-0.1,0.1c-0.4,1.9-0.6,3.9-0.6,5.9c0,0.6,0.1,1.2,0.4,1.7C341.9,144.5,342.6,145.2,343.5,145.6z
		 M414.3,173.9c0-0.1,0.1-0.1,0.1-0.2c0-0.1-0.1-0.2-0.1-0.3c-0.1-0.9,0.2-1.5,1-1.8c0.3-0.1,0.5-0.1,0.8-0.2
		c0.8-0.1,1.6-0.2,2.5-0.3c-1.1-0.2-9.6-0.5-10.5-0.4c0,0,0.1,0.1,0.1,0.1c1.9,1,3.9,1.9,5.8,2.9
		C414.1,173.9,414.2,173.9,414.3,173.9z M292.7,157.5c-0.5,0.4-0.9,0.7-1.3,1.1c-0.4,0.3-0.9,0.6-1.4,0.8c-0.5,0.2-1,0.3-1.4,0.6
		c1.2,0.9,3.8,2.1,5,2.4c0.2-0.3,0.1-0.6,0-0.9C293.4,160.1,293.2,158.7,292.7,157.5z M421.6,183.1c0.3,0.2,0.7,0.1,1,0
		c2-0.3,4-0.6,5.9-0.9c0.8-0.1,1.7-0.2,2.5-0.4c0.7-0.1,0.9-0.4,1-1c0.1-0.7,0-1.4-0.1-2.1c-0.3,0-0.4,0.2-0.5,0.3
		c-0.7,0.7-1.5,1.2-2.4,1.7c-0.8,0.4-1.6,0.7-2.4,1c-1.4,0.4-2.7,0.8-4.1,1.1C422.2,182.9,421.9,182.9,421.6,183.1z M328.2,88.4
		c0.4,0,0.6-0.1,0.8-0.2c0.5-0.2,1-0.5,1.6-0.7c0.9-0.4,1.9-0.6,2.9-0.6c0.2,0,0.4,0,0.5-0.1c0.2-0.8,0.3-1.7,0.2-2.4
		c-0.1-0.5-0.1-1.1-0.6-1.5c-0.6,0.7-1.1,1.3-1.7,1.9c-0.6,0.6-1.1,1.2-1.7,1.7C329.5,87.2,328.9,87.7,328.2,88.4z M448.4,107
		c0.1,0.1,0.2,0.1,0.3,0c2-0.8,4-1.9,5.8-3.1c0.2-0.1,0.4-0.3,0.5-0.5c0.7-1.1,1.4-2.2,2.1-3.2c0.1-0.1,0.2-0.2,0-0.4
		c-0.1,0-0.2,0.1-0.2,0.1c-1.2,1.4-2.6,2.5-4.1,3.6c-1.3,1-2.7,2-3.9,3.1C448.7,106.7,448.5,106.8,448.4,107z M294.9,140.7
		c-0.3,0-0.5,0.3-0.7,0.4c-0.6,0.3-1.2,0.5-1.9,0.3c-0.8-0.3-1.5-0.1-2.3,0c-0.1,0-0.1,0-0.2,0.1c0,0,0,0.1,0,0.2
		c0.2,0.2,0.4,0.3,0.6,0.4c1.3,0.8,2.6,1.5,3.8,2.4c0.2,0.1,0.4,0.1,0.4-0.2c0.1-1.1,0.3-2.3,0.4-3.4
		C295,140.9,294.9,140.8,294.9,140.7z M461.4,160.1c-0.1,0.2,0,0.4,0.1,0.5c0.3,0.6,0.9,1,1.6,1.3c1,0.4,2.1,0.5,3.2,0.5
		c0.2,0,0.4-0.1,0.6-0.1c0.1,0,0.2-0.1,0.3-0.2c0-0.1-0.1-0.2-0.2-0.3c-1.2-0.7-2.4-1.3-3.7-1.6C462.7,159.9,462,159.9,461.4,160.1z
		 M220.7,123.2c-1.8-0.9-3.5-1-5.3-0.5c-0.1,0-0.2,0.1-0.2,0.1c0,0-0.1,0.1-0.1,0.1c0,0.1,0.1,0.1,0.1,0.1c0.4,0.2,0.8,0.3,1.2,0.3
		c1.1,0.1,2.2,0.3,3.2,0.9C219.9,124.1,220.3,123.7,220.7,123.2z M199.6,79c0.2,0,0.3-0.2,0.3-0.3c0.3-0.9,0.7-1.9,1-2.8
		c0.2-0.7,0.1-0.7-0.5-0.9c-0.4-0.1-0.8,0-1.1,0.4c-0.4,0.5-0.6,1-0.5,1.6C198.9,77.7,199.2,78.4,199.6,79z M463,98.5
		c-0.5-1.2-1.2-2.1-2.1-2.5c-0.9,1.5-1.9,3-2.8,4.5c0,0,0,0.1,0,0.1c0,0,0,0.1,0.1,0.1c0.1-0.1,0.2-0.2,0.3-0.2
		c0.3-0.3,0.6-0.6,0.9-1c0.3-0.4,0.6-0.7,0.9-1.1c0.6-0.6,1.2-0.7,1.9-0.3C462.5,98.1,462.8,98.3,463,98.5z M345,149.3
		c1.2-0.3,2.4-0.6,3.6-0.7c0.1,0,0.2,0,0.3-0.1c0,0,0,0,0.1-0.1c0,0,0,0,0-0.1c-1-0.3-3.3-0.9-4-0.9
		C344.9,148.1,344.8,148.7,345,149.3z M223.1,123.6c0.1,0,0.2-0.1,0.2-0.1c0.3-0.3,0.6-0.6,0.9-0.9c0.8-0.8,1.5-1.6,2.2-2.4
		c0.2-0.2,0.4-0.4,0.4-0.7c0-0.1-0.1-0.2-0.1-0.2c0,0-0.1,0-0.2,0c-0.1,0-0.1,0.1-0.1,0.1c-1.2,1.2-2.5,2.3-3.7,3.5
		c-0.1,0.1-0.2,0.2-0.1,0.4C222.8,123.4,222.9,123.5,223.1,123.6z M229.4,147c0.5,0.9,2,2.3,3.1,3.1c0.1,0.1,0.3,0.3,0.5,0.2
		c0.1-0.6,0-1.1-0.6-1.4c-0.5-0.3-1-0.7-1.6-1C230.4,147.6,229.9,147.3,229.4,147z M175.2,140c-0.4,0.4-0.4,0.7-0.4,1.1
		c0.1,0.8,0.8,1.4,1.6,1.3c0.3-0.1,0.5-0.4,0.3-0.6C176.3,141.1,175.8,140.5,175.2,140z M221.6,123.9c-0.3,0.3-0.7,0.7-1,1
		c-0.3,0.3-0.6,0.6-0.9,0.9c0.1,0.2,0.2,0.2,0.3,0.2c0.5,0.1,0.9-0.1,1.3-0.4c0.3-0.3,0.6-0.7,0.9-1.1c0,0,0-0.1,0-0.2
		C222.2,124.2,222,124.1,221.6,123.9z M435.4,189.8c0.3-0.7,0.4-1.4,0.5-2.2c0.1-0.7,0.3-1.4,0.1-2.4
		C435.7,186.9,435.4,188.3,435.4,189.8z M293,154.5c0.3-0.1,0.3-0.3,0.3-0.4c0.3-0.9,0.2-1.1-0.8-1.1c-0.1,0-0.1,0.1-0.2,0.1
		C292.6,153.6,292.8,154.1,293,154.5z M330.9,76.8c-0.3,0.9-0.4,1.7-0.2,2.7C330.8,78.6,331.1,77.7,330.9,76.8z M233.8,140
		c0.2,0.3,0.5,0.4,0.7,0.4c0.1,0,0.2,0,0.2-0.1c0.1-0.1,0.1-0.2,0.1-0.3c0-0.1-0.1-0.3-0.2-0.3C234.3,139.8,234.1,139.8,233.8,140z
		 M399.1,170.5c0.2,0.2,0.5,0.3,0.8,0.4c0,0,0.1-0.1,0.1-0.1c0,0,0-0.1,0-0.1c-0.1-0.1-0.1-0.2-0.2-0.2
		C399.6,170.4,399.3,170.4,399.1,170.5z M444.5,110.2c0.1-0.2,0.1-0.4,0.2-0.5c0-0.1,0-0.2-0.2-0.2c-0.1,0-0.3,0-0.3,0.2
		C444.2,109.8,444.3,110,444.5,110.2z M235.1,152.2c0-0.1,0-0.2-0.1-0.3c-0.1-0.1-0.3-0.1-0.4,0c-0.1,0.1,0,0.2,0.1,0.3
		c0.1,0.1,0.2,0.1,0.2,0.1C235,152.4,235.1,152.3,235.1,152.2z"/>
</g>
</svg>
