<?xml version="1.0" encoding="utf-8"?>
<!-- Generator: Adobe Illustrator 27.8.1, SVG Export Plug-In . SVG Version: 6.00 Build 0)  -->
<svg version="1.1" baseProfile="tiny" id="Layer_1" xmlns="http://www.w3.org/2000/svg" xmlns:xlink="http://www.w3.org/1999/xlink"
	 x="0px" y="0px" viewBox="0 0 640 320" overflow="visible" xml:space="preserve">
<path fill="none" stroke="#777777" stroke-linecap="round" stroke-linejoin="round" stroke-miterlimit="10" d="M411.3,209.8h-12.8
	c-0.1-1.1,0-5.9,0-5.9h-43.9c0,0.9,0,1.6-0.1,2.5h-39.9l-0.1,3.4c0,0,69.3,0,69.4,0c-0.1-3.3,0.7-13.4-0.5-16.2
	c-1.5-3.6-5.6-5.6-5.6-5.6c0.3,0.7-0.2-26.6-0.2-26.6l-34.7,3.2c-0.1,2.1-0.2,6.1-0.2,6.1l-0.5-7.8l31.7-3.4l0.3,31.8l-32.2,1.2
	l-0.2-9.1l-1.7-0.5l0.3,11.8l35.7-0.2c0.3-0.6,0-37.5,0-37.5l-36.3,4.4c0,0,0.1,9.3,0.3,13.9c1.7,0.6,3.6,0.2,5.3,0.9
	c1.3,0.5,3,1.5,3.7,2.6c0.7,1.1,1.1,5-0.8,3.1c-1.2-1.2-0.1-3.8-2.2-4.3c-0.2,0.9,0.8,4.2-1.1,3.3c-1.2-0.6-0.6-2.9-1.1-3.8
	c-1.1-2.2-3.4-3.8-5.5-4.9c-2.2-1.3-4.7-2.1-6.9-3.3c-2.2-1.2-3.6-3.1-5.6-4.5c-2-1.4-4.3-2.4-6.4-3.4c-2.1-1.1-3.9-2.6-6-3.8
	c2.6,1.7,5.6,2.1,8.3,3.4c2.7,1.3,5.1,3.2,7.6,4.9c2.1,1.5,4.3,2.1,6.5,3.2c2.1,1,4,2.5,6.2,3.4c2.5,1,5.2,1.9,7.8,3
	c1.5,0.6,5.4,1.6,6.2,3.2c-1.2,1.6-3.5-0.8-4.9-0.4c1.1,0.5,2.2,1,3.3,1.6c-0.9,1.7-4.5,0.4-5.8-0.2c-2.3-1-3.7-1.3-6.1-0.3
	c-0.3,2.1,4.6,2.5,2.6,5.4c0,0,0,0,0,0c-0.6,0.2-4.9-3.6-5.7-4.2c-2.6-1.7-1.9-3.8-3.4-6.1c-0.1-0.2-1.1-1.1-1.2-1.1
	c-0.8-0.3-0.6,0.1-1.3,0.2c-1.3,0.1-2.5,0-3.8-0.1c-1.2-0.1-2.6,0.2-3.5,0c-1.1-0.2-2.4-1.2-3.5-1.8c-4.3-2.5-9-3.3-13.5-5.6
	c-2.4-1.2-9.3-9.6-11.4-5.3c-1,2.1-1.3,5.7-1.6,8.1c-0.4,2.8-0.2,5.8-1.4,8.3c-1.8,4-2.8,11.9,1.7,14.8c0.2-3.2,0.3-7.7-3.1-9
	c-1.6-0.6-3.4-0.1-4.9-1.1c-1.3-0.8-1.7-2.9-2.8-3.5c-0.9,3.9,5.2,2,7.2,2.6c0.8,0.2,3,2.2,3.5,2c1.4-0.5-0.5-2.7-1-3.2
	c1.6-0.2,3.6,4,3.9,0.5c0-0.1-0.2-0.4-0.2-0.5c2.7-1.8-2.2-3.2-2.3-4.6c1.6,0.1,2.7,1.5,3.2,3c2.4-1.1-0.5-4.9-2.2-5.3
	c-2.3-0.6-5.8,2.3-7.8,0.5c1.5-1.3,5.2-2.1,6.9-0.7c1.2-3.7,3.3-7.4,4.3-11.3c0.5-2.2,0.3-4.2-0.3-6.2c-0.6-2-2-4.2-1.8-6.3
	c3.6,0.2,1.4,8.4,1,10.4c-0.5,2.4-0.2,2.2,1.7,3.2c1.1,0.5,2.4,1.3,3.2,2.2c0.9-3.1,4.6-7.1,7.3-8.8c-1.1-0.5-2-1.5-2.9-2.3
	c-1.9-1.6-3.7-3.3-5.3-5.2c-1.6-1.9-7.7-6.4-8.8-5.9c0,0-1.2,2.2-2.6,2.5c-3.3,0.8-3.7-3.8-3.4-5.8c0.4-2.8,1.7-4.6,3.2-7
	c1.7-2.6,1.7-4.2,0.8-7.1c-0.7-2-1.6-6.7,1.8-6.4c1.7,0.2,5.5,2.4,4.2,4.4c-3.9-3.5-6,0.5-9,2.6c-2.1-2.2-4,0.7-4.5,2.5
	c-0.5-0.1-1.3-0.2-1.8-0.2c0.4-2.9-3-5.4-4.3-1.9c-1,2.6,0.3,5,2.2,6.3c-0.1,0.1-2.1-0.3-2.6-1.5c-0.7,0.2-0.7,0.2-1.5,0.3
	c0,1.8-0.9,2.9-1.9,4.3c0.5,2.4,1.3,4.2,3.8,5.4c1.9,1,4.8,2.4,6.8,1.9c0.6-0.1,0.5-0.7,1.3-0.7c0.5,0,1.6,0,2,0.1
	c1.1,0.3,2.1,1.1,3.1,0.4c0.9-0.7,1.1-2,1.5-2.9c0.2-0.5,0.8-1.1,0.9-1.4c0.2-0.3,0.3-1.3,0.6-1.6c1-1.1,2.5,0.1,2.8-1.7
	c0.2-1.2-1.8-3.8-0.9-4.7c2.1-2.4,1.8-4.4,2.3-6.3c6.5-1-2.2-9.4-4.7-10.7c-4.5-2.3-10.5-4-14.5,0.1c-3.9,4.1-4.7,9.9-4.2,15.4
	c0.3,2.9,0.2,4.7-1.8,7c-1.8,2.1-4.3,3.3-6.3,5.2c2.6,0.2,15.4,4.8,16,8c0.3,1.8-1.8,1.5-2.3,3.7c-0.4,1.7,0.7,4.4,1.4,6
	c0.1,0.1,0.1,0.1,0,0c-2.6-1.4-2.9,2.1-2.8,3.7c-0.5,0.1-1.6,0-2.2-0.2c0.1-5.5-5-4.5-5.7,0.1c-0.7,4.3-1.7,6.6-6.3,7.4
	c-4.6,0.8-5.8,0.1-7.6-4.4c-1.5-3.8-1.8-8.7-0.8-12.8c2.4-9.9,11.7-11.9,20.4-10.2c3.4,0.7,8.3,1.1,8.2,5.5c0,1.2-0.7,1.6-0.6,2.7
	c0.1,0.9,0.8,1.6,1,2.4c0.6,1.8,1.4,3.7,1.1,5.7c-2.7,0.8-0.9,3.6-0.2,5.2c0.3,0.7,1.4,2,1.3,2.7c-0.1,1-1.3,1.1-1.7,2.2
	c-0.6,1.9,1.5,5.1-0.5,6.6c-2.1,1.6-3.9-1.3-4.4,2.7c-1,7.1,6.4,14.5,11.5,19.1c5,4.4,15.3,5.3,16.6,13.3c0,0,0,0,0,0
	c0.1-0.2,0.2-0.1,0.3,0c0-2.7,0.4-5.1-0.3-7.8c-0.6-2.5-1.4-4.9-1.1-7.6c0.3-2.6,2.4-4.7,2.5-7.4c0-2.3-1.7-4.1-3.3-5.7
	c-1.6,0.6-3.4,1-5,1.6c0.5-1.3,2.3-9,4.8-5.2c1.1-2.9,2.3-2,4-0.3c1.1,1.2,3.4,2.4,4.2,3.7c1.3,1.9,0.2,4.6-2.4,4.1
	c-2.3-0.5-2.6-3.4-3-5.2c-0.9,0.3-1.4,1.3-2.1,2.1c-0.3-0.9,0.9-4.2-1.1-4c-0.5,0.1-2.2,2.8-2.7,3.3c-2.1,2.3-3.8,3.9-4.2,7
	c-0.4,3.5,0.3,6.9,0,10.4c-0.3,3.5-1.2,7.6-1.6,11.1c1-0.7,2.3-2.9,3.2-3.8c0.1-2.3-0.9-4.5-2-6.4c-7.8-14.3-25.4-22.8-40.2-26.8
	c0,0,0.2,0.1-0.1,0.1c0,0.3,0-0.2,0.1-0.1c-4,13.9,5.1,26.9,14.1,37c0.1,0.1,0.1,0.1,0,0c-1.2-5.1-3.5-10.6-5.5-15.7
	c-1.9-4.9-4.2-10.5-8.3-13.9c-5.4-4.4-19.4-4.1-20.9,4.6c-0.6,3.5,1.7,9.2,3.3,12.6c1.8,3.7,4.9,9.9,8.1,12.4h-23.6"/>
</svg>
