<?xml version="1.0" encoding="utf-8"?>
<!-- Generator: Adobe Illustrator 27.8.1, SVG Export Plug-In . SVG Version: 6.00 Build 0)  -->
<svg version="1.1" id="Layer_1" xmlns="http://www.w3.org/2000/svg" xmlns:xlink="http://www.w3.org/1999/xlink" x="0px" y="0px"
	 viewBox="0 0 640 320" style="enable-background:new 0 0 640 320;" xml:space="preserve">
<style type="text/css">
	.st0{fill:none;stroke:#777777;stroke-linecap:round;stroke-linejoin:round;stroke-miterlimit:10;}
</style>
<path class="st0" d="M433.4,201.3h-15.9c-0.1-1.4,0-7.3,0-7.3h-54.4c0,1.1,0,2-0.1,3.1h-49.4l-0.1,4.2c0,0,85.8,0,86,0
	c-0.1-4.1,0.9-16.6-0.6-20.1c-1.9-4.5-6.9-6.9-6.9-6.9c0.4,0.9-0.2-33-0.2-33l-43,4c-0.1,2.6-0.2,7.6-0.2,7.6l-0.6-9.7L387,139
	l0.4,39.4l-39.9,1.5l-0.2-11.3l-2.1-0.6l0.4,14.6l44.2-0.2c0.4-0.7,0-46.5,0-46.5l-45,5.5c0,0,0.1,11.5,0.4,17.2
	c2.1,0.7,4.5,0.2,6.6,1.1c1.6,0.6,3.7,1.9,4.6,3.2c0.9,1.4,1.4,6.2-1,3.8c-1.5-1.5-0.1-4.7-2.7-5.3c-0.2,1.1,1,5.2-1.4,4.1
	c-1.5-0.7-0.7-3.6-1.4-4.7c-1.4-2.7-4.2-4.7-6.8-6.1c-2.7-1.6-5.8-2.6-8.5-4.1c-2.7-1.5-4.5-3.8-6.9-5.6c-2.5-1.7-5.3-3-7.9-4.2
	c-2.6-1.4-4.8-3.2-7.4-4.7c3.2,2.1,6.9,2.6,10.3,4.2c3.3,1.6,6.3,4,9.4,6.1c2.6,1.9,5.3,2.6,8.1,4c2.6,1.2,5,3.1,7.7,4.2
	c3.1,1.2,6.4,2.4,9.7,3.7c1.9,0.7,6.7,2,7.7,4c-1.5,2-4.3-1-6.1-0.5c1.4,0.6,2.7,1.2,4.1,2c-1.1,2.1-5.6,0.5-7.2-0.2
	c-2.8-1.2-4.6-1.6-7.6-0.4c-0.4,2.6,5.7,3.1,3.2,6.7l0,0c-0.7,0.2-6.1-4.5-7.1-5.2c-3.2-2.1-2.4-4.7-4.2-7.6
	c-0.1-0.2-1.4-1.4-1.5-1.4c-1-0.4-0.7,0.1-1.6,0.2c-1.6,0.1-3.1,0-4.7-0.1c-1.5-0.1-3.2,0.2-4.3,0c-1.4-0.2-3-1.5-4.3-2.2
	c-5.3-3.1-11.1-4.1-16.7-6.9c-3-1.5-11.5-11.9-14.1-6.6c-1.2,2.6-1.6,7.1-2,10c-0.5,3.5-0.2,7.2-1.7,10.3c-2.2,5-3.5,14.7,2.1,18.3
	c0.2-4,0.4-9.5-3.8-11.1c-2-0.7-4.2-0.1-6.1-1.4c-1.6-1-2.1-3.6-3.5-4.3c-1.1,4.8,6.4,2.5,8.9,3.2c1,0.2,3.7,2.7,4.3,2.5
	c1.7-0.6-0.6-3.3-1.2-4c2-0.2,4.5,5,4.8,0.6c0-0.1-0.2-0.5-0.2-0.6c3.3-2.2-2.7-4-2.8-5.7c2,0.1,3.3,1.9,4,3.7
	c3-1.4-0.6-6.1-2.7-6.6c-2.8-0.7-7.2,2.8-9.7,0.6c1.9-1.6,6.4-2.6,8.5-0.9c1.5-4.6,4.1-9.2,5.3-14c0.6-2.7,0.4-5.2-0.4-7.7
	c-0.7-2.5-2.5-5.2-2.2-7.8c4.5,0.2,1.7,10.4,1.2,12.9c-0.6,3-0.2,2.7,2.1,4c1.4,0.6,3,1.6,4,2.7c1.1-3.8,5.7-8.8,9-10.9
	c-1.4-0.6-2.5-1.9-3.6-2.8c-2.4-2-4.6-4.1-6.6-6.4c-2-2.4-9.5-7.9-10.9-7.3c0,0-1.5,2.7-3.2,3.1c-4.1,1-4.6-4.7-4.2-7.2
	c0.5-3.5,2.1-5.7,4-8.7c2.1-3.2,2.1-5.2,1-8.8c-0.9-2.5-2-8.3,2.2-7.9c2.1,0.2,6.8,3,5.2,5.5c-4.8-4.3-7.4,0.6-11.1,3.2
	c-2.6-2.7-5,0.9-5.6,3.1c-0.6-0.1-1.6-0.2-2.2-0.2c0.5-3.6-3.7-6.7-5.3-2.4c-1.2,3.2,0.4,6.2,2.7,7.8c-0.1,0.1-2.6-0.4-3.2-1.9
	c-0.9,0.2-0.9,0.2-1.9,0.4c0,2.2-1.1,3.6-2.4,5.3c0.6,3,1.6,5.2,4.7,6.7c2.4,1.2,5.9,3,8.4,2.4c0.7-0.1,0.6-0.9,1.6-0.9
	c0.6,0,2,0,2.5,0.1c1.4,0.4,2.6,1.4,3.8,0.5c1.1-0.9,1.4-2.5,1.9-3.6c0.2-0.6,1-1.4,1.1-1.7c0.2-0.4,0.4-1.6,0.7-2
	c1.2-1.4,3.1,0.1,3.5-2.1c0.2-1.5-2.2-4.7-1.1-5.8c2.6-3,2.2-5.5,2.8-7.8c8.1-1.2-2.7-11.6-5.8-13.3c-5.6-2.8-13-5-18,0.1
	c-4.8,5.1-5.8,12.3-5.2,19.1c0.4,3.6,0.2,5.8-2.2,8.7c-2.2,2.6-5.3,4.1-7.8,6.4c3.2,0.2,19.1,5.9,19.8,9.9c0.4,2.2-2.2,1.9-2.8,4.6
	c-0.5,2.1,0.9,5.5,1.7,7.4c0.1,0.1,0.1,0.1,0,0c-3.2-1.7-3.6,2.6-3.5,4.6c-0.6,0.1-2,0-2.7-0.2c0.1-6.8-6.2-5.6-7.1,0.1
	c-0.9,5.3-2.1,8.2-7.8,9.2c-5.7,1-7.2,0.1-9.4-5.5c-1.9-4.7-2.2-10.8-1-15.9c3-12.3,14.5-14.7,25.3-12.6c4.2,0.9,10.3,1.4,10.2,6.8
	c0,1.5-0.9,2-0.7,3.3c0.1,1.1,1,2,1.2,3c0.7,2.2,1.7,4.6,1.4,7.1c-3.3,1-1.1,4.5-0.2,6.4c0.4,0.9,1.7,2.5,1.6,3.3
	c-0.1,1.2-1.6,1.4-2.1,2.7c-0.7,2.4,1.9,6.3-0.6,8.2c-2.6,2-4.8-1.6-5.5,3.3c-1.2,8.8,7.9,18,14.2,23.7c6.2,5.5,19,6.6,20.6,16.5
	l0,0c0.1-0.2,0.2-0.1,0.4,0c0-3.3,0.5-6.3-0.4-9.7c-0.7-3.1-1.7-6.1-1.4-9.4c0.4-3.2,3-5.8,3.1-9.2c0-2.8-2.1-5.1-4.1-7.1
	c-2,0.7-4.2,1.2-6.2,2c0.6-1.6,2.8-11.1,5.9-6.4c1.4-3.6,2.8-2.5,5-0.4c1.4,1.5,4.2,3,5.2,4.6c1.6,2.4,0.2,5.7-3,5.1
	c-2.8-0.6-3.2-4.2-3.7-6.4c-1.1,0.4-1.7,1.6-2.6,2.6c-0.4-1.1,1.1-5.2-1.4-5c-0.6,0.1-2.7,3.5-3.3,4.1c-2.6,2.8-4.7,4.8-5.2,8.7
	c-0.5,4.3,0.4,8.5,0,12.9c-0.4,4.3-1.5,9.4-2,13.8c1.2-0.9,2.8-3.6,4-4.7c0.1-2.8-1.1-5.6-2.5-7.9c-9.7-17.7-31.5-28.2-49.8-33.2
	c0,0,0.2,0.1-0.1,0.1c0,0.4,0-0.2,0.1-0.1c-5,17.2,6.3,33.3,17.5,45.8c0.1,0.1,0.1,0.1,0,0c-1.5-6.3-4.3-13.1-6.8-19.4
	c-2.4-6.1-5.2-13-10.3-17.2c-6.7-5.5-24-5.1-25.9,5.7c-0.7,4.3,2.1,11.4,4.1,15.6c2.2,4.6,6.1,12.3,10,15.4h-29.2"/>
</svg>
