<?xml version="1.0" encoding="utf-8"?>
<!-- Generator: Adobe Illustrator 27.8.1, SVG Export Plug-In . SVG Version: 6.00 Build 0)  -->
<svg version="1.1" id="Layer_1" xmlns="http://www.w3.org/2000/svg" xmlns:xlink="http://www.w3.org/1999/xlink" x="0px" y="0px"
	 viewBox="0 0 640 320" style="enable-background:new 0 0 640 320;" xml:space="preserve">
<style type="text/css">
	.st0{fill:none;stroke:#777777;stroke-linecap:round;stroke-linejoin:round;stroke-miterlimit:10;}
</style>
<path class="st0" d="M452.1,201.7h-18.5c-0.1-1.6,0-8.5,0-8.5h-63.4c0,1.3,0,2.3-0.1,3.6h-57.6l-0.1,4.9c0,0,100,0,100.3,0
	c-0.1-4.8,1-19.4-0.7-23.4c-2.2-5.2-8-8-8-8c0.5,1-0.2-38.5-0.2-38.5l-50.1,4.7c-0.1,3-0.2,8.9-0.2,8.9l-0.7-11.3l45.5-4.9l0.5,45.9
	l-46.5,1.7l-0.2-13.2l-2.4-0.7l0.5,17l51.5-0.2c0.5-0.8,0-54.2,0-54.2l-52.5,6.4c0,0,0.1,13.4,0.5,20.1c2.4,0.8,5.2,0.2,7.7,1.3
	c1.9,0.7,4.3,2.2,5.4,3.7c1,1.6,1.6,7.2-1.2,4.4c-1.7-1.7-0.1-5.5-3.1-6.2c-0.2,1.3,1.2,6.1-1.6,4.8c-1.7-0.8-0.8-4.2-1.6-5.5
	c-1.6-3.1-4.9-5.5-7.9-7.1c-3.1-1.9-6.8-3-9.9-4.8c-3.1-1.7-5.2-4.4-8-6.5c-2.9-2-6.2-3.5-9.2-4.9c-3-1.6-5.6-3.7-8.6-5.5
	c3.7,2.4,8,3,12,4.9c3.8,1.9,7.3,4.7,11,7.1c3,2.2,6.2,3,9.4,4.7c3,1.4,5.8,3.6,9,4.9c3.6,1.4,7.5,2.8,11.3,4.3
	c2.2,0.8,7.8,2.3,9,4.7c-1.7,2.3-5-1.2-7.1-0.6c1.6,0.7,3.1,1.4,4.8,2.3c-1.3,2.4-6.5,0.6-8.4-0.2c-3.3-1.4-5.4-1.9-8.9-0.5
	c-0.5,3,6.6,3.6,3.7,7.8l0,0c-0.8,0.2-7.1-5.2-8.3-6.1c-3.7-2.4-2.8-5.5-4.9-8.9c-0.1-0.2-1.6-1.6-1.7-1.6c-1.2-0.5-0.8,0.1-1.9,0.2
	c-1.9,0.1-3.6,0-5.5-0.1c-1.7-0.1-3.7,0.2-5,0c-1.6-0.2-3.5-1.7-5-2.6c-6.2-3.6-12.9-4.8-19.5-8c-3.5-1.7-13.4-13.9-16.4-7.7
	c-1.4,3-1.9,8.3-2.3,11.7c-0.6,4.1-0.2,8.4-2,12c-2.6,5.8-4.1,17.1,2.4,21.3c0.2-4.7,0.5-11.1-4.4-12.9c-2.3-0.8-4.9-0.1-7.1-1.6
	c-1.9-1.2-2.4-4.2-4.1-5c-1.3,5.6,7.5,2.9,10.4,3.7c1.2,0.2,4.3,3.1,5,2.9c2-0.7-0.7-3.8-1.4-4.7c2.3-0.2,5.2,5.8,5.6,0.7
	c0-0.1-0.2-0.6-0.2-0.7c3.8-2.6-3.1-4.7-3.3-6.6c2.3,0.1,3.8,2.2,4.7,4.3c3.5-1.6-0.7-7.1-3.1-7.7c-3.3-0.8-8.4,3.3-11.3,0.7
	c2.2-1.9,7.5-3,9.9-1c1.7-5.4,4.8-10.7,6.2-16.3c0.7-3.1,0.5-6.1-0.5-9c-0.8-2.9-2.9-6.1-2.6-9.1c5.2,0.2,2,12.1,1.4,15
	c-0.7,3.5-0.2,3.1,2.4,4.7c1.6,0.7,3.5,1.9,4.7,3.1c1.3-4.4,6.6-10.3,10.5-12.7c-1.6-0.7-2.9-2.2-4.2-3.3c-2.8-2.3-5.4-4.8-7.7-7.5
	c-2.3-2.8-11.1-9.2-12.7-8.5c0,0-1.7,3.1-3.7,3.6c-4.8,1.2-5.4-5.5-4.9-8.4c0.6-4.1,2.4-6.6,4.7-10.1c2.4-3.7,2.4-6.1,1.2-10.3
	c-1-2.9-2.3-9.7,2.6-9.2c2.4,0.2,7.9,3.5,6.1,6.4c-5.6-5-8.6,0.7-12.9,3.7c-3-3.1-5.8,1-6.5,3.6c-0.7-0.1-1.9-0.2-2.6-0.2
	c0.6-4.2-4.3-7.8-6.2-2.8c-1.4,3.7,0.5,7.2,3.1,9.1c-0.1,0.1-3-0.5-3.7-2.2c-1,0.2-1,0.2-2.2,0.5c0,2.6-1.3,4.2-2.8,6.2
	c0.7,3.5,1.9,6.1,5.5,7.8c2.8,1.4,6.9,3.5,9.8,2.8c0.8-0.1,0.7-1,1.9-1c0.7,0,2.3,0,2.9,0.1c1.6,0.5,3,1.6,4.4,0.6
	c1.3-1,1.6-2.9,2.2-4.2c0.2-0.7,1.2-1.6,1.3-2c0.2-0.5,0.5-1.9,0.8-2.3c1.4-1.6,3.6,0.1,4.1-2.4c0.2-1.7-2.6-5.5-1.3-6.8
	c3-3.5,2.6-6.4,3.3-9.1c9.4-1.4-3.1-13.5-6.8-15.5c-6.5-3.3-15.2-5.8-21,0.1c-5.6,5.9-6.8,14.3-6.1,22.3c0.5,4.2,0.2,6.8-2.6,10.1
	c-2.6,3-6.2,4.8-9.1,7.5c3.7,0.2,22.3,6.9,23.1,11.5c0.5,2.6-2.6,2.2-3.3,5.4c-0.6,2.4,1,6.4,2,8.6c0.1,0.1,0.1,0.1,0,0
	c-3.7-2-4.2,3-4.1,5.4c-0.7,0.1-2.3,0-3.1-0.2c0.1-7.9-7.2-6.5-8.3,0.1c-1,6.2-2.4,9.6-9.1,10.7c-6.6,1.2-8.4,0.1-11-6.4
	c-2.2-5.5-2.6-12.6-1.2-18.5c3.5-14.3,16.9-17.1,29.5-14.7c4.9,1,12,1.6,11.9,7.9c0,1.7-1,2.3-0.8,3.8c0.1,1.3,1.2,2.3,1.4,3.5
	c0.8,2.6,2,5.4,1.6,8.3c-3.8,1.2-1.3,5.2-0.2,7.5c0.5,1,2,2.9,1.9,3.8c-0.1,1.4-1.9,1.6-2.4,3.1c-0.8,2.8,2.2,7.3-0.7,9.6
	c-3,2.3-5.6-1.9-6.4,3.8c-1.4,10.3,9.2,21,16.6,27.6c7.2,6.4,22.2,7.7,24,19.2l0,0c0.1-0.2,0.2-0.1,0.5,0c0-3.8,0.6-7.3-0.5-11.3
	c-0.8-3.6-2-7.1-1.6-11c0.5-3.7,3.5-6.8,3.6-10.7c0-3.3-2.4-5.9-4.8-8.3c-2.3,0.8-4.9,1.4-7.2,2.3c0.7-1.9,3.3-12.9,6.9-7.5
	c1.6-4.2,3.3-2.9,5.8-0.5c1.6,1.7,4.9,3.5,6.1,5.4c1.9,2.8,0.2,6.6-3.5,5.9c-3.3-0.7-3.7-4.9-4.3-7.5c-1.3,0.5-2,1.9-3,3
	c-0.5-1.3,1.3-6.1-1.6-5.8c-0.7,0.1-3.1,4.1-3.8,4.8c-3,3.3-5.5,5.6-6.1,10.1c-0.6,5,0.5,9.9,0,15c-0.5,5-1.7,11-2.3,16.1
	c1.4-1,3.3-4.2,4.7-5.5c0.1-3.3-1.3-6.5-2.9-9.2c-11.3-20.6-36.7-32.9-58.1-38.7c0,0,0.2,0.1-0.1,0.1c0,0.5,0-0.2,0.1-0.1
	c-5.8,20.1,7.3,38.8,20.4,53.4c0.1,0.1,0.1,0.1,0,0c-1.7-7.3-5-15.3-7.9-22.6c-2.8-7.1-6.1-15.2-12-20.1c-7.8-6.4-28-5.9-30.2,6.6
	c-0.8,5,2.4,13.3,4.8,18.2c2.6,5.4,7.1,14.3,11.7,18h-34"/>
</svg>
