<?xml version="1.0" encoding="utf-8"?>
<!-- Generator: Adobe Illustrator 27.8.1, SVG Export Plug-In . SVG Version: 6.00 Build 0)  -->
<svg version="1.1" id="Layer_1" xmlns="http://www.w3.org/2000/svg" xmlns:xlink="http://www.w3.org/1999/xlink" x="0px" y="0px"
	 viewBox="0 0 615 410" style="enable-background:new 0 0 615 410;" xml:space="preserve">
<style type="text/css">
	.st0{fill:#FFFFFF;}
	.st1{fill:#5479F7;}
	.st2{fill:#E2EAFF;}
</style>
<g id="Blog_articles">
	<g>
		<g>
			<g>
				<path class="st0" d="M499.6,338H165c-27.8,0-50.3-22.5-50.3-50.3V119.4c0-16.6,13.5-30.1,30.1-30.1h324.7
					c16.6,0,30.1,13.5,30.1,30.1V338z"/>
				<path d="M499.6,338.4h-365c-11.2,0-20.3-9.1-20.3-20.3V101.2c0-6.8,5.5-12.3,12.3-12.3h361.1c6.8,0,12.3,5.5,12.3,12.3V338
					C500,338.2,499.8,338.4,499.6,338.4z M126.6,89.7c-6.3,0-11.5,5.2-11.5,11.5v216.9c0,10.7,8.7,19.5,19.5,19.5h364.6V101.2
					c0-6.3-5.2-11.5-11.5-11.5H126.6z"/>
			</g>
			<path d="M488.1,316H126.2c-0.2,0-0.4-0.2-0.4-0.4V111.7c0-0.2,0.2-0.4,0.4-0.4h361.9c0.2,0,0.4,0.2,0.4,0.4v203.9
				C488.5,315.8,488.3,316,488.1,316z M126.6,315.2h361.1V112.1H126.6V315.2z"/>
			<g>
				<path class="st0" d="M506,368.7H108.8c-17.6,0-33.7-7.5-42.1-19.6l-4-5.8c-2.8-4.1,0.1-9.6,5.1-9.6h478.7c4.7,0,7.7,5.1,5.3,9.2
					l-2.2,3.8C541.9,360.1,524.8,368.7,506,368.7z"/>
				<path d="M506,369.1H108.8c-17.7,0-34-7.6-42.4-19.7l-4-5.8c-1.4-2-1.6-4.5-0.4-6.7c1.1-2.2,3.3-3.5,5.8-3.5h478.7
					c2.4,0,4.5,1.2,5.7,3.3c1.2,2,1.2,4.5,0,6.5l-2.2,3.8C542.2,360.4,524.9,369.1,506,369.1z M67.7,334.1c-2.2,0-4.1,1.2-5.1,3.1
					c-1,1.9-0.9,4.1,0.4,5.9l4,5.8c8.3,12,24.3,19.4,41.7,19.4H506c18.6,0,35.6-8.5,43.2-21.8l2.2-3.8c1-1.8,1-3.9,0-5.7
					c-1-1.8-2.9-2.9-5-2.9H67.7z"/>
			</g>
		</g>
		<g>
			<g>
				<rect x="218.5" y="41.3" class="st0" width="208" height="274.2"/>
				<path d="M426.5,315.9h-208c-0.2,0-0.4-0.2-0.4-0.4V41.3c0-0.2,0.2-0.4,0.4-0.4h208c0.2,0,0.4,0.2,0.4,0.4v274.2
					C426.9,315.8,426.7,315.9,426.5,315.9z M218.9,315.2h207.2V41.7H218.9V315.2z"/>
			</g>
			<g>
				<g>
					<path class="st0" d="M299.2,161.5l-100.8,0.1c-4.4,0-8-3.6-8-8V80.7c0-4.4,3.6-8,8-8h100.8c4.4,0,8,3.6,8,8l0,72.8
						C307.2,157.9,303.6,161.5,299.2,161.5z"/>
					<path d="M198.4,162c-2.2,0-4.3-0.9-5.9-2.4c-1.6-1.6-2.5-3.7-2.5-5.9V80.7c0-4.6,3.8-8.4,8.4-8.4h100.8c2.2,0,4.3,0.9,5.9,2.5
						c1.6,1.6,2.5,3.7,2.4,5.9l0,72.8c0,4.6-3.7,8.4-8.4,8.4L198.4,162C198.4,162,198.4,162,198.4,162z M299.2,161.1l0,0.4
						L299.2,161.1c4.2,0,7.6-3.4,7.6-7.6l0-72.8c0-2-0.8-3.9-2.2-5.4c-1.4-1.4-3.3-2.2-5.4-2.2H198.4c-4.2,0-7.6,3.4-7.6,7.6v72.9
						c0,2,0.8,3.9,2.2,5.4c1.4,1.4,3.3,2.2,5.4,2.2c0,0,0,0,0,0L299.2,161.1z"/>
				</g>
				<g>
					<path class="st0" d="M294.8,145.6c0,0-17.3-45-33.1-45s-24.2,34.6-30.2,34.6c-5.9,0-6.9-13.4-13.4-13.4c-6.4,0-15.3,24-15.3,24
						S292.9,145.6,294.8,145.6z"/>
					<path d="M202.8,146.2c-0.1,0-0.3-0.1-0.3-0.2c-0.1-0.1-0.1-0.2,0-0.4c0.4-1,9.1-24.2,15.7-24.2c3.5,0,5.4,3.6,7.3,7.1
						c1.7,3.2,3.4,6.3,6,6.3c2,0,4.7-5.1,7.8-11c5.2-10,12.4-23.7,22.4-23.7c15.9,0,32.8,43.4,33.5,45.3c0,0.1,0,0.3,0,0.4
						c-0.1,0.1-0.2,0.2-0.3,0.2C293,146,203.7,146.2,202.8,146.2C202.8,146.2,202.8,146.2,202.8,146.2z M218.2,122.2
						c-4.9,0-12.1,16.2-14.8,23.2c7.4,0,83.3-0.2,90.9-0.2c-2-5.1-18.1-44.2-32.6-44.2c-9.6,0-16.6,13.4-21.7,23.2
						c-3.5,6.6-6,11.4-8.5,11.4c-3.1,0-5-3.4-6.7-6.7C223,125.6,221.2,122.2,218.2,122.2z"/>
				</g>
				<g>
					
						<ellipse transform="matrix(0.7071 -0.7071 0.7071 0.7071 -4.4871 190.3212)" class="st0" cx="227.5" cy="100.6" rx="6.9" ry="6.9"/>
					<path d="M227.5,107.9c-4,0-7.3-3.3-7.3-7.3c0-4,3.3-7.3,7.3-7.3c4,0,7.3,3.3,7.3,7.3C234.8,104.6,231.5,107.9,227.5,107.9z
						 M227.5,94c-3.6,0-6.5,2.9-6.5,6.5c0,3.6,2.9,6.5,6.5,6.5c3.6,0,6.5-2.9,6.5-6.5C234,97,231.1,94,227.5,94z"/>
				</g>
			</g>
			<g>
				<path class="st1" d="M453.8,277.9L353,278c-4.4,0-8-3.6-8-8v-72.9c0-4.4,3.6-8,8-8h100.8c4.4,0,8,3.6,8,8l0,72.8
					C461.8,274.3,458.2,277.9,453.8,277.9z"/>
				<polygon class="st0" points="424,233.6 391.6,214.9 391.6,252.3 				"/>
			</g>
			<g>
				<path d="M328.2,189.5H300c-0.2,0-0.4-0.2-0.4-0.4c0-0.2,0.2-0.4,0.4-0.4h28.1c0.2,0,0.4,0.2,0.4,0.4
					C328.6,189.4,328.4,189.5,328.2,189.5z"/>
				<path d="M294.6,189.5h-27.1c-0.2,0-0.4-0.2-0.4-0.4c0-0.2,0.2-0.4,0.4-0.4h27.1c0.2,0,0.4,0.2,0.4,0.4
					C295,189.4,294.9,189.5,294.6,189.5z"/>
				<path d="M262.2,189.5h-18.9c-0.2,0-0.4-0.2-0.4-0.4c0-0.2,0.2-0.4,0.4-0.4h18.9c0.2,0,0.4,0.2,0.4,0.4
					C262.6,189.4,262.4,189.5,262.2,189.5z"/>
				<path d="M322.7,202.6H312c-0.2,0-0.4-0.2-0.4-0.4c0-0.2,0.2-0.4,0.4-0.4h10.7c0.2,0,0.4,0.2,0.4,0.4
					C323.1,202.4,323,202.6,322.7,202.6z"/>
				<path d="M306.6,202.6h-46.3c-0.2,0-0.4-0.2-0.4-0.4c0-0.2,0.2-0.4,0.4-0.4h46.3c0.2,0,0.4,0.2,0.4,0.4
					C307,202.4,306.9,202.6,306.6,202.6z"/>
				<path d="M254.9,202.6h-17.1c-0.2,0-0.4-0.2-0.4-0.4c0-0.2,0.2-0.4,0.4-0.4h17.1c0.2,0,0.4,0.2,0.4,0.4
					C255.3,202.4,255.1,202.6,254.9,202.6z"/>
				<path d="M328.2,215.6h-45c-0.2,0-0.4-0.2-0.4-0.4c0-0.2,0.2-0.4,0.4-0.4h45c0.2,0,0.4,0.2,0.4,0.4
					C328.6,215.4,328.4,215.6,328.2,215.6z"/>
				<path d="M277.7,215.6h-39.9c-0.2,0-0.4-0.2-0.4-0.4c0-0.2,0.2-0.4,0.4-0.4h39.9c0.2,0,0.4,0.2,0.4,0.4
					C278.1,215.4,277.9,215.6,277.7,215.6z"/>
				<path d="M328.2,228.6h-36.1c-0.2,0-0.4-0.2-0.4-0.4c0-0.2,0.2-0.4,0.4-0.4h36.1c0.2,0,0.4,0.2,0.4,0.4
					C328.6,228.4,328.4,228.6,328.2,228.6z"/>
				<path d="M286.6,228.6h-24.2c-0.2,0-0.4-0.2-0.4-0.4c0-0.2,0.2-0.4,0.4-0.4h24.2c0.2,0,0.4,0.2,0.4,0.4
					C287,228.4,286.9,228.6,286.6,228.6z"/>
				<path d="M257,228.6h-19.2c-0.2,0-0.4-0.2-0.4-0.4c0-0.2,0.2-0.4,0.4-0.4H257c0.2,0,0.4,0.2,0.4,0.4
					C257.4,228.4,257.2,228.6,257,228.6z"/>
				<path d="M295.7,241.7h-21c-0.2,0-0.4-0.2-0.4-0.4c0-0.2,0.2-0.4,0.4-0.4h21c0.2,0,0.4,0.2,0.4,0.4
					C296.1,241.5,295.9,241.7,295.7,241.7z"/>
				<path d="M269.2,241.7h-31.4c-0.2,0-0.4-0.2-0.4-0.4c0-0.2,0.2-0.4,0.4-0.4h31.4c0.2,0,0.4,0.2,0.4,0.4
					C269.6,241.5,269.4,241.7,269.2,241.7z"/>
			</g>
			<g>
				<path d="M409.3,109.9h-28.1c-0.2,0-0.4-0.2-0.4-0.4s0.2-0.4,0.4-0.4h28.1c0.2,0,0.4,0.2,0.4,0.4S409.5,109.9,409.3,109.9z"/>
				<path d="M375.7,109.9h-27.1c-0.2,0-0.4-0.2-0.4-0.4s0.2-0.4,0.4-0.4h27.1c0.2,0,0.4,0.2,0.4,0.4S375.9,109.9,375.7,109.9z"/>
				<path d="M343.3,109.9h-18.9c-0.2,0-0.4-0.2-0.4-0.4s0.2-0.4,0.4-0.4h18.9c0.2,0,0.4,0.2,0.4,0.4S343.5,109.9,343.3,109.9z"/>
				<path d="M403.8,122.9h-10.7c-0.2,0-0.4-0.2-0.4-0.4c0-0.2,0.2-0.4,0.4-0.4h10.7c0.2,0,0.4,0.2,0.4,0.4
					C404.2,122.8,404.1,122.9,403.8,122.9z"/>
				<path d="M387.7,122.9h-46.3c-0.2,0-0.4-0.2-0.4-0.4c0-0.2,0.2-0.4,0.4-0.4h46.3c0.2,0,0.4,0.2,0.4,0.4
					C388.1,122.8,387.9,122.9,387.7,122.9z"/>
				<path d="M336,122.9h-17.1c-0.2,0-0.4-0.2-0.4-0.4c0-0.2,0.2-0.4,0.4-0.4H336c0.2,0,0.4,0.2,0.4,0.4
					C336.4,122.8,336.2,122.9,336,122.9z"/>
				<path d="M409.3,136h-45c-0.2,0-0.4-0.2-0.4-0.4c0-0.2,0.2-0.4,0.4-0.4h45c0.2,0,0.4,0.2,0.4,0.4
					C409.7,135.8,409.5,136,409.3,136z"/>
				<path d="M358.8,136h-39.9c-0.2,0-0.4-0.2-0.4-0.4c0-0.2,0.2-0.4,0.4-0.4h39.9c0.2,0,0.4,0.2,0.4,0.4
					C359.2,135.8,359,136,358.8,136z"/>
				<path d="M409.3,149h-36.1c-0.2,0-0.4-0.2-0.4-0.4s0.2-0.4,0.4-0.4h36.1c0.2,0,0.4,0.2,0.4,0.4S409.5,149,409.3,149z"/>
				<path d="M367.7,149h-24.2c-0.2,0-0.4-0.2-0.4-0.4s0.2-0.4,0.4-0.4h24.2c0.2,0,0.4,0.2,0.4,0.4S367.9,149,367.7,149z"/>
				<path d="M338.1,149h-19.2c-0.2,0-0.4-0.2-0.4-0.4s0.2-0.4,0.4-0.4h19.2c0.2,0,0.4,0.2,0.4,0.4S338.3,149,338.1,149z"/>
				<path d="M376.8,162h-21c-0.2,0-0.4-0.2-0.4-0.4c0-0.2,0.2-0.4,0.4-0.4h21c0.2,0,0.4,0.2,0.4,0.4C377.2,161.9,377,162,376.8,162z
					"/>
				<path d="M350.3,162h-31.4c-0.2,0-0.4-0.2-0.4-0.4c0-0.2,0.2-0.4,0.4-0.4h31.4c0.2,0,0.4,0.2,0.4,0.4
					C350.7,161.9,350.5,162,350.3,162z"/>
			</g>
			<g>
				<path class="st2" d="M409.9,64.4h-85.7c-1.9,0-3.5-1.6-3.5-3.5c0-1.9,1.6-3.5,3.5-3.5h85.7c1.9,0,3.5,1.6,3.5,3.5
					C413.4,62.9,411.8,64.4,409.9,64.4z"/>
				<path class="st2" d="M363.6,76.3h-39.4c-1.9,0-3.5-1.6-3.5-3.5s1.6-3.5,3.5-3.5h39.4c1.9,0,3.5,1.6,3.5,3.5
					C367,74.7,365.5,76.3,363.6,76.3z"/>
				<path class="st2" d="M383.7,88.2h-59.5c-1.9,0-3.5-1.6-3.5-3.5s1.6-3.5,3.5-3.5h59.5c1.9,0,3.5,1.6,3.5,3.5
					C387.2,86.6,385.6,88.2,383.7,88.2z"/>
			</g>
		</g>
	</g>
	<g>
		<g>
			<g>
				<path class="st0" d="M154.8,173.3l-6,17.5c-0.4,1.1-1.3,1.9-2.5,2.2l-2.7,0.5c0,0,6.9,15,18.6,12.5c11.7-2.5,9.1-12.5,9.1-12.5
					l-2.5-0.2c-1.5-0.1-2.5-1.5-2.1-3l2.8-10.7C169.5,179.6,158.2,170.5,154.8,173.3z"/>
				<path d="M159.7,206.7c-10.2,0-16.3-12.9-16.3-13c-0.1-0.1,0-0.2,0-0.3c0.1-0.1,0.2-0.2,0.3-0.2l2.7-0.5c1-0.2,1.9-0.9,2.2-1.9
					l6-17.5c0-0.1,0.1-0.1,0.1-0.2c3.6-3,14,5.3,15.2,6.2c0.1,0.1,0.2,0.3,0.1,0.4l-2.8,10.7c-0.1,0.6,0,1.2,0.3,1.7
					c0.3,0.5,0.9,0.8,1.5,0.8l2.5,0.2c0.2,0,0.3,0.1,0.4,0.3c0,0.2,1,4.2-1.2,7.9c-1.6,2.6-4.3,4.3-8.2,5.1
					C161.4,206.6,160.5,206.7,159.7,206.7z M144.3,193.8c1.3,2.5,7.8,14,17.9,11.8c3.6-0.8,6.2-2.4,7.7-4.7c1.8-2.9,1.4-6.1,1.2-7
					l-2.2-0.2c-0.8-0.1-1.6-0.5-2-1.2c-0.5-0.7-0.6-1.5-0.4-2.3l2.7-10.5c-3.2-2.5-11.3-8.1-13.9-6.2l-5.9,17.4
					c-0.4,1.2-1.5,2.2-2.8,2.4L144.3,193.8z"/>
			</g>
			<g>
				<path d="M175.2,174c0,0,6.4-3.2,9-10.5c2.7-7.4-1-8.4-2.9-5.4c0,0,0.9-9.1-5.1-3.9c0,0-0.3-7.8-5.7-0.5c0,0-0.6-5.1-4.9,1.5
					c0,0-3.9-2.7-8.1,2.1c-4.2,4.9-4,12.4-0.8,16.3C159.8,177.5,175.2,174,175.2,174z"/>
				<g>
					<path class="st0" d="M158.4,177.6c0,0,0.3,7.3,7.9,8.8c7.5,1.5,11.1-7.4,14.1-17.3c-1.1,0.6-3,1.1-4.4,0.9
						c-4.9-0.5-7.7-4-8.3-5c-1,2.5-1.8,3.6-3.3,4.6c-0.9,0.5-2,1-3.9,0.3c0,0,0.2-3.3-3.1-2.6C153.9,168.1,152.2,175.8,158.4,177.6z
						"/>
					<path d="M167.9,187c-0.5,0-1.1-0.1-1.7-0.2c-6.9-1.4-8-7.5-8.2-8.9c-2.7-0.9-4.3-3-4.2-5.8c0.1-2.5,1.5-4.7,3.3-5.1
						c1.1-0.2,2-0.1,2.6,0.5c0.8,0.7,0.9,1.7,0.9,2.3c1.6,0.5,2.6,0.1,3.3-0.4c1.5-1,2.3-2,3.2-4.4c0.1-0.1,0.2-0.2,0.3-0.3
						c0.1,0,0.3,0.1,0.4,0.2c0,0,2.7,4.3,8,4.8c1.3,0.1,3.2-0.2,4.2-0.9c0.1-0.1,0.3-0.1,0.4,0c0.1,0.1,0.2,0.3,0.1,0.4
						C178.1,177.9,174.8,187,167.9,187z M158.2,167.7c-0.2,0-0.5,0-0.8,0.1c-1.5,0.3-2.7,2.3-2.7,4.4c0,1.2,0.3,4.1,3.9,5.1
						c0.2,0,0.3,0.2,0.3,0.4c0,0.3,0.4,7,7.6,8.4c0.5,0.1,1,0.2,1.5,0.2c6.1,0,9.4-8.2,11.9-16.3c-1.2,0.5-2.7,0.7-3.8,0.6
						c-4-0.4-6.9-2.9-8.2-4.6c-0.9,2.1-1.7,3.1-3.2,4.1c-0.9,0.6-2.2,1.1-4.3,0.4c-0.2-0.1-0.3-0.2-0.3-0.4c0,0,0.1-1.3-0.7-1.9
						C159,167.8,158.6,167.7,158.2,167.7z"/>
				</g>
			</g>
			<path d="M158.4,173.4c-0.2,0-0.3-0.1-0.4-0.3c-0.2-0.5-0.3-1-0.6-1.4c-0.3-0.4-0.7-0.6-1-0.7c-0.2,0-0.4-0.2-0.4-0.4
				c0-0.2,0.2-0.4,0.4-0.4c0.6,0,1.2,0.4,1.6,1c0.3,0.5,0.5,1.1,0.7,1.6c0.1,0.2,0,0.4-0.2,0.5C158.5,173.4,158.5,173.4,158.4,173.4
				z"/>
		</g>
		<g>
			<g>
				<path class="st0" d="M139.2,268.5l35.4-4.4l3.4,8.1l-27.4,13.3C150.5,285.5,137,276.1,139.2,268.5z"/>
				<path d="M150.5,285.9c-0.1,0-0.2,0-0.2-0.1c-0.6-0.4-13.8-9.6-11.5-17.4c0-0.2,0.2-0.3,0.3-0.3l35.4-4.4c0.2,0,0.3,0.1,0.4,0.2
					l3.4,8.1c0.1,0.2,0,0.4-0.2,0.5l-27.4,13.3C150.6,285.9,150.6,285.9,150.5,285.9z M139.5,268.9c-1.6,6.7,9.5,15,11.1,16.2
					l26.8-13.1l-3.1-7.5L139.5,268.9z"/>
			</g>
			<g>
				<g>
					<g>
						<path class="st0" d="M130.4,296.7c0,0,88.2-62.6,114.9-55.3c26.7,7.3,20.7,41.7,5,55c-10.9,9.2-28.2,24-77.1,35.3
							C124.3,343.1,130.4,296.7,130.4,296.7z"/>
						<path d="M159.1,333.9c-8.3,0-14.9-2.2-19.8-6.7c-11.7-10.6-9.3-30.4-9.3-30.6c0-0.1,0.1-0.2,0.2-0.3
							c0.2-0.2,22.4-15.8,47.5-30.4c33.8-19.6,56.6-28,67.8-25c12.2,3.4,16.5,11.8,18,18.4c1.4,6.2,0.8,13.5-1.7,20.5
							c-2.4,6.8-6.4,12.8-11.1,16.8l-0.2,0.1c-10.6,9-28.4,23.9-77.1,35.3C168.1,333.3,163.4,333.9,159.1,333.9z M130.7,296.9
							c-0.2,1.9-1.8,19.9,9,29.7c7.3,6.6,18.5,8.1,33.3,4.7c48.5-11.3,65.5-25.6,76.7-35.1l0.2-0.1c9.8-8.2,15.3-24.3,12.6-36.5
							c-1.4-6.3-5.5-14.5-17.4-17.8C219.5,234.7,134.8,294.1,130.7,296.9z"/>
					</g>
					<path d="M207,320.9c-0.2,0-0.3-0.1-0.4-0.2c-4.5-11.1-24.8-32.9-25-33.1c-0.1-0.2-0.1-0.4,0-0.6c0.2-0.1,0.4-0.1,0.6,0
						c0.8,0.9,20.6,22,25.2,33.3c0.1,0.2,0,0.4-0.2,0.5C207.1,320.9,207,320.9,207,320.9z"/>
				</g>
				<path d="M149.6,305.4c-0.1,0-0.2,0-0.3-0.1c-0.1-0.2-0.1-0.4,0-0.6c13.5-11.3,74.6-44.2,75.2-44.5c0.2-0.1,0.4,0,0.5,0.2
					c0.1,0.2,0,0.4-0.2,0.5c-0.6,0.3-61.6,33.2-75.1,44.4C149.7,305.4,149.7,305.4,149.6,305.4z"/>
			</g>
			<g>
				<path class="st0" d="M205.2,328.9c0.7,0.8,0.8,2,0.4,3c-0.5,1-1.4,1.6-2.5,1.6c-8.5,0-29.5,0-76.2,0c-7.9,0-15.5-3-21.3-8.4
					c-8.2-7.6-20.6-19.3-31-29.6c-11.8-11.7-15.6-29.3-9.5-44.8c0.1-0.2,0.2-0.5,0.3-0.7c5.1-13,21.1-17.8,32.5-9.7
					c23,16.3,59.3,43.2,73.8,59.2C171.6,299.6,196.2,317.9,205.2,328.9z"/>
				<path d="M203.1,333.9h-76.2c-8,0-15.7-3-21.5-8.5c-8.4-7.8-20.7-19.4-31-29.6c-11.9-11.8-15.7-29.5-9.6-45.2l0.3-0.7
					c2.5-6.3,7.7-11.1,14.2-13c6.5-1.9,13.4-0.8,18.9,3.1c21.2,15.1,59.1,42.9,73.8,59.2c1,0.8,24.9,18.6,33.7,29.4
					c0.8,0.9,0.9,2.3,0.4,3.4C205.4,333.2,204.3,333.9,203.1,333.9z M85.4,236.8c-2,0-4,0.3-6,0.9c-6.3,1.9-11.3,6.4-13.7,12.5
					l-0.3,0.7c-6,15.4-2.3,32.8,9.4,44.4c10.3,10.2,22.6,21.7,31,29.6c5.7,5.3,13.2,8.3,21,8.3h76.2c0.9,0,1.8-0.5,2.2-1.4
					c0.4-0.8,0.3-1.8-0.3-2.5c-8.9-10.9-33.4-29.1-33.6-29.3c0,0,0,0-0.1-0.1c-14.6-16.3-52.5-44.1-73.7-59.2
					C93.9,238.1,89.7,236.8,85.4,236.8z"/>
			</g>
			<path d="M141.6,333.9c-0.1,0-0.1,0-0.2-0.1c-18.5-10.9-39.6-29.7-53.9-47.9c-1.9-2.5-3.9-5.1-5-8.1c-0.1-0.2,0-0.4,0.2-0.5
				c0.2-0.1,0.4,0,0.5,0.2c1.1,2.9,3.1,5.5,4.9,7.9c14.2,18.2,35.2,36.9,53.7,47.7c0.2,0.1,0.3,0.4,0.1,0.5
				C141.9,333.8,141.7,333.9,141.6,333.9z"/>
			<path d="M137.7,327.8c-0.1,0-0.2,0-0.3-0.1c-0.2-0.1-0.2-0.4,0-0.6c9.5-10.9,20.6-20.4,32.8-28.2c0.2-0.1,0.4-0.1,0.5,0.1
				c0.1,0.2,0.1,0.4-0.1,0.5c-12.2,7.8-23.2,17.2-32.6,28.1C138,327.7,137.8,327.8,137.7,327.8z"/>
			<path d="M128.2,319.5c-0.1,0-0.2,0-0.3-0.1c-0.2-0.2-0.2-0.4,0-0.6c9.9-10.2,20.8-19.6,32.4-27.8c0.2-0.1,0.4-0.1,0.6,0.1
				c0.1,0.2,0.1,0.4-0.1,0.6c-11.6,8.2-22.4,17.5-32.3,27.7C128.4,319.4,128.3,319.5,128.2,319.5z"/>
		</g>
		<g>
			<g>
				<path class="st0" d="M196.3,201.4c-3.4-4.7-8.7-7.6-14.5-8.2c-3.3-0.3-7.4-0.6-12-0.9c-0.3,0.8-0.6,1.6-1.1,2.4
					c-1.3,2.2-3.4,4-5.7,4.9c-2.3,0.9-5,1.2-7.5,0.9c-2.1-0.2-4.9-1.3-6.5-2.9c-1.5-1.4-2.6-3.5-3.5-5.3c-4.2,0.2-7.5,0.6-11.4,1.2
					c-7.5,1.2-14,5.6-18,12.1c-7.2,11.8-19.8,32.8-20.5,49.7c-1.1,27.2,46.9,13.8,46.9,13.8l42.6,0.3l32.1-25.3
					C217.2,244.2,208.3,217.6,196.3,201.4z"/>
				<path d="M119,273c-6.9,0-13.9-1.1-18.5-4.8c-3.7-2.9-5.5-7.2-5.3-12.8c0.7-17.6,14.1-39.4,20.5-49.9c4-6.6,10.7-11.1,18.3-12.2
					c3.9-0.6,7.2-1,11.4-1.2c0.2,0,0.3,0.1,0.4,0.2c1,1.9,2,3.8,3.4,5.2c1.7,1.6,4.4,2.6,6.3,2.8c2.7,0.3,5.2-0.1,7.4-0.9
					c2.2-0.9,4.2-2.6,5.6-4.8c0.4-0.7,0.8-1.5,1-2.3c0.1-0.2,0.2-0.3,0.4-0.3c4,0.2,8,0.5,12,0.9c5.9,0.5,11.3,3.6,14.8,8.3
					c11.9,16,20.9,42.7,21,42.9c0.1,0.2,0,0.3-0.1,0.4l-32.1,25.3c-0.1,0.1-0.2,0.1-0.2,0.1l-42.5-0.3
					C141.5,269.9,130.3,273,119,273z M145.2,192.8c-4,0.2-7.3,0.6-11.1,1.2c-7.3,1.1-13.8,5.5-17.7,11.9
					C110,216.3,96.7,238,96,255.4c-0.2,5.3,1.5,9.4,5,12.1c11.9,9.4,41.1,1.4,41.4,1.3c0,0,0.1,0,0.1,0l42.4,0.3l31.8-25
					c-1-2.8-9.6-27.4-20.8-42.4c-3.4-4.6-8.6-7.5-14.2-8c-3.9-0.4-7.8-0.6-11.7-0.8c-0.3,0.8-0.6,1.5-1,2.2
					c-1.4,2.3-3.5,4.1-5.9,5.1c-2.3,0.9-4.9,1.2-7.7,0.9c-2.4-0.2-5.1-1.5-6.7-3C147.2,196.6,146.2,194.7,145.2,192.8z"/>
			</g>
			<g>
				<path class="st0" d="M130.4,231.9l-23.2-11.7c-0.6-0.3-0.9-1.1-0.5-1.7l3.2-5.5c0.3-0.5,1-0.7,1.6-0.5l22.8,11.2
					c0.6,0.3,0.8,1,0.6,1.6l-2.8,5.9C131.8,231.9,131,232.2,130.4,231.9z"/>
				<path d="M131,232.4c-0.2,0-0.5-0.1-0.7-0.2L107,220.6c-0.4-0.2-0.7-0.6-0.8-1c-0.1-0.4-0.1-0.9,0.2-1.3l3.2-5.5
					c0.4-0.7,1.3-1,2.1-0.6l22.8,11.2c0.8,0.4,1.1,1.3,0.7,2.1l-2.8,5.9c-0.2,0.4-0.5,0.7-0.9,0.8
					C131.3,232.4,131.1,232.4,131,232.4z M111,212.9c-0.3,0-0.6,0.1-0.7,0.4l-3.2,5.5c-0.1,0.2-0.1,0.4-0.1,0.6
					c0.1,0.2,0.2,0.4,0.4,0.5l23.2,11.7c0.2,0.1,0.4,0.1,0.6,0c0.2-0.1,0.4-0.2,0.5-0.4l2.8-5.9c0.2-0.4,0-0.9-0.4-1.1l-22.8-11.2
					C111.2,212.9,111.1,212.9,111,212.9z"/>
			</g>
			<g>
				<path class="st0" d="M206.5,219.1l-17.8,7.1c-0.5,0.2-1.1-0.2-1.3-0.9l-2.1-6c-0.2-0.6,0-1.2,0.4-1.4l17.3-7.1
					c0.4-0.2,1,0.2,1.3,0.8l2.5,6C207.2,218.3,207,219,206.5,219.1z"/>
				<path d="M188.5,226.7c-0.2,0-0.3,0-0.5-0.1c-0.4-0.2-0.8-0.6-0.9-1.1l-2.1-6c-0.3-0.8,0-1.6,0.6-1.9l17.3-7.1
					c0.7-0.3,1.4,0.2,1.8,1l2.5,6c0.2,0.5,0.2,1,0,1.4c-0.1,0.3-0.3,0.5-0.6,0.6l-17.8,7.1C188.8,226.6,188.7,226.7,188.5,226.7z
					 M203.3,211.3c0,0-0.1,0-0.1,0l-17.3,7.1c-0.2,0.1-0.3,0.5-0.2,0.9l2.1,6c0.1,0.3,0.3,0.5,0.5,0.6c0.1,0,0.2,0.1,0.3,0l17.8-7.1
					c0.1,0,0.2-0.1,0.2-0.2c0.1-0.2,0.1-0.5,0-0.8l-2.5-6C203.8,211.5,203.5,211.3,203.3,211.3z"/>
			</g>
			<g>
				<path class="st0" d="M192.3,237.8c0,0-6.1-15.6-8.9-24.9L192.3,237.8z"/>
				<path d="M192.3,238.2c-0.2,0-0.3-0.1-0.4-0.3c-0.1-0.2-6.1-15.7-8.9-25c-0.1-0.2,0.1-0.4,0.3-0.5c0.2-0.1,0.4,0.1,0.5,0.3
					c2.8,9.2,8.9,24.8,8.9,24.9c0.1,0.2,0,0.4-0.2,0.5C192.4,238.1,192.3,238.2,192.3,238.2z"/>
			</g>
			<g>
				<path d="M142.7,269.5c-0.2,0-0.3-0.1-0.4-0.2c-0.1-0.2,0-0.4,0.2-0.5c4.8-2.1,10.3-3.3,14.7-3.3l20.1,0.2c0-2-0.2-11.2-6.5-17.3
					c-4.6-4.4-11.5-6.2-20.4-5.2c-0.2,0-0.4-0.1-0.4-0.3c0-0.2,0.1-0.4,0.3-0.4c9.2-1,16.2,0.8,21.1,5.4c7.3,7,6.8,18.1,6.8,18.2
					c0,0.2-0.2,0.4-0.4,0.4l-20.5-0.2c-4.3,0-9.7,1.2-14.4,3.2C142.8,269.5,142.7,269.5,142.7,269.5z"/>
				<path d="M162.6,266.6C162.6,266.6,162.6,266.6,162.6,266.6c-0.3,0-0.4-0.2-0.4-0.5c0.2-1.4-0.1-3-1-4.5
					c-0.7-1.2-1.7-2.4-3.2-3.6c-0.3-0.2-0.5-0.4-0.9-0.6c-0.2-0.1-0.3-0.3-0.2-0.5c0.1-0.2,0.3-0.3,0.5-0.2c0.4,0.2,0.7,0.4,1,0.7
					c1.5,1.2,2.6,2.5,3.3,3.8c0.9,1.6,1.3,3.4,1,5C163,266.4,162.8,266.6,162.6,266.6z"/>
				<path d="M169.3,266.2c-0.2,0-0.4-0.1-0.4-0.3c-0.2-1.7-0.6-3.8-1.4-5.7c-0.8-2-1.9-3.5-3.3-4.6c-0.2-0.1-0.2-0.4-0.1-0.6
					c0.1-0.2,0.4-0.2,0.6-0.1c1.5,1.1,2.7,2.9,3.6,4.9c0.8,2,1.2,4.1,1.4,5.9C169.7,265.9,169.5,266.1,169.3,266.2
					C169.3,266.2,169.3,266.2,169.3,266.2z"/>
				<path d="M174.6,266.2C174.6,266.2,174.5,266.2,174.6,266.2c-0.3,0-0.4-0.2-0.4-0.4c0.9-7.4-4-12-4-12c-0.2-0.1-0.2-0.4,0-0.6
					c0.1-0.2,0.4-0.2,0.6,0c0.2,0.2,5.2,4.9,4.2,12.7C174.9,266,174.8,266.2,174.6,266.2z"/>
			</g>
			<g>
				<path d="M227.8,270.1H153c-0.4,0-0.9-0.1-1.3-0.4c-0.9-0.6-1.2-1.6-0.8-2.5c0.9-1.8,2.7-2.5,5.4-2.5h76.4l-1,2.7
					C231.1,269,229.6,270.1,227.8,270.1z"/>
				<path d="M228.2,270.1c1.5,0,2.8-0.9,3.4-2.3l13.2-33.2c0.4-0.9,0.2-1.9-0.3-2.7c-0.5-0.8-1.4-1.3-2.4-1.3h-46
					c-2.8,0-5.2,1.7-6.2,4.4l-12.4,35.1H228.2z"/>
				<path class="st0" d="M229.3,265.4h-45.6c-0.2,0-0.4-0.2-0.4-0.4c0-0.2,0.2-0.4,0.4-0.4h45.6c0.2,0,0.4,0.2,0.4,0.4
					C229.7,265.2,229.5,265.4,229.3,265.4z"/>
			</g>
			<path d="M115.4,243.7c-0.2,0-0.4-0.2-0.4-0.4c0-0.2,0.2-0.4,0.4-0.4l35-0.5c0,0,0,0,0,0c0.2,0,0.4,0.2,0.4,0.4
				c0,0.2-0.2,0.4-0.4,0.4L115.4,243.7C115.4,243.7,115.4,243.7,115.4,243.7z"/>
			<path d="M126,243.4c0,0-0.1,0-0.1,0c-0.2-0.1-0.3-0.3-0.2-0.5c0.2-0.4,0.3-0.9,0.5-1.4c1-2.8,2.4-6.5,3.9-9.6
				c0.1-0.2,0.3-0.3,0.5-0.2c0.2,0.1,0.3,0.3,0.2,0.5c-1.5,3.1-2.9,6.8-3.9,9.6c-0.2,0.5-0.4,1-0.5,1.4
				C126.3,243.3,126.2,243.4,126,243.4z"/>
		</g>
	</g>
	<g>
		<path class="st0" d="M507.3,72.4h-2.6c-26.6,0-48.2,21.6-48.2,48.2c0,26.6,21.6,48.2,48.2,48.2h0.5c26.6,0,48.2-21.6,48.2-48.2
			v-19.4L507.3,72.4z"/>
		<path d="M505.2,169.3h-0.5c-26.8,0-48.6-21.8-48.6-48.6S477.9,72,504.7,72h2.6c0.2,0,0.4,0.2,0.4,0.4c0,0.2-0.2,0.4-0.4,0.4h-2.6
			c-26.4,0-47.8,21.5-47.8,47.8s21.5,47.8,47.8,47.8h0.5c26.4,0,47.8-21.5,47.8-47.8v-19.4c0-0.2,0.2-0.4,0.4-0.4s0.4,0.2,0.4,0.4
			v19.4C553.8,147.4,532,169.3,505.2,169.3z"/>
		<g>
			<g>
				<g>
					<path class="st0" d="M497.7,130.6l-0.4,4.5c-0.4,3.4,2,6.5,5.4,7.1c3.4,0.6,6.6-1.6,7.4-4.9l1.1-4.4L497.7,130.6z"/>
					<path d="M503.7,142.7c-0.4,0-0.8,0-1.1-0.1c-3.6-0.6-6.1-3.9-5.7-7.5l0.4-4.5c0-0.1,0.1-0.2,0.2-0.3c0.1-0.1,0.2-0.1,0.3-0.1
						l13.4,2.3c0.1,0,0.2,0.1,0.3,0.2c0.1,0.1,0.1,0.2,0.1,0.3l-1.1,4.4C509.7,140.5,506.9,142.7,503.7,142.7z M498,131.1l-0.4,4
						c-0.3,3.2,1.9,6.1,5.1,6.7c3.2,0.5,6.2-1.5,7-4.6l1-3.9L498,131.1z"/>
				</g>
				<g>
					<path class="st0" d="M515.4,107.6l0.4-4.5c0.4-3.4-2-6.5-5.4-7.1c-3.4-0.6-6.6,1.6-7.4,4.9l-1.1,4.4L515.4,107.6z"/>
					<path d="M515.4,108C515.4,108,515.3,108,515.4,108l-13.5-2.3c-0.1,0-0.2-0.1-0.3-0.2c-0.1-0.1-0.1-0.2-0.1-0.3l1.1-4.4
						c0.8-3.5,4.3-5.8,7.9-5.2c3.6,0.6,6.1,3.9,5.7,7.5l-0.4,4.5c0,0.1-0.1,0.2-0.2,0.3C515.6,108,515.5,108,515.4,108z M502.4,105
						l12.6,2.1l0.4-4c0.3-3.2-1.9-6.1-5.1-6.7c-3.2-0.5-6.2,1.5-7,4.6L502.4,105z"/>
				</g>
				<g>
					<path class="st0" d="M521.6,130.4c-2.5-3.6-3.8-7.7-3.4-11.8l0.6-7.4c0.3-2.9-1-5.6-3.1-7.6l-12.7-2.1
						c-2.7,1.2-4.8,3.3-5.5,6.1l-1.8,7.2c-1,4-3.5,7.5-7.1,10c-1.8,1.3-3,3.1-3.3,5.2l37.8,6.4C523.4,134.3,522.8,132.2,521.6,130.4
						z"/>
					<path d="M523,136.8C523,136.8,523,136.8,523,136.8l-37.8-6.4c-0.1,0-0.2-0.1-0.3-0.2c-0.1-0.1-0.1-0.2-0.1-0.3
						c0.4-2.2,1.6-4.1,3.5-5.5c3.6-2.6,5.9-6,6.9-9.8l1.8-7.2c0.7-2.8,2.8-5.1,5.7-6.4c0.1,0,0.1,0,0.2,0l12.7,2.1
						c0.1,0,0.1,0,0.2,0.1c2.3,2.1,3.5,5,3.3,7.9l-0.6,7.4c-0.3,4,0.8,7.9,3.3,11.5c1.3,1.9,1.9,4.1,1.5,6.3
						C523.4,136.7,523.2,136.8,523,136.8z M485.8,129.8l37,6.2c0.2-1.8-0.3-3.7-1.4-5.3c-2.6-3.7-3.8-7.9-3.5-12l0.6-7.4
						c0.2-2.6-0.8-5.2-2.9-7.2l-12.4-2.1c-2.6,1.2-4.5,3.3-5.1,5.8l-1.8,7.2c-1,4-3.5,7.6-7.2,10.2
						C487.2,126.4,486.2,128,485.8,129.8z"/>
				</g>
			</g>
			<path d="M527.5,141.7c-0.1,0-0.2,0-0.3-0.1c-0.2-0.2-0.1-0.4,0-0.6c0.4-0.4,0.5-1.1,0.7-1.8c0.1-0.7,0.3-1.5,0.7-2
				c0.4-0.6,1.1-0.9,1.8-1.2c0.7-0.3,1.3-0.6,1.6-1.1c0.3-0.5,0.2-1.2,0.1-1.9c-0.1-0.7-0.2-1.5,0-2.1c0.2-0.6,0.8-1.2,1.3-1.7
				c0.6-0.5,1.1-1,1.2-1.6c0-0.3-0.3-0.7-0.6-1.1c-0.4-0.5-0.8-1-0.7-1.6c0-0.6,0.5-1,0.9-1.5c0.3-0.3,0.7-0.7,0.7-1
				c0-0.3-0.4-0.6-0.8-0.9c-0.5-0.4-1-0.8-1-1.4c-0.1-0.5,0.2-1.1,0.6-1.6c0.2-0.4,0.5-0.9,0.5-1.1c-0.1-0.2,0.1-0.4,0.3-0.5
				c0.2-0.1,0.4,0.1,0.5,0.3c0.2,0.6-0.2,1.2-0.5,1.7c-0.2,0.4-0.5,0.8-0.5,1.1c0,0.3,0.4,0.6,0.8,0.9c0.5,0.4,1,0.9,1.1,1.5
				c0,0.6-0.4,1.1-0.9,1.6c-0.3,0.3-0.7,0.7-0.7,1c0,0.3,0.3,0.7,0.6,1c0.4,0.5,0.8,1.1,0.7,1.7c-0.1,0.8-0.8,1.4-1.4,2
				c-0.5,0.5-0.9,0.9-1.1,1.4c-0.2,0.5-0.1,1.1,0,1.8c0.1,0.8,0.2,1.7-0.2,2.4c-0.4,0.7-1.2,1.1-2,1.4c-0.6,0.3-1.2,0.6-1.5,1
				c-0.3,0.4-0.4,1-0.5,1.7c-0.2,0.8-0.3,1.7-0.9,2.3C527.7,141.7,527.6,141.7,527.5,141.7z"/>
			<path d="M530.7,146.9c-0.1,0-0.2,0-0.3-0.1c-0.1-0.2-0.1-0.4,0-0.6c0.6-0.5,1-1.4,1.3-2.4c0.3-0.8,0.6-1.7,1.2-2.3
				c0.6-0.6,1.3-1.1,2.1-1.5c0.9-0.5,1.7-1,2.1-1.7c0.4-0.7,0.4-1.7,0.4-2.7c0-0.9,0-1.8,0.3-2.6c0.3-0.8,0.9-1.5,1.4-2.1
				c0.7-0.8,1.3-1.5,1.4-2.4c0.1-0.5-0.2-1.2-0.6-1.9c-0.3-0.7-0.7-1.3-0.6-2c0-0.7,0.4-1.4,0.8-2c0.4-0.6,0.7-1.3,0.7-1.8
				c-0.1-0.5-0.5-1.1-1-1.6c-0.5-0.6-1-1.1-1.2-1.8c-0.2-0.7,0-1.4,0.2-2.1c0.2-0.7,0.4-1.4,0.2-1.9c-0.1-0.2,0-0.4,0.2-0.5
				c0.2-0.1,0.4,0,0.5,0.2c0.3,0.7,0.1,1.6-0.1,2.4c-0.2,0.7-0.3,1.3-0.2,1.8c0.1,0.5,0.5,1,1,1.5c0.6,0.6,1.1,1.3,1.2,2.1
				c0.1,0.8-0.3,1.5-0.8,2.3c-0.3,0.6-0.7,1.1-0.7,1.7c0,0.5,0.3,1.1,0.6,1.7c0.4,0.8,0.8,1.5,0.6,2.3c-0.2,1.1-0.9,1.9-1.6,2.7
				c-0.5,0.6-1,1.2-1.3,1.9c-0.2,0.7-0.3,1.5-0.3,2.3c0,1.1,0,2.2-0.6,3.1c-0.5,0.9-1.5,1.4-2.4,2c-0.7,0.4-1.4,0.8-1.9,1.3
				c-0.5,0.5-0.7,1.3-1,2.1c-0.4,1-0.8,2-1.6,2.7C530.9,146.8,530.8,146.9,530.7,146.9z"/>
			<path d="M479.5,132.6c-0.1,0-0.3-0.1-0.4-0.2c-0.2-0.5-0.8-0.8-1.3-1.2c-0.7-0.5-1.4-1-1.6-1.8c-0.3-0.8,0-1.6,0.3-2.4
				c0.2-0.6,0.4-1.2,0.3-1.7c-0.1-0.5-0.5-1-0.9-1.5c-0.5-0.7-1-1.4-1-2.2c0-0.8,0.5-1.5,1-2.2c0.4-0.5,0.8-1.1,0.9-1.6
				c0-0.3-0.2-0.7-0.5-1.1c-0.3-0.6-0.7-1.2-0.5-1.7c0.2-0.6,0.8-0.9,1.4-1.2c0.4-0.2,0.9-0.5,1-0.7c0.1-0.2-0.1-0.7-0.2-1.2
				c-0.2-0.6-0.4-1.3-0.1-1.8c0.3-0.5,1-0.7,1.6-0.9c0.4-0.1,0.9-0.3,1.1-0.5c0.1-0.2,0.4-0.2,0.5-0.1c0.2,0.1,0.2,0.4,0.1,0.5
				c-0.3,0.5-0.9,0.6-1.5,0.8c-0.5,0.1-1,0.3-1.1,0.5c-0.1,0.2,0,0.7,0.2,1.2c0.2,0.6,0.4,1.2,0.2,1.7c-0.2,0.5-0.8,0.8-1.3,1.1
				c-0.4,0.2-0.9,0.5-1,0.7c-0.1,0.2,0.2,0.7,0.4,1.1c0.3,0.5,0.6,1.1,0.5,1.6c-0.1,0.7-0.6,1.3-1,1.9c-0.4,0.6-0.9,1.2-0.9,1.7
				c0,0.6,0.4,1.1,0.9,1.8c0.4,0.6,0.9,1.2,1,1.9c0.1,0.7-0.1,1.4-0.3,2.1c-0.2,0.7-0.5,1.4-0.3,1.9c0.2,0.5,0.7,0.9,1.4,1.4
				c0.6,0.4,1.2,0.9,1.6,1.5c0.1,0.2,0,0.4-0.2,0.5C479.6,132.6,479.5,132.6,479.5,132.6z"/>
			<path d="M474.6,136.3c-0.1,0-0.3-0.1-0.3-0.2c-0.4-0.6-1-1.1-1.7-1.7c-0.8-0.7-1.7-1.4-2-2.3c-0.4-1-0.2-2.1-0.1-3.1
				c0.1-0.8,0.2-1.6,0.1-2.3c-0.1-0.7-0.5-1.4-1-2.1c-0.6-0.9-1.1-1.9-1.2-2.9c0-1,0.5-2,1-2.9c0.4-0.7,0.8-1.4,0.9-2.1
				c0.1-0.5-0.1-1.1-0.3-1.8c-0.3-0.8-0.5-1.6-0.3-2.4c0.2-0.8,0.9-1.3,1.6-1.8c0.5-0.4,1.1-0.8,1.3-1.2c0.2-0.5,0.2-1.1,0.2-1.8
				c0-0.8-0.1-1.7,0.4-2.4c0.4-0.7,1.2-1,2-1.3c0.6-0.2,1.2-0.5,1.6-0.9c0.1-0.2,0.4-0.2,0.6,0c0.2,0.1,0.2,0.4,0,0.6
				c-0.5,0.5-1.2,0.8-1.9,1.1c-0.7,0.3-1.3,0.5-1.6,1c-0.3,0.5-0.3,1.2-0.2,1.9c0,0.7,0.1,1.5-0.2,2.1c-0.3,0.6-0.9,1.1-1.5,1.5
				c-0.6,0.4-1.2,0.9-1.3,1.4c-0.2,0.5,0.1,1.2,0.3,1.9c0.2,0.7,0.5,1.4,0.4,2.1c-0.1,0.8-0.6,1.6-1,2.4c-0.5,0.9-1,1.7-0.9,2.5
				c0,0.8,0.5,1.7,1,2.5c0.4,0.7,0.9,1.5,1.1,2.3c0.2,0.8,0,1.7-0.1,2.6c-0.1,1-0.3,1.9,0,2.7c0.3,0.8,1,1.4,1.8,2
				c0.7,0.6,1.4,1.1,1.8,1.9c0.1,0.2,0,0.4-0.1,0.5C474.8,136.3,474.7,136.3,474.6,136.3z"/>
		</g>
	</g>
	<g>
		<g>
			<path class="st0" d="M148.2,140.1L135.1,129H95.2C76.9,129,62,114.1,62,95.8c0-18.3,14.9-33.2,33.2-33.2H115
				c18.3,0,33.2,14.9,33.2,33.2V140.1z"/>
			<path d="M148.2,140.5c-0.1,0-0.2,0-0.3-0.1l-13-11.1H95.2c-18.5,0-33.6-15.1-33.6-33.6s15.1-33.6,33.6-33.6H115
				c18.5,0,33.6,15.1,33.6,33.6v44.3c0,0.2-0.1,0.3-0.2,0.4C148.3,140.5,148.3,140.5,148.2,140.5z M95.2,63
				c-18.1,0-32.8,14.7-32.8,32.8c0,18.1,14.7,32.8,32.8,32.8h39.9c0.1,0,0.2,0,0.3,0.1l12.4,10.6V95.8c0-18.1-14.7-32.8-32.8-32.8
				H95.2z"/>
		</g>
		<path class="st1" d="M107.1,84l-2,2l-2-2c-3.9-3.9-10.3-3.9-14.2,0c-3.9,3.9-3.9,10.3,0,14.2l16.2,16.2l16.2-16.2
			c3.9-3.9,3.9-10.3,0-14.2C117.4,80.1,111,80.1,107.1,84z"/>
	</g>
</g>
</svg>
