<?xml version="1.0" encoding="utf-8"?>
<!-- Generator: Adobe Illustrator 27.8.1, SVG Export Plug-In . SVG Version: 6.00 Build 0)  -->
<svg version="1.1" baseProfile="tiny" id="Layer_1" xmlns="http://www.w3.org/2000/svg" xmlns:xlink="http://www.w3.org/1999/xlink"
	 x="0px" y="0px" viewBox="0 0 900 600" overflow="visible" xml:space="preserve">
<g id="Keyword_research_1_">
	<g>
		<g>
			<g>
				<path fill="#FFFFFF" d="M778.6,151.7H132c-15.5,0-28.1-12.7-28.1-28.1c0-15.5,12.7-28.1,28.1-28.1h646.6
					c15.5,0,28.1,12.7,28.1,28.1C806.7,139,794,151.7,778.6,151.7z"/>
				<path d="M778.6,152.4H132c-15.9,0-28.8-12.9-28.8-28.8c0-15.9,12.9-28.8,28.8-28.8h646.6c15.9,0,28.8,12.9,28.8,28.8
					C807.4,139.5,794.4,152.4,778.6,152.4z M132,96.1c-15.1,0-27.4,12.3-27.4,27.4c0,15.1,12.3,27.4,27.4,27.4h646.6
					c15.1,0,27.4-12.3,27.4-27.4c0-15.1-12.3-27.4-27.4-27.4H132z"/>
			</g>
			<g>
				<path d="M768.2,132.2c-6.6,0-12-5.4-12-12s5.4-12,12-12c6.6,0,12,5.4,12,12S774.8,132.2,768.2,132.2z M768.2,109.7
					c-5.8,0-10.6,4.8-10.6,10.6c0,5.8,4.8,10.6,10.6,10.6c5.8,0,10.6-4.8,10.6-10.6C778.8,114.4,774.1,109.7,768.2,109.7z"/>
				<path d="M786.7,139.2c-0.2,0-0.3-0.1-0.5-0.2l-10.4-10.4c-0.3-0.3-0.3-0.7,0-1c0.3-0.3,0.7-0.3,1,0l10.4,10.4
					c0.3,0.3,0.3,0.7,0,1C787.1,139.1,786.9,139.2,786.7,139.2z"/>
			</g>
		</g>
		<path fill="#E2EAFF" d="M211.7,131.8h-74.9c-4.9,0-8.8-3.9-8.8-8.8c0-4.9,3.9-8.8,8.8-8.8h74.9c4.9,0,8.8,3.9,8.8,8.8
			C220.5,127.8,216.5,131.8,211.7,131.8z"/>
		<path fill="#E2EAFF" d="M726.6,131.8h-53.9c-4.9,0-8.8-3.9-8.8-8.8c0-4.9,3.9-8.8,8.8-8.8h53.9c4.9,0,8.8,3.9,8.8,8.8
			C735.5,127.8,731.5,131.8,726.6,131.8z"/>
		<path fill="#E2EAFF" d="M394.7,131.8H249.5c-4.9,0-8.8-3.9-8.8-8.8c0-4.9,3.9-8.8,8.8-8.8h145.2c4.9,0,8.8,3.9,8.8,8.8
			C403.5,127.8,399.6,131.8,394.7,131.8z"/>
		<path fill="#5479F7" d="M598.2,133.8H470.5c-6,0-10.9-4.9-10.9-10.9s4.9-10.9,10.9-10.9h127.7c6,0,10.9,4.9,10.9,10.9
			S604.2,133.8,598.2,133.8z"/>
	</g>
	<g>
		<path d="M350.4,184.1c-1.4-5.1-6.3-8.7-11.4-9.6c-5.2-1-10.5,0.3-15.3,2.5c-4.8,2.2-9.1,5.2-13.7,7.8c-8.6,5.1-17.9,9-27.6,11.6
			c-19.8,5.4-40.8,5.3-60.1,12.1c-8.2,2.9-16.7,8-18.8,16.4c-1.3,5.3,0.4,11.1,3.9,15.3c3.5,4.2,8.5,6.9,13.8,8.1
			c0.9,5.1,4.8,9.4,9.3,11.9c4.5,2.5,9.7,3.5,14.9,4.2c22,2.7,45.2-0.7,64.1-12.4c9.5-5.9,17.8-13.9,23.9-23.2c3-4.7,5.6-9.7,7.4-15
			c1.7-5,1.8-10.5,3.5-15.3c0.9-2.4,3.2-3.5,4.5-5.6C350.6,190.3,351.2,187,350.4,184.1z"/>
		<g>
			<path fill="#FFFFFF" d="M138.7,560.8l-86.4-4.6c-3.5,5.1-6.6,9.9-9.2,14.3c-2.1,3.7,0.5,8.2,4.8,8.2l97.3,1.3
				c4.4,0.1,6.4-5.3,3.2-8.2C143.9,567.9,139.6,563.6,138.7,560.8z"/>
			<path fill="#FFFFFF" d="M401.6,574.4l-17.9-13.6c0,0-0.2-0.4,0.2-0.1l-85.9-2l-8.5,9.2c-3.8,4.1-0.9,10.8,4.7,10.8h106
				C402.4,578.7,403.4,575.8,401.6,574.4z"/>
			<path d="M400.1,579.4h-106c-2.9,0-5.4-1.6-6.5-4.3c-1.2-2.6-0.7-5.6,1.3-7.7l8.5-9.2c0.3-0.3,0.7-0.3,1,0c0.3,0.3,0.3,0.7,0,1
				l-8.5,9.2c-1.6,1.7-2,4.1-1.1,6.2c0.9,2.1,3,3.5,5.3,3.5h106c0.9,0,1.4-0.6,1.6-1.2c0.2-0.6,0.1-1.4-0.6-1.9l-17.9-13.6
				c-0.3-0.2-0.4-0.7-0.1-0.9c0.2-0.3,0.7-0.4,0.9-0.1l17.9,13.6c1.1,0.8,1.5,2.1,1,3.4C402.6,578.6,401.5,579.4,400.1,579.4z"/>
			<path d="M48.2,580.9c-2.3-0.1-4.4-1.5-5.6-3.7c-1.3-2.3-1.3-5.1-0.2-7.1c2.3-4,5.4-8.7,9.1-13.8c0.2-0.3,0.6-0.4,0.9-0.2
				c0.3,0.2,0.4,0.6,0.2,0.9c-3.6,5.1-6.7,9.7-9,13.7c-0.9,1.6-0.9,3.9,0.2,5.8c1,1.8,2.6,2.9,4.4,3l97.3,0c2-0.1,3.6-0.7,4.1-1.8
				c0.6-1.3,0-3.1-1.8-5.5c-1.5-1.9-3.3-3.6-4.9-5.1c-1.9-1.8-3.5-3.3-4.4-4.9c-0.2-0.3-0.1-0.7,0.3-0.9c0.3-0.2,0.7-0.1,0.9,0.3
				c0.7,1.4,2.3,2.8,4.1,4.5c1.6,1.5,3.5,3.3,5,5.3c2.2,2.8,2.8,5.1,2,6.9c-0.7,1.6-2.7,2.5-5.3,2.6L48.2,580.9z"/>
			<path fill="#5479F7" d="M256,322.7l84.9-1.3c0,0,82.9,85.7,99.4,129.5c11.3,30-45.9,90.5-56.5,109.7c-3.8,0.1-29,0.6-38.5,0.7
				c-9.7,0.1-19.4-0.3-29-1c-6.1-0.5-12.2-1.1-18.3-1.7l74-102.1L300.8,395c-54.1,41.5-162.1,165.8-162.1,165.8
				c0.1,0.3-54-0.2-61.9-0.8c-8.2-0.6-16.6-1.6-24.7-3.3C110.2,475,256,322.7,256,322.7z"/>
			<path d="M382.2,465.6c-0.2,0-0.3-0.1-0.5-0.2c-2.7-2.6-5.6-5-8.8-7c-0.3-0.2-0.4-0.6-0.2-0.9c0.2-0.3,0.6-0.4,0.9-0.2
				c3.2,2.1,6.3,4.5,9,7.2c0.3,0.3,0.3,0.7,0,1C382.6,465.5,382.4,465.6,382.2,465.6z"/>
			<path d="M302.1,394.4c-0.2,0-0.3-0.1-0.4-0.2c-0.3-0.2-0.3-0.7-0.1-1c2-2.3,4.3-4.4,6.8-6.2c1.5-1.1,3.3-2.2,5.4-2.5
				c2.3-0.4,4.6,0.4,5.8,2c0.2,0.3,0.2,0.7-0.1,0.9c-0.3,0.2-0.7,0.2-0.9-0.1c-0.9-1.2-2.6-1.8-4.5-1.5c-1.8,0.3-3.4,1.3-4.8,2.3
				c-2.4,1.7-4.6,3.7-6.6,6C302.5,394.3,302.3,394.4,302.1,394.4z"/>
		</g>
		<g>
			<g>
				<path fill="#FFFFFF" d="M301.4,325.2l39.5-3.7l18.9-29.3c0,0,28.4,30.2,57,40.6c28.6,10.4,44-16.7,28.8-40.6
					c-15.2-23.9-22-32-22-32l-18.4,6.9c0,0-8.8-18.4-24.5-24.5c-15.7-6.1-103.3-1-113.3,1.7c-19.6,5.3-40.1,41.7-44.1,52.5
					c-4,10.8,11.5,25.8,61.2,58.4c0,0,25-23.1,25-24C309.5,330.8,301.4,325.2,301.4,325.2z"/>
				<path d="M428.8,335.6c-3.8,0-7.9-0.8-12.2-2.3c-26.3-9.6-52.8-36.2-56.8-40.2l-21,22.4c-0.3,0.3-0.7,0.3-1,0
					c-0.3-0.3-0.3-0.7,0-1l21.5-22.9c0.1-0.1,0.3-0.2,0.5-0.2c0,0,0,0,0,0c0.2,0,0.4,0.1,0.5,0.2c0.3,0.3,28.7,30.2,56.8,40.4
					c12,4.4,22.5,2.4,28.8-5.5c7-8.7,6.6-22.4-0.8-34.1c-13.3-20.8-20.2-29.8-21.7-31.6l-18,6.7c-0.3,0.1-0.7,0-0.8-0.3
					c-0.1-0.2-8.8-18.2-24.1-24.1c-15.4-6-102.3-1.1-112.8,1.7c-20,5.4-40.3,43-43.7,52.1c-2.6,6.9,3.6,15.7,20.6,29.2
					c0.3,0.2,0.3,0.7,0.1,1c-0.2,0.3-0.7,0.3-1,0.1c-17.6-14-23.8-23.2-21-30.7c3.4-9.3,24.1-47.4,44.6-53
					c10.6-2.9,98.1-7.7,113.7-1.7c14.4,5.6,22.9,21,24.6,24.2l17.8-6.7c0.3-0.1,0.6,0,0.8,0.2c0.1,0.1,7.1,8.5,22.1,32.1
					c7.8,12.2,8.1,26.5,0.7,35.7C442.6,332.8,436.2,335.6,428.8,335.6z"/>
				<path d="M286.2,313.8c-0.1,0-0.3,0-0.4-0.1l-22.4-15c-0.3-0.2-0.4-0.6-0.2-0.9c0.2-0.3,0.6-0.4,0.9-0.2l22.4,15
					c0.3,0.2,0.4,0.6,0.2,0.9C286.7,313.7,286.4,313.8,286.2,313.8z"/>
				<path d="M268.2,300.7c-0.1,0-0.3,0-0.4-0.1c-0.3-0.2-0.4-0.6-0.1-0.9l18.8-25.6c0.2-0.2,0.5-0.3,0.8-0.2l1.8,0.7
					c0.4,0.1,0.5,0.5,0.4,0.9c-0.1,0.4-0.5,0.5-0.9,0.4l-1.3-0.5l-18.5,25.2C268.6,300.6,268.4,300.7,268.2,300.7z"/>
				<path d="M361.3,291.8c-0.2,0-0.3,0-0.4-0.2c-0.3-0.2-0.3-0.7-0.1-1c2.6-3.1,5.4-6.1,8.5-8.7c1.2-1,2.6-2,4.3-1.7
					c0.4,0.1,0.6,0.4,0.5,0.8c-0.1,0.4-0.4,0.6-0.8,0.5c-1.1-0.2-2.2,0.6-3.1,1.4c-3,2.6-5.8,5.4-8.4,8.5
					C361.6,291.7,361.4,291.8,361.3,291.8z"/>
				<path d="M414.7,315.7c-0.2,0-0.4-0.1-0.6-0.3l-18.8-26.7c-0.2-0.3-0.1-0.7,0.2-0.9c0.3-0.2,0.7-0.1,0.9,0.2l18.8,26.7
					c0.2,0.3,0.1,0.7-0.2,0.9C415,315.7,414.8,315.7,414.7,315.7z"/>
				<path d="M281.2,350.6c-0.1,0-0.2,0-0.2,0c-0.4-0.1-0.5-0.5-0.4-0.9c3.5-10,10.8-18.9,19.9-24.4c0.3-0.2,0.7-0.1,0.9,0.2
					c0.2,0.3,0.1,0.7-0.2,0.9c-8.8,5.3-15.9,14-19.3,23.7C281.7,350.4,281.4,350.6,281.2,350.6z"/>
				<path d="M266.6,341.6c-0.2,0-0.3-0.1-0.4-0.2c-0.3-0.2-0.3-0.7-0.1-1c2.6-3,6.8-4.3,10.7-3.5c-0.4-4,0.5-8,2.5-11.4
					c2.2-3.7,5.6-6.6,9.7-8.1c0.4-0.1,0.7,0.1,0.9,0.4c0.1,0.4-0.1,0.7-0.4,0.9c-3.7,1.4-7,4.1-9,7.5c-2,3.4-2.8,7.6-2.2,11.5
					c0,0.2,0,0.5-0.2,0.6c-0.2,0.2-0.4,0.2-0.7,0.1c-3.6-1.2-7.8-0.1-10.2,2.8C267,341.5,266.8,341.6,266.6,341.6z"/>
				<path d="M405.2,299.3c-0.2,0-0.4-0.1-0.5-0.3c-0.2-0.3-0.2-0.7,0.1-0.9c3.8-2.7,6-7.5,5.7-12.2c0-0.2,0.1-0.4,0.3-0.6
					c0.2-0.1,0.4-0.2,0.6-0.1c8.5,2.6,18.6-1.4,23.1-9c0.2-0.3,0.6-0.4,0.9-0.2c0.3,0.2,0.4,0.6,0.2,0.9
					c-4.6,7.9-14.9,12.1-23.7,9.9c0,4.8-2.4,9.6-6.3,12.4C405.5,299.3,405.3,299.3,405.2,299.3z"/>
			</g>
			<g>
				<path d="M282.3,375.7c-1.3,0-2.5-0.5-3.4-1.5c-1.8-1.9-1.7-4.9,0.2-6.7l174.5-166.6c1.9-1.8,4.9-1.7,6.7,0.2
					c1.8,1.9,1.7,4.9-0.2,6.7L285.6,374.4C284.7,375.3,283.5,375.7,282.3,375.7z"/>
				<path d="M534.4,239.6c-0.8,0-1.6,0-2.4,0c-29.4-0.6-56.9-12.7-77.2-33.9c-20.4-21.3-31.2-49.2-30.6-78.6
					c0.6-29.4,12.7-56.9,33.9-77.2c21.3-20.4,49.2-31.2,78.6-30.6c60.8,1.3,109.2,51.8,107.9,112.6
					C643.3,191.7,594.1,239.6,534.4,239.6z M534.3,28.6c-26.1,0-50.7,9.9-69.6,28c-19.4,18.6-30.4,43.7-31,70.6
					c-1.2,55.5,43,101.7,98.6,102.9c55.5,1.2,101.7-43,102.9-98.6c1.2-55.5-43-101.7-98.6-102.9C535.8,28.6,535,28.6,534.3,28.6z"/>
				<path d="M554.9,211c-0.3,0-0.6-0.2-0.7-0.5c-0.1-0.4,0.1-0.7,0.5-0.8c32.8-8.3,57-35.3,61.6-68.8c0.1-0.4,0.4-0.6,0.8-0.6
					c0.4,0.1,0.6,0.4,0.6,0.8c-2.3,16.7-9.5,32.1-20.8,44.7c-11.2,12.4-25.7,21.2-41.8,25.3C555.1,211,555,211,554.9,211z"/>
				<path d="M455.1,103.5c-0.1,0-0.1,0-0.2,0c-0.4-0.1-0.5-0.5-0.4-0.9c4.9-14.5,13.6-27.5,25.4-37.4c11.8-10,26.1-16.6,41.4-19
					c0.4-0.1,0.7,0.2,0.8,0.6c0.1,0.4-0.2,0.7-0.6,0.8c-30.7,4.8-55.8,26.1-65.7,55.5C455.7,103.3,455.4,103.5,455.1,103.5z"/>
			</g>
			<g>
				<path fill="#FFFFFF" d="M306.2,328.6c0,0,12.7,7.6,14.8,14.9c2.1,7.2,0.4,11.3-3.6,13.2c0,0-1.7,5.3-6.6,4.8c0,0-0.3,5.1-5,5.2
					c0,0-0.9,4-5.3,3.2c-4.4-0.8-5.4-3.5-4.2-5.3c0,0-10.2-6.4-13.4-10.7C279.6,349.5,291.4,329.7,306.2,328.6z"/>
				<path d="M306,366.9C306,366.9,305.9,366.9,306,366.9c-0.4,0-0.7-0.4-0.7-0.7c0.1-1.3-0.1-2.7-0.7-3.9c-0.1-0.3,0-0.7,0.3-0.9
					c0.3-0.1,0.7,0,0.9,0.3c0.6,1.4,0.9,3,0.8,4.5C306.6,366.6,306.3,366.9,306,366.9z"/>
				<path d="M310.9,362.2C310.9,362.2,310.9,362.2,310.9,362.2c-0.4,0-0.7-0.3-0.7-0.7c0.1-1.7-0.5-3.3-1.5-4.6
					c-0.2-0.3-0.2-0.7,0.1-1c0.3-0.2,0.7-0.2,1,0.1c1.3,1.5,2,3.5,1.9,5.5C311.6,362,311.3,362.2,310.9,362.2z"/>
				<path d="M317.4,357.7C317.4,357.7,317.4,357.7,317.4,357.7c-0.4,0-0.7-0.3-0.7-0.7c0.1-2.1-0.4-4.3-1.5-6.1
					c-0.2-0.3-0.1-0.7,0.2-0.9c0.3-0.2,0.7-0.1,0.9,0.2c1.3,2,1.9,4.5,1.7,6.9C318.1,357.4,317.8,357.7,317.4,357.7z"/>
			</g>
			<g>
				<g>
					<path fill="#FFFFFF" d="M425.5,262.2c0,0-7.1,17.8-31.4,23.8l-7.9-11.6c0,0-7.8-0.6-6-13c0.5-3.3,4-1.8,4-1.8s-1.4-5.9,5.8-5.9
						c0,0-1.3-8.6,7.7-5.7c0,0,1-7.2,7.7-5C412,245.3,425.5,262.2,425.5,262.2z"/>
					<path d="M394,286.7c-0.2,0-0.4-0.1-0.6-0.3l-7.7-11.4c-0.8-0.1-2.8-0.7-4.4-2.7c-2-2.5-2.6-6.2-1.9-11c0.2-1.1,0.6-1.9,1.4-2.3
						c0.8-0.5,1.7-0.4,2.4-0.3c0-0.9,0.1-2.4,1.1-3.6c1-1.3,2.6-2,4.8-2.1c0-1.3,0.1-3.8,1.8-5.2c1.4-1.2,3.4-1.4,6.1-0.7
						c0.3-1.1,1.1-3.3,2.9-4.4c1.5-0.9,3.3-1,5.5-0.3c6.8,2.3,19.9,18.7,20.5,19.4c0.2,0.2,0.2,0.4,0.1,0.7
						c-0.1,0.2-7.5,18.2-31.9,24.2C394.2,286.7,394.1,286.7,394,286.7z M382.6,260c-0.3,0-0.7,0.1-0.9,0.2c-0.4,0.2-0.7,0.7-0.8,1.4
						c-0.6,4.4-0.1,7.8,1.6,9.9c1.6,2,3.7,2.3,3.8,2.3c0.2,0,0.4,0.1,0.5,0.3l7.6,11.2c21.5-5.4,29.2-20.4,30.3-22.9
						c-1.9-2.3-13.7-16.7-19.6-18.7c-1.7-0.6-3.2-0.5-4.3,0.2c-2,1.3-2.5,4.2-2.5,4.2c0,0.2-0.1,0.4-0.3,0.5
						c-0.2,0.1-0.4,0.1-0.6,0.1c-2.5-0.8-4.4-0.8-5.5,0.2c-1.8,1.5-1.3,4.7-1.3,4.8c0,0.2,0,0.4-0.2,0.5c-0.1,0.1-0.3,0.2-0.5,0.2
						c-2.1,0-3.6,0.5-4.4,1.6c-1.1,1.4-0.7,3.5-0.7,3.5c0.1,0.2,0,0.5-0.2,0.7c-0.2,0.2-0.5,0.2-0.7,0.1
						C383.7,260.1,383.1,260,382.6,260z"/>
				</g>
				<path d="M386.3,274.1c-0.3,0-0.5-0.1-0.6-0.4c-0.7-1.4-1.5-2.8-2.6-4c-0.2-0.3-0.2-0.7,0.1-1c0.3-0.2,0.7-0.2,1,0.1
					c1.1,1.3,2.1,2.7,2.8,4.3c0.2,0.3,0,0.7-0.3,0.9C386.5,274.1,386.4,274.1,386.3,274.1z"/>
			</g>
		</g>
		<g>
			<g>
				<path fill="#FFFFFF" d="M321.8,218.7l-9.7,24.6c0,0,8.6,2,12.8,2c1.5,0,2.8-0.6,4-1.4c2.1-1.4,3.7-3.4,4.6-5.8l5.4-13.6
					L321.8,218.7z"/>
				<path d="M324.8,246c-4.3,0-12.5-1.9-12.8-2c-0.2,0-0.4-0.2-0.4-0.3c-0.1-0.2-0.1-0.4,0-0.6l9.7-24.6c0.1-0.3,0.5-0.5,0.8-0.4
					l17.2,5.8c0.2,0.1,0.3,0.2,0.4,0.4c0.1,0.2,0.1,0.4,0,0.5l-5.4,13.6c-1,2.6-2.7,4.7-4.9,6.1c-1.5,1-3,1.5-4.4,1.5
					C324.9,246,324.8,246,324.8,246z M313,242.8c2.2,0.5,8.5,1.8,11.9,1.8c1.2,0,2.4-0.4,3.7-1.3c1.9-1.2,3.4-3.1,4.4-5.5l5.1-13
					l-15.9-5.4L313,242.8z"/>
			</g>
			<g>
				<path d="M321.3,256.9c-0.2,0-0.4-0.1-0.5-0.2c-3.8-4-8.6-6.9-13.9-8.5c-0.4-0.1-0.6-0.5-0.5-0.8c0.1-0.4,0.5-0.6,0.8-0.5
					c5.2,1.6,10,4.4,13.8,8.3l4.1-6.6c0.2-0.3,0.6-0.4,0.9-0.2c0.3,0.2,0.4,0.6,0.2,0.9l-4.5,7.3
					C321.8,256.8,321.6,256.9,321.3,256.9C321.4,256.9,321.3,256.9,321.3,256.9z"/>
				<path d="M329.7,256.3C329.7,256.3,329.7,256.3,329.7,256.3c-0.3,0-0.5-0.2-0.6-0.4c-1.1-2.3-2-4.7-2.6-7.2
					c-0.1-0.4,0.1-0.7,0.5-0.8c0.4-0.1,0.7,0.1,0.8,0.5c0.5,2,1.2,4,2,5.9c2-2.5,4.2-4.8,6.6-6.9c0.3-0.3,0.7-0.2,1,0
					c0.3,0.3,0.2,0.7,0,1c-2.6,2.3-5,4.9-7.1,7.6C330.1,256.2,329.9,256.3,329.7,256.3z"/>
			</g>
			<g>
				<g>
					<path fill="#FFFFFF" d="M349,211.6c0.1,3.8-0.2,7.9-2.4,11.1c-2.4,3.5-6.8,5.2-11,4.8c-4.2-0.4-8-2.8-10.7-6
						c-2.2,0.4-4.5,0.3-6.5-0.8c-1.9-1.1-3.3-3.3-3.1-5.5c0.3-2.2,2.4-4.2,4.6-3.8c1.5,0.3,2.6,1.4,3.6,2.5c0.3,0.4,0.7,0.8,1.2,0.9
						c0.8,0.2,1.5-0.7,1.6-1.5c0.1-0.8-0.2-1.6-0.4-2.5c-1.4-5.2,1.3-10.9,5.6-14c3.5-2.6,7.8-3.7,12.1-4.1c0.6-0.1,2.5-0.5,3-0.1
						c0.6,0.4,0.6,2.6,0.7,3.3c0.4,2.5,0.8,5,1.1,7.4C348.8,206.1,349,208.9,349,211.6z"/>
					<path d="M336.9,228.3c-0.4,0-0.8,0-1.3-0.1c-4-0.4-8-2.5-10.9-5.9c-2.5,0.4-4.8,0.1-6.6-1c-2.3-1.3-3.7-3.8-3.4-6.2
						c0.2-1.3,0.9-2.6,2.1-3.5c1-0.8,2.2-1.1,3.4-0.9c1.7,0.3,2.9,1.5,4,2.8c0.3,0.3,0.5,0.6,0.8,0.7c0.1,0,0.2,0,0.4-0.1
						c0.2-0.2,0.4-0.5,0.5-0.8c0.1-0.5-0.1-1.1-0.3-1.7c0-0.2-0.1-0.3-0.1-0.5c-1.4-5.1,1-11.2,5.9-14.8c3.2-2.4,7.4-3.8,12.4-4.2
						c0.1,0,0.3,0,0.5-0.1c1.3-0.2,2.4-0.3,2.9,0.1c0.6,0.5,0.8,1.6,0.9,3.1c0,0.3,0.1,0.5,0.1,0.7c0.5,2.6,0.8,5.1,1.1,7.5
						c0.3,2.8,0.5,5.6,0.5,8.3c0.1,3.8-0.2,8.1-2.5,11.4C345,226.3,341.1,228.3,336.9,228.3z M325,220.9c0.2,0,0.4,0.1,0.5,0.2
						c2.8,3.3,6.5,5.4,10.3,5.7c4.1,0.4,8.2-1.4,10.4-4.5c2.1-3.1,2.3-7.1,2.3-10.7c0-2.6-0.2-5.4-0.5-8.2c-0.3-2.4-0.6-4.9-1.1-7.4
						c0-0.2-0.1-0.5-0.1-0.8c0-0.5-0.2-1.8-0.4-2.1c-0.4-0.1-1.5,0.1-1.9,0.1c-0.3,0-0.5,0.1-0.6,0.1c-4.8,0.4-8.7,1.8-11.7,4
						c-4.4,3.3-6.6,8.8-5.4,13.3c0,0.1,0.1,0.3,0.1,0.4c0.2,0.7,0.4,1.5,0.3,2.3c-0.1,0.7-0.5,1.4-1,1.8c-0.4,0.3-0.9,0.4-1.4,0.4
						c-0.7-0.1-1.2-0.7-1.6-1.1c-0.9-1.1-2-2.1-3.2-2.3c-0.8-0.1-1.6,0.1-2.3,0.6c-0.8,0.6-1.4,1.6-1.5,2.6
						c-0.2,1.8,0.9,3.8,2.7,4.9c1.6,0.9,3.7,1.2,6,0.7C324.9,220.9,324.9,220.9,325,220.9z"/>
				</g>
				<path d="M323.1,219c0,0-0.1,0-0.1,0l-3.2-0.5c-0.4-0.1-0.6-0.4-0.6-0.8c0.1-0.4,0.4-0.6,0.8-0.6l3.2,0.5
					c0.4,0.1,0.6,0.4,0.6,0.8C323.7,218.7,323.4,219,323.1,219z"/>
			</g>
		</g>
	</g>
	<g>
		<g>
			
				<ellipse transform="matrix(0.9732 -0.2298 0.2298 0.9732 -49.9193 129.7791)" fill="#E2EAFF" cx="532.3" cy="279.3" rx="10.6" ry="10.6"/>
			
				<ellipse transform="matrix(0.7071 -0.7071 0.7071 0.7071 -63.371 467.26)" fill="#E2EAFF" cx="532.3" cy="310.1" rx="10.6" ry="10.6"/>
			
				<ellipse transform="matrix(0.9732 -0.2298 0.2298 0.9732 -64.1038 131.4306)" fill="#E2EAFF" cx="532.3" cy="341" rx="10.6" ry="10.6"/>
		</g>
		<path d="M601.5,414.1h-69.2c-0.4,0-0.7-0.3-0.7-0.7v-50.8c0-0.4,0.3-0.7,0.7-0.7c0.4,0,0.7,0.3,0.7,0.7v50.1h68.5
			c0.4,0,0.7,0.3,0.7,0.7C602.2,413.8,601.9,414.1,601.5,414.1z"/>
	</g>
	<g>
		<g>
			<rect x="614" y="267.2" fill="#FFFFFF" width="237.6" height="292.4"/>
			<path d="M851.7,560.3H614c-0.4,0-0.7-0.3-0.7-0.7V267.2c0-0.4,0.3-0.7,0.7-0.7h237.6c0.4,0,0.7,0.3,0.7,0.7v292.4
				C852.3,560,852,560.3,851.7,560.3z M614.7,558.9H851v-291H614.7V558.9z"/>
		</g>
		<g>
			<g>
				<rect x="633.5" y="287.6" fill="#FFFFFF" width="237.6" height="292.4"/>
				<path d="M871.2,580.7H633.5c-0.4,0-0.7-0.3-0.7-0.7V287.6c0-0.4,0.3-0.7,0.7-0.7h237.6c0.4,0,0.7,0.3,0.7,0.7V580
					C871.8,580.4,871.5,580.7,871.2,580.7z M634.2,579.3h236.3v-291H634.2V579.3z"/>
			</g>
			<g>
				<g>
					<path fill="#5479F7" d="M686.6,371.3l4,8.1l8.9,1.3c1.8,0.3,2.5,2.4,1.2,3.7l-6.5,6.3l1.5,8.9c0.3,1.8-1.5,3.1-3.1,2.3l-8-4.2
						l-8,4.2c-1.6,0.8-3.4-0.5-3.1-2.3l1.5-8.9l-6.5-6.3c-1.3-1.2-0.6-3.4,1.2-3.7l8.9-1.3l4-8.1
						C683.5,369.7,685.8,369.7,686.6,371.3z"/>
					<path fill="#5479F7" d="M730.4,371.3l4,8.1l8.9,1.3c1.8,0.3,2.5,2.4,1.2,3.7l-6.5,6.3l1.5,8.9c0.3,1.8-1.5,3.1-3.1,2.3l-8-4.2
						l-8,4.2c-1.6,0.8-3.4-0.5-3.1-2.3l1.5-8.9l-6.5-6.3c-1.3-1.2-0.6-3.4,1.2-3.7l8.9-1.3l4-8.1
						C727.4,369.7,729.6,369.7,730.4,371.3z"/>
					<path fill="#5479F7" d="M774.3,371.3l4,8.1l8.9,1.3c1.8,0.3,2.5,2.4,1.2,3.7l-6.5,6.3l1.5,8.9c0.3,1.8-1.5,3.1-3.1,2.3l-8-4.2
						l-8,4.2c-1.6,0.8-3.4-0.5-3.1-2.3l1.5-8.9l-6.5-6.3c-1.3-1.2-0.6-3.4,1.2-3.7l8.9-1.3l4-8.1
						C771.2,369.7,773.5,369.7,774.3,371.3z"/>
					<path fill="#5479F7" d="M818.1,371.3l4,8.1l8.9,1.3c1.8,0.3,2.5,2.4,1.2,3.7l-6.5,6.3l1.5,8.9c0.3,1.8-1.5,3.1-3.1,2.3l-8-4.2
						l-8,4.2c-1.6,0.8-3.4-0.5-3.1-2.3l1.5-8.9l-6.5-6.3c-1.3-1.2-0.6-3.4,1.2-3.7l8.9-1.3l4-8.1
						C815.1,369.7,817.4,369.7,818.1,371.3z"/>
				</g>
				<path d="M820.8,349H678.9c-7,0-12.8-5.7-12.8-12.8c0-7,5.7-12.8,12.8-12.8h141.9c7,0,12.8,5.7,12.8,12.8
					C833.6,343.3,827.8,349,820.8,349z M678.9,324.8c-6.3,0-11.4,5.1-11.4,11.4c0,6.3,5.1,11.4,11.4,11.4h141.9
					c6.3,0,11.4-5.1,11.4-11.4c0-6.3-5.1-11.4-11.4-11.4H678.9z"/>
				<g>
					<path d="M778.9,545.1H667.8c-0.4,0-0.7-0.3-0.7-0.7v-71.5c0-0.4,0.3-0.7,0.7-0.7c0.4,0,0.7,0.3,0.7,0.7v70.9h110.5
						c0.4,0,0.7,0.3,0.7,0.7C779.6,544.8,779.3,545.1,778.9,545.1z"/>
					<polygon fill="#E2EAFF" points="679,534.2 771.9,534.2 771.9,473.8 745.7,480.6 725.9,495.7 706.9,480.6 679,487.7 					"/>
					<g>
						<path d="M831.1,501.4h-33.3c-0.4,0-0.7-0.3-0.7-0.7c0-0.4,0.3-0.7,0.7-0.7h33.3c0.4,0,0.7,0.3,0.7,0.7
							C831.8,501.1,831.5,501.4,831.1,501.4z"/>
						<path d="M831.1,489.6h-33.3c-0.4,0-0.7-0.3-0.7-0.7c0-0.4,0.3-0.7,0.7-0.7h33.3c0.4,0,0.7,0.3,0.7,0.7
							C831.8,489.3,831.5,489.6,831.1,489.6z"/>
						<path d="M831.1,477.9h-33.3c-0.4,0-0.7-0.3-0.7-0.7c0-0.4,0.3-0.7,0.7-0.7h33.3c0.4,0,0.7,0.3,0.7,0.7
							C831.8,477.6,831.5,477.9,831.1,477.9z"/>
					</g>
				</g>
				<rect x="666.8" y="425" fill="#E2EAFF" width="164.3" height="26"/>
				<g>
					<rect x="752.3" y="425" fill="#FFFFFF" width="50.4" height="26"/>
					<path d="M802.7,451.6h-50.4c-0.4,0-0.7-0.3-0.7-0.7v-26c0-0.4,0.3-0.7,0.7-0.7h50.4c0.4,0,0.7,0.3,0.7,0.7v26
						C803.4,451.3,803.1,451.6,802.7,451.6z M753,450.3h49v-24.6h-49V450.3z"/>
				</g>
			</g>
		</g>
	</g>
	<g>
		<path d="M398.7,75.6H197.2c-0.4,0-0.7-0.3-0.7-0.7c0-0.4,0.3-0.7,0.7-0.7h201.4c0.4,0,0.7,0.3,0.7,0.7
			C399.4,75.3,399.1,75.6,398.7,75.6z"/>
		<path d="M398.7,167.9h-35.1c-0.4,0-0.7-0.3-0.7-0.7c0-0.4,0.3-0.7,0.7-0.7h35.1c0.4,0,0.7,0.3,0.7,0.7
			C399.4,167.6,399.1,167.9,398.7,167.9z"/>
		<path d="M398.7,60h-64c-0.4,0-0.7-0.3-0.7-0.7c0-0.4,0.3-0.7,0.7-0.7h64c0.4,0,0.7,0.3,0.7,0.7C399.4,59.7,399.1,60,398.7,60z"/>
	</g>
	<g>
		<path d="M724.5,75.6h-60.7c-0.4,0-0.7-0.3-0.7-0.7c0-0.4,0.3-0.7,0.7-0.7h60.7c0.4,0,0.7,0.3,0.7,0.7
			C725.2,75.3,724.9,75.6,724.5,75.6z"/>
		<path d="M681.4,167.9h-17.6c-0.4,0-0.7-0.3-0.7-0.7c0-0.4,0.3-0.7,0.7-0.7h17.6c0.4,0,0.7,0.3,0.7,0.7
			C682.1,167.6,681.8,167.9,681.4,167.9z"/>
		<path d="M681.4,60h-17.6c-0.4,0-0.7-0.3-0.7-0.7c0-0.4,0.3-0.7,0.7-0.7h17.6c0.4,0,0.7,0.3,0.7,0.7C682.1,59.7,681.8,60,681.4,60z
			"/>
	</g>
	<g>
		<g>
			<g>
				<circle fill="#E2EAFF" cx="173.9" cy="181.4" r="7.8"/>
				<circle fill="#E2EAFF" cx="173.9" cy="204.1" r="7.8"/>
				<circle fill="#E2EAFF" cx="173.9" cy="226.8" r="7.8"/>
			</g>
			<path d="M173.9,303.8h-16.5c-0.4,0-0.7-0.3-0.7-0.7c0-0.4,0.3-0.7,0.7-0.7h15.8v-59.7c0-0.4,0.3-0.7,0.7-0.7s0.7,0.3,0.7,0.7
				v60.4C174.6,303.5,174.3,303.8,173.9,303.8z"/>
		</g>
		<g>
			<g>
				<rect x="28.8" y="226.2" fill="#FFFFFF" width="104.9" height="129.1"/>
				<path d="M133.8,356H28.8c-0.4,0-0.7-0.3-0.7-0.7V226.2c0-0.4,0.3-0.7,0.7-0.7h104.9c0.4,0,0.7,0.3,0.7,0.7v129.1
					C134.5,355.7,134.2,356,133.8,356z M29.5,354.6h103.6V226.9H29.5V354.6z"/>
			</g>
			<rect x="40.9" y="239.9" fill="#E2EAFF" width="104.9" height="129.1"/>
		</g>
	</g>
	<g>
		<path d="M710.4,255.5c-0.7,0-1.3-0.1-2-0.2c-4.7-1.1-7.6-5.8-6.5-10.5c0-0.1,0.1-0.3,0.1-0.5c-2.6-1.4-5.1-3.1-7.2-5.2
			c-0.1,0.1-0.3,0.2-0.4,0.3c-2,1.2-4.3,1.6-6.6,1.1c-2.3-0.5-4.2-1.9-5.4-3.9c-2.6-4.1-1.3-9.5,2.8-12.1c0.1-0.1,0.3-0.2,0.4-0.2
			c-0.9-2.8-1.4-5.8-1.4-8.8c-0.2,0-0.3-0.1-0.5-0.1c-4.7-1.1-7.6-5.8-6.5-10.5c0.5-2.3,1.9-4.2,3.9-5.4c2-1.2,4.3-1.6,6.6-1.1
			c0.1,0,0.3,0.1,0.5,0.1c1.4-2.6,3.1-5.1,5.2-7.2c-0.1-0.1-0.2-0.3-0.3-0.4c-2.5-4.1-1.3-9.5,2.8-12.1c2-1.2,4.3-1.6,6.6-1.1
			c2.3,0.5,4.2,1.9,5.4,3.9c0.1,0.1,0.2,0.3,0.2,0.4c2.8-0.9,5.8-1.4,8.8-1.5c0-0.2,0.1-0.3,0.1-0.5c0.5-2.3,1.9-4.2,3.9-5.4
			c2-1.2,4.3-1.6,6.6-1.1c4.7,1.1,7.6,5.8,6.5,10.5c0,0.1-0.1,0.3-0.1,0.5c2.6,1.4,5.1,3.1,7.2,5.2c0.1-0.1,0.3-0.2,0.4-0.3
			c2-1.2,4.3-1.6,6.6-1.1c2.3,0.5,4.2,1.9,5.4,3.9c2.5,4.1,1.3,9.5-2.8,12.1c-0.1,0.1-0.3,0.2-0.4,0.2c0.9,2.8,1.4,5.8,1.4,8.8
			c0.2,0,0.3,0.1,0.5,0.1c4.7,1.1,7.6,5.8,6.5,10.5c-0.5,2.3-1.9,4.2-3.9,5.4c-2,1.2-4.3,1.6-6.6,1.1c-0.1,0-0.3-0.1-0.5-0.1
			c-1.4,2.6-3.1,5.1-5.2,7.2c0.1,0.1,0.2,0.3,0.3,0.4c2.5,4.1,1.3,9.5-2.8,12.1c-2,1.2-4.3,1.6-6.6,1.1c-2.3-0.5-4.2-1.9-5.4-3.9
			c-0.1-0.1-0.2-0.3-0.2-0.4c-2.8,0.9-5.8,1.4-8.8,1.5c0,0.2-0.1,0.3-0.1,0.5c-0.5,2.3-1.9,4.2-3.9,5.4
			C713.6,255.1,712.1,255.5,710.4,255.5z M694.8,237.6c0.2,0,0.3,0.1,0.5,0.2c2.3,2.2,4.9,4.1,7.8,5.6c0.3,0.2,0.4,0.5,0.3,0.8
			c-0.1,0.3-0.2,0.6-0.3,0.9c-0.9,4,1.6,8,5.5,8.9c1.9,0.4,3.9,0.1,5.6-0.9c1.7-1,2.8-2.7,3.3-4.6c0.1-0.3,0.1-0.6,0.1-0.9
			c0-0.3,0.3-0.6,0.7-0.6c3.2,0,6.4-0.6,9.5-1.6c0.3-0.1,0.7,0,0.8,0.4c0.1,0.3,0.3,0.6,0.4,0.8c1,1.7,2.7,2.8,4.6,3.3
			c1.9,0.4,3.9,0.1,5.6-0.9c3.5-2.2,4.5-6.7,2.4-10.2c-0.1-0.2-0.3-0.5-0.5-0.7c-0.2-0.3-0.2-0.7,0-0.9c2.2-2.3,4.1-4.9,5.6-7.8
			c0.2-0.3,0.5-0.4,0.8-0.3c0.3,0.1,0.6,0.2,0.9,0.3c1.9,0.4,3.9,0.1,5.6-0.9c1.7-1,2.8-2.7,3.3-4.6c0.9-4-1.6-8-5.5-8.9
			c-0.3-0.1-0.6-0.1-0.9-0.1c-0.3,0-0.6-0.3-0.6-0.7c0-3.2-0.6-6.4-1.6-9.5c-0.1-0.3,0-0.7,0.4-0.8c0.3-0.1,0.6-0.3,0.8-0.4
			c3.5-2.2,4.5-6.7,2.4-10.2c-1-1.7-2.7-2.8-4.6-3.3c-1.9-0.4-3.9-0.1-5.6,0.9c-0.2,0.1-0.5,0.3-0.7,0.5c-0.3,0.2-0.7,0.2-0.9,0
			c-2.3-2.2-4.9-4.1-7.8-5.6c-0.3-0.2-0.4-0.5-0.3-0.8c0.1-0.3,0.2-0.6,0.3-0.9c0.9-4-1.6-8-5.5-8.9c-1.9-0.4-3.9-0.1-5.6,0.9
			c-1.7,1-2.8,2.7-3.3,4.6c-0.1,0.3-0.1,0.6-0.1,0.9c0,0.3-0.3,0.6-0.7,0.6c-3.2,0-6.4,0.6-9.5,1.6c-0.3,0.1-0.7,0-0.8-0.4
			c-0.1-0.3-0.3-0.6-0.4-0.8c-1-1.7-2.7-2.8-4.6-3.3c-1.9-0.4-3.9-0.1-5.6,0.9c-3.5,2.2-4.5,6.7-2.4,10.2c0.1,0.2,0.3,0.5,0.5,0.7
			c0.2,0.3,0.2,0.7,0,0.9c-2.2,2.3-4.1,4.9-5.6,7.8c-0.2,0.3-0.5,0.4-0.8,0.3c-0.3-0.1-0.6-0.2-0.9-0.3c-1.9-0.4-3.9-0.1-5.6,0.9
			c-1.7,1-2.8,2.7-3.3,4.6c-0.9,4,1.6,8,5.5,8.9c0.3,0.1,0.6,0.1,0.9,0.1c0.3,0,0.6,0.3,0.6,0.7c0,3.2,0.6,6.4,1.6,9.5
			c0.1,0.3,0,0.7-0.4,0.8c-0.3,0.1-0.6,0.3-0.8,0.4c-3.5,2.2-4.5,6.7-2.4,10.2c1,1.7,2.7,2.8,4.6,3.3c1.9,0.4,3.9,0.1,5.6-0.9
			c0.2-0.1,0.5-0.3,0.7-0.5C694.5,237.7,694.7,237.6,694.8,237.6z M717.4,181.3L717.4,181.3L717.4,181.3z M718,230.2
			c-1.2,0-2.4-0.1-3.6-0.4c-4.1-0.9-7.5-3.4-9.8-7c-2.2-3.6-2.9-7.8-2-11.8c0.9-4.1,3.4-7.5,7-9.8c3.6-2.2,7.8-2.9,11.8-2
			c4.1,0.9,7.5,3.4,9.8,7c2.2,3.6,2.9,7.8,2,11.8c-0.9,4.1-3.4,7.5-7,9.8C723.7,229.4,720.9,230.2,718,230.2z M717.9,200.1
			c-2.6,0-5.2,0.7-7.5,2.2c-3.2,2-5.5,5.2-6.4,8.9c-0.9,3.7-0.2,7.6,1.8,10.8c2,3.2,5.2,5.5,8.9,6.4c3.7,0.9,7.6,0.2,10.8-1.8
			c3.2-2,5.5-5.2,6.4-8.9c0.9-3.7,0.2-7.6-1.8-10.8c-2-3.2-5.2-5.5-8.9-6.4C720.1,200.3,719,200.1,717.9,200.1z"/>
		<path fill="#E2EAFF" d="M765.3,240.9c-1.8-0.4-3.6,0.7-4,2.5c0,0.1-0.1,0.3-0.1,0.4c-1.4,0-2.7,0.3-4,0.7
			c-0.1-0.1-0.1-0.2-0.2-0.4c-1-1.6-3.1-2.1-4.6-1.1c-1.6,1-2.1,3.1-1.1,4.6c0.1,0.1,0.2,0.2,0.2,0.3c-0.9,1-1.7,2.1-2.4,3.3
			c-0.1,0-0.3-0.1-0.4-0.1c-1.8-0.4-3.6,0.7-4,2.5c-0.4,1.8,0.7,3.6,2.5,4c0.1,0,0.3,0.1,0.4,0.1c0,1.4,0.2,2.7,0.7,4
			c-0.1,0.1-0.2,0.1-0.4,0.2c-1.6,1-2.1,3.1-1.1,4.6c1,1.6,3.1,2.1,4.6,1.1c0.1-0.1,0.2-0.2,0.3-0.2c1,0.9,2.1,1.7,3.3,2.4
			c0,0.1-0.1,0.3-0.1,0.4c-0.4,1.8,0.7,3.6,2.5,4c1.8,0.4,3.6-0.7,4-2.5c0-0.1,0.1-0.3,0.1-0.4c1.4,0,2.7-0.3,4-0.7
			c0.1,0.1,0.1,0.2,0.2,0.4c1,1.6,3.1,2.1,4.6,1.1c1.6-1,2.1-3.1,1.1-4.6c-0.1-0.1-0.2-0.2-0.2-0.3c0.9-1,1.7-2.1,2.4-3.3
			c0.1,0,0.3,0.1,0.4,0.1c1.8,0.4,3.6-0.7,4-2.5c0.4-1.8-0.7-3.6-2.5-4c-0.1,0-0.3-0.1-0.4-0.1c0-1.4-0.2-2.7-0.7-4
			c0.1-0.1,0.2-0.1,0.4-0.2c1.6-1,2.1-3.1,1.1-4.6c-1-1.6-3.1-2.1-4.6-1.1c-0.1,0.1-0.2,0.2-0.3,0.2c-1-0.9-2.1-1.7-3.3-2.4
			c0-0.1,0.1-0.3,0.1-0.4C768.2,243.1,767.1,241.3,765.3,240.9z M762.8,251.5c3.4,0.8,5.4,4.1,4.7,7.5c-0.8,3.4-4.1,5.4-7.5,4.7
			c-3.4-0.8-5.4-4.1-4.7-7.5C756.1,252.8,759.5,250.8,762.8,251.5z"/>
	</g>
</g>
</svg>
