<?xml version="1.0" encoding="utf-8"?>
<!-- Generator: Adobe Illustrator 27.8.1, SVG Export Plug-In . SVG Version: 6.00 Build 0)  -->
<svg version="1.1" id="Layer_1" xmlns="http://www.w3.org/2000/svg" xmlns:xlink="http://www.w3.org/1999/xlink" x="0px" y="0px"
	 viewBox="0 0 615 410" style="enable-background:new 0 0 615 410;" xml:space="preserve">
<style type="text/css">
	.st0{fill:#FFFFFF;}
	.st1{fill:#E2EAFF;}
	.st2{fill:#5479F7;}
</style>
<g id="E-commerce_development_1_">
	<g>
		<g>
			<g>
				<path class="st0" d="M233.7,315.2h84.1c19.6,0,35.6-16,35.6-35.6V67.7c0-19.6-16-35.6-35.6-35.6h-84.1
					c-19.6,0-35.6,16-35.6,35.6v211.9C198.1,299.2,214.1,315.2,233.7,315.2z"/>
				<path d="M338.6,315.6H212.9c-8.4,0-15.3-6.9-15.3-15.3V47c0-8.4,6.9-15.3,15.3-15.3h125.6c8.4,0,15.3,6.9,15.3,15.3v253.4
					C353.9,308.8,347,315.6,338.6,315.6z M212.9,32.5c-8,0-14.5,6.5-14.5,14.5v253.4c0,8,6.5,14.5,14.5,14.5h125.6
					c8,0,14.5-6.5,14.5-14.5V47c0-8-6.5-14.5-14.5-14.5H212.9z"/>
			</g>
			<g>
				<path class="st0" d="M232.7,306.2h86.2c14.8,0,27-12.1,27-27V67.3c0-14.8-12.1-27-27-27h-86.2c-14.8,0-27,12.1-27,27v211.9
					C205.7,294.1,217.8,306.2,232.7,306.2z"/>
				<path d="M334.6,306.7H217c-6.4,0-11.7-5.2-11.7-11.7V51.6c0-6.4,5.2-11.7,11.7-11.7h117.6c6.4,0,11.7,5.2,11.7,11.7V295
					C346.3,301.4,341,306.7,334.6,306.7z M217,40.7c-6,0-10.9,4.9-10.9,10.9V295c0,6,4.9,10.9,10.9,10.9h117.6
					c6,0,10.9-4.9,10.9-10.9V51.6c0-6-4.9-10.9-10.9-10.9H217z"/>
			</g>
			<path d="M290.3,48.7h-30.9c-0.2,0-0.4-0.2-0.4-0.4c0-0.2,0.2-0.4,0.4-0.4h30.9c0.2,0,0.4,0.2,0.4,0.4
				C290.7,48.6,290.6,48.7,290.3,48.7z"/>
		</g>
		<g>
			<g>
				<rect x="221.7" y="81.5" class="st1" width="108.2" height="108.2"/>
				<g>
					<g>
						<path class="st0" d="M310.8,117.5c0-11.4-9.2-20.6-20.6-20.6h-3.6c-1,5.5-5.9,9.7-11.7,9.7s-10.7-4.2-11.7-9.7h-3.6
							c-11.4,0-20.6,9.2-20.6,20.6v16.8h12.8v40h46.3v-40h12.8V117.5z"/>
						<path d="M298.1,174.8h-46.3c-0.2,0-0.4-0.2-0.4-0.4v-39.6h-12.4c-0.2,0-0.4-0.2-0.4-0.4v-16.8c0-11.6,9.5-21.1,21.1-21.1h3.6
							c0.2,0,0.4,0.1,0.4,0.3c1,5.4,5.7,9.4,11.3,9.4s10.3-3.9,11.3-9.4c0-0.2,0.2-0.3,0.4-0.3h3.6c11.6,0,21.1,9.5,21.1,21.1v16.8
							c0,0.2-0.2,0.4-0.4,0.4h-12.4v39.6C298.5,174.6,298.3,174.8,298.1,174.8z M252.1,173.9h45.5v-39.6c0-0.2,0.2-0.4,0.4-0.4h12.4
							v-16.4c0-11.2-9.1-20.2-20.2-20.2h-3.3c-1.2,5.6-6.2,9.7-12,9.7s-10.8-4.1-12-9.7h-3.3c-11.2,0-20.2,9.1-20.2,20.2v16.4h12.4
							c0.2,0,0.4,0.2,0.4,0.4V173.9z"/>
					</g>
					<path d="M251.7,134.5c-0.2,0-0.4-0.2-0.4-0.4v-8c0-0.2,0.2-0.4,0.4-0.4c0.2,0,0.4,0.2,0.4,0.4v8
						C252.1,134.3,251.9,134.5,251.7,134.5z"/>
					<path d="M298.1,134.9c-0.2,0-0.4-0.2-0.4-0.4V126c0-0.2,0.2-0.4,0.4-0.4s0.4,0.2,0.4,0.4v8.5
						C298.5,134.7,298.3,134.9,298.1,134.9z"/>
				</g>
			</g>
			<path d="M284.6,70h-62.9c-0.2,0-0.4-0.2-0.4-0.4c0-0.2,0.2-0.4,0.4-0.4h62.9c0.2,0,0.4,0.2,0.4,0.4C285,69.8,284.8,70,284.6,70z"
				/>
			<path d="M329,199.5h-24.9c-0.2,0-0.4-0.2-0.4-0.4c0-0.2,0.2-0.4,0.4-0.4H329c0.2,0,0.4,0.2,0.4,0.4
				C329.4,199.3,329.2,199.5,329,199.5z"/>
		</g>
		<g>
			<path class="st1" d="M330.3,258.4c0-12.2-9.9-22.1-22.1-22.1h-63.9c-12.2,0-22.1,9.9-22.1,22.1c0,12.2,9.9,22.1,22.1,22.1h63.9
				C320.4,280.6,330.3,270.7,330.3,258.4z"/>
			<g>
				<path d="M260.6,258.4c1-0.3,1.8-0.8,2.3-1.5c0.7-0.9,1-2,1-3.3c0-1.8-0.6-3.2-1.8-4.1c-1.2-0.9-3-1.4-5.2-1.4h-5.7v21.4h6.9
					c2.1,0,3.8-0.5,5-1.6c1.2-1.1,1.8-2.5,1.8-4.4c0-1.3-0.5-2.5-1.4-3.5C262.7,259.2,261.7,258.6,260.6,258.4z M262.4,267.2
					c-1,0.9-2.4,1.3-4.2,1.3h-6V259h6.3c1.6,0,2.9,0.5,3.9,1.3c1,0.8,1.5,1.9,1.5,3.2C263.9,265.1,263.3,266.3,262.4,267.2z
					 M261.4,256.9c-1,0.7-2.4,1.1-4.3,1.1h-5v-9h4.9c3.9,0,5.9,1.5,5.9,4.5C262.9,255,262.4,256.2,261.4,256.9z"/>
				<path d="M282.7,262.5c0,1.9-0.6,3.5-1.7,4.6c-1.2,1.1-2.7,1.7-4.6,1.7c-1.9,0-3.5-0.6-4.6-1.7c-1.2-1.1-1.7-2.7-1.7-4.6V248h-1
					v14.5c0,2.2,0.7,4,2,5.3c1.3,1.3,3.1,1.9,5.4,1.9c2.2,0,4-0.6,5.4-1.9c1.3-1.3,2-3.1,2-5.3V248h-1V262.5z"/>
				<polygon points="302.5,248 295.1,260.4 287.8,248 286.6,248 294.6,261.3 294.6,269.5 295.6,269.5 295.6,261.3 303.7,248 				"/>
			</g>
			<path d="M284.6,216.8h-62.9c-0.2,0-0.4-0.2-0.4-0.4c0-0.2,0.2-0.4,0.4-0.4h62.9c0.2,0,0.4,0.2,0.4,0.4
				C285,216.6,284.8,216.8,284.6,216.8z"/>
		</g>
	</g>
	<g>
		<g>
			
				<rect x="111.8" y="103.1" transform="matrix(-1.836970e-16 1 -1 -1.836970e-16 316.6229 25.356)" class="st0" width="67.7" height="135.7"/>
			<path d="M213.5,205.2H77.8c-0.2,0-0.4-0.2-0.4-0.4v-67.7c0-0.2,0.2-0.4,0.4-0.4h135.7c0.2,0,0.4,0.2,0.4,0.4v67.7
				C213.9,205,213.7,205.2,213.5,205.2z M78.2,204.4h134.9v-66.8H78.2V204.4z"/>
		</g>
		<g>
			<g>
				<g>
					<path class="st0" d="M88.3,186.9H203H88.3z"/>
					<path d="M203,187.3H88.3c-0.2,0-0.4-0.2-0.4-0.4c0-0.2,0.2-0.4,0.4-0.4H203c0.2,0,0.4,0.2,0.4,0.4
						C203.4,187.1,203.2,187.3,203,187.3z"/>
				</g>
				<g>
					<path class="st0" d="M185.7,190.7c2.1,0,3.8-1.7,3.8-3.8c0-2.1-1.7-3.8-3.8-3.8c-2.1,0-3.8,1.7-3.8,3.8
						C182,189,183.6,190.7,185.7,190.7z"/>
					<path d="M185.7,191.1c-2.3,0-4.2-1.9-4.2-4.2c0-2.3,1.9-4.2,4.2-4.2c2.3,0,4.2,1.9,4.2,4.2C189.9,189.2,188,191.1,185.7,191.1z
						 M185.7,183.6c-1.8,0-3.3,1.5-3.3,3.3s1.5,3.3,3.3,3.3c1.8,0,3.3-1.5,3.3-3.3S187.6,183.6,185.7,183.6z"/>
				</g>
			</g>
			<g>
				<g>
					<path class="st0" d="M88.3,170.7H203H88.3z"/>
					<path d="M203,171.1H88.3c-0.2,0-0.4-0.2-0.4-0.4c0-0.2,0.2-0.4,0.4-0.4H203c0.2,0,0.4,0.2,0.4,0.4
						C203.4,170.9,203.2,171.1,203,171.1z"/>
				</g>
				<g>
					
						<ellipse transform="matrix(0.9871 -0.1602 0.1602 0.9871 -25.9246 19.5937)" class="st0" cx="108.6" cy="170.6" rx="3.8" ry="3.8"/>
					<path d="M108.6,174.8c-2.3,0-4.2-1.9-4.2-4.2c0-2.3,1.9-4.2,4.2-4.2c2.3,0,4.2,1.9,4.2,4.2
						C112.7,172.9,110.9,174.8,108.6,174.8z M108.6,167.3c-1.8,0-3.3,1.5-3.3,3.3c0,1.8,1.5,3.3,3.3,3.3c1.8,0,3.3-1.5,3.3-3.3
						C111.9,168.8,110.4,167.3,108.6,167.3z"/>
				</g>
			</g>
			<g>
				<g>
					<path class="st0" d="M88.3,154.5H203H88.3z"/>
					<path d="M203,154.9H88.3c-0.2,0-0.4-0.2-0.4-0.4c0-0.2,0.2-0.4,0.4-0.4H203c0.2,0,0.4,0.2,0.4,0.4
						C203.4,154.7,203.2,154.9,203,154.9z"/>
				</g>
				<g>
					
						<ellipse transform="matrix(0.3827 -0.9239 0.9239 0.3827 -46.8537 238.6257)" class="st0" cx="155.1" cy="154.4" rx="3.8" ry="3.8"/>
					<path d="M155.1,158.6c-2.3,0-4.2-1.9-4.2-4.2c0-2.3,1.9-4.2,4.2-4.2c2.3,0,4.2,1.9,4.2,4.2
						C159.3,156.7,157.4,158.6,155.1,158.6z M155.1,151c-1.8,0-3.3,1.5-3.3,3.3c0,1.8,1.5,3.3,3.3,3.3c1.8,0,3.3-1.5,3.3-3.3
						C158.5,152.5,157,151,155.1,151z"/>
				</g>
			</g>
		</g>
	</g>
	<g>
		<g>
			<polygon class="st0" points="172.4,344.5 182.7,377.9 85.5,377.9 85,367 			"/>
			<path d="M182.5,378.3c-0.2,0-0.3-0.1-0.4-0.3l-8.8-30.2c-0.1-0.2,0.1-0.5,0.3-0.5c0.2-0.1,0.5,0.1,0.5,0.3l8.8,30.2
				c0.1,0.2-0.1,0.5-0.3,0.5C182.5,378.3,182.5,378.3,182.5,378.3z"/>
		</g>
		<g>
			<g>
				<g>
					<path d="M147.3,197.6c1.8-2.7,3.2-5.9,2.2-9c-1.1-3.2-5.1-5-8.2-3.7c1.3-2.3,2.4-4.7,3.2-7.2c-8.5-0.2-17.2,1.3-24.5,5.7
						c-7.3,4.4-12.9,12-13.5,20.5c-0.3,3.5,0.3,7.2,2.4,10.1c2.2,3,5.8,4.7,9.4,5.6c4.7,1.2,9.9,1.1,14.1-1.1
						c2.9-1.5,5.2-4.2,6.3-7.3c0.3-0.8,0.4-1.6,0.5-2.4c0-0.6-0.3-1.7,0-2.2c0.3-0.6,1.4-1.3,2-1.7c0.7-0.7,1.4-1.3,2.1-2
						C144.7,201.2,146.1,199.4,147.3,197.6z"/>
					<path d="M139.5,198c-0.1,0-0.2,0-0.3-0.1c-0.2-0.2-0.2-0.4,0-0.6c1.8-1.8,3.1-4,3.8-6.4c0.1-0.2,0.3-0.3,0.5-0.3
						c0.2,0.1,0.3,0.3,0.3,0.5c-0.7,2.5-2.1,4.9-4,6.8C139.7,198,139.6,198,139.5,198z"/>
				</g>
				<path class="st0" d="M138.7,243.9l-4.8-0.5l1.3-16.2c0,0-3.9-19.8-19.2-5l-2.8,22l-4.5,0.6c0,0,1.8,10.3,14.6,10.2
					C134.2,254.9,138.9,251.3,138.7,243.9z"/>
				<path d="M110.6,244.9c-0.2,0-0.4-0.2-0.4-0.4c0-0.2,0.1-0.4,0.4-0.5l2.3-0.3l2.7-21.7c0-0.1,0.1-0.2,0.1-0.2
					c4.7-4.6,8.9-6.4,12.4-5.3c5.6,1.7,7.4,10.2,7.4,10.5c0,0,0,0.1,0,0.1l-1.2,15.8l2.4,0.3c0.2,0,0.4,0.2,0.4,0.5
					c0,0.2-0.2,0.4-0.5,0.4l-2.8-0.3c-0.2,0-0.4-0.2-0.4-0.4l1.2-16.2c-0.2-0.7-1.9-8.3-6.9-9.8c-3.2-1-7,0.7-11.5,5l-2.8,21.9
					c0,0.2-0.2,0.3-0.4,0.4L110.6,244.9C110.6,244.9,110.6,244.9,110.6,244.9z"/>
				<g>
					<path class="st0" d="M123.1,222.9c2.3,2,5,3.5,7.9,4c2.9,0.6,6.1,0.1,8.6-1.6c4.2-2.8,5.7-8.4,5-13.4c-0.7-5-3.3-9.4-5.9-13.8
						c0,0-9.8,7.5-18.8,8.7c-1.1,2.9-1.3,5.8-0.6,8.6c0,0-2-1.8-3.8-0.6c-2,1.3-2.8,4.1-1.8,6.3c1,2.2,3.4,3.5,5.8,3.3
						C120.8,224.2,122,224,123.1,222.9z"/>
					<path d="M133.4,227.5c-0.8,0-1.7-0.1-2.5-0.2c-2.7-0.5-5.4-1.8-7.8-3.9c-1.2,1-2.5,1.3-3.6,1.4c-2.6,0.3-5.2-1.2-6.2-3.5
						c-1-2.3-0.1-5.4,2-6.8c1.3-0.8,2.6-0.4,3.5,0c-0.4-2.6-0.2-5.2,0.8-7.8c0.1-0.1,0.2-0.2,0.3-0.3c8.8-1.2,18.5-8.6,18.6-8.6
						c0.1-0.1,0.2-0.1,0.3-0.1c0.1,0,0.2,0.1,0.3,0.2c2.3,3.9,5.2,8.7,5.9,13.9c0.9,5.7-1.2,11.1-5.1,13.8
						C138.1,226.9,135.8,227.5,133.4,227.5z M123.1,222.4c0.1,0,0.2,0,0.3,0.1c2.4,2.1,5.1,3.4,7.7,3.9c3,0.6,6,0,8.3-1.5
						c4.2-2.8,5.4-8.5,4.8-13c-0.7-4.9-3.4-9.5-5.6-13.2c-1.9,1.4-10.3,7.3-18.4,8.5c-1,2.7-1.2,5.3-0.5,8.1c0,0.2,0,0.4-0.2,0.5
						c-0.2,0.1-0.4,0.1-0.5-0.1c-0.1-0.1-1.8-1.6-3.3-0.6c-1.8,1.2-2.6,3.7-1.7,5.7c0.9,2,3.1,3.2,5.4,3c1.4-0.1,2.4-0.4,3.4-1.4
						C122.9,222.5,123,222.4,123.1,222.4z"/>
				</g>
				<path d="M121.2,220.6C121.2,220.6,121.1,220.6,121.2,220.6c-1.3-0.3-2.4-0.7-3.4-1.4c-0.2-0.1-0.3-0.4-0.1-0.6
					c0.1-0.2,0.4-0.3,0.6-0.1c1,0.6,2,1,3.1,1.3c0.2,0.1,0.4,0.3,0.3,0.5C121.6,220.5,121.4,220.6,121.2,220.6z"/>
			</g>
		</g>
		<g>
			<g>
				<path class="st2" d="M168.9,294.3c0,0,50.4,31.7,66-23.7c-8.2-4.7-17.9-11.2-20.6-22.3c0,0-7.1,15.6-15.2,12.5
					c-19.5-7.5-34.6-15.5-60.5-17.3c-0.5,1.6-1.2,3.2-2.3,4.6c-2.1,2.6-5.4,4-8.7,4.5c-3.1,0.5-6.3,0.3-9.3-0.5
					c-2.7-0.8-5.3-2.1-7.4-4.1c-0.9-0.9-1.7-2-2.2-3.1c-18.7,1.5-30.5,3.8-40.4,15.8c-12.7,15.6-23.4,44.8-20.3,63.3
					c3.1,18.5,11.6,24.2,22.4,27.8l-0.5,10c-0.5,11.1,10.4,19.1,20.8,15.2l86.6-32.1c4.2-1.6,6.4-6.2,5-10.4L168.9,294.3z"/>
				<path d="M168.7,293.9c-0.2,0-0.3-0.1-0.4-0.3l-2.3-7c-0.1-0.2,0-0.5,0.3-0.5c0.2-0.1,0.5,0,0.5,0.3l2.3,7c0.1,0.2,0,0.5-0.3,0.5
					C168.8,293.9,168.7,293.9,168.7,293.9z"/>
			</g>
			<g>
				<path class="st0" d="M213.5,250.5c5.8-14.4,10.2-29.6,18.5-42.7c0.7-1.2,1.5-2.3,2.7-3c1.2-0.7,2.8-0.8,3.8,0.2
					c1,1,0.9,2.6,0.7,3.9c-0.6,4.3-2.2,9.2-4.5,12.9c0,0,5.9-1.8,8.1,3.5c0,0,3.5-1,5,5.9c0,0,4.2,4,1.1,8.8
					c-2.2,3.5-4.6,3.7-4.6,3.7s-4.1,18.1-8.8,25.9C231,277.4,210.4,258.3,213.5,250.5z"/>
				<path d="M236.1,269.3c-0.1,0-0.1,0-0.2,0c-0.2-0.1-0.3-0.3-0.2-0.5c3.6-8.6,8.2-24.9,8.3-25.1c0-0.2,0.2-0.3,0.4-0.3
					c0,0,2.3-0.3,4.3-3.5c2.8-4.5-1-8.2-1.1-8.3c-0.1-0.1-0.1-0.1-0.1-0.2c-0.7-3.4-2-4.7-2.8-5.2c-0.9-0.6-1.7-0.4-1.7-0.4
					c-0.2,0.1-0.4-0.1-0.5-0.2c-2-4.9-7.3-3.3-7.5-3.2c-0.2,0.1-0.3,0-0.5-0.1c-0.1-0.1-0.1-0.3,0-0.5c2.1-3.5,3.8-8.2,4.4-12.8
					c0.2-1.1,0.3-2.7-0.6-3.6c-0.9-0.8-2.3-0.7-3.3-0.1c-1.1,0.6-1.8,1.7-2.6,2.9c-6.2,9.7-10.6,21.6-14.9,33.2
					c-1.2,3.3-2.4,6.4-3.6,9.5c-0.1,0.2-0.3,0.3-0.5,0.2c-0.2-0.1-0.3-0.3-0.2-0.5c1.2-3.1,2.4-6.2,3.6-9.5
					c4.3-11.6,8.7-23.5,15-33.3c0.8-1.2,1.6-2.4,2.9-3.2c1.3-0.7,3.2-0.9,4.3,0.2c1.2,1.1,1.1,3,0.9,4.3c-0.6,4.3-2.1,8.8-4.1,12.3
					c1.8-0.3,5.7-0.3,7.5,3.6c0.4,0,1.1,0,1.9,0.5c1.5,0.9,2.6,2.8,3.2,5.7c0.6,0.7,4,4.6,1.1,9.2c-1.8,2.9-3.9,3.7-4.6,3.8
					c-0.6,2.1-4.9,16.9-8.2,25C236.4,269.2,236.3,269.3,236.1,269.3z"/>
				<path d="M238.4,241.8c-0.2,0-0.4,0-0.7-0.1c-0.9-0.2-1.7-0.8-2.2-1.7c-0.4-0.7-0.4-1.5-0.1-2.2c0.1-0.2,0.3-0.3,0.6-0.2
					c0.2,0.1,0.3,0.3,0.2,0.6c-0.2,0.5-0.2,1,0.1,1.5c0.3,0.6,0.9,1.1,1.6,1.2c1.3,0.3,2.7-0.6,3.4-1.6c0.8-1.1,1.2-2.5,1.5-3.9
					c0.4-1.8,0.8-4.2,0.4-6.6c-0.1-0.8-0.3-1.6-0.6-2.4c-0.1-0.2,0-0.5,0.2-0.5c0.2-0.1,0.5,0,0.5,0.2c0.3,0.8,0.6,1.7,0.7,2.6
					c0.4,2.5,0,5-0.4,6.9c-0.3,1.5-0.7,3-1.7,4.3C241.1,241.1,239.7,241.8,238.4,241.8z"/>
				<path d="M227.8,243.7c-0.5,0-1.1-0.1-1.5-0.5c-0.2-0.1-0.2-0.4-0.1-0.6c0.1-0.2,0.4-0.2,0.6-0.1c0.9,0.7,2.3,0.2,3.1-0.7
					c0.7-0.8,1.1-1.9,1.5-3c0.1-0.2,0.1-0.4,0.2-0.6c0.4-1.2,1.1-2.7,2.5-3.5c0.8-0.4,1.6-0.6,2.5-0.7c0.9-0.1,1.7-0.2,2.3-0.7
					c0.6-0.4,1-1.1,1.1-2c0.1-1.1-0.2-2.3-1-3c-1.6-1.7-4.2-1.8-5.6-1.7c-2.6,0.2-5,1-7.1,2.5c-0.2,0.1-0.4,0.1-0.6-0.1
					c-0.1-0.2-0.1-0.4,0.1-0.6c2.2-1.6,4.8-2.5,7.5-2.6c1.5-0.1,4.4,0,6.2,2c0.9,0.9,1.3,2.4,1.2,3.7c-0.1,1.1-0.7,2-1.5,2.6
					c-0.8,0.5-1.7,0.7-2.7,0.8c-0.8,0.1-1.5,0.2-2.2,0.6c-1.1,0.6-1.7,2-2.1,3.1c-0.1,0.2-0.1,0.4-0.2,0.6c-0.4,1.1-0.8,2.3-1.6,3.2
					C229.8,243.1,228.8,243.7,227.8,243.7z"/>
				<path d="M241.4,243.6c-1.1,0-2.1-0.6-2.6-1.5c-0.1-0.2,0-0.5,0.2-0.6c0.2-0.1,0.5,0,0.6,0.2c0.3,0.7,1.1,1.1,2,1
					c0.8,0,1.6-0.4,2.2-1.1c0.7-0.6,1.2-1.5,1.6-2.2c1.3-2.4,2-4.6,2-6.7c0-0.2,0.2-0.4,0.4-0.4c0.2,0,0.4,0.2,0.4,0.4
					c0,2.2-0.7,4.5-2.1,7.1c-0.4,0.8-1,1.7-1.7,2.4c-0.8,0.8-1.8,1.2-2.8,1.3C241.5,243.6,241.5,243.6,241.4,243.6z"/>
				<path d="M244.2,243.9c0,0-0.1,0-0.1,0c-0.4-0.2-0.9-0.4-1.2-0.7c-0.2-0.2-0.2-0.4,0-0.6c0.2-0.2,0.4-0.2,0.6,0
					c0.3,0.2,0.6,0.4,0.9,0.5c0.2,0.1,0.3,0.3,0.3,0.5C244.5,243.8,244.3,243.9,244.2,243.9z"/>
			</g>
			<path d="M170.2,264.2h-43.6c-0.6,0-1.2,0.4-1.3,1l-16.6,55.9c-0.3,0.9,0.4,1.8,1.4,1.8h43.6c0.6,0,1.2-0.4,1.3-1l16.6-55.9
				C171.8,265.1,171.1,264.2,170.2,264.2z"/>
			<g>
				<g>
					<path class="st0" d="M147.8,307.7c1.9-1.8,3-3.8,1.8-5.7c-1.2-1.9-4.2-2.4-5.9-0.9c1.3-1,2.6-2,3.3-3.4
						c0.8-1.4,0.9-3.3-0.2-4.5c-0.9-1.1-2.5-1.3-3.9-1c-0.7,0.2-1.3,0.4-1.9,0.7c0.6-0.9,0.8-2.2,0.3-3.2c-0.9-1.7-3-2.4-4.9-2.2
						c-1.9,0.2-3.6,1.2-5.2,2.1c-11,6.2-32.8,18.8-32.8,18.8c-0.6,3.1,10.9,28.3,15.2,32.6c2.8-0.8,23.8-17.7,31.8-24.5
						c1.3-1.1,2.7-2.4,3.4-4C149.5,310.9,149.2,308.7,147.8,307.7z"/>
					<path d="M128.1,301.7c-0.1,0-0.3-0.1-0.4-0.2c-0.1-0.2-0.1-0.5,0.1-0.6c4-2.5,8.1-5.1,12-7.7c0.2-0.1,0.5-0.1,0.6,0.1
						c0.1,0.2,0.1,0.5-0.1,0.6c-3.9,2.6-8,5.2-12,7.7C128.2,301.7,128.1,301.7,128.1,301.7z"/>
					<path d="M133.2,309.2c-0.1,0-0.3-0.1-0.3-0.2c-0.1-0.2-0.1-0.4,0.1-0.6l10.4-7.4c0.2-0.1,0.4-0.1,0.6,0.1
						c0.1,0.2,0.1,0.4-0.1,0.6l-10.4,7.4C133.3,309.2,133.3,309.2,133.2,309.2z"/>
					<path d="M138,315.4c-0.1,0-0.3-0.1-0.3-0.2c-0.1-0.2-0.1-0.5,0.1-0.6c3.2-2.1,6.2-4.4,9.2-6.9c0.2-0.1,0.4-0.1,0.6,0.1
						c0.1,0.2,0.1,0.4-0.1,0.6c-3,2.4-6.1,4.8-9.2,6.9C138.2,315.4,138.1,315.4,138,315.4z"/>
				</g>
				<path d="M80.3,353.5c-3,0-5.9-0.2-8.9-0.7c-0.2,0-0.4-0.3-0.3-0.5c0-0.2,0.3-0.4,0.5-0.3c14.5,2.4,29.6-1.3,41.5-10
					c0.2-0.1,0.4-0.1,0.6,0.1c0.1,0.2,0.1,0.4-0.1,0.6C104,349.8,92.2,353.5,80.3,353.5z"/>
				<path d="M73.8,323.1c-0.1,0-0.3-0.1-0.4-0.2c-0.1-0.2,0-0.5,0.2-0.6L97,308.9c0.2-0.1,0.5,0,0.6,0.2c0.1,0.2,0,0.5-0.2,0.6
					L74,323.1C74,323.1,73.9,323.1,73.8,323.1z"/>
				<path d="M81.3,317.1C81.3,317.1,81.3,317.1,81.3,317.1c-0.3-0.1-0.5-0.3-0.4-0.5l6.3-30.7c0-0.2,0.3-0.4,0.5-0.3
					c0.2,0,0.4,0.3,0.3,0.5l-6.3,30.7C81.7,317,81.5,317.1,81.3,317.1z"/>
			</g>
		</g>
	</g>
	<g>
		<g>
			<g>
				<circle class="st0" cx="112.3" cy="78.8" r="28.4"/>
				<path d="M112.3,107.7c-15.9,0-28.8-12.9-28.8-28.8C83.5,63,96.4,50,112.3,50s28.8,12.9,28.8,28.8
					C141.1,94.7,128.2,107.7,112.3,107.7z M112.3,50.9c-15.4,0-28,12.6-28,28c0,15.4,12.6,28,28,28s28-12.6,28-28
					C140.3,63.4,127.7,50.9,112.3,50.9z"/>
			</g>
			<g>
				<circle class="st0" cx="119.7" cy="78.8" r="28.4"/>
				<path d="M119.7,107.7c-15.9,0-28.8-12.9-28.8-28.8C90.9,63,103.8,50,119.7,50c15.9,0,28.8,12.9,28.8,28.8
					C148.5,94.7,135.6,107.7,119.7,107.7z M119.7,50.9c-15.4,0-28,12.6-28,28c0,15.4,12.6,28,28,28c15.4,0,28-12.6,28-28
					C147.7,63.4,135.1,50.9,119.7,50.9z"/>
			</g>
			<g>
				<circle class="st0" cx="126.8" cy="78.8" r="28.4"/>
				<path d="M126.8,107.7C111,107.7,98,94.7,98,78.8C98,63,111,50,126.8,50s28.8,12.9,28.8,28.8C155.7,94.7,142.7,107.7,126.8,107.7
					z M126.8,50.9c-15.4,0-28,12.6-28,28c0,15.4,12.6,28,28,28c15.4,0,28-12.6,28-28C154.8,63.4,142.3,50.9,126.8,50.9z"/>
			</g>
			<g>
				<circle class="st0" cx="126.8" cy="78.8" r="22.3"/>
				<path d="M126.8,101.6c-12.5,0-22.7-10.2-22.7-22.7c0-12.5,10.2-22.7,22.7-22.7c12.5,0,22.7,10.2,22.7,22.7
					C149.6,91.4,139.4,101.6,126.8,101.6z M126.8,56.9c-12.1,0-21.9,9.8-21.9,21.9c0,12.1,9.8,21.9,21.9,21.9
					c12.1,0,21.9-9.8,21.9-21.9C148.8,66.8,138.9,56.9,126.8,56.9z"/>
			</g>
			<path d="M132.9,81.4c-0.2-0.6-0.6-1.1-1-1.6c-0.5-0.5-1-0.9-1.7-1.2c-0.7-0.3-1.7-0.7-3-1.2c-1.3-0.4-2.3-0.9-3-1.3
				c-0.7-0.4-1.2-0.9-1.5-1.4c-0.3-0.5-0.4-1.2-0.4-2.2c0-1.3,0.5-2.3,1.4-3.1c0.9-0.8,2.1-1.2,3.6-1.2c1.5,0,2.8,0.5,3.7,1.4
				c0.9,1,1.3,2.2,1.3,3.8c0,0.1,0,0.1,0.1,0.1h0.8c0.1,0,0.1,0,0.1-0.1c0-1.9-0.5-3.3-1.4-4.4c-0.9-1.1-2.3-1.7-4-1.8v-2.6
				c0-0.1,0-0.1-0.1-0.1h-0.8c-0.1,0-0.1,0-0.1,0.1v2.6c-1.6,0.1-2.9,0.6-3.9,1.5c-1,0.9-1.6,2.2-1.6,3.8c0,1,0.2,1.8,0.5,2.5
				c0.4,0.7,0.9,1.3,1.6,1.8c0.7,0.5,1.9,1,3.4,1.5c1.5,0.5,2.7,1,3.4,1.5c0.8,0.5,1.3,1,1.6,1.5c0.3,0.5,0.5,1.2,0.5,2.1
				c0,1.2-0.5,2.3-1.4,3.1c-0.9,0.8-2.2,1.3-3.6,1.3c-1.8,0-3.2-0.5-4.2-1.4c-1-0.9-1.5-2.2-1.5-3.9c0-0.1,0-0.1-0.1-0.1h-0.8
				c-0.1,0-0.1,0-0.1,0.1c0,1.9,0.6,3.4,1.7,4.5c1.1,1.1,2.7,1.6,4.6,1.7v2.6c0,0.1,0,0.1,0.1,0.1h0.8c0.1,0,0.1,0,0.1-0.1v-2.6
				c1.6-0.1,2.9-0.6,3.9-1.6c1-0.9,1.5-2.2,1.5-3.7C133.2,82.6,133.1,82,132.9,81.4z"/>
		</g>
	</g>
	<g>
		<path d="M498.8,314H361.7c-0.2,0-0.4-0.2-0.4-0.4v-42.1c0-0.2,0.2-0.4,0.4-0.4h137.1c0.2,0,0.4,0.2,0.4,0.4v42.1
			C499.2,313.8,499,314,498.8,314z M362.1,313.1h136.2v-41.3H362.1V313.1z"/>
		<rect x="386.9" y="190.9" class="st1" width="107" height="76"/>
		<g>
			<path d="M504.3,321.8H350.1c-0.2,0-0.3-0.1-0.4-0.3l-35.1-96.8c-0.1-0.2,0-0.5,0.3-0.5c0.2-0.1,0.5,0,0.5,0.3l35,96.5H504
				l30.4-108.7c0.1-0.2,0.2-0.3,0.4-0.3H567c0.2,0,0.4,0.2,0.4,0.4c0,0.2-0.2,0.4-0.4,0.4h-31.9l-30.4,108.7
				C504.7,321.7,504.5,321.8,504.3,321.8z"/>
			<path d="M530.9,226.8H398.5c-0.2,0-0.4-0.2-0.4-0.4c0-0.2,0.2-0.4,0.4-0.4h132.4c0.2,0,0.4,0.2,0.4,0.4
				C531.3,226.6,531.1,226.8,530.9,226.8z"/>
			<path d="M523.1,254.8h-94.3c-0.2,0-0.4-0.2-0.4-0.4c0-0.2,0.2-0.4,0.4-0.4h94.3c0.2,0,0.4,0.2,0.4,0.4
				C523.5,254.6,523.3,254.8,523.1,254.8z"/>
			<path d="M471,321.8c-0.2,0-0.4-0.2-0.4-0.4v-81.9c0-0.2,0.2-0.4,0.4-0.4c0.2,0,0.4,0.2,0.4,0.4v81.9
				C471.4,321.7,471.2,321.8,471,321.8z"/>
			<path d="M385.2,369.3c-0.1,0-0.1,0-0.2,0c-0.2-0.1-0.3-0.4-0.2-0.6c5.6-11.3,12.1-20.1,19.4-26.2c7.3-6.1,15.1-9.3,23.1-9.3h76.9
				c0.2,0,0.4,0.2,0.4,0.4v35.2c0,0.2-0.2,0.4-0.4,0.4c-0.2,0-0.4-0.2-0.4-0.4V334h-76.5c-15.5,0-30.8,12.8-41.8,35
				C385.5,369.2,385.4,369.3,385.2,369.3z"/>
			<g>
				<ellipse transform="matrix(0.7071 -0.7071 0.7071 0.7071 -110.1 463.095)" class="st0" cx="504" cy="364.4" rx="10" ry="10"/>
				<path d="M504,374.9c-5.7,0-10.4-4.7-10.4-10.4c0-5.7,4.7-10.4,10.4-10.4c5.7,0,10.4,4.7,10.4,10.4
					C514.4,370.2,509.7,374.9,504,374.9z M504,354.9c-5.3,0-9.6,4.3-9.6,9.6c0,5.3,4.3,9.6,9.6,9.6c5.3,0,9.6-4.3,9.6-9.6
					C513.5,359.2,509.2,354.9,504,354.9z"/>
			</g>
			<g>
				
					<ellipse transform="matrix(0.9732 -0.2298 0.2298 0.9732 -73.3825 98.6507)" class="st0" cx="386.9" cy="364.4" rx="10" ry="10"/>
				<path d="M386.9,374.9c-5.7,0-10.4-4.7-10.4-10.4c0-5.7,4.7-10.4,10.4-10.4s10.4,4.7,10.4,10.4
					C397.3,370.2,392.7,374.9,386.9,374.9z M386.9,354.9c-5.3,0-9.6,4.3-9.6,9.6c0,5.3,4.3,9.6,9.6,9.6c5.3,0,9.6-4.3,9.6-9.6
					C396.5,359.2,392.2,354.9,386.9,354.9z"/>
			</g>
		</g>
	</g>
	<g>
		<g>
			<circle class="st1" cx="399.2" cy="55" r="5"/>
			<circle class="st1" cx="384.5" cy="55" r="5"/>
			<circle class="st1" cx="369.8" cy="55" r="5"/>
		</g>
		<path d="M424,85.5c-0.2,0-0.4-0.2-0.4-0.4V54.8h-11.9c-0.2,0-0.4-0.2-0.4-0.4c0-0.2,0.2-0.4,0.4-0.4H424c0.2,0,0.4,0.2,0.4,0.4
			v30.6C424.4,85.3,424.2,85.5,424,85.5z"/>
	</g>
	<g>
		<g>
			<circle class="st1" cx="175.5" cy="94.5" r="5"/>
			<circle class="st1" cx="175.5" cy="79.8" r="5"/>
			<circle class="st1" cx="175.5" cy="65.1" r="5"/>
		</g>
		<path d="M176.1,129.2c-0.2,0-0.4-0.2-0.4-0.4V107c0-0.2,0.2-0.4,0.4-0.4c0.2,0,0.4,0.2,0.4,0.4v21.9
			C176.5,129.1,176.3,129.2,176.1,129.2z"/>
	</g>
	<g>
		<path d="M523,102.6c-0.7-8-6.1-14.7-11.6-20.5c-11.9-12.6-25.6-23.5-40-33.1c-4.2-2.8-8.6-5.5-13.5-6.7
			c-4.9-1.2-10.5-0.5-14.3,2.8c-4.5,4-5.3,10.6-4.9,16.6c1.1,17.2,10.6,33.6,24.8,43.2c11,7.4,24.6,10.5,37.7,9.2
			C510.7,113.1,524.4,117.8,523,102.6z"/>
		<g>
			<g>
				<path class="st0" d="M445.6,146.1l-21.1-9.9l-51.2-7.1c-21.6-3-37.1,20.3-26,39l31.8,53.7v-31.9H412l-17.7-22.2
					C394.4,167.7,452,169.1,445.6,146.1z"/>
			</g>
			<g>
				<path class="st2" d="M455.6,150.3l-31.1-14.1l-51.2-7.1c-21.6-3-37.1,20.3-26,39l22.5,38v-15.2h43l-18.5-23.3
					C394.4,167.7,462.1,173.2,455.6,150.3z"/>
			</g>
			<path class="st0" d="M450.7,152.9l-43.5-1.1c-21-0.5-40.2,11.6-48.7,30.8c-13.9,31.5-35.7,77.7-51.1,96.6c-1.8,2.2,0,5.5,2.9,5.1
				l43.5-5.7c7-0.9,13.2-5.1,16.7-11.3l40-70.9c0,0,80.1,3.9,73-12C476.4,168.6,450.7,152.9,450.7,152.9z"/>
			<path d="M309.9,284.8c-1.3,0-2.5-0.7-3.1-1.8c-0.7-1.3-0.6-2.8,0.4-4c2.9-3.6,6.2-8.3,9.8-14.1c0.1-0.2,0.4-0.3,0.6-0.1
				c0.2,0.1,0.3,0.4,0.1,0.6c-3.6,5.8-6.9,10.6-9.8,14.2c-0.9,1.1-0.7,2.3-0.3,3.1c0.4,0.8,1.4,1.6,2.8,1.4l43.5-5.7
				c6.9-0.9,13-5,16.4-11.1l1.3-2.3c0.1-0.2,0.4-0.3,0.6-0.2c0.2,0.1,0.3,0.4,0.2,0.6l-1.3,2.3c-3.5,6.3-9.9,10.5-17,11.5l-43.5,5.7
				C310.2,284.8,310,284.8,309.9,284.8z"/>
			<path class="st2" d="M364.8,264.1c-3.4,0.3-6.9,0.6-10.4,0.8c-3.5,0.2-6.9,0.2-10.4,0.2c-6.9,0-13.9-0.1-20.8-0.4
				c-1.8-0.1-3.7-0.2-5.5-0.3c13.8-22.5,29.8-56.7,40.8-81.7c8.5-19.2,27.7-31.4,48.7-30.8l43.5,1.1c0,0,25.7,15.7,32.8,31.6
				c7.1,15.9-73,12-73,12l-37.7,66.9C370.1,263.6,367.5,263.8,364.8,264.1z"/>
			<path d="M358.5,183.1c-0.1,0-0.1,0-0.2,0c-0.2-0.1-0.3-0.3-0.2-0.6c8.6-19.4,27.9-31.6,49.1-31.1l38,1c0.2,0,0.4,0.2,0.4,0.4
				c0,0.2-0.2,0.4-0.4,0.4l-38-1c-20.9-0.5-39.8,11.5-48.3,30.6C358.8,183,358.7,183.1,358.5,183.1z"/>
			<path d="M394.4,197c-0.2,0-0.4-0.2-0.4-0.4c0-0.2,0.2-0.4,0.4-0.4l14-0.1c0,0,0,0,0,0c0.2,0,0.4,0.2,0.4,0.4
				c0,0.2-0.2,0.4-0.4,0.4L394.4,197C394.4,197,394.4,197,394.4,197z"/>
			<g>
				<path class="st2" d="M424.5,136.2l22.4,16.3c0,0,22.5,20.2,24.1,41.5c0,0,43.6-4.6,31.5-52.8l-55.3-1.6L424.5,136.2z"/>
			</g>
		</g>
		<g>
			<g>
				<path class="st0" d="M497.2,146.7L481,81c0,0-30.1-0.6-40.7,1.8c0,0-1.2,53.3-1.7,63.8H497.2z"/>
				<g>
					<path class="st0" d="M420.8,135.5c0,0,8.9-53.1,19.5-52.6l-1.7,52.6H420.8z"/>
					<path d="M438.6,135.9h-17.8c-0.1,0-0.2-0.1-0.3-0.1c-0.1-0.1-0.1-0.2-0.1-0.3c0-0.1,2.3-13.5,5.8-26.5
						c4.8-17.8,9.5-26.7,14.2-26.4c0.2,0,0.4,0.2,0.4,0.4l-1.7,52.6C439,135.7,438.8,135.9,438.6,135.9z M421.3,135h16.9l1.7-51.8
						c-2.9,0.3-7.4,5.2-12.9,25.8C423.8,120.7,421.7,132.5,421.3,135z"/>
				</g>
			</g>
			<g>
				<path d="M377.1,137.3h81.6v-2.5c0-2.2-1.8-3.9-3.9-3.9h-83.4l0.7,2.5C372.7,135.7,374.8,137.3,377.1,137.3z"/>
				<path d="M374.8,134.4H424c2.1,0,3.6-2,3.1-4l-9.3-37.5c-0.4-1.4-1.7-2.5-3.1-2.5h-49.2c-2.1,0-3.6,2-3.1,4l9.3,37.5
					C372,133.4,373.3,134.4,374.8,134.4z"/>
				<circle class="st2" cx="391.5" cy="104.9" r="1.6"/>
			</g>
		</g>
		<g>
			<g>
				<path class="st0" d="M442.1,130.9c0,0,9-15.4,21.2-10.8c12.3,4.6,29.8,15.5,29.8,15.5S477,91.7,481,81c0,0,21.1,6.3,30.9,38
					c9.8,31.6-4.8,42.3-15.2,42.5c-10.3,0.2-36.3-27.1-40.4-27.1L442.1,130.9z"/>
				<path d="M496.6,162c-6.6,0-18.6-10.1-28.3-18.2c-5.4-4.6-10.6-8.9-12-8.9c0,0,0,0,0,0c0,0-0.1,0-0.1,0l-14.2-3.5
					c-0.1,0-0.2-0.1-0.3-0.2c-0.1-0.1,0-0.3,0-0.4c0.1-0.2,9.3-15.6,21.8-11c10.5,3.9,24.9,12.5,28.8,14.9
					c-2.6-7.1-15.4-43.8-11.7-53.7c0.1-0.2,0.3-0.3,0.5-0.3c0.2,0.1,5.4,1.7,11.9,7.2c6,5.1,14.2,14.6,19.3,31
					c6,19.4,2.6,30-1.4,35.4c-3.4,4.7-8.7,7.5-14.2,7.6C496.7,162,496.7,162,496.6,162z M456.4,134c1.7,0.1,5.6,3.3,12.5,9.1
					c9.1,7.7,21.6,18.2,27.9,18c5.2-0.1,10.3-2.8,13.5-7.3c3.8-5.3,7.2-15.6,1.3-34.7c-8.9-28.7-27.4-36.5-30.3-37.6
					c-3.4,11.1,12.1,53.4,12.3,53.9c0.1,0.2,0,0.4-0.1,0.5c-0.1,0.1-0.3,0.1-0.5,0c-0.2-0.1-17.6-11-29.7-15.4
					c-10.6-3.9-18.8,7.6-20.4,10.2L456.4,134z"/>
			</g>
			<path d="M453.1,132.6c0,0-0.1,0-0.1,0c-0.2-0.1-0.3-0.3-0.3-0.5c0.9-2.5,2.8-4.6,5.2-5.6c0.2-0.1,0.5,0,0.6,0.2
				c0.1,0.2,0,0.5-0.2,0.6c-2.2,1-3.9,2.9-4.7,5.1C453.5,132.5,453.3,132.6,453.1,132.6z"/>
			<path d="M448.7,131.7c0,0-0.1,0-0.1,0c-0.2-0.1-0.3-0.3-0.3-0.5c0.9-3,3.1-5.5,5.9-6.9c0.2-0.1,0.5,0,0.6,0.2
				c0.1,0.2,0,0.5-0.2,0.6c-2.6,1.2-4.6,3.6-5.5,6.4C449,131.6,448.8,131.7,448.7,131.7z"/>
			<path d="M458.7,137.3v-2.5c0-2.2-1.8-3.9-3.9-3.9h-16.2L458.7,137.3z"/>
		</g>
		<g>
			<g>
				<g>
					<path class="st0" d="M462.1,63.2l7.1,17.9c0,0-4,5.2-12.9,6.4c-8.9,1.2-1.3-6.2-1.3-6.2L450.7,69L462.1,63.2z"/>
					<path d="M454.6,88.1c-1.5,0-2.5-0.4-2.9-1.2c-0.9-1.8,1.9-4.9,2.8-5.7l-4.2-12c-0.1-0.2,0-0.4,0.2-0.5l11.4-5.8
						c0.1-0.1,0.2-0.1,0.3,0c0.1,0,0.2,0.1,0.2,0.2l7.1,17.9c0.1,0.1,0,0.3-0.1,0.4c-0.2,0.2-4.2,5.4-13.1,6.6
						C455.7,88.1,455.1,88.1,454.6,88.1z M451.2,69.2l4.2,11.9c0.1,0.2,0,0.3-0.1,0.4c-1.4,1.3-3.3,3.9-2.8,5
						c0.3,0.7,1.7,0.9,3.8,0.6c7.7-1,11.6-5.2,12.4-6.1l-6.8-17.3L451.2,69.2z"/>
				</g>
			</g>
			<g>
				<g>
					<g>
						<path class="st0" d="M441.9,61.8c0.3,2.7,1,5.5,2.6,7.7c1.6,2.2,4,3.9,6.8,4.2c2.4,0.2,4.7-0.7,6.6-2.2
							c1.9-1.5,3.2-3.5,4.2-5.7c2.5,0.2,5-1.5,5.7-3.9c0.4-1.4,0.2-3-0.7-4c-1-1.1-2.8-1.3-3.9-0.4c-0.6,0.5-0.9,1.4-1.6,1.9
							c-0.7,0.6-1.7,0.6-2.6,0.4c-0.9-0.3-1.6-0.9-2.2-1.5c-2-2.1-3.2-4.8-3.4-7.7c0,0.3-1.2,1-1.4,1.2c-0.5,0.4-1.1,0.7-1.7,1
							c-1.2,0.5-2.5,0.9-3.8,1c-0.7,0.1-1.3,0.1-2,0c-0.5,0-1.3-0.3-1.8-0.2c-1.1,0.3-0.8,2.3-0.9,3.1
							C441.7,58.4,441.7,60.1,441.9,61.8z"/>
						<path d="M451.9,74.1c-0.2,0-0.5,0-0.7,0c-2.7-0.2-5.3-1.9-7.1-4.3c-1.5-2.1-2.4-4.7-2.7-7.9c-0.1-1.5-0.2-3.1,0-5.2
							c0-0.1,0-0.3,0-0.5c0-1.1,0-2.7,1.2-3c0.4-0.1,0.9,0,1.4,0.1c0.2,0,0.4,0.1,0.6,0.1c0.6,0,1.3,0,1.9,0c1.3-0.1,2.5-0.5,3.6-1
							c0.6-0.3,1.1-0.6,1.7-0.9c0,0,0.1-0.1,0.2-0.1c0.8-0.5,1-0.7,1.1-0.8c0-0.2,0.2-0.3,0.4-0.3c0.2,0,0.4,0.2,0.4,0.4
							c0.1,2.8,1.3,5.5,3.2,7.4c0.7,0.7,1.4,1.2,2.1,1.4c0.8,0.3,1.7,0.2,2.2-0.3c0.3-0.2,0.5-0.5,0.7-0.9c0.2-0.3,0.5-0.7,0.8-1
							c1.2-1.1,3.3-0.8,4.4,0.4c1,1.1,1.3,2.8,0.8,4.4c-0.8,2.5-3.2,4.3-5.8,4.2c-1.1,2.4-2.5,4.2-4.2,5.6
							C456.3,73.3,454.1,74.1,451.9,74.1z M442.3,61.7c0.3,3,1.1,5.5,2.5,7.5c1.6,2.3,4,3.8,6.5,4c2.1,0.2,4.4-0.6,6.3-2.1
							c1.6-1.3,3-3.2,4.1-5.5c0.1-0.2,0.2-0.3,0.4-0.2c2.3,0.1,4.6-1.4,5.3-3.6c0.4-1.3,0.2-2.8-0.6-3.6c-0.9-0.9-2.4-1.1-3.3-0.4
							c-0.3,0.2-0.5,0.5-0.7,0.8c-0.3,0.4-0.5,0.8-0.9,1.1c-0.8,0.6-1.9,0.8-3,0.4c-0.8-0.3-1.6-0.8-2.4-1.6
							c-1.8-1.9-3.1-4.4-3.4-7.1c-0.2,0.1-0.4,0.3-0.7,0.5l-0.1,0.1c-0.6,0.4-1.2,0.7-1.8,1c-1.2,0.6-2.5,0.9-3.9,1.1
							c-0.7,0.1-1.4,0.1-2.1,0c-0.2,0-0.4-0.1-0.7-0.1c-0.3-0.1-0.7-0.1-1-0.1c-0.6,0.2-0.6,1.4-0.6,2.2c0,0.2,0,0.4,0,0.5
							C442.1,58.7,442.1,60.3,442.3,61.7z M453,50.5C453,50.5,453,50.5,453,50.5C453,50.5,453,50.5,453,50.5z"/>
					</g>
					<g>
						<path class="st0" d="M464.6,60.5c-1.3,0.3-2.3,1.4-2.5,2.7L464.6,60.5z"/>
						<path d="M462.1,63.6C462.1,63.6,462.1,63.6,462.1,63.6c-0.3,0-0.4-0.3-0.4-0.5c0.2-1.5,1.4-2.7,2.8-3c0.2-0.1,0.4,0.1,0.5,0.3
							c0.1,0.2-0.1,0.4-0.3,0.5c-1.1,0.3-2,1.2-2.2,2.4C462.5,63.5,462.3,63.6,462.1,63.6z"/>
					</g>
				</g>
			</g>
		</g>
	</g>
	<g>
		<g>
			<g>
				<rect x="316.6" y="68.7" class="st0" width="66.5" height="32"/>
				<path d="M383.1,101.1h-66.5c-0.2,0-0.4-0.2-0.4-0.4v-32c0-0.2,0.2-0.4,0.4-0.4h66.5c0.2,0,0.4,0.2,0.4,0.4v32
					C383.5,100.9,383.3,101.1,383.1,101.1z M317,100.3h65.6V69.1H317V100.3z"/>
			</g>
		</g>
		<g>
			<path d="M357.7,93.9c-0.1,0-0.2,0-0.3-0.1c-0.2-0.2-0.2-0.4,0-0.6l7.7-7.7l-7.7-7.7c-0.2-0.2-0.2-0.4,0-0.6
				c0.2-0.2,0.4-0.2,0.6,0l8,8c0.1,0.1,0.1,0.2,0.1,0.3c0,0.1,0,0.2-0.1,0.3l-8,8C358,93.8,357.8,93.9,357.7,93.9z"/>
			<path d="M340.9,93.9c-0.1,0-0.2,0-0.3-0.1l-8-8c-0.1-0.1-0.1-0.2-0.1-0.3c0-0.1,0-0.2,0.1-0.3l8-8c0.2-0.2,0.4-0.2,0.6,0
				s0.2,0.4,0,0.6l-7.7,7.7l7.7,7.7c0.2,0.2,0.2,0.4,0,0.6C341.1,93.8,341,93.9,340.9,93.9z"/>
			<path d="M345,96.3c-0.1,0-0.1,0-0.2,0c-0.2-0.1-0.3-0.3-0.2-0.5l8.8-20.8c0.1-0.2,0.3-0.3,0.5-0.2c0.2,0.1,0.3,0.3,0.2,0.5
				l-8.8,20.8C345.3,96.2,345.1,96.3,345,96.3z"/>
		</g>
	</g>
	<g>
		<path d="M361.7,341.4h-82c-0.2,0-0.4-0.2-0.4-0.4c0-0.2,0.2-0.4,0.4-0.4h82c0.2,0,0.4,0.2,0.4,0.4
			C362.1,341.2,362,341.4,361.7,341.4z"/>
		<path d="M320.7,354.9h-89.1c-0.2,0-0.4-0.2-0.4-0.4c0-0.2,0.2-0.4,0.4-0.4h89.1c0.2,0,0.4,0.2,0.4,0.4
			C321.1,354.7,321,354.9,320.7,354.9z"/>
	</g>
</g>
</svg>
