<?xml version="1.0" encoding="utf-8"?>
<!-- Generator: Adobe Illustrator 27.8.1, SVG Export Plug-In . SVG Version: 6.00 Build 0)  -->
<svg version="1.1" baseProfile="tiny" id="Layer_1" xmlns="http://www.w3.org/2000/svg" xmlns:xlink="http://www.w3.org/1999/xlink"
	 x="0px" y="0px" viewBox="0 0 615 410" overflow="visible" xml:space="preserve">
<g id="Responsive_web_design_1_">
	<g>
		<g>
			<path fill="#FFFFFF" d="M254.3,242.1h7.5c3.8,0,6.8,3.1,6.8,6.8c0,3.8-3.1,6.8-6.8,6.8H120.9c-3.8,0-6.8-3.1-6.8-6.8
				c0-3.8,3.1-6.8,6.8-6.8h6.9H254.3z"/>
			<path d="M261.8,256.2H120.9c-4,0-7.3-3.3-7.3-7.3c0-4,3.3-7.3,7.3-7.3h6.9c0.2,0,0.4,0.2,0.4,0.4c0,0.2-0.2,0.4-0.4,0.4h-6.9
				c-3.5,0-6.4,2.9-6.4,6.4c0,3.5,2.9,6.4,6.4,6.4h140.9c3.5,0,6.4-2.9,6.4-6.4c0-3.5-2.9-6.4-6.4-6.4h-7.5c-0.2,0-0.4-0.2-0.4-0.4
				c0-0.2,0.2-0.4,0.4-0.4h7.5c4,0,7.3,3.3,7.3,7.3C269,253,265.8,256.2,261.8,256.2z"/>
		</g>
		<g>
			<rect x="122.8" y="214.8" fill="#FFFFFF" width="137.1" height="27.4"/>
			<path d="M259.9,242.6H122.8c-0.2,0-0.4-0.2-0.4-0.4v-27.4c0-0.2,0.2-0.4,0.4-0.4c0.2,0,0.4,0.2,0.4,0.4v27h136.3v-27
				c0-0.2,0.2-0.4,0.4-0.4c0.2,0,0.4,0.2,0.4,0.4v27.4C260.3,242.4,260.1,242.6,259.9,242.6z"/>
		</g>
		<g>
			<path fill="#FFFFFF" d="M330.3,200.3l-277.9-0.5l-2.4,2.7v3.3c0,5,4,9,9,9h264.6c5,0,9-4,9-9v-3.3L330.3,200.3z"/>
			<path d="M323.6,215.2H59c-5.2,0-9.4-4.2-9.4-9.4v-3.3c0-0.1,0-0.2,0.1-0.3l2.4-2.7c0.1-0.1,0.2-0.1,0.3-0.1c0,0,0,0,0,0
				l277.9,0.5c0.1,0,0.2,0,0.3,0.1l2.3,2.2c0.1,0.1,0.1,0.2,0.1,0.3v3.3C333,211,328.8,215.2,323.6,215.2z M50.5,202.6v3.1
				c0,4.7,3.8,8.6,8.6,8.6h264.6c4.7,0,8.6-3.9,8.6-8.6v-3.1l-2-1.9l-277.5-0.5L50.5,202.6z"/>
		</g>
		<g>
			<path fill="#FFFFFF" d="M332.6,202.5H50.1V58.8c0-13.9,11.3-25.2,25.2-25.2h232.1c13.9,0,25.2,11.3,25.2,25.2V202.5z"/>
			<path d="M332.6,202.9H50.1c-0.2,0-0.4-0.2-0.4-0.4V44c0-6,4.9-10.9,10.9-10.9h261.6c6,0,10.9,4.9,10.9,10.9v158.5
				C333,202.7,332.8,202.9,332.6,202.9z M50.5,202h281.7V44c0-5.5-4.5-10-10-10H60.5c-5.5,0-10,4.5-10,10V202z"/>
		</g>
		<g>
			<path fill="#FFFFFF" d="M59.7,192.8V45.7c0-1.4,1.1-2.5,2.5-2.5h258.2c1.4,0,2.5,1.1,2.5,2.5v147.1H59.7z"/>
			<path d="M322.9,193.2H59.7c-0.2,0-0.4-0.2-0.4-0.4V44.2c0-0.8,0.7-1.5,1.5-1.5h261.1c0.8,0,1.5,0.7,1.5,1.5v148.5
				C323.4,193,323.2,193.2,322.9,193.2z M60.1,192.4h262.4V44.2c0-0.3-0.3-0.6-0.6-0.6H60.7c-0.3,0-0.6,0.3-0.6,0.6V192.4z"/>
		</g>
		<g>
			<g>
				<rect x="74.8" y="76.2" fill="#E2EAFF" width="68.7" height="68.7"/>
				<path d="M125.3,63.1H74.8c-0.2,0-0.4-0.2-0.4-0.4c0-0.2,0.2-0.4,0.4-0.4h50.6c0.2,0,0.4,0.2,0.4,0.4
					C125.8,62.9,125.6,63.1,125.3,63.1z"/>
				<path d="M143.1,154.6h-17.8c-0.2,0-0.4-0.2-0.4-0.4c0-0.2,0.2-0.4,0.4-0.4h17.8c0.2,0,0.4,0.2,0.4,0.4
					C143.5,154.4,143.3,154.6,143.1,154.6z"/>
			</g>
			<g>
				<rect x="157" y="76.2" fill="#E2EAFF" width="68.7" height="68.7"/>
				<path d="M225.7,154.6h-17.8c-0.2,0-0.4-0.2-0.4-0.4c0-0.2,0.2-0.4,0.4-0.4h17.8c0.2,0,0.4,0.2,0.4,0.4
					C226.1,154.4,225.9,154.6,225.7,154.6z"/>
				<path d="M204.4,63.1H157c-0.2,0-0.4-0.2-0.4-0.4c0-0.2,0.2-0.4,0.4-0.4h47.5c0.2,0,0.4,0.2,0.4,0.4
					C204.9,62.9,204.7,63.1,204.4,63.1z"/>
			</g>
			<g>
				<rect x="239.1" y="76.2" fill="#E2EAFF" width="68.7" height="68.7"/>
				<path d="M307.9,154.6h-17.8c-0.2,0-0.4-0.2-0.4-0.4c0-0.2,0.2-0.4,0.4-0.4h17.8c0.2,0,0.4,0.2,0.4,0.4
					C308.3,154.4,308.1,154.6,307.9,154.6z"/>
				<path d="M291.5,63.1h-52.3c-0.2,0-0.4-0.2-0.4-0.4c0-0.2,0.2-0.4,0.4-0.4h52.3c0.2,0,0.4,0.2,0.4,0.4
					C291.9,62.9,291.7,63.1,291.5,63.1z"/>
			</g>
		</g>
	</g>
	<g id="Services_3_">
		<g>
			<g>
				<path fill="#FFFFFF" d="M454.7,269.5H217V128.8c0-10.1,8.2-18.4,18.4-18.4h201c10.1,0,18.4,8.2,18.4,18.4V269.5z"/>
				<path d="M454.7,269.9H217c-0.2,0-0.4-0.2-0.4-0.4V118c0-4.4,3.6-8,8-8h222.5c4.4,0,8,3.6,8,8v151.5
					C455.1,269.7,455,269.9,454.7,269.9z M217.4,269.1h236.9V118c0-4-3.2-7.2-7.2-7.2H224.6c-4,0-7.2,3.2-7.2,7.2V269.1z"/>
			</g>
			<path d="M447.4,255.6h-223c-0.2,0-0.4-0.2-0.4-0.4V124.7c0-0.2,0.2-0.4,0.4-0.4h223c0.2,0,0.4,0.2,0.4,0.4v130.5
				C447.8,255.4,447.6,255.6,447.4,255.6z M224.7,254.8H447V125.1H224.7V254.8z"/>
			<g>
				<path fill="#FFFFFF" d="M458.9,289.2H213.2c-11.2,0-21.6-4.8-26.9-12.5l-2.6-3.7c-1.8-2.6,0.1-6.2,3.2-6.2h297.8
					c3,0,4.9,3.3,3.4,5.9l-1.4,2.4C481.8,283.7,470.9,289.2,458.9,289.2z"/>
				<path d="M458.9,289.6H213.2c-11.4,0-21.8-4.9-27.3-12.7l-2.6-3.7c-0.9-1.3-1-3-0.3-4.5c0.8-1.5,2.2-2.3,3.9-2.3h297.8
					c1.6,0,3,0.8,3.8,2.2c0.8,1.4,0.8,3,0,4.3l-1.4,2.4C482.1,284,471,289.6,458.9,289.6z M186.9,267.2c-1.3,0-2.5,0.7-3.1,1.9
					c-0.6,1.2-0.5,2.5,0.2,3.6l2.6,3.7c5.3,7.6,15.4,12.3,26.6,12.3h245.7c11.9,0,22.7-5.4,27.5-13.8l1.4-2.4c0.6-1.1,0.6-2.4,0-3.5
					c-0.6-1.1-1.8-1.8-3-1.8H186.9z"/>
			</g>
		</g>
		<g>
			<rect x="241" y="153.6" fill="#E2EAFF" width="79.6" height="79.6"/>
			<path d="M299.5,138.3H241c-0.2,0-0.4-0.2-0.4-0.4c0-0.2,0.2-0.4,0.4-0.4h58.6c0.2,0,0.4,0.2,0.4,0.4
				C300,138.1,299.8,138.3,299.5,138.3z"/>
			<path d="M320.1,244.4h-20.6c-0.2,0-0.4-0.2-0.4-0.4c0-0.2,0.2-0.4,0.4-0.4h20.6c0.2,0,0.4,0.2,0.4,0.4
				C320.5,244.2,320.4,244.4,320.1,244.4z"/>
		</g>
		<g>
			<rect x="347.8" y="153.6" fill="#E2EAFF" width="79.6" height="79.6"/>
			<path d="M406.4,138.3h-58.6c-0.2,0-0.4-0.2-0.4-0.4c0-0.2,0.2-0.4,0.4-0.4h58.6c0.2,0,0.4,0.2,0.4,0.4
				C406.8,138.1,406.6,138.3,406.4,138.3z"/>
			<path d="M427,244.4h-20.6c-0.2,0-0.4-0.2-0.4-0.4c0-0.2,0.2-0.4,0.4-0.4H427c0.2,0,0.4,0.2,0.4,0.4
				C427.4,244.2,427.2,244.4,427,244.4z"/>
		</g>
	</g>
	<g>
		<g>
			<g>
				<path fill="#FFFFFF" d="M446.4,376.5h82.9c19.6,0,35.6-16,35.6-35.6V131.2c0-19.6-16-35.6-35.6-35.6h-82.9
					c-19.6,0-35.6,16-35.6,35.6v209.6C410.8,360.4,426.8,376.5,446.4,376.5z"/>
				<path d="M550.2,376.9H425.5c-8.4,0-15.2-6.8-15.2-15.2V110.4c0-8.4,6.8-15.2,15.2-15.2h124.6c8.4,0,15.2,6.8,15.2,15.2v251.3
					C565.4,370.1,558.6,376.9,550.2,376.9z M425.5,96c-7.9,0-14.3,6.4-14.3,14.3v251.3c0,7.9,6.4,14.3,14.3,14.3h124.6
					c7.9,0,14.3-6.4,14.3-14.3V110.4c0-7.9-6.4-14.3-14.3-14.3H425.5z"/>
			</g>
			<g>
				<path fill="#FFFFFF" d="M445.4,367.5h85c14.8,0,27-12.1,27-27V130.7c0-14.8-12.1-27-27-27h-85c-14.8,0-27,12.1-27,27v209.8
					C418.4,355.4,430.5,367.5,445.4,367.5z"/>
				<path d="M546.2,368H429.5c-6.4,0-11.6-5.2-11.6-11.6V114.9c0-6.4,5.2-11.6,11.6-11.6h116.7c6.4,0,11.6,5.2,11.6,11.6v241.4
					C557.8,362.8,552.6,368,546.2,368z M429.5,104.2c-5.9,0-10.8,4.8-10.8,10.8v241.4c0,5.9,4.8,10.8,10.8,10.8h116.7
					c5.9,0,10.8-4.8,10.8-10.8V114.9c0-5.9-4.8-10.8-10.8-10.8H429.5z"/>
			</g>
			<path d="M502.3,112.1h-30.6c-0.2,0-0.4-0.2-0.4-0.4c0-0.2,0.2-0.4,0.4-0.4h30.6c0.2,0,0.4,0.2,0.4,0.4
				C502.7,111.9,502.5,112.1,502.3,112.1z"/>
		</g>
		<g>
			<rect x="434.2" y="144.6" fill="#E2EAFF" width="107.3" height="107.3"/>
			<path d="M496.7,133.2h-62.4c-0.2,0-0.4-0.2-0.4-0.4c0-0.2,0.2-0.4,0.4-0.4h62.4c0.2,0,0.4,0.2,0.4,0.4
				C497.1,133,496.9,133.2,496.7,133.2z"/>
			<path d="M541.5,261.7h-24.7c-0.2,0-0.4-0.2-0.4-0.4c0-0.2,0.2-0.4,0.4-0.4h24.7c0.2,0,0.4,0.2,0.4,0.4
				C541.9,261.5,541.8,261.7,541.5,261.7z"/>
		</g>
		<g>
			<rect x="434.2" y="290.2" fill="#E2EAFF" width="107.3" height="43.9"/>
			<g>
				<path d="M500.5,356.7c-2.7,0-4.9-2.2-4.9-4.9c0-2.7,2.2-4.9,4.9-4.9c2.7,0,4.9,2.2,4.9,4.9C505.4,354.5,503.2,356.7,500.5,356.7
					z M500.5,347.7c-2.2,0-4.1,1.8-4.1,4.1c0,2.2,1.8,4.1,4.1,4.1c2.2,0,4.1-1.8,4.1-4.1C504.6,349.6,502.7,347.7,500.5,347.7z"/>
				<path d="M487.5,356.7c-2.7,0-4.9-2.2-4.9-4.9c0-2.7,2.2-4.9,4.9-4.9c2.7,0,4.9,2.2,4.9,4.9C492.3,354.5,490.2,356.7,487.5,356.7
					z M487.5,347.7c-2.2,0-4.1,1.8-4.1,4.1c0,2.2,1.8,4.1,4.1,4.1c2.2,0,4.1-1.8,4.1-4.1C491.5,349.6,489.7,347.7,487.5,347.7z"/>
				
					<ellipse transform="matrix(0.2298 -0.9732 0.9732 0.2298 23.0375 732.7016)" fill="#5479F7" cx="474.4" cy="351.8" rx="5.1" ry="5.1"/>
			</g>
			<path d="M496.7,278.8h-62.4c-0.2,0-0.4-0.2-0.4-0.4c0-0.2,0.2-0.4,0.4-0.4h62.4c0.2,0,0.4,0.2,0.4,0.4
				C497.1,278.6,496.9,278.8,496.7,278.8z"/>
		</g>
	</g>
	<g>
		<g>
			<path fill="#5479F7" d="M229.5,248.3c-6.2-8.3-15.6-13.6-25.9-14.6c-5.9-0.5-13.2-1.1-21.4-1.5c-0.5,1.5-1.1,2.9-1.9,4.3
				c-2.4,3.9-6.1,6.9-10.3,8.8c-4.2,1.9-8.8,2.7-13.3,2.2c-4.4-0.5-8.7-2.4-11.7-5.7c-2.5-2.7-5.5-6-6.3-9.5
				c-7.4,0.4-13.3,1-20.3,2.1c-13.3,2.1-25,10-32.1,21.5C73.4,277,51,313.3,49.8,343.4c-1.9,48.6,79.5,27.7,79.5,27.7l86.1-6.6
				l51.4-39.8C266.8,324.8,250.9,277.2,229.5,248.3z"/>
			<g>
				<path fill="#FFFFFF" d="M127.8,362.8c-0.6,4.1,3.5,7.3,7.3,5.6c7.7-3.4,16.1-5.2,24.6-5.1l36.6,0.4c0,0,2.9-47.2-48.9-41.5
					C147.4,322.2,131.8,335.8,127.8,362.8z"/>
				<path d="M169.4,364.3C169.4,364.3,169.3,364.3,169.4,364.3c-0.3,0-0.4-0.2-0.4-0.5c0.4-2.6-0.2-5.5-1.7-8.2
					c-1.3-2.2-3.1-4.4-5.7-6.5c-0.5-0.4-1-0.8-1.6-1.1c-0.2-0.1-0.3-0.3-0.2-0.5c0.1-0.2,0.3-0.3,0.5-0.2c0.7,0.3,1.3,0.8,1.8,1.2
					c2.7,2.2,4.6,4.4,5.9,6.7c1.6,2.8,2.2,5.9,1.8,8.7C169.8,364.2,169.6,364.3,169.4,364.3z"/>
				<path d="M181.2,363.6c-0.2,0-0.4-0.1-0.4-0.4c-0.4-3.1-1.1-6.8-2.4-10.2c-1.4-3.5-3.5-6.4-6-8.4c-0.2-0.1-0.2-0.4-0.1-0.6
					c0.1-0.2,0.4-0.2,0.6-0.1c2.6,2,4.8,5,6.3,8.7c1.4,3.5,2,7.2,2.5,10.4C181.6,363.4,181.5,363.6,181.2,363.6
					C181.2,363.6,181.2,363.6,181.2,363.6z"/>
				<path d="M190.7,363.6C190.7,363.6,190.6,363.6,190.7,363.6c-0.3,0-0.4-0.2-0.4-0.5c1.6-13.3-7.1-21.7-7.2-21.7
					c-0.2-0.2-0.2-0.4,0-0.6c0.2-0.2,0.4-0.2,0.6,0c0.1,0.1,9.1,8.7,7.5,22.5C191.1,363.5,190.9,363.6,190.7,363.6z"/>
			</g>
			<g>
				<g>
					<path fill="#FFFFFF" d="M315.3,376.5H138.7c-1,0-2.1-0.3-3-0.9c-2-1.4-2.7-3.9-1.9-6c2.1-4.4,6.4-5.9,12.7-5.9h180.3l-2.3,6.4
						C323.1,373.9,319.4,376.5,315.3,376.5z"/>
					<path d="M315.3,376.9H138.7c-1.2,0-2.3-0.3-3.2-0.9c-2.1-1.5-3-4.1-2.1-6.5c2-4.3,6.1-6.2,13.1-6.2h180.3
						c0.1,0,0.3,0.1,0.3,0.2s0.1,0.3,0,0.4l-2.3,6.4C323.4,374.2,319.6,376.9,315.3,376.9z M146.6,364.1c-6.7,0-10.5,1.7-12.4,5.7
						c-0.7,2,0,4.3,1.8,5.5c0.7,0.5,1.7,0.8,2.7,0.8h176.6c3.9,0,7.5-2.5,8.9-6.1l2.1-5.8H146.6z"/>
				</g>
				<path fill="#FFFFFF" d="M316.3,376.5c3.5,0,6.7-2.2,8-5.4l31.3-78.5c0.8-2.1,0.6-4.4-0.7-6.3s-3.4-3-5.6-3H240.8
					c-6.5,0-12.4,4.1-14.6,10.3l-29.3,82.9H316.3z"/>
				<path fill="#E2EAFF" d="M283,313.6c-0.4,2.8,2,5.2,4.9,4.9c1.9-0.2,3.5-1.8,3.8-3.7c0.4-2.8-2-5.2-4.9-4.9
					C284.8,310.1,283.3,311.6,283,313.6z"/>
				<path d="M316.3,376.9H196.9c-0.2,0-0.4-0.2-0.4-0.4c0-0.2,0.2-0.4,0.4-0.4h119.4c3.4,0,6.4-2,7.6-5.2l31.3-78.5
					c0.8-2,0.5-4.2-0.6-5.9c-1.2-1.7-3.1-2.8-5.3-2.8h-98.4c-0.2,0-0.4-0.2-0.4-0.4c0-0.2,0.2-0.4,0.4-0.4h98.4
					c2.4,0,4.6,1.2,5.9,3.1c1.3,2,1.6,4.5,0.7,6.7l-31.3,78.5C323.3,374.7,320,376.9,316.3,376.9z"/>
				<path d="M318.8,364.9H211.2c-0.2,0-0.4-0.2-0.4-0.4c0-0.2,0.2-0.4,0.4-0.4h107.6c0.2,0,0.4,0.2,0.4,0.4
					C319.2,364.7,319.1,364.9,318.8,364.9z"/>
			</g>
			<path d="M85.1,323.5c-0.2,0-0.4-0.2-0.4-0.4c0-0.2,0.2-0.4,0.4-0.4l59.7-1.1c0.2,0,0.4,0.2,0.4,0.4c0,0.2-0.2,0.4-0.4,0.4
				L85.1,323.5C85.1,323.5,85.1,323.5,85.1,323.5z"/>
			<path d="M105,320.1c0,0-0.1,0-0.1,0c-0.2-0.1-0.3-0.3-0.3-0.5c2.2-7.2,5.2-14.2,8.9-20.8c0.8-1.4,2-3.1,3.9-3.1
				c0.2,0,0.4,0.2,0.4,0.4c0,0.2-0.2,0.4-0.4,0.4c-1.4,0-2.5,1.5-3.1,2.7c-3.7,6.5-6.7,13.5-8.8,20.6
				C105.4,320,105.2,320.1,105,320.1z"/>
		</g>
		<g>
			<g>
				<path fill="#FFFFFF" d="M155.4,196.6l-10.7,31.2c-0.7,2-2.4,3.5-4.4,3.9l-4.7,0.9c0,0,12.3,26.8,33.1,22.3
					c20.8-4.5,16.2-22.3,16.2-22.3l-4.4-0.4c-2.6-0.2-4.4-2.8-3.8-5.3l4.9-19.2C181.7,207.7,161.5,191.5,155.4,196.6z"/>
				<path d="M135.6,233c-0.2,0-0.4-0.1-0.4-0.3c0-0.2,0.1-0.4,0.3-0.5l4.7-0.9c1.9-0.4,3.5-1.8,4.1-3.6l10.7-31.2
					c0-0.1,0.1-0.1,0.1-0.2c6.3-5.3,26,10.5,26.8,11.1c0.1,0.1,0.2,0.3,0.1,0.4l-4.9,19.2c-0.3,1.1-0.1,2.3,0.6,3.2
					c0.7,0.9,1.7,1.5,2.8,1.6l4.4,0.4c0.2,0,0.4,0.2,0.4,0.4c0,0.2-0.2,0.4-0.4,0.4l-4.4-0.4c-1.4-0.1-2.6-0.8-3.4-1.9
					c-0.8-1.1-1.1-2.5-0.7-3.9l4.9-18.9c-2.1-1.7-19.9-15.4-25.5-11.1l-10.6,31.1c-0.7,2.1-2.5,3.7-4.8,4.1L135.6,233
					C135.6,233,135.6,233,135.6,233z"/>
				<path d="M200.3,159.4c1.8,9-5.2,17.2-11.2,18.7c-0.2,0.1-0.4,0.1-0.6,0.1c-0.1,0.4-0.3,0.9-0.5,1.3c-2.4,5.2-9.2,7.8-14.9,7.2
					c-1.7,1.8-3.8,4.3-6.1,7.4c-7.3,10-12.5,5.5-20.1-4.4c-1-1.3-2.5-3-3.2-5.8c-1.5-5.5,1.1-10.5,1.4-11.1
					c2.5-4.6,5.7-4.4,12.7-9.1c10.7-7.2,10.9-12.7,20-15.8c2.4-0.8,5.5-1.8,9.3-1.1C192.6,147.9,198.9,152.3,200.3,159.4z"/>
				<g>
					<path fill="#FFFFFF" d="M162.7,203c0,0,5.2,11.9,18.7,9.7c13.5-2.2,13.9-19.4,12.7-37.7c-1.4,1.7-4.4,3.1-6.8,4.1
						c-9.7,4.1-18.5-1.3-19.8-2c2.3,2.8,2.3,6.7,0.4,9.3c-1.1,1.4-3.1,2.5-6.7,2.6c0,0-1.7-5.7-6.8-2.4
						C149.2,190,151.1,204,162.7,203z"/>
					<path d="M178.2,213.5c-10.2,0-14.9-8.4-15.7-10c-5,0.3-8.9-2.2-10.5-6.8c-1.4-4.1-0.4-8.6,2.2-10.4c1.6-1.1,3.1-1.4,4.4-0.9
						c1.8,0.6,2.6,2.5,2.9,3.2c2.9-0.1,5-0.9,6.1-2.4c1.9-2.6,1.8-6.2-0.4-8.8c-0.1-0.2-0.1-0.4,0-0.5c0.1-0.2,0.3-0.2,0.5-0.1
						c0.1,0,0.2,0.1,0.3,0.1c8.4,4.7,15,3.6,19.2,1.8c2.1-0.9,5.3-2.2,6.6-3.9c0.1-0.1,0.3-0.2,0.4-0.1c0.2,0.1,0.3,0.2,0.3,0.4
						c1.1,17.2,1.2,35.8-13,38.2C180.3,213.4,179.2,213.5,178.2,213.5z M162.7,202.6c0.2,0,0.3,0.1,0.4,0.2
						c0.2,0.5,5.2,11.6,18.3,9.5c13.2-2.2,13.4-19.7,12.4-36.3c-1.5,1.4-3.9,2.5-6.3,3.5c-4.1,1.7-10.6,2.9-18.7-1.2
						c1.4,2.7,1.3,6-0.5,8.4c-1.3,1.7-3.7,2.7-7,2.7c-0.2,0-0.4-0.1-0.4-0.3c0,0-0.7-2.3-2.5-3c-1.1-0.4-2.3-0.1-3.7,0.8
						c-2.3,1.5-3.2,5.6-1.9,9.4C154.2,200.7,157.9,203,162.7,202.6C162.7,202.6,162.7,202.6,162.7,202.6z"/>
				</g>
				<path d="M161.9,198.1c-0.2,0-0.3-0.1-0.4-0.3c-0.3-0.9-0.6-1.8-1.1-2.5c-0.6-0.8-1.3-1.2-2-1.3c-0.2,0-0.4-0.2-0.4-0.4
					c0-0.2,0.2-0.4,0.4-0.4c1,0.1,2,0.7,2.7,1.6c0.6,0.8,0.9,1.8,1.2,2.7c0.1,0.2,0,0.5-0.3,0.5C162,198.1,161.9,198.1,161.9,198.1z
					"/>
			</g>
		</g>
	</g>
	<g>
		<path fill="#5479F7" d="M415.8,83.3c1.5-3.4-0.1-7.4-3.6-8.8c-0.3-0.1-0.5-0.2-0.8-0.3c0.4-2.7,0.5-5.5,0.1-8.2
			c0.3-0.1,0.5-0.2,0.8-0.3c3.4-1.4,5.1-5.3,3.7-8.8c-1.4-3.4-5.3-5.1-8.8-3.7c-0.3,0.1-0.5,0.2-0.7,0.4c-1.6-2.2-3.5-4.2-5.7-5.8
			c0.1-0.2,0.3-0.5,0.4-0.7c1.5-3.4-0.1-7.4-3.6-8.8s-7.4,0.1-8.8,3.6c-0.1,0.3-0.2,0.5-0.3,0.8c-2.7-0.4-5.5-0.5-8.2-0.1
			c-0.1-0.3-0.2-0.5-0.3-0.8c-1.4-3.4-5.3-5.1-8.8-3.7c-3.4,1.4-5.1,5.3-3.7,8.8c0.1,0.3,0.2,0.5,0.4,0.7c-2.2,1.6-4.2,3.5-5.8,5.7
			c-0.2-0.1-0.5-0.3-0.7-0.4c-3.4-1.5-7.4,0.1-8.8,3.6c-1.5,3.4,0.1,7.4,3.6,8.8c0.3,0.1,0.5,0.2,0.8,0.3c-0.4,2.7-0.5,5.5-0.1,8.2
			c-0.3,0.1-0.5,0.2-0.8,0.3c-3.4,1.4-5.1,5.3-3.7,8.8c1.4,3.4,5.3,5.1,8.8,3.7c0.3-0.1,0.5-0.2,0.7-0.4c1.6,2.2,3.5,4.2,5.7,5.8
			c-0.1,0.2-0.3,0.5-0.4,0.7c-1.5,3.4,0.1,7.4,3.6,8.8c3.4,1.5,7.4-0.1,8.8-3.6c0.1-0.3,0.2-0.5,0.3-0.8c2.7,0.4,5.5,0.5,8.2,0.1
			c0.1,0.3,0.2,0.5,0.3,0.8c1.4,3.4,5.3,5.1,8.8,3.7c3.4-1.4,5.1-5.3,3.7-8.8c-0.1-0.3-0.2-0.5-0.4-0.7c2.2-1.6,4.2-3.5,5.8-5.7
			c0.2,0.1,0.5,0.3,0.7,0.4C410.4,88.3,414.3,86.7,415.8,83.3z M395.7,74.7c-2.7,6.3-10,9.3-16.4,6.6c-6.4-2.7-9.3-10-6.6-16.4
			c2.7-6.3,10-9.3,16.4-6.6C395.4,61.1,398.3,68.4,395.7,74.7z"/>
		<path fill="#5479F7" d="M358,119.2c0.9-2.7-0.6-5.5-3.3-6.4c-0.2-0.1-0.4-0.1-0.6-0.1c0.1-2.1,0-4.2-0.5-6.2
			c0.2-0.1,0.4-0.2,0.6-0.2c2.5-1.3,3.5-4.4,2.2-6.9c-1.3-2.5-4.4-3.5-6.9-2.2c-0.2,0.1-0.4,0.2-0.5,0.3c-1.4-1.5-2.9-2.9-4.7-4
			c0.1-0.2,0.2-0.4,0.2-0.6c0.9-2.7-0.6-5.5-3.3-6.4c-2.7-0.9-5.5,0.6-6.4,3.3c-0.1,0.2-0.1,0.4-0.1,0.6c-2.1-0.1-4.2,0-6.2,0.5
			c-0.1-0.2-0.2-0.4-0.2-0.6c-1.3-2.5-4.4-3.5-6.9-2.2c-2.5,1.3-3.5,4.4-2.2,6.9c0.1,0.2,0.2,0.4,0.3,0.5c-1.5,1.4-2.9,2.9-4,4.7
			c-0.2-0.1-0.4-0.2-0.6-0.2c-2.7-0.9-5.5,0.6-6.4,3.3c-0.9,2.7,0.6,5.5,3.3,6.4c0.2,0.1,0.4,0.1,0.6,0.1c-0.1,2.1,0,4.2,0.5,6.2
			c-0.2,0.1-0.4,0.2-0.6,0.2c-2.5,1.3-3.5,4.4-2.2,6.9c1.3,2.5,4.4,3.5,6.9,2.2c0.2-0.1,0.4-0.2,0.5-0.3c1.4,1.5,2.9,2.9,4.7,4
			c-0.1,0.2-0.2,0.4-0.2,0.6c-0.9,2.7,0.6,5.5,3.3,6.4c2.7,0.9,5.5-0.6,6.4-3.3c0.1-0.2,0.1-0.4,0.1-0.6c2.1,0.1,4.2,0,6.2-0.5
			c0.1,0.2,0.2,0.4,0.2,0.6c1.3,2.5,4.4,3.5,6.9,2.2c2.5-1.3,3.5-4.4,2.2-6.9c-0.1-0.2-0.2-0.4-0.3-0.5c1.5-1.4,2.9-2.9,4-4.7
			c0.2,0.1,0.4,0.2,0.6,0.2C354.3,123.3,357.1,121.9,358,119.2z M342.2,114.2c-1.6,5-6.9,7.7-11.9,6.1c-5-1.6-7.7-6.9-6.1-11.9
			c1.6-5,6.9-7.7,11.9-6.1C341.1,103.9,343.8,109.2,342.2,114.2z"/>
	</g>
	<g>
		<g>
			<ellipse fill="#E2EAFF" cx="439.4" cy="63.7" rx="5.7" ry="5.7"/>
			<ellipse fill="#E2EAFF" cx="455.9" cy="63.7" rx="5.7" ry="5.7"/>
			<ellipse fill="#E2EAFF" cx="472.5" cy="63.7" rx="5.7" ry="5.7"/>
		</g>
		<path d="M515.2,82.8c-0.2,0-0.4-0.2-0.4-0.4V64.1h-30.6c-0.2,0-0.4-0.2-0.4-0.4c0-0.2,0.2-0.4,0.4-0.4h31c0.2,0,0.4,0.2,0.4,0.4
			v18.7C515.6,82.6,515.4,82.8,515.2,82.8z"/>
	</g>
	<g>
		<g>
			<ellipse fill="#E2EAFF" cx="387.5" cy="344.9" rx="5.7" ry="5.7"/>
			<ellipse fill="#E2EAFF" cx="370.9" cy="344.9" rx="5.7" ry="5.7"/>
			<ellipse fill="#E2EAFF" cx="354.3" cy="344.9" rx="5.7" ry="5.7"/>
		</g>
		<path d="M342.7,345.3h-31c-0.2,0-0.4-0.2-0.4-0.4c0-0.2,0.2-0.4,0.4-0.4h31c0.2,0,0.4,0.2,0.4,0.4
			C343.1,345.1,342.9,345.3,342.7,345.3z"/>
	</g>
	<g>
		<path d="M447.4,43.6H421c-0.2,0-0.4-0.2-0.4-0.4c0-0.2,0.2-0.4,0.4-0.4h26.4c0.2,0,0.4,0.2,0.4,0.4
			C447.8,43.4,447.6,43.6,447.4,43.6z"/>
		<path d="M436.8,50.6h-11.1c-0.2,0-0.4-0.2-0.4-0.4c0-0.2,0.2-0.4,0.4-0.4h11.1c0.2,0,0.4,0.2,0.4,0.4
			C437.2,50.4,437,50.6,436.8,50.6z"/>
	</g>
</g>
</svg>
