<?xml version="1.0" encoding="utf-8"?>
<!-- Generator: Adobe Illustrator 27.8.1, SVG Export Plug-In . SVG Version: 6.00 Build 0)  -->
<svg version="1.1" baseProfile="tiny" id="Layer_1" xmlns="http://www.w3.org/2000/svg" xmlns:xlink="http://www.w3.org/1999/xlink"
	 x="0px" y="0px" viewBox="0 0 308 205" overflow="visible" xml:space="preserve">
<g id="Generate_more_traffic">
	<g>
		<g>
			<path fill="#5479F7" d="M119.7,83.8l70-30.4l-16.5-38.1l-70,30.4c-8.3,3.6-15.7,8.8-21.9,15.3c-6,6.3-10.7,13.6-13.9,21.7
				c-3.2,8.1-4.8,16.7-4.7,25.4c0.1,9,2,17.8,5.6,26.1c0,0,0,0,0,0l38.1-16.5c0,0,0,0,0,0C100.6,104.7,106.7,89.4,119.7,83.8z"/>
			<g>
				<path fill="#FFFFFF" d="M68.2,134.3c3.6,8.3,8.8,15.7,15.3,21.9c6.3,6,13.6,10.7,21.7,13.9c8.1,3.2,16.7,4.8,25.4,4.7
					c9-0.1,17.8-2,26.1-5.6l70-30.4l-16.5-38.1l-70,30.4c-13.1,5.7-28.3-0.4-34-13.4L68.2,134.3z"/>
				<path d="M130,175c-8.5,0-16.9-1.6-24.8-4.7c-8.1-3.2-15.5-7.9-21.8-13.9c-6.6-6.2-11.7-13.7-15.3-22c-0.1-0.1,0-0.3,0.1-0.3
					c0.1-0.1,0.3,0,0.3,0.1c3.6,8.3,8.7,15.7,15.2,21.9c6.3,6,13.6,10.6,21.7,13.8c8.1,3.2,16.6,4.8,25.3,4.7
					c9-0.1,17.8-1.9,26.1-5.5l69.8-30.3l-16.3-37.6l-69.8,30.3c-6.4,2.8-13.5,2.9-19.9,0.3c-6.5-2.6-11.6-7.5-14.3-13.9
					c-0.1-0.1,0-0.3,0.1-0.3c0.1-0.1,0.3,0,0.3,0.1c2.7,6.3,7.7,11.1,14.1,13.6c6.4,2.5,13.3,2.4,19.6-0.3l70-30.4
					c0.1-0.1,0.3,0,0.3,0.1l16.5,38.1c0,0.1,0,0.1,0,0.2c0,0.1-0.1,0.1-0.1,0.1l-70,30.4c-8.4,3.6-17.2,5.5-26.2,5.6
					C130.4,175,130.2,175,130,175z"/>
			</g>
		</g>
		<g>
			<polygon fill="#E2EAFF" points="198.3,15.2 190.3,18.4 189.1,15.3 182.8,22.7 190.8,19.5 192,22.6 			"/>
			<polygon fill="#E2EAFF" points="206.1,35.6 198.1,38.7 196.9,35.7 190.6,43 198.6,39.9 199.8,42.9 			"/>
			<polygon fill="#E2EAFF" points="216.5,19.6 206.5,23.5 205,19.7 197.1,28.8 207.1,24.9 208.6,28.7 			"/>
		</g>
		<g>
			<polygon fill="#E2EAFF" points="239.6,96.7 230,100.5 228.6,96.8 221,105.6 230.6,101.9 232,105.5 			"/>
			<polygon fill="#E2EAFF" points="247.7,118.4 238.1,122.2 236.7,118.5 229,127.3 238.6,123.6 240.1,127.2 			"/>
			<polygon fill="#E2EAFF" points="260.9,100.6 248.9,105.3 247.2,100.7 237.7,111.7 249.6,107 251.4,111.6 			"/>
		</g>
	</g>
	<g>
		<ellipse fill="#5479F7" cx="235.9" cy="67.5" rx="17.8" ry="17.7"/>
		<g>
			<path fill="#FFFFFF" d="M227.1,74.9c-1.4,0.3-2.6,1-3.5,2c2.8,3.6,7.3,6,12.3,6c5,0,9.4-2.3,12.3-6c-0.9-1-2.1-1.7-3.5-2l-5-1.1
				v-5c-1,1.2-2.4,2-3.8,2c-1.4,0-2.8-0.7-3.8-2v5L227.1,74.9z"/>
			<path fill="#FFFFFF" d="M241.4,63.8l-1,0.6c0,0-0.1,0-0.1,0c0,0-0.1,0-0.1,0c-0.1-0.1-0.1-0.2-0.1-0.3c0.2-0.5,0.3-1.4,0-2.3
				c-0.6-1.4-2.4-2.1-3.2-1.9l-0.1,0c-0.2,0-0.5,0.1-1,0.1c-0.5,0-0.8-0.1-1-0.1l-0.1,0c-0.7-0.1-1.8,0.2-2.5,0.8
				c-0.8,0.8-1.2,2.1-0.8,3.4c0,0.1,0,0.2-0.1,0.2c-0.1,0.1-0.2,0.1-0.3,0l-1-0.6c0,0-0.1-0.1-0.1-0.1l-0.3-0.8c-0.1,0-0.1,0-0.2,0
				c-0.3,0.1-0.5,0.3-0.7,0.5c-0.2,0.4-0.3,0.8-0.2,1.3c0.2,0.8,0.9,1.4,1.6,1.2c0.1,0,0.2-0.1,0.3-0.1c0,0,0.1,0,0.1,0
				c0,0,0.1,0,0.1,0c0.1,0,0.1,0.1,0.1,0.1c0.9,2.6,2.8,4.4,4.8,4.4c2,0,4-1.7,4.8-4.4c0-0.1,0.1-0.1,0.1-0.1c0.1,0,0.1,0,0.2,0
				c0.1,0.1,0.2,0.1,0.3,0.1c0.7,0.2,1.4-0.4,1.6-1.2c0.1-0.4,0.1-0.9-0.2-1.3c-0.2-0.3-0.4-0.5-0.7-0.5c-0.1,0-0.2,0-0.3,0
				l-0.3,0.8C241.5,63.8,241.5,63.8,241.4,63.8z"/>
			<path fill="#5479F7" d="M235.9,70.8c1.4,0,2.8-0.7,3.8-2c0.6-0.7,1.1-1.5,1.4-2.5c0.1,0,0.1,0,0.2,0.1c0.9,0.2,1.9-0.5,2.2-1.5
				c0.1-0.6,0.1-1.2-0.2-1.6c-0.2-0.4-0.6-0.7-1-0.8c-0.1,0-0.2,0-0.3,0l-0.2,0.5c0.1,0,0.2,0,0.3,0c0.3,0.1,0.5,0.3,0.7,0.5
				c0.2,0.4,0.3,0.8,0.2,1.3c-0.2,0.8-0.9,1.4-1.6,1.2c-0.1,0-0.2-0.1-0.3-0.1c-0.1,0-0.1,0-0.2,0c-0.1,0-0.1,0.1-0.1,0.1
				c-0.9,2.6-2.8,4.4-4.8,4.4c-2,0-4-1.7-4.8-4.4c0-0.1-0.1-0.1-0.1-0.1c0,0-0.1,0-0.1,0c0,0-0.1,0-0.1,0c-0.1,0.1-0.2,0.1-0.3,0.1
				c-0.7,0.2-1.4-0.4-1.6-1.2c-0.1-0.4-0.1-0.9,0.2-1.3c0.2-0.3,0.4-0.5,0.7-0.5c0.1,0,0.1,0,0.2,0l-0.2-0.5c0,0-0.1,0-0.1,0
				c0,0,0,0,0,0c-0.4,0.1-0.8,0.4-1,0.8c-0.3,0.5-0.4,1.1-0.2,1.6c0.3,1.1,1.2,1.8,2.2,1.5c0.1,0,0.1,0,0.2-0.1
				c0.3,0.9,0.8,1.8,1.4,2.5C233.2,70,234.5,70.8,235.9,70.8z"/>
			<path fill="#FFFFFF" d="M229.9,61.8l0.6,1.7l0.4,0.3c-0.2-1.3,0.2-2.5,1.1-3.3c0.8-0.7,2-1.1,2.9-0.9l0.1,0
				c0.2,0,0.5,0.1,0.9,0.1c0.4,0,0.7-0.1,0.9-0.1l0.1,0c1.1-0.2,3,0.6,3.7,2.2c0.3,0.7,0.3,1.5,0.2,2l0.4-0.3l0.6-1.7
				c0.3-0.9,0.6-2.6-0.2-4.3c-1.2-2.4-4.2-3.6-7.4-3c0,0,0,0,0,0c-0.8,0.2-2,0.6-3,1.6C229,58.4,229.9,61.7,229.9,61.8z"/>
			<path fill="#5479F7" d="M229.8,62.9l0.3,0.8c0,0,0,0.1,0.1,0.1l1,0.6c0.1,0.1,0.2,0.1,0.3,0c0.1-0.1,0.1-0.2,0.1-0.2
				c-0.3-1.3,0-2.7,0.8-3.4c0.7-0.6,1.7-1,2.5-0.8l0.1,0c0.2,0,0.5,0.1,1,0.1c0.5,0,0.8-0.1,1-0.1l0.1,0c0.9-0.2,2.6,0.5,3.2,1.9
				c0.4,0.9,0.2,1.8,0,2.3c0,0.1,0,0.2,0.1,0.3c0,0,0.1,0,0.1,0c0,0,0.1,0,0.1,0l1-0.6c0,0,0.1-0.1,0.1-0.1l0.3-0.8l0.2-0.5l0.2-0.5
				c0.3-1,0.7-2.8-0.2-4.7c-1.3-2.6-4.5-3.9-7.9-3.2c-0.9,0.2-2.2,0.6-3.3,1.8c-2.3,2.5-1.3,5.9-1.2,6.1l0.2,0.5L229.8,62.9z
				 M234.1,54.5C234.1,54.5,234.1,54.5,234.1,54.5c3.1-0.6,6.2,0.6,7.4,3c0.8,1.7,0.5,3.4,0.2,4.3l-0.6,1.7l-0.4,0.3
				c0.1-0.6,0.1-1.3-0.2-2c-0.7-1.6-2.7-2.4-3.7-2.2l-0.1,0c-0.2,0-0.5,0.1-0.9,0.1c-0.4,0-0.7-0.1-0.9-0.1l-0.1,0
				c-0.9-0.2-2.1,0.3-2.9,0.9c-0.9,0.8-1.2,2-1.1,3.3l-0.4-0.3l-0.6-1.7c0-0.1-0.9-3.4,1.1-5.6C232.1,55.1,233.3,54.7,234.1,54.5z"
				/>
		</g>
	</g>
	<g>
		<g>
			<ellipse fill="#FFFFFF" cx="281" cy="85.1" rx="17.3" ry="17.2"/>
			<path d="M281,102.6c-9.6,0-17.5-7.8-17.5-17.4c0-9.6,7.8-17.4,17.5-17.4c9.6,0,17.5,7.8,17.5,17.4
				C298.5,94.8,290.7,102.6,281,102.6z M281,68.2c-9.4,0-17,7.6-17,17s7.6,17,17,17s17-7.6,17-17S290.4,68.2,281,68.2z"/>
		</g>
		<g>
			<path d="M272.4,92.2l4.7-1.1v-5c-0.5-0.6-0.9-1.3-1.2-2.2c-0.1,0-0.1,0-0.2,0.1c-0.9,0.2-1.9-0.4-2.1-1.5
				c-0.1-0.6-0.1-1.1,0.2-1.6c0.2-0.4,0.6-0.6,1-0.7c0.2-0.1,0.4-0.1,0.6,0c0-0.2,0.1-0.5,0.1-0.7c0.2-2.2,1.2-5.5,5.5-5.6
				c4.7-0.2,5.5,3.9,5.5,6.1c0,0.1,0,0.2,0,0.3c0.2,0,0.4,0,0.6,0c0.4,0.1,0.8,0.4,1,0.7c0.3,0.5,0.4,1,0.2,1.6
				c-0.3,1.1-1.2,1.7-2.1,1.5c-0.1,0-0.1,0-0.2-0.1c-0.3,0.8-0.7,1.5-1.2,2.2v5l4.7,1.1c0.1,0,0.3,0.1,0.4,0.1l-0.5-9.6
				c-0.3-5.8-4-10.4-8.5-10.4s-8.2,4.5-8.5,10.4l-0.5,9.6C272.2,92.3,272.3,92.2,272.4,92.2z"/>
			<path fill="#FFFFFF" d="M289.5,92.6l-4.9-1.1c-0.1,0-0.2-0.1-0.2-0.2v-4.6c-1,1-2.2,1.6-3.5,1.6c-1.3,0-2.5-0.6-3.5-1.6v4.6
				c0,0.1-0.1,0.2-0.2,0.2l-4.9,1.1c-1.3,0.3-2.4,1-3.3,1.9c2.8,3.4,7,5.6,11.8,5.6c4.8,0,9-2.2,11.8-5.6
				C291.9,93.6,290.8,92.9,289.5,92.6z"/>
			<path d="M284.9,91.1v-5c-0.1,0.2-0.3,0.4-0.5,0.5v4.6c0,0.1,0.1,0.2,0.2,0.2l4.9,1.1c1.3,0.3,2.4,1,3.3,1.9
				c0.1-0.1,0.2-0.3,0.3-0.4c-0.8-0.9-1.9-1.6-3.1-1.9c-0.1,0-0.3-0.1-0.4-0.1L284.9,91.1z"/>
			<path d="M272.5,92.6l4.9-1.1c0.1,0,0.2-0.1,0.2-0.2v-4.6c-0.2-0.2-0.3-0.4-0.5-0.5v5l-4.7,1.1c-0.1,0-0.3,0.1-0.4,0.1
				c-1.2,0.4-2.2,1-3.1,1.9c0.1,0.1,0.2,0.3,0.3,0.4C270.1,93.6,271.2,92.9,272.5,92.6z"/>
			<path fill="#FFFFFF" d="M282.7,76.3c-1.7,2.2-4.5,4.5-7.2,5c0,0,0-0.2,0-0.6c-0.2-0.1-0.4-0.1-0.6,0c-0.3,0.1-0.5,0.3-0.7,0.5
				c-0.2,0.4-0.3,0.8-0.2,1.2c0.2,0.8,0.9,1.3,1.6,1.2c0.1,0,0.2-0.1,0.3-0.1c0,0,0.1,0,0.1,0c0,0,0.1,0,0.1,0
				c0.1,0,0.1,0.1,0.1,0.1c0.8,2.6,2.7,4.3,4.8,4.3c2,0,3.9-1.7,4.8-4.3c0-0.1,0.1-0.1,0.1-0.1c0.1,0,0.1,0,0.2,0
				c0.1,0.1,0.2,0.1,0.3,0.1c0.7,0.2,1.4-0.4,1.6-1.2c0.1-0.4,0.1-0.9-0.2-1.2c-0.2-0.3-0.4-0.5-0.7-0.5c-0.2,0-0.4,0-0.6,0
				c0,0.3,0,0.5,0,0.5C284.8,80.4,283.1,78.2,282.7,76.3z"/>
			<path d="M277.6,86.7c1,1,2.2,1.6,3.5,1.6c1.3,0,2.5-0.6,3.5-1.6c0.2-0.2,0.3-0.4,0.5-0.5c0.5-0.6,0.9-1.3,1.2-2.2
				c0.1,0,0.1,0,0.2,0.1c0.9,0.2,1.9-0.4,2.1-1.5c0.1-0.6,0.1-1.1-0.2-1.6c-0.2-0.4-0.6-0.6-1-0.7c-0.2-0.1-0.4-0.1-0.6,0
				c0-0.1,0-0.2,0-0.3c0,0.3,0,0.6,0,0.8c0.2-0.1,0.4-0.1,0.6,0c0.3,0.1,0.5,0.3,0.7,0.5c0.2,0.4,0.3,0.8,0.2,1.2
				c-0.2,0.8-0.9,1.3-1.6,1.2c-0.1,0-0.2-0.1-0.3-0.1c-0.1,0-0.1,0-0.2,0c-0.1,0-0.1,0.1-0.1,0.1c-0.8,2.6-2.7,4.3-4.8,4.3
				c-2,0-3.9-1.7-4.8-4.3c0-0.1-0.1-0.1-0.1-0.1c0,0-0.1,0-0.1,0c0,0-0.1,0-0.1,0c-0.1,0.1-0.2,0.1-0.3,0.1
				c-0.7,0.2-1.4-0.4-1.6-1.2c-0.1-0.4-0.1-0.9,0.2-1.2c0.2-0.3,0.4-0.5,0.7-0.5c0.2,0,0.4,0,0.6,0c0-0.3,0-0.7,0-1.2
				c0,0.2-0.1,0.4-0.1,0.7c-0.2,0-0.4,0-0.6,0c-0.4,0.1-0.8,0.4-1,0.7c-0.3,0.5-0.4,1-0.2,1.6c0.3,1.1,1.2,1.7,2.1,1.5
				c0.1,0,0.1,0,0.2-0.1c0.3,0.8,0.7,1.5,1.2,2.2C277.3,86.3,277.4,86.5,277.6,86.7z"/>
			<path d="M275.5,80.7c0,0.4,0,0.6,0,0.6c2.7-0.5,5.5-2.9,7.2-5c0.3,1.9,2,4.1,3.8,4.9c0,0,0-0.2,0-0.5c0-0.2,0-0.5,0-0.8
				c-0.1-2.2-0.9-6.2-5.5-6.1c-4.3,0.2-5.3,3.5-5.5,5.6C275.5,80,275.5,80.4,275.5,80.7z"/>
		</g>
	</g>
	<g>
		<g>
			<ellipse fill="#FFFFFF" cx="244.4" cy="24" rx="17.6" ry="17.5"/>
			<path d="M244.4,41.7c-9.8,0-17.9-8-17.9-17.8s8-17.8,17.9-17.8c9.8,0,17.9,8,17.9,17.8S254.3,41.7,244.4,41.7z M244.4,6.6
				c-9.6,0-17.4,7.8-17.4,17.3c0,9.5,7.8,17.3,17.4,17.3c9.6,0,17.4-7.8,17.4-17.3C261.8,14.4,254,6.6,244.4,6.6z"/>
		</g>
		<g>
			<path d="M235.6,31.1c-1.4,0.3-2.6,1.1-3.5,2.1c0.1,0.1,0.2,0.3,0.3,0.4c0.9-1,2-1.7,3.3-2l5-1.1c0.1,0,0.2-0.1,0.2-0.2v-4.7
				c-0.1-0.1-0.1-0.1-0.2-0.2c-0.1-0.1-0.2-0.2-0.3-0.3c0,0,0,0,0,0V30L235.6,31.1z"/>
			<path d="M248.1,25.3c-0.1,0.1-0.1,0.1-0.2,0.2v4.7c0,0.1,0.1,0.2,0.2,0.2l5,1.1c1.3,0.3,2.5,1,3.3,2c0.1-0.1,0.2-0.3,0.3-0.4
				c-0.9-1-2.1-1.7-3.5-2.1l-4.8-1.1V25c0,0,0,0,0,0C248.3,25.1,248.2,25.2,248.1,25.3z"/>
			<path fill="#FFFFFF" d="M249.9,22.4c0.7,0.2,1.4-0.4,1.6-1.2c0.1-0.4,0.1-0.9-0.2-1.3c-0.2-0.3-0.4-0.5-0.7-0.5c0,0-0.1,0-0.2,0
				l-0.3,0.8c0,0,0,0.1-0.1,0.1l-1,0.6c-0.1,0-0.2,0.1-0.2,0c-0.1,0-0.1-0.1-0.1-0.2c0.1-1.8-0.1-4.7-1.1-4.8c-0.7-0.1-1,0-1.4,0.3
				c-0.4,0.2-0.9,0.4-1.8,0.4c-0.9,0-1.4-0.2-1.8-0.4c-0.4-0.2-0.7-0.4-1.4-0.3c-1,0.2-1.2,3-1.1,4.8c0,0.1,0,0.2-0.1,0.2
				c0,0-0.1,0-0.1,0c0,0-0.1,0-0.1,0l-1-0.6c0,0-0.1-0.1-0.1-0.1l-0.3-0.8c-0.1,0-0.2,0-0.3,0c-0.3,0.1-0.5,0.3-0.7,0.5
				c-0.2,0.4-0.3,0.8-0.2,1.3c0.2,0.8,0.9,1.4,1.6,1.2c0.1,0,0.2-0.1,0.3-0.1c0,0,0,0,0,0c0,0,0,0,0,0c0,0,0,0,0,0c0,0,0,0,0,0
				c0,0,0.1,0,0.1,0c0,0,0,0,0,0c0.1,0,0.1,0.1,0.1,0.1c0.8,2.6,2.8,4.3,4.8,4.3c2,0,4-1.7,4.8-4.3c0-0.1,0.1-0.1,0.1-0.1
				c0,0,0,0,0,0c0,0,0,0,0.1,0c0,0,0.1,0,0.1,0c0,0,0,0,0,0c0,0,0,0,0,0C249.7,22.4,249.8,22.4,249.9,22.4z"/>
			<path d="M246.8,26.5c-0.1,0.1-0.3,0.2-0.5,0.2C246.5,26.7,246.6,26.6,246.8,26.5z"/>
			<path d="M247.5,26c-0.1,0.1-0.3,0.2-0.4,0.3C247.2,26.2,247.4,26.1,247.5,26z"/>
			<path d="M246,26.9c-0.2,0.1-0.3,0.1-0.5,0.2C245.7,27,245.9,27,246,26.9z"/>
			<path d="M249.2,23.7c-0.1,0.2-0.2,0.3-0.3,0.5C249,24,249.1,23.8,249.2,23.7z"/>
			<path d="M243.3,27.1c-0.2,0-0.4-0.1-0.5-0.2C243,27,243.2,27,243.3,27.1z"/>
			<path d="M239.9,24.2c-0.1-0.2-0.2-0.3-0.3-0.5C239.7,23.8,239.8,24,239.9,24.2z"/>
			<path d="M241.7,26.3c-0.1-0.1-0.3-0.2-0.4-0.3C241.5,26.1,241.6,26.2,241.7,26.3z"/>
			<path d="M242.5,26.7c-0.2-0.1-0.3-0.1-0.5-0.2C242.2,26.6,242.4,26.7,242.5,26.7z"/>
			<path d="M245.2,27.1c-0.3,0.1-0.5,0.1-0.8,0.1C244.7,27.2,245,27.2,245.2,27.1z"/>
			<path d="M244.4,27.2c-0.3,0-0.5,0-0.8-0.1C243.9,27.2,244.1,27.2,244.4,27.2z"/>
			<path d="M248.4,25C248.4,25,248.4,25,248.4,25c0.1-0.1,0.2-0.3,0.3-0.4C248.6,24.7,248.5,24.8,248.4,25z"/>
			<path d="M248.1,25.3c-0.1,0.1-0.2,0.2-0.4,0.4c0.1-0.1,0.1-0.1,0.2-0.2C248,25.5,248.1,25.4,248.1,25.3z"/>
			<path d="M240.1,24.6c0.1,0.1,0.2,0.3,0.3,0.4c0,0,0,0,0,0C240.3,24.8,240.2,24.7,240.1,24.6z"/>
			<path d="M240.7,25.3c0.1,0.1,0.1,0.1,0.2,0.2c0.1,0.1,0.1,0.1,0.2,0.2C240.9,25.6,240.8,25.5,240.7,25.3z"/>
			<path d="M239.4,22.3C239.4,22.3,239.4,22.3,239.4,22.3C239.4,22.3,239.4,22.3,239.4,22.3C239.5,22.3,239.5,22.3,239.4,22.3
				C239.4,22.3,239.4,22.3,239.4,22.3z"/>
			<path d="M250.4,19.4c0.1,0,0.1,0,0.2,0c0.3,0.1,0.5,0.3,0.7,0.5c0.2,0.4,0.3,0.8,0.2,1.3c-0.2,0.8-0.9,1.4-1.6,1.2
				c-0.1,0-0.2-0.1-0.3-0.1c0,0,0,0,0,0c0.1,0.1,0.2,0.2,0.1,0.3c-0.1,0.2-0.2,0.4-0.3,0.6c0.1-0.1,0.1-0.3,0.2-0.4
				c0.1,0,0.1,0,0.2,0.1c0.9,0.2,1.9-0.5,2.2-1.5c0.1-0.6,0.1-1.1-0.2-1.6c-0.2-0.4-0.6-0.6-1-0.7c0,0,0,0,0,0c0,0-0.1,0-0.1,0
				L250.4,19.4z"/>
			<path d="M239.2,22.6c0-0.1,0-0.2,0.1-0.3c0,0,0,0,0,0c-0.1,0.1-0.2,0.1-0.3,0.1c-0.7,0.2-1.4-0.4-1.6-1.2
				c-0.1-0.4-0.1-0.9,0.2-1.3c0.2-0.3,0.4-0.5,0.7-0.5c0.1,0,0.2,0,0.3,0l-0.2-0.5c-0.1,0-0.2,0-0.3,0c-0.4,0.1-0.8,0.4-1,0.7
				c-0.3,0.5-0.4,1-0.2,1.6c0.3,1.1,1.2,1.8,2.2,1.5c0.1,0,0.1,0,0.2-0.1c0,0.1,0.1,0.3,0.2,0.4C239.3,23,239.2,22.8,239.2,22.6z"/>
			<path d="M249.4,22.3C249.4,22.3,249.4,22.3,249.4,22.3C249.4,22.3,249.4,22.3,249.4,22.3C249.4,22.3,249.4,22.3,249.4,22.3z"/>
			<path d="M240.4,25c0.1,0.1,0.2,0.2,0.3,0.3c0.1,0.1,0.2,0.2,0.4,0.4c0.1,0.1,0.2,0.2,0.3,0.3c0.1,0.1,0.3,0.2,0.4,0.3
				c0.1,0.1,0.2,0.2,0.3,0.2c0.1,0.1,0.3,0.2,0.5,0.2c0.1,0.1,0.2,0.1,0.3,0.2c0.2,0.1,0.3,0.1,0.5,0.2c0.1,0,0.2,0.1,0.3,0.1
				c0.3,0.1,0.5,0.1,0.8,0.1c0.3,0,0.5,0,0.8-0.1c0.1,0,0.2-0.1,0.3-0.1c0.2,0,0.4-0.1,0.5-0.2c0.1,0,0.2-0.1,0.3-0.2
				c0.2-0.1,0.3-0.1,0.5-0.2c0.1-0.1,0.2-0.1,0.3-0.2c0.1-0.1,0.3-0.2,0.4-0.3c0.1-0.1,0.2-0.2,0.3-0.3c0.1-0.1,0.2-0.2,0.4-0.4
				c0.1-0.1,0.2-0.2,0.3-0.3c0.1-0.1,0.2-0.3,0.3-0.4c0.1-0.1,0.2-0.3,0.2-0.4c0.1-0.2,0.2-0.3,0.3-0.5c0.1-0.1,0.1-0.3,0.2-0.4
				c0.1-0.2,0.2-0.4,0.3-0.6c0-0.1,0-0.2-0.1-0.3c0,0,0,0,0,0c0,0-0.1,0-0.1,0c0,0,0,0-0.1,0c-0.1,0-0.1,0.1-0.1,0.1
				c-0.8,2.6-2.8,4.3-4.8,4.3c-2,0-4-1.7-4.8-4.3c0-0.1-0.1-0.1-0.1-0.1c0,0-0.1,0-0.1,0c0,0,0,0,0,0c0,0,0,0,0,0
				c-0.1,0-0.2,0.2-0.1,0.3c0.1,0.2,0.2,0.4,0.3,0.6c0.1,0.1,0.1,0.3,0.2,0.4c0.1,0.2,0.2,0.3,0.3,0.5c0.1,0.1,0.1,0.3,0.2,0.4
				C240.2,24.7,240.3,24.8,240.4,25z"/>
			<path fill="#FFFFFF" d="M239.3,20l0.5,0.3c0-1.3,0-4.6,1.5-4.9c0.8-0.1,1.2,0.1,1.7,0.3c0.4,0.2,0.8,0.4,1.6,0.4
				c0.8,0,1.2-0.2,1.6-0.4c0.4-0.2,0.9-0.4,1.7-0.3c1.4,0.2,1.5,3.6,1.5,4.9l0.5-0.3l0.6-1.7c0.7-2.8,0.6-4.9-0.5-6.1
				c-0.8-0.9-2-1.3-3.5-1.1c0,0,0,0-0.1,0c-1.9-0.3-5.4-0.6-7.1,1.4c-1.1,1.2-1.2,3.2-0.4,5.8L239.3,20z"/>
			<path d="M238.6,19.4l0.3,0.8c0,0,0,0.1,0.1,0.1l1,0.6c0,0,0.1,0,0.1,0c0,0,0.1,0,0.1,0c0.1,0,0.1-0.1,0.1-0.2
				c-0.1-1.8,0.1-4.7,1.1-4.8c0.7-0.1,1,0,1.4,0.3c0.4,0.2,0.9,0.4,1.8,0.4c0.9,0,1.4-0.2,1.8-0.4c0.4-0.2,0.7-0.4,1.4-0.3
				c1,0.2,1.2,3,1.1,4.8c0,0.1,0,0.2,0.1,0.2c0.1,0,0.2,0,0.2,0l1-0.6c0,0,0.1-0.1,0.1-0.1l0.3-0.8l0.2-0.5l0.2-0.5
				c0.8-2.9,0.6-5.2-0.6-6.6c-0.9-1-2.3-1.4-3.9-1.2c-2-0.3-5.7-0.6-7.5,1.5c-1.2,1.4-1.4,3.5-0.5,6.3l0.2,0.5L238.6,19.4z
				 M239.1,12.5c1.7-1.9,5.2-1.7,7.1-1.4c0,0,0,0,0.1,0c1.5-0.2,2.8,0.2,3.5,1.1c1.1,1.2,1.2,3.3,0.5,6.1l-0.6,1.7l-0.5,0.3
				c0-1.3,0-4.6-1.5-4.9c-0.8-0.1-1.2,0.1-1.7,0.3c-0.4,0.2-0.8,0.4-1.6,0.4c-0.8,0-1.2-0.2-1.6-0.4c-0.4-0.2-0.9-0.4-1.7-0.3
				c-1.4,0.2-1.5,3.6-1.5,4.9l-0.5-0.3l-0.6-1.7C237.9,15.7,238,13.7,239.1,12.5z"/>
		</g>
	</g>
	<g>
		<g>
			<g>
				<path fill="#FFFFFF" d="M62.7,109.8l-6.1,17.7l-4.2,0.8c0,0,6.4,13.8,17.1,11.5c10.7-2.3,8.4-11.5,8.4-11.5l-2.3-0.2
					c-1.4-0.1-2.3-1.4-2-2.7l2.6-9.9C76.2,115.5,65.8,107.1,62.7,109.8z"/>
				<path d="M67.2,140.3c-3.6,0-7.2-1.8-10.4-5.2c-2.9-3.2-4.6-6.6-4.6-6.7c0-0.1,0-0.1,0-0.2c0-0.1,0.1-0.1,0.2-0.1l4-0.8l6-17.6
					c0,0,0-0.1,0.1-0.1c3.3-2.7,13.4,5.4,13.9,5.7c0.1,0.1,0.1,0.2,0.1,0.2l-2.6,9.9c-0.1,0.6,0,1.2,0.3,1.6
					c0.3,0.5,0.9,0.8,1.4,0.8l2.3,0.2c0.1,0,0.2,0.1,0.2,0.2c0,0.2,0.9,3.8-1.1,7.2c-1.4,2.3-3.9,3.9-7.4,4.6
					C68.8,140.2,68,140.3,67.2,140.3z M52.8,128.5c1,1.9,7.1,13.2,16.7,11.1c3.4-0.7,5.8-2.2,7.1-4.4c1.7-2.8,1.2-5.9,1.1-6.6
					l-2.1-0.2c-0.7-0.1-1.4-0.4-1.8-1c-0.4-0.6-0.6-1.3-0.4-2l2.5-9.7c-1.1-0.9-10.2-7.9-13.1-5.7l-6,17.7c0,0.1-0.1,0.1-0.2,0.2
					L52.8,128.5z M56.6,127.5L56.6,127.5L56.6,127.5z"/>
			</g>
			<path d="M85.9,89.8c0.9,4.6-2.7,8.8-5.8,9.6c-0.1,0-0.2,0.1-0.3,0.1c-0.1,0.2-0.1,0.5-0.3,0.7c-1.2,2.7-4.7,4-7.7,3.7
				c-0.9,0.9-2,2.2-3.2,3.8c-3.8,5.2-6.5,2.8-10.4-2.3c-0.5-0.7-1.3-1.5-1.7-3c-0.8-2.9,0.6-5.4,0.7-5.7c1.3-2.4,2.9-2.3,6.6-4.7
				c5.5-3.7,5.6-6.5,10.3-8.1c1.3-0.4,2.8-0.9,4.8-0.6C81.9,83.8,85.1,86.1,85.9,89.8z"/>
			<g>
				<path fill="#FFFFFF" d="M82.6,97.8c-0.7,0.9-2.3,1.6-3.5,2.1c-5,2.1-9.5-0.7-10.2-1c1.2,1.5,1.2,3.5,0.2,4.8
					c-0.6,0.7-1.4,1.3-3.2,1.3c0,0-1.1-3-3.8-1.2c-2.6,1.7-1.7,9,4.3,8.5c0,0,2.7,6.2,9.6,5c4.4-0.7,6.2-4.6,6.7-9.7L82.6,97.8z"/>
				<path d="M74.4,117.6c-5.3,0-7.7-4.3-8.1-5.1c-2.6,0.2-4.6-1.2-5.4-3.5c-0.7-2.1-0.2-4.5,1.2-5.4c0.8-0.5,1.6-0.7,2.3-0.5
					c1,0.3,1.5,1.3,1.7,1.7c1.8-0.1,2.4-0.6,2.9-1.2c1-1.3,0.9-3.2-0.2-4.5c-0.1-0.1-0.1-0.2,0-0.3c0.1-0.1,0.2-0.1,0.3-0.1
					c0,0,0.1,0,0.1,0.1c4.3,2.4,7.7,1.8,9.9,0.9c1.1-0.5,2.7-1.2,3.4-2c0.1-0.1,0.2-0.1,0.3,0c0.1,0.1,0.1,0.2,0,0.3
					c-0.7,0.9-2.2,1.6-3.6,2.2c-2.1,0.9-5.4,1.5-9.6-0.6c0.7,1.4,0.6,3.1-0.3,4.3c-0.5,0.7-1.3,1.4-3.4,1.4c-0.1,0-0.2-0.1-0.2-0.1
					c0,0-0.5-1.2-1.5-1.5c-0.6-0.2-1.2,0-1.9,0.4c-1.2,0.8-1.6,2.9-1,4.8c0.8,2.2,2.7,3.4,5.1,3.2c0.1,0,0.2,0,0.2,0.1
					c0.1,0.2,2.7,6,9.4,4.9c3.8-0.6,5.9-3.7,6.5-9.4c0-0.1,0.1-0.2,0.3-0.2c0.1,0,0.2,0.1,0.2,0.3c-0.6,5.9-2.9,9.2-6.9,9.9
					C75.5,117.6,74.9,117.6,74.4,117.6z"/>
			</g>
			<path d="M66,109.7c-0.1,0-0.2-0.1-0.2-0.2c-0.2-0.4-0.3-0.9-0.6-1.3c-0.3-0.4-0.7-0.6-1-0.7c-0.1,0-0.2-0.1-0.2-0.2
				c0-0.1,0.1-0.2,0.2-0.2c0.5,0,1,0.3,1.4,0.9c0.3,0.4,0.5,0.9,0.6,1.4C66.3,109.5,66.2,109.7,66,109.7
				C66.1,109.7,66,109.7,66,109.7z"/>
			<path d="M67.7,102.5c0,0,1.1,4.9,3.6,7c2.4,2,5.9-2.2,11.2-2.4c0.3,0,0.5,0.2,0.5,0.4c0,1.8,0,8.5-1.1,10.2
				c-1.6,2.4-14.1,3.2-15.6-5.2c0,0,1.3-4-0.5-7.2L67.7,102.5z"/>
		</g>
		<g>
			<g>
				<path fill="#FFFFFF" d="M100.9,135.6c-3.2-4.3-8-7-13.3-7.5c-3-0.3-6.8-0.6-11.1-0.8c-0.2,0.8-0.6,1.5-1,2.2
					c-1.2,2-3.1,3.6-5.3,4.5c-2.1,1-4.5,1.4-6.9,1.1c-2.3-0.3-4.5-1.3-6.1-3c-1.3-1.4-2.8-3.1-3.2-4.9c-3.8,0.2-6.9,0.5-10.5,1.1
					c-6.9,1.1-12.8,5.2-16.6,11.1c-8.2,12.8-17.3,26.3-17.3,41.9c0,17.7,42.5,16.2,42.5,16.2h41.4l26.5-22.5
					C120.2,175,111.9,150.5,100.9,135.6z"/>
				<path d="M49.7,197.8c-2.9,0-7.9-0.1-13.4-0.7c-7.8-0.9-18.2-3-23.5-8c-2.3-2.2-3.4-4.8-3.4-7.7c0-15,8.3-27.9,16.3-40.4l1-1.6
					c3.9-6.1,10-10.2,16.7-11.2c3.6-0.6,6.6-0.9,10.5-1.1c0.1,0,0.2,0.1,0.2,0.2c0.4,1.8,1.9,3.4,3.2,4.8c1.5,1.6,3.6,2.6,5.9,2.9
					c2.2,0.3,4.6-0.1,6.8-1.1c2.2-1,4-2.6,5.2-4.4c0.4-0.7,0.7-1.4,1-2.1c0-0.1,0.1-0.2,0.2-0.2c3.7,0.2,7.4,0.5,11.1,0.8
					c5.4,0.5,10.3,3.3,13.5,7.6c10.9,14.7,19.2,39.2,19.3,39.5c0,0.1,0,0.2-0.1,0.3l-26.5,22.5c0,0-0.1,0.1-0.2,0.1H52.2
					C52.2,197.8,51.3,197.8,49.7,197.8z M53.9,127.6c-3.7,0.2-6.7,0.5-10.3,1.1c-6.6,1-12.6,5-16.4,11l-1,1.6
					c-8,12.4-16.2,25.3-16.2,40.1c0,2.8,1.1,5.3,3.3,7.4c9.8,9.5,38.7,8.6,39,8.6l41.4,0l26.3-22.4c-0.7-2.1-8.8-25.1-19.2-39.2
					c-3.1-4.2-7.9-6.9-13.2-7.4c-3.6-0.3-7.3-0.6-10.9-0.8c-0.2,0.7-0.6,1.4-1,2.1c-1.2,2-3.1,3.6-5.4,4.6c-2.3,1-4.7,1.4-7,1.1
					c-2.5-0.3-4.7-1.4-6.2-3C55.9,131,54.3,129.4,53.9,127.6z"/>
			</g>
			<g>
				<path d="M64.9,197.8H52.2c0,0,0,0,0,0c-0.2,0-4.3-0.8-4-3.1l0.2,0l-0.2,0c2.1-13.9,10.1-21,10.2-21.1c0,0,0.1-0.1,0.1-0.1
					c8.4-0.9,14.9,0.7,19.3,4.9c6.7,6.4,6.2,16.6,6.2,16.7c0,0.1-0.1,0.2-0.2,0.2L64.9,197.8C64.9,197.8,64.9,197.8,64.9,197.8z
					 M52.2,197.3h12.6l18.7-2.4c0-1.4,0-10.4-6-16.1c-4.3-4.1-10.6-5.7-18.9-4.8c-0.7,0.6-8.1,7.7-10,20.7
					C48.4,196.5,51.9,197.3,52.2,197.3z"/>
				<path d="M69.9,195.5C69.9,195.5,69.9,195.5,69.9,195.5c-0.2,0-0.2-0.1-0.2-0.3c0.2-1.4-0.1-2.9-0.9-4.2
					c-0.6-1.2-1.6-2.2-2.9-3.3c-0.3-0.2-0.5-0.4-0.8-0.5c-0.1-0.1-0.2-0.2-0.1-0.3c0.1-0.1,0.2-0.2,0.3-0.1c0.4,0.2,0.7,0.4,0.9,0.6
					c1.4,1.1,2.4,2.3,3,3.5c0.8,1.5,1.2,3.1,0.9,4.5C70.1,195.4,70,195.5,69.9,195.5z"/>
				<path d="M76,195.1c-0.1,0-0.2-0.1-0.2-0.2c-0.2-1.6-0.6-3.5-1.3-5.3c-0.7-1.8-1.8-3.3-3.1-4.3c-0.1-0.1-0.1-0.2,0-0.3
					c0.1-0.1,0.2-0.1,0.3,0c1.4,1,2.5,2.6,3.2,4.5c0.7,1.8,1.1,3.7,1.3,5.4C76.2,195,76.1,195.1,76,195.1
					C76,195.1,76,195.1,76,195.1z"/>
				<path d="M80.9,195.1C80.9,195.1,80.8,195.1,80.9,195.1c-0.2,0-0.2-0.1-0.2-0.3c0.8-6.9-3.7-11.2-3.7-11.2
					c-0.1-0.1-0.1-0.2,0-0.3c0.1-0.1,0.2-0.1,0.3,0c0,0,4.7,4.5,3.9,11.6C81.1,195,81,195.1,80.9,195.1z"/>
			</g>
			<g>
				<path d="M129.9,198.8H61c-0.4,0-0.8-0.1-1.2-0.3c-0.8-0.5-1.1-1.5-0.7-2.3c0.8-1.7,2.5-2.3,5-2.3h70.3l-0.9,2.5
					C132.9,197.8,131.5,198.8,129.9,198.8z"/>
				<path d="M133.3,197.1l12.3-30.9c0.3-0.6,0.3-1.3,0-2c-0.4-1-1.4-1.7-2.5-1.7h-42.3c-2.6,0-4.8,1.6-5.7,4l-11.4,32.3h47
					C131.8,198.8,132.8,198.1,133.3,197.1z"/>
				<circle fill="#5479F7" cx="120" cy="177" r="2"/>
			</g>
			<path d="M26.4,174.4c-0.1,0-0.2-0.1-0.2-0.2c0-0.1,0.1-0.2,0.2-0.2l30.8-0.6c0.1,0,0.2,0.1,0.2,0.2c0,0.1-0.1,0.2-0.2,0.2
				L26.4,174.4C26.4,174.4,26.4,174.4,26.4,174.4z"/>
			<path d="M36.7,172.7C36.6,172.7,36.6,172.7,36.7,172.7c-0.2,0-0.3-0.2-0.2-0.3c1.1-3.7,2.7-7.3,4.6-10.7c0.4-0.7,1-1.6,2-1.6
				c0,0,0,0,0,0c0.1,0,0.2,0.1,0.2,0.2c0,0.1-0.1,0.2-0.2,0.2c0,0,0,0,0,0c-0.7,0-1.2,0.8-1.6,1.4c-1.9,3.4-3.4,6.9-4.6,10.6
				C36.9,172.6,36.8,172.7,36.7,172.7z"/>
		</g>
	</g>
	<g>
		<g>
			<path fill="#FFFFFF" d="M83.4,64.7c1.9-0.1,3.3-1.7,3.2-3.5c0-0.1,0-0.3,0-0.4c1.3-0.4,2.6-1,3.7-1.8c0.1,0.1,0.2,0.2,0.3,0.3
				c1.4,1.3,3.5,1.2,4.8-0.2c1.3-1.4,1.2-3.5-0.2-4.8c-0.1-0.1-0.2-0.2-0.3-0.3c0.6-1.2,1.1-2.5,1.4-3.9c0.1,0,0.3,0,0.4,0
				c1.9-0.1,3.3-1.7,3.2-3.5c-0.1-1.9-1.7-3.3-3.5-3.2c-0.1,0-0.3,0-0.4,0c-0.4-1.3-1-2.6-1.8-3.7c0.1-0.1,0.2-0.2,0.3-0.3
				c1.3-1.4,1.2-3.5-0.2-4.8c-1.4-1.3-3.5-1.2-4.8,0.2c-0.1,0.1-0.2,0.2-0.3,0.3c-1.2-0.6-2.5-1.1-3.9-1.4c0-0.1,0-0.3,0-0.4
				c-0.1-1.9-1.7-3.3-3.5-3.2c-1.9,0.1-3.3,1.7-3.2,3.5c0,0.1,0,0.3,0,0.4c-1.3,0.4-2.6,1-3.7,1.8c-0.1-0.1-0.2-0.2-0.3-0.3
				c-1.4-1.3-3.5-1.2-4.8,0.2c-1.3,1.4-1.2,3.5,0.2,4.8c0.1,0.1,0.2,0.2,0.3,0.3c-0.6,1.2-1.1,2.5-1.4,3.9c-0.1,0-0.3,0-0.4,0
				c-1.9,0.1-3.3,1.7-3.2,3.5c0.1,1.9,1.7,3.3,3.5,3.2c0.1,0,0.3,0,0.4,0c0.4,1.3,1,2.6,1.8,3.7c-0.1,0.1-0.2,0.2-0.3,0.3
				c-1.3,1.4-1.2,3.5,0.2,4.8s3.5,1.2,4.8-0.2c0.1-0.1,0.2-0.2,0.3-0.3c1.2,0.6,2.5,1.1,3.9,1.4c0,0.1,0,0.3,0,0.4
				C80,63.4,81.6,64.8,83.4,64.7z M82.9,53.7c-3.5,0.2-6.4-2.5-6.6-6c-0.2-3.5,2.5-6.4,6-6.6c3.5-0.2,6.4,2.5,6.6,6
				C89.1,50.6,86.4,53.6,82.9,53.7z"/>
			<path d="M83.3,65c-0.9,0-1.8-0.3-2.4-0.9c-0.7-0.7-1.1-1.5-1.2-2.5c0-0.1,0-0.2,0-0.2c-1.2-0.3-2.4-0.7-3.6-1.3
				c-0.1,0.1-0.1,0.1-0.2,0.2c-0.7,0.7-1.5,1.1-2.5,1.2c-1,0-1.9-0.3-2.6-0.9c-1.5-1.3-1.6-3.6-0.2-5.1c0.1-0.1,0.1-0.1,0.2-0.2
				c-0.7-1.1-1.2-2.2-1.6-3.4c-0.1,0-0.2,0-0.2,0c-1,0-1.9-0.3-2.6-0.9c-0.7-0.7-1.1-1.5-1.2-2.5c-0.1-2,1.5-3.7,3.4-3.8
				c0.1,0,0.2,0,0.2,0c0.3-1.2,0.7-2.4,1.3-3.6c-0.1-0.1-0.1-0.1-0.2-0.2c-1.5-1.3-1.6-3.6-0.2-5.1c0.7-0.7,1.5-1.1,2.5-1.2
				c1,0,1.9,0.3,2.6,0.9c0.1,0.1,0.1,0.1,0.2,0.2c1.1-0.7,2.2-1.2,3.4-1.6c0-0.1,0-0.2,0-0.2c-0.1-2,1.5-3.7,3.4-3.8
				c1,0,1.9,0.3,2.6,0.9c0.7,0.7,1.1,1.5,1.2,2.5c0,0.1,0,0.2,0,0.2c1.2,0.3,2.4,0.7,3.6,1.3c0.1-0.1,0.1-0.1,0.2-0.2
				c0.7-0.7,1.5-1.1,2.5-1.2c1,0,1.9,0.3,2.6,0.9c1.5,1.3,1.6,3.6,0.2,5.1c-0.1,0.1-0.1,0.1-0.2,0.2c0.7,1.1,1.2,2.2,1.6,3.4
				c0.1,0,0.2,0,0.2,0c1,0,1.9,0.3,2.6,0.9c0.7,0.7,1.1,1.5,1.2,2.5c0.1,2-1.5,3.7-3.4,3.8c-0.1,0-0.2,0-0.2,0
				c-0.3,1.2-0.7,2.4-1.3,3.6c0.1,0.1,0.1,0.1,0.2,0.2c1.5,1.3,1.6,3.6,0.2,5.1c-0.7,0.7-1.5,1.1-2.5,1.2c-1,0-1.9-0.3-2.6-0.9
				c-0.1-0.1-0.1-0.1-0.2-0.2c-1.1,0.7-2.2,1.2-3.4,1.6c0,0.1,0,0.2,0,0.2c0.1,2-1.5,3.7-3.4,3.8C83.4,65,83.3,65,83.3,65z M76,59.5
				c0,0,0.1,0,0.1,0c1.2,0.6,2.5,1.1,3.8,1.4c0.1,0,0.2,0.1,0.2,0.2c0,0.1,0,0.3,0,0.4c0,0.8,0.4,1.6,1,2.2c0.6,0.6,1.4,0.9,2.3,0.8
				c1.7-0.1,3.1-1.6,3-3.3c0-0.1,0-0.2,0-0.4c0-0.1,0.1-0.2,0.2-0.3c1.3-0.4,2.5-1,3.7-1.7c0.1-0.1,0.2,0,0.3,0
				c0.1,0.1,0.2,0.2,0.3,0.3c0.6,0.6,1.4,0.9,2.3,0.8c0.8,0,1.6-0.4,2.2-1c1.2-1.3,1.1-3.3-0.2-4.5c-0.1-0.1-0.2-0.2-0.3-0.2
				c-0.1-0.1-0.1-0.2-0.1-0.3c0.6-1.2,1.1-2.5,1.4-3.8c0-0.1,0.1-0.2,0.2-0.2c0.1,0,0.3,0,0.4,0c1.7-0.1,3.1-1.6,3-3.3
				c0-0.8-0.4-1.6-1-2.2c-0.6-0.6-1.4-0.9-2.3-0.8c-0.1,0-0.2,0-0.4,0c-0.1,0-0.2-0.1-0.3-0.2c-0.4-1.3-1-2.5-1.7-3.7
				c-0.1-0.1,0-0.2,0-0.3c0.1-0.1,0.2-0.2,0.3-0.3c1.2-1.3,1.1-3.3-0.2-4.5c-0.6-0.6-1.4-0.9-2.3-0.8c-0.8,0-1.6,0.4-2.2,1
				c-0.1,0.1-0.2,0.2-0.2,0.3c-0.1,0.1-0.2,0.1-0.3,0.1c-1.2-0.6-2.5-1.1-3.8-1.4c-0.1,0-0.2-0.1-0.2-0.2c0-0.1,0-0.3,0-0.4
				c0-0.8-0.4-1.6-1-2.2c-0.6-0.6-1.4-0.9-2.3-0.8c-1.7,0.1-3.1,1.6-3,3.3c0,0.1,0,0.2,0,0.4c0,0.1-0.1,0.2-0.2,0.3
				c-1.3,0.4-2.5,1-3.7,1.7c-0.1,0.1-0.2,0-0.3,0c-0.1-0.1-0.2-0.2-0.3-0.3c-0.6-0.6-1.4-0.9-2.3-0.8c-0.8,0-1.6,0.4-2.2,1
				c-1.2,1.3-1.1,3.3,0.2,4.5c0.1,0.1,0.2,0.2,0.3,0.2c0.1,0.1,0.1,0.2,0.1,0.3c-0.6,1.2-1.1,2.5-1.4,3.8c0,0.1-0.1,0.2-0.2,0.2
				c-0.1,0-0.3,0-0.4,0c-1.7,0.1-3.1,1.6-3,3.3c0,0.8,0.4,1.6,1,2.2c0.6,0.6,1.4,0.9,2.3,0.8c0.1,0,0.2,0,0.4,0
				c0.1,0,0.2,0.1,0.3,0.2c0.4,1.3,1,2.5,1.7,3.7c0.1,0.1,0,0.2,0,0.3c-0.1,0.1-0.2,0.2-0.3,0.3c-1.2,1.3-1.1,3.3,0.2,4.5
				c0.6,0.6,1.4,0.9,2.3,0.8c0.8,0,1.6-0.4,2.2-1c0.1-0.1,0.2-0.2,0.2-0.3C75.9,59.5,76,59.5,76,59.5z M82.6,54
				c-1.6,0-3.2-0.6-4.4-1.7c-1.3-1.2-2-2.8-2.1-4.5c-0.2-3.6,2.6-6.7,6.2-6.8c3.6-0.2,6.7,2.6,6.8,6.2c0.1,1.7-0.5,3.4-1.7,4.7
				c-1.2,1.3-2.8,2-4.5,2.1C82.8,54,82.7,54,82.6,54z M82.6,41.4c-0.1,0-0.2,0-0.3,0c-3.3,0.2-5.9,3-5.8,6.3c0.1,1.6,0.8,3.1,2,4.2
				c1.2,1.1,2.7,1.7,4.4,1.6c0,0,0,0,0,0c1.6-0.1,3.1-0.8,4.2-2c1.1-1.2,1.6-2.7,1.6-4.4C88.5,43.9,85.8,41.4,82.6,41.4z"/>
		</g>
		<g>
			<path fill="#FFFFFF" d="M52,67.7c1.2-0.1,2.2-1.1,2.2-2.4c0-0.1,0-0.2,0-0.3c0.9-0.3,1.7-0.7,2.5-1.2c0.1,0.1,0.1,0.1,0.2,0.2
				c0.9,0.8,2.4,0.8,3.2-0.1c0.8-0.9,0.8-2.4-0.1-3.2c-0.1-0.1-0.1-0.1-0.2-0.2c0.4-0.8,0.7-1.7,0.9-2.6c0.1,0,0.2,0,0.3,0
				c1.2-0.1,2.2-1.1,2.2-2.4c-0.1-1.2-1.1-2.2-2.4-2.2c-0.1,0-0.2,0-0.3,0c-0.3-0.9-0.7-1.7-1.2-2.5c0.1-0.1,0.1-0.1,0.2-0.2
				c0.8-0.9,0.8-2.4-0.1-3.2c-0.9-0.8-2.4-0.8-3.2,0.1c-0.1,0.1-0.1,0.1-0.2,0.2c-0.8-0.4-1.7-0.8-2.6-0.9c0-0.1,0-0.2,0-0.3
				c-0.1-1.2-1.1-2.2-2.4-2.2c-1.2,0.1-2.2,1.1-2.2,2.4c0,0.1,0,0.2,0,0.3c-0.9,0.3-1.7,0.7-2.5,1.2c-0.1-0.1-0.1-0.1-0.2-0.2
				c-0.9-0.8-2.4-0.8-3.2,0.1c-0.8,0.9-0.8,2.4,0.1,3.2c0.1,0.1,0.1,0.1,0.2,0.2c-0.4,0.8-0.7,1.7-0.9,2.6c-0.1,0-0.2,0-0.3,0
				c-1.2,0.1-2.2,1.1-2.2,2.4c0.1,1.2,1.1,2.2,2.4,2.2c0.1,0,0.2,0,0.3,0c0.3,0.9,0.7,1.7,1.2,2.5c-0.1,0.1-0.1,0.1-0.2,0.2
				c-0.8,0.9-0.8,2.4,0.1,3.2c0.9,0.8,2.4,0.8,3.2-0.1c0.1-0.1,0.1-0.1,0.2-0.2c0.8,0.4,1.7,0.8,2.6,0.9c0,0.1,0,0.2,0,0.3
				C49.7,66.7,50.8,67.7,52,67.7z M51.7,60.3c-2.3,0.1-4.3-1.7-4.4-4c-0.1-2.3,1.7-4.3,4-4.4c2.3-0.1,4.3,1.7,4.4,4
				C55.8,58.2,54,60.2,51.7,60.3z"/>
			<path d="M51.9,67.9c-1.3,0-2.4-1-2.5-2.4c0,0,0-0.1,0-0.1c-0.8-0.2-1.6-0.5-2.3-0.8c0,0,0,0.1-0.1,0.1c-0.4,0.5-1.1,0.8-1.7,0.8
				c-0.7,0-1.3-0.2-1.8-0.6c-1-0.9-1.1-2.5-0.2-3.5c0,0,0,0,0.1-0.1c-0.4-0.7-0.8-1.4-1-2.2c0,0-0.1,0-0.1,0c-1.4,0.1-2.5-1-2.6-2.4
				c0-0.7,0.2-1.3,0.6-1.8c0.4-0.5,1.1-0.8,1.7-0.8c0,0,0.1,0,0.1,0c0.2-0.8,0.5-1.6,0.8-2.3c0,0-0.1,0-0.1-0.1
				c-1-0.9-1.1-2.5-0.2-3.5c0.4-0.5,1.1-0.8,1.7-0.8c0.7,0,1.3,0.2,1.8,0.6c0,0,0,0,0.1,0.1c0.7-0.4,1.4-0.8,2.2-1c0,0,0-0.1,0-0.1
				c-0.1-1.4,1-2.5,2.4-2.6c1.4-0.1,2.5,1,2.6,2.4c0,0,0,0.1,0,0.1c0.8,0.2,1.6,0.5,2.3,0.8c0,0,0-0.1,0.1-0.1
				c0.4-0.5,1.1-0.8,1.7-0.8c0.7,0,1.3,0.2,1.8,0.6c1,0.9,1.1,2.5,0.2,3.5c0,0,0,0-0.1,0.1c0.4,0.7,0.8,1.4,1,2.2c0,0,0.1,0,0.1,0
				c1.4-0.1,2.5,1,2.6,2.4c0,0.7-0.2,1.3-0.6,1.8c-0.4,0.5-1.1,0.8-1.7,0.8c0,0-0.1,0-0.1,0c-0.2,0.8-0.5,1.6-0.8,2.3
				c0,0,0.1,0,0.1,0.1c1,0.9,1.1,2.5,0.2,3.5c-0.4,0.5-1.1,0.8-1.7,0.8c-0.7,0-1.3-0.2-1.8-0.6c0,0,0,0-0.1-0.1
				c-0.7,0.4-1.4,0.8-2.2,1c0,0,0,0.1,0,0.1c0.1,1.4-1,2.5-2.4,2.6C52,67.9,51.9,67.9,51.9,67.9z M52,67.7L52,67.7L52,67.7z
				 M47.1,64.1c0,0,0.1,0,0.1,0c0.8,0.4,1.6,0.7,2.5,0.9c0.1,0,0.2,0.1,0.2,0.2c0,0.1,0,0.2,0,0.2c0.1,1.1,1,2,2.1,1.9
				c1.1-0.1,2-1,1.9-2.1c0-0.1,0-0.2,0-0.2c0-0.1,0.1-0.2,0.2-0.3c0.9-0.3,1.7-0.6,2.4-1.1c0.1-0.1,0.2,0,0.3,0
				c0.1,0.1,0.1,0.1,0.2,0.2c0.4,0.4,0.9,0.6,1.5,0.5c0.5,0,1-0.3,1.4-0.7c0.8-0.8,0.7-2.1-0.1-2.9c-0.1-0.1-0.1-0.1-0.2-0.2
				c-0.1-0.1-0.1-0.2-0.1-0.3c0.4-0.8,0.7-1.6,0.9-2.5c0-0.1,0.1-0.2,0.2-0.2c0.1,0,0.2,0,0.2,0c0.5,0,1-0.3,1.4-0.7
				c0.4-0.4,0.6-0.9,0.5-1.5c-0.1-1.1-1-2-2.1-1.9c-0.1,0-0.2,0-0.2,0c-0.1,0-0.2-0.1-0.3-0.2c-0.3-0.9-0.6-1.7-1.1-2.4
				c-0.1-0.1,0-0.2,0-0.3c0.1-0.1,0.1-0.1,0.2-0.2c0.8-0.8,0.7-2.1-0.1-2.9c-0.4-0.4-0.9-0.6-1.5-0.5c-0.5,0-1,0.3-1.4,0.7
				c0,0.1-0.1,0.1-0.2,0.2c-0.1,0.1-0.2,0.1-0.3,0.1c-0.8-0.4-1.6-0.7-2.5-0.9c-0.1,0-0.2-0.1-0.2-0.2c0-0.1,0-0.2,0-0.2
				c-0.1-1.1-1-2-2.1-1.9c-1.1,0.1-2,1-1.9,2.1c0,0.1,0,0.2,0,0.2c0,0.1-0.1,0.2-0.2,0.3c-0.9,0.3-1.7,0.6-2.4,1.1
				c-0.1,0.1-0.2,0-0.3,0c-0.1-0.1-0.1-0.1-0.2-0.2c-0.4-0.4-0.9-0.5-1.5-0.5c-0.5,0-1,0.3-1.4,0.7c-0.8,0.8-0.7,2.1,0.1,2.9
				c0.1,0.1,0.1,0.1,0.2,0.2c0.1,0.1,0.1,0.2,0.1,0.3c-0.4,0.8-0.7,1.6-0.9,2.5c0,0.1-0.1,0.2-0.2,0.2c-0.1,0-0.2,0-0.2,0
				c-0.5,0-1,0.3-1.4,0.7c-0.4,0.4-0.6,0.9-0.5,1.5c0.1,1.1,1,2,2.1,1.9c0.1,0,0.2,0,0.2,0c0.1,0,0.2,0.1,0.3,0.2
				c0.3,0.9,0.6,1.7,1.1,2.4c0.1,0.1,0,0.2,0,0.3c-0.1,0.1-0.1,0.1-0.2,0.2c-0.8,0.8-0.7,2.1,0.1,2.9c0.4,0.4,0.9,0.6,1.5,0.5
				c0.5,0,1-0.3,1.4-0.7c0.1-0.1,0.1-0.1,0.2-0.2C46.9,64.1,47,64.1,47.1,64.1z M51.5,60.6c-1.1,0-2.2-0.4-3-1.2
				c-0.9-0.8-1.4-1.9-1.4-3.1c-0.1-1.2,0.4-2.3,1.1-3.2c0.8-0.9,1.9-1.4,3.1-1.4c1.2-0.1,2.3,0.4,3.2,1.1c0.9,0.8,1.4,1.9,1.4,3.1
				c0.1,1.2-0.4,2.3-1.1,3.2c-0.8,0.9-1.9,1.4-3.1,1.4C51.6,60.6,51.5,60.6,51.5,60.6z M51.5,52.2c-0.1,0-0.1,0-0.2,0
				c-1.1,0-2,0.5-2.7,1.3c-0.7,0.8-1.1,1.8-1,2.9c0,1.1,0.5,2,1.3,2.7c0.8,0.7,1.8,1.1,2.9,1c1.1,0,2-0.5,2.7-1.3
				c0.7-0.8,1.1-1.8,1-2.9c0-1.1-0.5-2-1.3-2.7C53.4,52.5,52.5,52.2,51.5,52.2z"/>
		</g>
	</g>
	<g>
		<g>
			<path d="M194.6,187.1h-40.3c-0.1,0-0.2-0.1-0.2-0.2s0.1-0.2,0.2-0.2h40.1v-14.1c0-0.1,0.1-0.2,0.2-0.2c0.1,0,0.2,0.1,0.2,0.2
				v14.3C194.8,187,194.7,187.1,194.6,187.1z"/>
			<circle fill="#5479F7" cx="194.5" cy="172.6" r="3.2"/>
		</g>
		<g>
			<circle fill="#E2EAFF" cx="204.5" cy="172.6" r="3.2"/>
			<circle fill="#E2EAFF" cx="213.7" cy="172.6" r="3.2"/>
			<circle fill="#E2EAFF" cx="222.9" cy="172.6" r="3.2"/>
		</g>
	</g>
	<g>
		<path d="M30.7,115.4c-0.1,0-0.2-0.1-0.2-0.2V88.4c0-0.1,0.1-0.2,0.2-0.2h21.7c0.1,0,0.2,0.1,0.2,0.2c0,0.1-0.1,0.2-0.2,0.2H30.9
			v26.5C30.9,115.3,30.8,115.4,30.7,115.4z"/>
		<circle fill="#5479F7" cx="30.7" cy="115.1" r="3.2"/>
	</g>
	<g>
		<ellipse fill="#E2EAFF" cx="40.6" cy="79.2" rx="3.2" ry="3.1"/>
		<ellipse fill="#E2EAFF" cx="49.8" cy="79.2" rx="3.2" ry="3.1"/>
		<ellipse fill="#E2EAFF" cx="59" cy="79.2" rx="3.2" ry="3.1"/>
	</g>
	<g>
		<path d="M171.6,70.3c-0.1,0-0.2-0.1-0.2-0.1c-0.1-0.1,0-0.3,0.1-0.3l36.4-15.8c0.1-0.1,0.3,0,0.3,0.1c0.1,0.1,0,0.3-0.1,0.3
			L171.6,70.3C171.6,70.3,171.6,70.3,171.6,70.3z"/>
		<path d="M166.6,106.4c-0.1,0-0.2-0.1-0.2-0.1c-0.1-0.1,0-0.3,0.1-0.3l27.7-12c0.1-0.1,0.3,0,0.3,0.1c0.1,0.1,0,0.3-0.1,0.3
			L166.6,106.4C166.7,106.4,166.7,106.4,166.6,106.4z"/>
		<path d="M190.1,82.6c-0.1,0-0.2-0.1-0.2-0.1c-0.1-0.1,0-0.3,0.1-0.3l20.3-8.8c0.1-0.1,0.3,0,0.3,0.1c0.1,0.1,0,0.3-0.1,0.3
			L190.1,82.6C190.2,82.6,190.2,82.6,190.1,82.6z"/>
		<path d="M207.9,43.6c-0.1,0-0.2-0.1-0.2-0.1c-0.1-0.1,0-0.3,0.1-0.3l15.3-6.6c0.1-0.1,0.3,0,0.3,0.1c0.1,0.1,0,0.3-0.1,0.3
			L207.9,43.6C208,43.6,208,43.6,207.9,43.6z"/>
		<path d="M205.4,13.3c-0.1,0-0.2-0.1-0.2-0.1c-0.1-0.1,0-0.3,0.1-0.3l15.3-6.6c0.1-0.1,0.3,0,0.3,0.1c0.1,0.1,0,0.3-0.1,0.3
			L205.4,13.3C205.5,13.3,205.4,13.3,205.4,13.3z"/>
		<path d="M259.5,47.7c-0.1,0-0.2-0.1-0.2-0.1c-0.1-0.1,0-0.3,0.1-0.3l10.2-4.4c0.1-0.1,0.3,0,0.3,0.1c0.1,0.1,0,0.3-0.1,0.3
			L259.5,47.7C259.6,47.7,259.5,47.7,259.5,47.7z"/>
		<path d="M98.9,30.4c-0.1,0-0.2-0.1-0.2-0.1c-0.1-0.1,0-0.3,0.1-0.3l19.2-8.3c0.1-0.1,0.3,0,0.3,0.1c0.1,0.1,0,0.3-0.1,0.3
			L98.9,30.4C99,30.4,98.9,30.4,98.9,30.4z"/>
		<path d="M246.4,91.6c-0.1,0-0.2-0.1-0.2-0.1c-0.1-0.1,0-0.3,0.1-0.3l10.2-4.4c0.1-0.1,0.3,0,0.3,0.1c0.1,0.1,0,0.3-0.1,0.3
			L246.4,91.6C246.4,91.5,246.4,91.6,246.4,91.6z"/>
		<path d="M220.2,151c-0.1,0-0.2-0.1-0.2-0.1c-0.1-0.1,0-0.3,0.1-0.3l36.4-15.8c0.1-0.1,0.3,0,0.3,0.1c0.1,0.1,0,0.3-0.1,0.3
			L220.2,151C220.2,151,220.2,151,220.2,151z"/>
		<path d="M262.9,117.3c-0.1,0-0.2-0.1-0.2-0.1c-0.1-0.1,0-0.3,0.1-0.3l15.2-6.6c0.1-0.1,0.3,0,0.3,0.1c0.1,0.1,0,0.3-0.1,0.3
			L262.9,117.3C262.9,117.3,262.9,117.3,262.9,117.3z"/>
		<path d="M115.6,32.4c-0.1,0-0.2-0.1-0.2-0.1c-0.1-0.1,0-0.3,0.1-0.3l35.6-15.4c0.1-0.1,0.3,0,0.3,0.1c0.1,0.1,0,0.3-0.1,0.3
			L115.6,32.4C115.7,32.4,115.6,32.4,115.6,32.4z"/>
		<path d="M251.5,150.4c-0.1,0-0.2-0.1-0.2-0.1c-0.1-0.1,0-0.3,0.1-0.3l21.2-9.2c0.1-0.1,0.3,0,0.3,0.1c0.1,0.1,0,0.3-0.1,0.3
			L251.5,150.4C251.5,150.4,251.5,150.4,251.5,150.4z"/>
	</g>
</g>
</svg>
